<svg width="60" height="60" viewBox="0 0 60 60" fill="none" xmlns="http://www.w3.org/2000/svg">
<path d="M50.2277 16.7212H9.40078C8.65843 16.7212 8.05664 17.323 8.05664 18.0653V44.3271C8.05664 45.0694 8.65843 45.6712 9.40078 45.6712H50.2277C50.9701 45.6712 51.5719 45.0694 51.5719 44.3271V18.0653C51.5719 17.323 50.9701 16.7212 50.2277 16.7212Z" fill="#DEE1EC"/>
<path d="M51.5719 18.0688V40.1271H8.05664V18.077C8.05664 17.7175 8.19949 17.3726 8.45376 17.1183C8.70804 16.864 9.0529 16.7212 9.4125 16.7212H50.2242C50.5816 16.7212 50.9244 16.8632 51.1772 17.1159C51.4299 17.3686 51.5719 17.7114 51.5719 18.0688Z" fill="#F5F5F5"/>
<path d="M51.5719 18.0688V40.1259H8.05664V18.0782C8.05649 17.9001 8.09144 17.7236 8.15951 17.559C8.22758 17.3944 8.32743 17.2448 8.45335 17.1187C8.57927 16.9927 8.72879 16.8927 8.89337 16.8245C9.05794 16.7563 9.23435 16.7212 9.4125 16.7212H50.2242C50.5816 16.7212 50.9244 16.8632 51.1772 17.1159C51.4299 17.3686 51.5719 17.7114 51.5719 18.0688Z" fill="#F5F5F5"/>
<path style="mix-blend-mode:multiply" d="M51.5719 18.0689V19.836H41.1422L36.8766 23.3095C36.768 23.397 36.6368 23.4521 36.4983 23.4682C36.3597 23.4844 36.2194 23.4611 36.0936 23.4009C35.9677 23.3407 35.8614 23.2462 35.787 23.1282C35.7126 23.0102 35.6731 22.8736 35.6731 22.7341V19.6239C35.0679 19.3984 34.539 19.006 34.1477 18.4923C33.7563 17.9786 33.5185 17.3645 33.4617 16.7212H50.2195C50.3969 16.7206 50.5727 16.755 50.7367 16.8224C50.9008 16.8899 51.0499 16.9891 51.1755 17.1143C51.3011 17.2395 51.4008 17.3882 51.4689 17.552C51.5369 17.7159 51.5719 17.8915 51.5719 18.0689Z" fill="url(#paint0_linear_62_2674)"/>
<path d="M52.1072 46.9287L52.6043 46.4316L54.1884 48.0157L53.6913 48.5128L52.1072 46.9287Z" fill="#31424F"/>
<path d="M53.5406 44.4805H55.7812V45.1836H53.5406V44.4805Z" fill="#31424F"/>
<path d="M50.3027 47.9141H51.0059V50.1547H50.3027V47.9141Z" fill="#31424F"/>
<path d="M9.92692 13.4879C9.68109 13.4874 9.44044 13.4172 9.23291 13.2854C9.02538 13.1536 8.85948 12.9657 8.75447 12.7434C8.64946 12.5211 8.60965 12.2736 8.63966 12.0296C8.66967 11.7856 8.76827 11.5552 8.92402 11.3649C9.07976 11.1747 9.28625 11.0326 9.51953 10.955C9.75281 10.8775 10.0033 10.8677 10.2419 10.9268C10.4806 10.9859 10.6975 11.1114 10.8677 11.2889C11.0378 11.4663 11.1541 11.6884 11.2031 11.9293C11.2418 12.1183 11.2378 12.3136 11.1915 12.5009C11.1453 12.6881 11.0578 12.8628 10.9356 13.012C10.8134 13.1613 10.6595 13.2815 10.485 13.3638C10.3105 13.4461 10.1198 13.4885 9.92692 13.4879ZM9.43239 11.859C9.37817 11.9407 9.34495 12.0346 9.33567 12.1323C9.3264 12.23 9.34136 12.3284 9.37923 12.4189C9.4171 12.5094 9.47671 12.5892 9.55278 12.6511C9.62885 12.7131 9.71902 12.7553 9.81532 12.7741C9.91161 12.7929 10.011 12.7876 10.1048 12.7588C10.1986 12.73 10.2838 12.6784 10.3529 12.6088C10.422 12.5391 10.4729 12.4535 10.501 12.3595C10.5291 12.2655 10.5336 12.1661 10.514 12.0699C10.4906 11.9543 10.4333 11.8483 10.3496 11.7652C10.2659 11.6822 10.1594 11.6258 10.0437 11.6032C9.9279 11.5806 9.80805 11.5929 9.69924 11.6384C9.59044 11.6839 9.49758 11.7607 9.43239 11.859Z" fill="#31424F"/>
<path d="M4.87616 16.9295C4.69362 16.9291 4.51458 16.8793 4.35805 16.7854C4.20152 16.6915 4.07332 16.557 3.98706 16.3961C3.90079 16.2352 3.85968 16.054 3.86808 15.8716C3.87647 15.6893 3.93407 15.5126 4.03475 15.3604C4.13141 15.2149 4.26415 15.0969 4.42001 15.018C4.57587 14.9392 4.74952 14.902 4.924 14.9103C5.09849 14.9186 5.26784 14.972 5.41554 15.0652C5.56323 15.1585 5.68421 15.2885 5.76667 15.4425C5.84913 15.5965 5.89025 15.7692 5.88601 15.9438C5.88177 16.1185 5.83232 16.289 5.74249 16.4388C5.65265 16.5886 5.52551 16.7126 5.37346 16.7986C5.22141 16.8846 5.04967 16.9297 4.87499 16.9295H4.87616ZM4.62186 15.7494C4.59424 15.7916 4.57741 15.8399 4.57287 15.8901C4.56834 15.9403 4.57623 15.9908 4.59585 16.0372C4.61547 16.0837 4.64622 16.1245 4.68538 16.1563C4.72454 16.188 4.77091 16.2096 4.8204 16.2192C4.86988 16.2287 4.92096 16.226 4.96912 16.2111C5.01729 16.1963 5.06105 16.1698 5.09656 16.134C5.13207 16.0982 5.15822 16.0543 5.17272 16.006C5.18721 15.9577 5.1896 15.9066 5.17967 15.8572C5.16718 15.7979 5.13745 15.7435 5.0942 15.701C5.05096 15.6584 4.99612 15.6296 4.93657 15.6181C4.87701 15.6066 4.81538 15.6129 4.7594 15.6363C4.70342 15.6596 4.65557 15.699 4.62186 15.7494Z" fill="#31424F"/>
<path d="M24.8133 45.6714H34.8141V51.2026H24.8133V45.6714Z" fill="#DEE1EC"/>
<path d="M35.9226 53.3891H23.7058C23.4219 53.3798 23.1527 53.2604 22.9551 53.0563C22.7576 52.8522 22.6471 52.5792 22.6471 52.2951C22.6471 52.011 22.7576 51.7381 22.9551 51.5339C23.1527 51.3298 23.4219 51.2105 23.7058 51.2012H35.9226C36.2065 51.2105 36.4757 51.3298 36.6733 51.5339C36.8709 51.7381 36.9813 52.011 36.9813 52.2951C36.9813 52.5792 36.8709 52.8522 36.6733 53.0563C36.4757 53.2604 36.2065 53.3798 35.9226 53.3891Z" fill="#DEE1EC"/>
<path d="M35.9226 53.7406H23.7058C23.3296 53.7299 22.9723 53.5729 22.71 53.303C22.4477 53.0331 22.3009 52.6715 22.3009 52.2951C22.3009 51.9187 22.4477 51.5571 22.71 51.2872C22.9723 51.0173 23.3296 50.8603 23.7058 50.8496H35.9226C36.2989 50.8603 36.6561 51.0173 36.9185 51.2872C37.1808 51.5571 37.3276 51.9187 37.3276 52.2951C37.3276 52.6715 37.1808 53.0331 36.9185 53.303C36.6561 53.5729 36.2989 53.7299 35.9226 53.7406ZM23.7058 51.5527C23.514 51.5604 23.3326 51.6419 23.1996 51.7803C23.0666 51.9187 22.9924 52.1032 22.9924 52.2951C22.9924 52.4871 23.0666 52.6715 23.1996 52.8099C23.3326 52.9483 23.514 53.0299 23.7058 53.0375H35.9226C36.1144 53.0299 36.2958 52.9483 36.4288 52.8099C36.5618 52.6715 36.6361 52.4871 36.6361 52.2951C36.6361 52.1032 36.5618 51.9187 36.4288 51.7803C36.2958 51.6419 36.1144 51.5604 35.9226 51.5527H23.7058Z" fill="#31424F"/>
<path style="mix-blend-mode:multiply" d="M24.8133 45.6714H34.8141V48.5296H24.8133V45.6714Z" fill="url(#paint1_linear_62_2674)"/>
<path d="M35.1656 51.553H24.4617V45.3198H35.1656V51.553ZM25.1649 50.8499H34.4625V46.0229H25.1649V50.8499Z" fill="#31424F"/>
<path d="M50.2266 46.0228H9.40078C8.95104 46.0221 8.51991 45.8431 8.20201 45.525C7.8841 45.2069 7.70539 44.7756 7.70508 44.3259V18.0653C7.70539 17.6157 7.88414 17.1846 8.20208 16.8666C8.52002 16.5487 8.95115 16.3699 9.40078 16.3696H50.2266C50.6763 16.3699 51.1076 16.5487 51.4257 16.8666C51.7438 17.1845 51.9228 17.6156 51.9234 18.0653V44.3259C51.9231 44.7758 51.7442 45.2073 51.4261 45.5254C51.1079 45.8436 50.6765 46.0224 50.2266 46.0228ZM9.40078 17.0774C9.13763 17.0778 8.88534 17.1824 8.69926 17.3685C8.51319 17.5546 8.40851 17.8069 8.4082 18.07V44.3259C8.4082 44.5892 8.51274 44.8418 8.69885 45.0282C8.88496 45.2145 9.13743 45.3193 9.40078 45.3196H50.2266C50.3571 45.3196 50.4863 45.2939 50.6069 45.244C50.7274 45.194 50.837 45.1208 50.9292 45.0286C51.0215 44.9363 51.0947 44.8267 51.1447 44.7062C51.1946 44.5856 51.2203 44.4564 51.2203 44.3259V18.0653C51.22 17.802 51.1152 17.5495 50.9288 17.3634C50.7425 17.1773 50.4899 17.0728 50.2266 17.0728L9.40078 17.0774Z" fill="#31424F"/>
<path d="M29.8136 44.2087C30.5372 44.2087 31.1238 43.6221 31.1238 42.8985C31.1238 42.175 30.5372 41.5884 29.8136 41.5884C29.0901 41.5884 28.5035 42.175 28.5035 42.8985C28.5035 43.6221 29.0901 44.2087 29.8136 44.2087Z" fill="#31424F"/>
<path d="M30.2414 20.2476L23.7305 23.6976L30.2414 27.1487L36.7523 23.6976L30.2414 20.2476Z" fill="url(#paint2_linear_62_2674)"/>
<path d="M23.7305 23.6973V30.5984L30.2414 34.0496V27.1484L23.7305 23.6973Z" fill="url(#paint3_linear_62_2674)"/>
<path d="M36.7523 23.6973V30.5984L30.2414 34.0496V27.1484L36.7523 23.6973Z" fill="url(#paint4_linear_62_2674)"/>
<path d="M30.2414 34.4531L23.3789 30.8203V23.4961L30.2414 19.8633L37.1039 23.4961V30.8203L30.2414 34.4531ZM24.082 30.3879L30.2414 33.6527L36.4008 30.3879V23.9062L30.2414 20.6414L24.082 23.9062V30.3879Z" fill="#31424F"/>
<path d="M12.1089 20.2476H17.6168V23.7257H12.1089V20.2476Z" fill="#F5F5F5"/>
<path d="M12.1089 20.2476H17.6168V23.7257H12.1089V20.2476Z" fill="#A9AFC4"/>
<path d="M12.1089 23.7256H17.6168V36.601H12.1089V23.7256Z" fill="#F5F5F5"/>
<path d="M17.9683 36.9525H11.7574V23.374H17.9683V36.9525ZM12.4605 36.2494H17.2652V24.0771H12.4605V36.2494Z" fill="#31424F"/>
<path d="M42.4886 20.2476H47.3965V22.3054H42.4886V20.2476Z" fill="#A9AFC4"/>
<path d="M47.748 28.7751H42.1371V21.9536H47.748V28.7751ZM42.8402 28.072H47.0449V22.6567H42.8402V28.072Z" fill="#31424F"/>
<path d="M42.4886 28.4238H47.3965V30.4816H42.4886V28.4238Z" fill="#A9AFC4"/>
<path d="M17.9683 24.0772H11.7574V19.896H17.9683V24.0772ZM12.4605 23.3741H17.2652V20.5991H12.4605V23.3741Z" fill="#31424F"/>
<path d="M47.748 22.6569H42.1371V19.896H47.748V22.6569ZM42.8402 21.9538H47.0449V20.5991H42.8402V21.9538Z" fill="#31424F"/>
<path d="M47.748 30.8344H42.1371V28.0723H47.748V30.8344ZM42.8402 30.1312H47.0449V28.7754H42.8402V30.1312Z" fill="#31424F"/>
<path d="M47.748 36.9523H42.1371V30.1309H47.748V36.9523ZM42.8402 36.2492H47.0449V30.834H42.8402V36.2492Z" fill="#31424F"/>
<path d="M24.0644 34.5421C22.3535 33.5085 21.4113 32.1163 21.4113 30.621C21.4155 29.9639 21.5951 29.3198 21.9316 28.7554C22.2363 28.9522 22.1015 28.8726 22.534 29.1187C22.2638 29.5736 22.1191 30.0919 22.1144 30.621C22.1144 33.2495 25.7601 35.3894 30.2414 35.3894C33.3422 35.3894 36.218 34.3183 37.575 32.6612C38.5125 31.5104 38.5922 30.2413 37.9465 29.1187L38.557 28.7671C39.3961 30.2272 39.1769 31.814 38.1187 33.103C35.4246 36.4042 28.3008 37.1003 24.0644 34.5421Z" fill="#31424F"/>
<path d="M54.4922 16.4283V8.19121C54.4922 7.98351 54.4513 7.77785 54.3717 7.58597C54.2922 7.3941 54.1757 7.21977 54.0288 7.07296C53.8818 6.92615 53.7074 6.80973 53.5155 6.73035C53.3236 6.65097 53.1179 6.6102 52.9102 6.61035H36.8555C36.6478 6.6102 36.4421 6.65097 36.2501 6.73035C36.0582 6.80973 35.8838 6.92615 35.7369 7.07296C35.59 7.21977 35.4734 7.3941 35.3939 7.58597C35.3144 7.77785 35.2734 7.98351 35.2734 8.19121V16.4283C35.2734 16.636 35.3144 16.8417 35.3939 17.0336C35.4734 17.2254 35.59 17.3998 35.7369 17.5466C35.8838 17.6934 36.0582 17.8098 36.2501 17.8892C36.4421 17.9686 36.6478 18.0093 36.8555 18.0092H37.5V20.449L40.4941 18.0092H52.916C53.3345 18.0079 53.7354 17.8408 54.0308 17.5445C54.3263 17.2482 54.4922 16.8468 54.4922 16.4283Z" fill="#F5F5F5"/>
<path d="M39.4793 13.0074V11.8156C39.6359 11.8154 39.789 11.7687 39.9191 11.6815C40.0492 11.5944 40.1506 11.4706 40.2103 11.3258C40.2701 11.181 40.2856 11.0218 40.2549 10.8682C40.2242 10.7146 40.1487 10.5735 40.0379 10.4629C39.927 10.3522 39.7859 10.2769 39.6322 10.2464C39.4786 10.2159 39.3194 10.2317 39.1747 10.2917C39.03 10.3517 38.9064 10.4532 38.8194 10.5834C38.7324 10.7137 38.6859 10.8668 38.6859 11.0234H37.5C37.5009 10.6322 37.6178 10.25 37.8358 9.92508C38.0539 9.6002 38.3633 9.34724 38.7251 9.19815C39.0868 9.04906 39.4847 9.01053 39.8683 9.08743C40.2519 9.16433 40.6042 9.35321 40.8805 9.63021C41.1569 9.9072 41.3449 10.2599 41.4209 10.6437C41.4969 11.0275 41.4574 11.4253 41.3075 11.7866C41.1575 12.148 40.9038 12.4569 40.5784 12.6742C40.2531 12.8915 39.8706 13.0074 39.4793 13.0074Z" fill="#C44E47"/>
<path d="M39.4793 15.7745C38.9545 15.7742 38.4512 15.5656 38.0801 15.1944C37.7089 14.8233 37.5003 14.3201 37.5 13.7952H38.6859C38.6857 13.9522 38.732 14.1057 38.8191 14.2363C38.9061 14.3669 39.0299 14.4688 39.1749 14.529C39.3198 14.5892 39.4794 14.6051 39.6334 14.5746C39.7873 14.5442 39.9288 14.4687 40.0399 14.3578C40.1509 14.2469 40.2266 14.1055 40.2573 13.9516C40.288 13.7977 40.2724 13.6381 40.2124 13.4931C40.1524 13.348 40.0507 13.224 39.9202 13.1368C39.7897 13.0496 39.6363 13.003 39.4793 13.003H38.9766V11.8159H39.4793C40.0042 11.8159 40.5077 12.0245 40.8789 12.3956C41.2501 12.7668 41.4586 13.2703 41.4586 13.7952C41.4586 14.3202 41.2501 14.8236 40.8789 15.1948C40.5077 15.566 40.0042 15.7745 39.4793 15.7745Z" fill="#C44E47"/>
<path d="M44.3332 15.7745C43.8032 15.768 43.2973 15.5518 42.9263 15.1731C42.5554 14.7945 42.3495 14.2843 42.3539 13.7542V11.0589C42.3513 10.799 42.3999 10.5411 42.497 10.2999C42.594 10.0588 42.7376 9.83913 42.9196 9.65348C43.287 9.27855 43.7884 9.06495 44.3133 9.05967C44.8382 9.05439 45.3438 9.25785 45.7187 9.62531C46.0936 9.99276 46.3072 10.4941 46.3125 11.019H45.1254C45.1249 10.9123 45.1028 10.8068 45.0604 10.7089C45.0181 10.6109 44.9563 10.5226 44.8789 10.4491C44.8015 10.3756 44.7101 10.3186 44.61 10.2814C44.51 10.2442 44.4035 10.2277 44.2969 10.2327C44.0893 10.2497 43.8959 10.3449 43.7559 10.4992C43.616 10.6535 43.54 10.8553 43.5434 11.0636V11.7081C43.841 11.5827 44.1646 11.5316 44.4863 11.5591C44.808 11.5866 45.1183 11.6918 45.3903 11.8658C45.6623 12.0398 45.888 12.2774 46.0478 12.5579C46.2076 12.8385 46.2969 13.1537 46.3078 13.4765V13.78C46.31 14.0408 46.2605 14.2995 46.1623 14.5412C46.0641 14.7829 45.919 15.0027 45.7355 15.1881C45.552 15.3735 45.3336 15.5207 45.0929 15.6214C44.8523 15.722 44.5941 15.7741 44.3332 15.7745ZM43.541 13.4858V13.7542C43.5341 13.9137 43.5753 14.0717 43.6594 14.2074C43.7434 14.3432 43.8664 14.4506 44.0122 14.5156C44.1581 14.5805 44.3201 14.6001 44.4773 14.5717C44.6344 14.5434 44.7794 14.4684 44.8934 14.3565C44.9682 14.2828 45.0275 14.1949 45.0677 14.0978C45.108 14.0008 45.1284 13.8967 45.1277 13.7917V13.5151C45.1178 13.3087 45.0303 13.1137 44.8828 12.969C44.7353 12.8243 44.5386 12.7406 44.332 12.7347C44.1281 12.7315 43.9311 12.8083 43.7832 12.9488C43.6353 13.0892 43.5484 13.282 43.541 13.4858Z" fill="#C44E47"/>
<path d="M49.2258 15.7745C48.701 15.7739 48.1979 15.5652 47.8269 15.1941C47.4558 14.823 47.2471 14.32 47.2465 13.7952V11.0237C47.2465 10.4988 47.455 9.99535 47.8262 9.62416C48.1974 9.25297 48.7008 9.04443 49.2258 9.04443C49.7507 9.04443 50.2541 9.25297 50.6253 9.62416C50.9965 9.99535 51.2051 10.4988 51.2051 11.0237V13.7952C51.2044 14.32 50.9957 14.823 50.6246 15.1941C50.2536 15.5652 49.7505 15.7739 49.2258 15.7745ZM49.2258 10.2315C49.0157 10.2315 48.8142 10.315 48.6656 10.4636C48.517 10.6121 48.4336 10.8136 48.4336 11.0237V13.7952C48.4336 13.8992 48.4541 14.0023 48.4939 14.0984C48.5337 14.1945 48.592 14.2818 48.6656 14.3554C48.7392 14.4289 48.8265 14.4873 48.9226 14.5271C49.0187 14.5669 49.1217 14.5874 49.2258 14.5874C49.3298 14.5874 49.4328 14.5669 49.5289 14.5271C49.625 14.4873 49.7124 14.4289 49.7859 14.3554C49.8595 14.2818 49.9178 14.1945 49.9576 14.0984C49.9975 14.0023 50.0179 13.8992 50.0179 13.7952V11.0237C50.0179 10.8136 49.9345 10.6121 49.7859 10.4636C49.6374 10.315 49.4359 10.2315 49.2258 10.2315Z" fill="#C44E47"/>
<path d="M52.2832 9.80039C52.5285 9.80039 52.7273 9.60154 52.7273 9.35625C52.7273 9.11096 52.5285 8.91211 52.2832 8.91211C52.0379 8.91211 51.8391 9.11096 51.8391 9.35625C51.8391 9.60154 52.0379 9.80039 52.2832 9.80039Z" fill="#C44E47"/>
<path d="M37.1484 21.1885V18.3607H36.8578C36.3449 18.3611 35.8528 18.1577 35.4898 17.7953C35.1268 17.4329 34.9225 16.9412 34.9219 16.4283V8.19121C34.9225 7.67869 35.1265 7.18735 35.489 6.82505C35.8515 6.46276 36.3429 6.2591 36.8555 6.25879H52.9102C53.4227 6.2591 53.9141 6.46276 54.2767 6.82505C54.6392 7.18735 54.8431 7.67869 54.8438 8.19121V16.4283C54.8431 16.9406 54.6393 17.4318 54.2771 17.7941C53.9148 18.1563 53.4236 18.3601 52.9113 18.3607H40.6195L37.1484 21.1885ZM36.8578 6.96191C36.5314 6.9616 36.2181 7.09091 35.987 7.32141C35.7558 7.55191 35.6256 7.86476 35.625 8.19121V16.4283C35.6256 16.7544 35.7555 17.0669 35.9862 17.2973C36.2168 17.5277 36.5294 17.6573 36.8555 17.6576H37.8516V19.7096L40.3699 17.6576H52.909C53.0706 17.6578 53.2306 17.6261 53.38 17.5644C53.5293 17.5027 53.665 17.4122 53.7794 17.298C53.8938 17.1839 53.9845 17.0483 54.0465 16.8991C54.1085 16.7499 54.1405 16.5899 54.1406 16.4283V8.19121C54.1403 7.86507 54.0105 7.5524 53.7798 7.3219C53.5491 7.09139 53.2363 6.96191 52.9102 6.96191H36.8578Z" fill="#31424F"/>
<path d="M20.332 48.7886H19.6289V48.0854H20.332V48.7886ZM18.457 48.7886H17.7539V48.0854H18.457V48.7886ZM16.582 48.7886H15.8789V48.0854H16.582V48.7886ZM14.707 48.7886H14.0039V48.0854H14.707V48.7886ZM12.832 48.7886H12.1289V48.0854H12.832V48.7886ZM10.957 48.7886H10.2539V48.0854H10.957V48.7886ZM9.08204 48.7886C8.82597 48.7862 8.57064 48.7607 8.31915 48.7124L8.45275 48.0222C8.66177 48.0621 8.87394 48.0832 9.08673 48.0854L9.08204 48.7886ZM7.11681 48.2812C6.89265 48.1568 6.68042 48.012 6.48282 47.8487L6.93165 47.3073C7.09538 47.4426 7.27111 47.5626 7.45665 47.6659L7.11681 48.2812ZM5.63673 46.889C5.4986 46.673 5.3809 46.4447 5.28517 46.2069L5.93673 45.9444C6.01651 46.1415 6.11459 46.3306 6.2297 46.5093L5.63673 46.889ZM4.99806 44.9636C4.984 44.7644 4.98751 44.6425 4.98751 44.2358H5.69064C5.69064 44.6495 5.69064 44.7503 5.70001 44.9144L4.99806 44.9636ZM5.69064 43.064H4.98751V42.3608H5.69064V43.064ZM5.69064 41.189H4.98751V40.4858H5.69064V41.189Z" fill="#A9AFC4"/>
<path d="M16.3441 53.0376H46.7695V53.7407H16.3441V53.0376Z" fill="#31424F"/>
<defs>
<linearGradient id="paint0_linear_62_2674" x1="33.4617" y1="20.0985" x2="51.5719" y2="20.0985" gradientUnits="userSpaceOnUse">
<stop stop-color="#CACFDD"/>
<stop offset="1" stop-color="#EEF0F1"/>
</linearGradient>
<linearGradient id="paint1_linear_62_2674" x1="24.8133" y1="47.1011" x2="34.8141" y2="47.1011" gradientUnits="userSpaceOnUse">
<stop stop-color="#CACFDD"/>
<stop offset="1" stop-color="#EEF0F1"/>
</linearGradient>
<linearGradient id="paint2_linear_62_2674" x1="30.2414" y1="16.187" x2="30.2414" y2="29.1374" gradientUnits="userSpaceOnUse">
<stop stop-color="#CACFDD"/>
<stop offset="0.82" stop-color="#EEF0F1"/>
</linearGradient>
<linearGradient id="paint3_linear_62_2674" x1="22.5363" y1="28.8734" x2="31.568" y2="28.8734" gradientUnits="userSpaceOnUse">
<stop stop-color="#A9AFC4"/>
<stop offset="1" stop-color="#D4D8E5"/>
</linearGradient>
<linearGradient id="paint4_linear_62_2674" x1="30.2308" y1="28.8734" x2="40.0816" y2="28.8734" gradientUnits="userSpaceOnUse">
<stop stop-color="#A9AFC4"/>
<stop offset="1" stop-color="#D4D8E5"/>
</linearGradient>
</defs>
</svg>
