<svg width="100" height="100" viewBox="0 0 100 100" fill="none" xmlns="http://www.w3.org/2000/svg">
<path d="M70.8105 38.9356C63.3516 42.5313 65.375 41.4629 45.332 54.9297L43.5547 52.2735C44.0977 51.9122 41.084 53.9317 51.9961 46.6094C57.7969 42.9219 65.1895 38.6817 69.416 38.0333C69.6702 37.9911 69.9313 38.0313 70.1611 38.1479C70.3909 38.2646 70.5774 38.4516 70.6934 38.6817L70.8105 38.9356Z" fill="#DEE1EC"/>
<path d="M45.1719 55.7422L42.7305 52.1113C43.4609 51.627 41.9609 52.6328 51.6621 46.1172C57.3047 42.5293 64.9434 38.1211 69.3184 37.4492C69.6966 37.3905 70.0837 37.4535 70.4238 37.629C70.764 37.8045 71.0396 38.0835 71.2109 38.4258L71.5918 39.207C63.6719 43.0313 66.2383 41.5899 45.1719 55.7422ZM44.3594 52.4317L45.4922 54.1152C64.5645 41.3027 63.207 41.9512 69.9492 38.7012C69.8145 38.6161 69.6535 38.5828 69.4961 38.6074C66.1855 39.1152 60.2402 42.0508 52.3086 47.0977L44.3594 52.4317Z" fill="#31424F"/>
<path d="M82.002 51.9179C83.6758 54.332 81.9707 57.7168 78.9648 57.7168C78.0063 57.7162 77.0855 57.3431 76.397 56.6761C75.7085 56.0091 75.3063 55.1006 75.2754 54.1425C73.9887 54.5363 72.5999 54.4202 71.3965 53.8183C71.2163 54.5322 70.8304 55.1775 70.2866 55.6739C69.7429 56.1703 69.0653 56.4961 68.3379 56.6107C67.6106 56.7253 66.8657 56.6238 66.1956 56.3186C65.5255 56.0135 64.9598 55.5182 64.5688 54.8944C64.1778 54.2705 63.9787 53.5455 63.9962 52.8094C64.0137 52.0733 64.247 51.3586 64.6672 50.754C65.0875 50.1494 65.676 49.6816 66.3599 49.4086C67.0437 49.1357 67.7926 49.0697 68.5137 49.2187C68.5019 48.3915 68.6867 47.5732 69.0529 46.8313C69.419 46.0894 69.956 45.4451 70.6198 44.9512C71.2836 44.4573 72.0551 44.1281 72.8709 43.9906C73.6867 43.853 74.5235 43.9112 75.3125 44.1601C75.4632 42.8085 76.005 41.5302 76.8715 40.4819C77.738 39.4337 78.8915 38.661 80.1907 38.2588C81.4899 37.8565 82.8782 37.842 84.1854 38.2172C85.4927 38.5923 86.6621 39.3408 87.5502 40.3707C88.4383 41.4007 89.0066 42.6675 89.1854 44.0157C89.3642 45.3639 89.1457 46.735 88.5567 47.9609C87.9677 49.1867 87.0338 50.2141 85.8695 50.9169C84.7052 51.6198 83.3611 51.9677 82.002 51.9179Z" fill="#F5F5F5"/>
<path style="mix-blend-mode:multiply" d="M76.9531 48.6797C76.8652 48.6113 74.2637 46.6035 73.9082 43.9238C74.3855 43.9381 74.8587 44.0176 75.3144 44.1602C75.3483 43.8548 75.4025 43.5521 75.4766 43.2539L75.918 43.4004C75.918 43.4004 75.3145 46.5977 76.9531 48.6797Z" fill="url(#paint0_linear_56_320)"/>
<path style="mix-blend-mode:multiply" d="M72.6426 54.2539C72.2103 54.1628 71.7915 54.0164 71.3965 53.8184C71.3783 53.8861 71.3587 53.9544 71.3379 54.0234L70.8496 53.6953C70.8496 53.6953 71.4355 52.6152 70.5586 50.9727C71.6536 51.7537 72.4012 52.9307 72.6426 54.2539Z" fill="url(#paint1_linear_56_320)"/>
<path d="M78.9648 58.3028C77.9754 58.3065 77.0155 57.9656 76.2499 57.3387C75.4844 56.7118 74.961 55.838 74.7695 54.8672C73.757 55.048 72.7148 54.9584 71.748 54.6074C71.4368 55.3371 70.9318 55.9677 70.2876 56.4307C69.6435 56.8937 68.8848 57.1714 68.094 57.2338C67.3031 57.2962 66.5103 57.1408 65.8015 56.7845C65.0928 56.4282 64.4951 55.8846 64.0734 55.2127C63.6516 54.5408 63.422 53.7663 63.4092 52.9731C63.3965 52.1799 63.6013 51.3984 64.0013 50.7133C64.4013 50.0282 64.9812 49.4658 65.6782 49.087C66.3752 48.7082 67.1626 48.5275 67.9551 48.5645C68.0367 47.7619 68.2843 46.9852 68.6821 46.2834C69.0799 45.5816 69.6192 44.9702 70.2658 44.4879C70.9125 44.0057 71.6523 43.6631 72.4383 43.4819C73.2244 43.3008 74.0395 43.285 74.832 43.4356C75.1103 42.0596 75.7655 40.788 76.7245 39.7628C77.6835 38.7376 78.9085 37.9991 80.2629 37.6297C81.6172 37.2603 83.0476 37.2746 84.3943 37.6709C85.741 38.0672 86.9511 38.83 87.8894 39.8742C88.8278 40.9183 89.4575 42.2026 89.7083 43.5839C89.9591 44.9651 89.8211 46.3889 89.3097 47.6962C88.7983 49.0036 87.9336 50.1431 86.8122 50.9876C85.6908 51.832 84.3567 52.3482 82.959 52.4785C83.2057 53.1273 83.2916 53.8262 83.2093 54.5154C83.127 55.2046 82.8789 55.8637 82.4864 56.4361C82.0938 57.0085 81.5684 57.4774 80.9551 57.8024C80.3418 58.1275 79.6589 58.2992 78.9648 58.3028ZM75.8398 53.3574L75.8652 54.1231C75.8819 54.6054 76.0107 55.0771 76.2414 55.501C76.4721 55.9249 76.7984 56.2892 77.1943 56.5651C77.5902 56.841 78.045 57.0208 78.5225 57.0905C79.0001 57.1601 79.4873 57.1175 79.9455 56.9661C80.4037 56.8148 80.8204 56.5587 81.1625 56.2184C81.5046 55.878 81.7627 55.4626 81.9164 55.0052C82.0701 54.5477 82.1151 54.0607 82.0479 53.5829C81.9807 53.105 81.8032 52.6493 81.5293 52.252L80.8594 51.291L82.0547 51.334C83.2988 51.3745 84.5279 51.0515 85.5913 50.4044C86.6547 49.7573 87.5064 48.8142 88.0422 47.6906C88.578 46.5669 88.7746 45.3115 88.6079 44.0778C88.4412 42.8442 87.9185 41.6859 87.1038 40.7447C86.289 39.8036 85.2176 39.1203 84.0206 38.7786C82.8235 38.4369 81.5529 38.4516 80.3641 38.8209C79.1752 39.1901 78.1199 39.8979 77.3271 40.8577C76.5343 41.8174 76.0385 42.9875 75.9004 44.2246L75.8222 44.9336L75.1367 44.7266C74.4414 44.5081 73.7044 44.4563 72.9854 44.5754C72.2663 44.6944 71.5854 44.9809 70.9975 45.4117C70.4097 45.8425 69.9314 46.4056 69.6013 47.0554C69.2713 47.7052 69.0988 48.4235 69.0976 49.1524V49.9492C68.6558 49.8315 68.2028 49.7608 67.7461 49.7383C67.1513 49.7375 66.5683 49.9038 66.0635 50.2183C65.5586 50.5328 65.1524 50.9828 64.8909 51.517C64.6295 52.0512 64.5234 52.6481 64.5848 53.2397C64.6462 53.8313 64.8726 54.3937 65.2381 54.8629C65.6037 55.3321 66.0937 55.689 66.6524 55.8932C67.211 56.0973 67.8158 56.1403 68.3977 56.0174C68.9796 55.8945 69.5153 55.6105 69.9436 55.1979C70.3719 54.7852 70.6757 54.2605 70.8203 53.6836L70.998 52.9746C71.8164 53.3848 72.5117 53.7949 73.7324 53.7949C74.5605 53.7871 75.0469 53.5996 75.8359 53.3574H75.8398Z" fill="#31424F"/>
<path d="M70.3398 63.248C68.8359 62.3066 67.2943 61.4362 65.7148 60.6367C62.5898 59.0547 62.3105 59.0313 44.0117 51.8027L31.3027 35.6602C29.6445 33.502 27.9434 31.9492 25.4434 31.9492H7.53516V78.5156H66.4062C67.4445 78.5158 68.448 78.1413 69.2324 77.4609L70.9336 75.9883C71.4276 75.5611 71.8303 75.0385 72.1172 74.4518C72.4042 73.8651 72.5696 73.2265 72.6035 72.5742C72.6152 72.4141 72.6035 72.7695 72.6035 67.3613C72.6033 66.5405 72.3957 65.7331 71.9999 65.014C71.6042 64.2949 71.0332 63.6874 70.3398 63.248Z" fill="#DEE1EC"/>
<path d="M66.4062 79.1016H7.53516V77.9297H66.4062C67.3039 77.9297 68.1715 77.6058 68.8496 77.0176L70.5488 75.5469C70.9823 75.1699 71.3358 74.7098 71.5885 74.1939C71.8411 73.6779 71.9876 73.1166 72.0195 72.543C72.0293 72.3926 72.0195 72.8027 72.0195 67.3613C72.0178 66.637 71.833 65.9249 71.4823 65.2911C71.1317 64.6573 70.6264 64.1225 70.0137 63.7363C67.0403 61.8733 63.9021 60.2872 60.6387 58.998L43.6328 52.2812L30.8281 36.0156C29.2207 33.9219 27.6875 32.5332 25.4219 32.5332H7.53516V31.3613H25.4375C28.3457 31.3613 30.1992 33.252 31.7676 35.2969L44.375 51.3125L61.084 57.9121C64.4153 59.2271 67.6189 60.8452 70.6543 62.7461C71.4353 63.2379 72.0792 63.9194 72.5258 64.727C72.9725 65.5347 73.2075 66.4423 73.209 67.3652V72.6152C73.1679 73.3449 72.9809 74.0589 72.6592 74.715C72.3375 75.3712 71.8876 75.9562 71.3359 76.4356L69.6367 77.9082C68.7395 78.6833 67.5919 79.1072 66.4062 79.1016Z" fill="#31424F"/>
<path d="M7.03125 89.5254H83.166V90.6973H7.03125V89.5254Z" fill="#31424F"/>
<path d="M24.7559 59.8906H15.0918V59.6699C15.0923 58.9331 15.3854 58.2267 15.9065 57.7059C16.4277 57.1851 17.1343 56.8926 17.8711 56.8926H21.9727C22.7094 56.8926 23.4161 57.1851 23.9372 57.7059C24.4584 58.2267 24.7514 58.9331 24.752 59.6699L24.7559 59.8906Z" fill="#31424F"/>
<path d="M27.7852 37.2832C27.0879 36.4063 26.418 35.7754 25.4043 35.7754H7.53516V52.6133H40.0781L27.7852 37.2832Z" fill="#F5F5F5"/>
<path d="M73.3145 80.8047H52.5391V73.0859H73.3145C73.8805 73.0865 74.4232 73.3115 74.8234 73.7118C75.2236 74.112 75.4487 74.6547 75.4492 75.2207V78.6699C75.4487 79.2359 75.2236 79.7786 74.8234 80.1789C74.4232 80.5791 73.8805 80.8042 73.3145 80.8047Z" fill="#A9AFC4"/>
<path d="M73.3145 81.3906H51.9531V72.5H73.3145C74.0349 72.5036 74.7249 72.7914 75.2343 73.3008C75.7438 73.8103 76.0316 74.5002 76.0352 75.2207V78.6699C76.0316 79.3904 75.7438 80.0803 75.2343 80.5898C74.7249 81.0992 74.0349 81.387 73.3145 81.3906ZM53.1309 80.2187H73.3145C73.7251 80.2182 74.1187 80.0549 74.4091 79.7645C74.6994 79.4742 74.8628 79.0805 74.8633 78.6699V75.2207C74.8628 74.8101 74.6994 74.4164 74.4091 74.1261C74.1187 73.8357 73.7251 73.6724 73.3145 73.6719H53.125L53.1309 80.2187Z" fill="#31424F"/>
<path d="M43.2715 89.4551C49.3089 89.4551 54.2031 84.5608 54.2031 78.5234C54.2031 72.4861 49.3089 67.5918 43.2715 67.5918C37.2341 67.5918 32.3398 72.4861 32.3398 78.5234C32.3398 84.5608 37.2341 89.4551 43.2715 89.4551Z" fill="#A9AFC4"/>
<path d="M43.2715 90.0391C40.9924 90.0391 38.7644 89.3632 36.8694 88.097C34.9744 86.8308 33.4974 85.0311 32.6252 82.9255C31.753 80.8198 31.5248 78.5028 31.9695 76.2675C32.4141 74.0322 33.5116 71.9789 35.1232 70.3673C36.7348 68.7557 38.7881 67.6582 41.0234 67.2136C43.2587 66.769 45.5757 66.9972 47.6813 67.8694C49.787 68.7415 51.5867 70.2185 52.8529 72.1135C54.1191 74.0086 54.7949 76.2365 54.7949 78.5156C54.7949 81.5718 53.5809 84.5029 51.4198 86.6639C49.2587 88.825 46.3277 90.0391 43.2715 90.0391ZM43.2715 68.1758C41.2241 68.1758 39.2228 68.7829 37.5205 69.9203C35.8182 71.0578 34.4914 72.6745 33.7079 74.566C32.9244 76.4575 32.7194 78.5388 33.1188 80.5468C33.5182 82.5548 34.5041 84.3993 35.9518 85.847C37.3995 87.2947 39.244 88.2806 41.252 88.68C43.26 89.0794 45.3414 88.8744 47.2329 88.0909C49.1244 87.3075 50.7411 85.9807 51.8785 84.2784C53.0159 82.5761 53.6231 80.5747 53.6231 78.5273C53.6225 75.7823 52.5317 73.1498 50.5905 71.209C48.6492 69.2681 46.0166 68.1777 43.2715 68.1777V68.1758Z" fill="#31424F"/>
<path d="M43.2715 83.3184C45.9196 83.3184 48.0664 81.1716 48.0664 78.5234C48.0664 75.8753 45.9196 73.7285 43.2715 73.7285C40.6233 73.7285 38.4766 75.8753 38.4766 78.5234C38.4766 81.1716 40.6233 83.3184 43.2715 83.3184Z" fill="#31424F"/>
<path d="M10.2285 35.7754H11.4004V78.5234H10.2285V35.7754Z" fill="#31424F"/>
<path style="mix-blend-mode:multiply" d="M26.8945 36.3281L13.9316 52.6133H7.25391L20.6602 35.7754H25.4023C25.9498 35.7753 26.4792 35.9714 26.8945 36.3281Z" fill="url(#paint2_linear_56_320)"/>
<path style="mix-blend-mode:multiply" d="M34.2988 45.4063L28.5605 52.6133H23.8066L31.9141 42.4336L34.2988 45.4063Z" fill="url(#paint3_linear_56_320)"/>
<path d="M41.2988 53.1992H7.53516V52.0273H38.8672L27.3438 37.6504C26.6953 36.834 26.1719 36.3613 25.4199 36.3613H7.53516V35.1895H25.4043C26.7578 35.1895 27.5801 36.082 28.2441 36.9199L41.2988 53.1992Z" fill="#31424F"/>
<path d="M72.6191 67.873V73.0859H65.625C65.2852 73.0859 64.9593 72.9509 64.719 72.7107C64.4787 72.4704 64.3438 72.1445 64.3438 71.8047V69.3359C64.3439 69.1449 64.3868 68.9563 64.4692 68.7839C64.5517 68.6116 64.6716 68.4598 64.8203 68.3398L66.0781 67.3223C66.3063 67.1375 66.5911 67.0368 66.8848 67.0371H72.5488C72.5972 67.3131 72.6207 67.5929 72.6191 67.873Z" fill="#F5F5F5"/>
<path d="M73.1621 73.6719H65.625C65.1299 73.6714 64.6553 73.4745 64.3053 73.1244C63.9552 72.7744 63.7583 72.2997 63.7578 71.8047V69.3359C63.7585 69.0584 63.8213 68.7846 63.9416 68.5345C64.0619 68.2844 64.2367 68.0644 64.4531 67.8906L65.7129 66.8711C66.0449 66.6036 66.4584 66.4575 66.8848 66.457H73.0469C73.2617 67.6602 73.2148 66.8477 73.2148 72.8262C73.2051 73.0469 73.1973 73.1035 73.1621 73.6719ZM66.8848 67.6289C66.7256 67.6291 66.5713 67.6835 66.4473 67.7832L65.1875 68.8008C65.1068 68.8659 65.0417 68.9484 64.9971 69.042C64.9525 69.1356 64.9295 69.2381 64.9297 69.3418V71.8047C64.9302 71.9889 65.0036 72.1655 65.1339 72.2958C65.2642 72.4261 65.4407 72.4995 65.625 72.5H72.0332C72.0332 67.4473 72.0332 67.7988 72.0332 67.6289H66.8848Z" fill="#31424F"/>
<path d="M63.373 33.3359H49.8047L47.0703 37.5332L44.3359 33.3359H38.7168C37.8585 33.3359 37.0353 32.995 36.4284 32.388C35.8214 31.7811 35.4805 30.9579 35.4805 30.0996V10.8867C35.4805 10.0284 35.8214 9.20522 36.4284 8.59829C37.0353 7.99136 37.8585 7.65039 38.7168 7.65039H63.373C64.23 7.65246 65.0512 7.99434 65.6564 8.60105C66.2617 9.20775 66.6016 10.0297 66.6016 10.8867V30.0996C66.6016 30.9566 66.2617 31.7786 65.6564 32.3853C65.0512 32.992 64.23 33.3339 63.373 33.3359Z" fill="#F5F5F5"/>
<path d="M49.0061 25.3365L44.4241 20.7545L46.1467 19.0338L49.0061 21.8951L55.5061 15.3951L57.2288 17.1158L49.0061 25.3365Z" fill="#C44E47"/>
<path d="M47.0703 38.6055L44.0156 33.918H38.7168C37.7034 33.9169 36.7318 33.5139 36.0152 32.7973C35.2986 32.0807 34.8956 31.1091 34.8945 30.0957V10.8867C34.8956 9.87331 35.2986 8.9017 36.0152 8.18511C36.7318 7.46852 37.7034 7.06549 38.7168 7.06445H63.373C64.3851 7.06755 65.3547 7.4715 66.0696 8.18786C66.7845 8.90423 67.1865 9.87466 67.1875 10.8867V30.0996C67.1865 31.113 66.7834 32.0846 66.0668 32.8012C65.3503 33.5178 64.3786 33.9208 63.3652 33.9219H50.1172L47.0703 38.6055ZM38.7168 8.23633C38.0142 8.23736 37.3407 8.51693 36.8438 9.01375C36.347 9.51057 36.0674 10.1841 36.0664 10.8867V30.0996C36.0674 30.8022 36.347 31.4758 36.8438 31.9726C37.3407 32.4694 38.0142 32.749 38.7168 32.75H44.6426L47.0625 36.4609L49.4824 32.75H63.373C64.0743 32.7469 64.7458 32.4664 65.241 31.9698C65.7361 31.4732 66.0146 30.8009 66.0156 30.0996V10.8867C66.0146 10.1841 65.735 9.51057 65.2382 9.01375C64.7414 8.51693 64.0678 8.23736 63.3652 8.23633H38.7168Z" fill="#31424F"/>
<path d="M58.6133 45.9668H59.7852V57.7168H58.6133V45.9668Z" fill="#31424F"/>
<path d="M93.5547 44.8809H92.3828C92.3828 44.8262 92.3828 44.7715 92.3828 44.7168L93.5547 44.6973V44.8809ZM92.1875 42.8867C92.1151 42.5249 92.0219 42.1675 91.9082 41.8164L93.0234 41.457C93.15 41.8493 93.2543 42.2484 93.3359 42.6523L92.1875 42.8867ZM91.1855 40.123C91.008 39.7985 90.8124 39.4843 90.5996 39.1816L91.5625 38.5117C91.7968 38.8507 92.0126 39.2021 92.209 39.5645L91.1855 40.123ZM75.1699 37.9395L74.3262 37.125C74.6114 36.8281 74.9133 36.5477 75.2305 36.2852L75.9805 37.1855C75.6939 37.4208 75.4213 37.6725 75.1641 37.9395H75.1699ZM89.4277 37.7695C89.1657 37.5094 88.8892 37.2642 88.5996 37.0352L89.3281 36.1172C89.6516 36.3733 89.9607 36.6472 90.2539 36.9375L89.4277 37.7695ZM77.4922 36.1328L76.9199 35.1113C77.2797 34.9093 77.6508 34.728 78.0313 34.5684L78.4863 35.6465C78.1466 35.7908 77.8147 35.9532 77.4922 36.1328ZM87.0469 36.0195C86.7206 35.8469 86.3848 35.693 86.041 35.5586L86.4707 34.4668C86.8545 34.6181 87.2294 34.7909 87.5938 34.9844L87.0469 36.0195ZM80.2402 35.0918L79.9922 33.9473C80.3952 33.8599 80.8027 33.7947 81.2129 33.752L81.334 34.9238C80.9664 34.9618 80.6012 35.0205 80.2402 35.0996V35.0918ZM84.2734 35.0449C83.9113 34.9748 83.5455 34.9253 83.1777 34.8965L83.2695 33.7246C83.6805 33.7573 84.0893 33.8128 84.4941 33.8906L84.2734 35.0449Z" fill="#A9AFC4"/>
<path d="M84.1997 59.7078L85.0282 58.8792L87.4351 61.2861L86.6065 62.1146L84.1997 59.7078Z" fill="#31424F"/>
<path d="M86.4141 55.9004H89.8184V57.0723H86.4141V55.9004Z" fill="#31424F"/>
<path d="M81.4434 61.168H82.6152V64.5723H81.4434V61.168Z" fill="#31424F"/>
<defs>
<linearGradient id="paint0_linear_56_320" x1="73.9063" y1="45.9668" x2="76.9512" y2="45.9668" gradientUnits="userSpaceOnUse">
<stop stop-color="#CACFDD"/>
<stop offset="1" stop-color="#EEF0F1"/>
</linearGradient>
<linearGradient id="paint1_linear_56_320" x1="70.5586" y1="52.6133" x2="72.6426" y2="52.6133" gradientUnits="userSpaceOnUse">
<stop stop-color="#CACFDD"/>
<stop offset="1" stop-color="#EEF0F1"/>
</linearGradient>
<linearGradient id="paint2_linear_56_320" x1="35.5684" y1="44.1934" x2="11.7988" y2="44.1934" gradientUnits="userSpaceOnUse">
<stop stop-color="#CACFDD"/>
<stop offset="1" stop-color="#EEF0F1"/>
</linearGradient>
<linearGradient id="paint3_linear_56_320" x1="38.9316" y1="47.5234" x2="26.2344" y2="47.5234" gradientUnits="userSpaceOnUse">
<stop stop-color="#CACFDD"/>
<stop offset="1" stop-color="#EEF0F1"/>
</linearGradient>
</defs>
</svg>
