<svg width="100" height="101" viewBox="0 0 100 101" fill="none" xmlns="http://www.w3.org/2000/svg">
<path d="M81.6953 75.1509C81.6951 75.5167 81.6227 75.8789 81.4824 76.2167C81.342 76.5546 81.1364 76.8614 80.8774 77.1197C80.6184 77.378 80.3109 77.5827 79.9727 77.7221C79.6345 77.8615 79.2721 77.9329 78.9063 77.9321H36.9571C36.4068 77.9331 35.8685 77.7707 35.4106 77.4655C34.9527 77.1603 34.5957 76.7261 34.3848 76.2177C34.174 75.7094 34.1188 75.15 34.2262 74.6103C34.3336 74.0705 34.5989 73.5749 34.9883 73.186L37.3789 70.7954C37.6374 70.5369 37.8424 70.2299 37.9822 69.8921C38.1219 69.5543 38.1937 69.1922 38.1934 68.8267V47.2075C38.1926 45.1242 38.6322 43.0643 39.4835 41.1628C40.3348 39.2614 41.5784 37.5614 43.1328 36.1743C45.1367 34.3872 47.6133 33.2212 49.7442 32.8032H66.125C66.125 32.8032 66.2793 32.8325 66.5508 32.9009C69.7354 33.704 72.5604 35.5479 74.5773 38.1399C76.5943 40.7318 77.6876 43.9233 77.6836 47.2075V68.8267C77.6832 69.1918 77.7548 69.5534 77.8942 69.8909C78.0336 70.2284 78.2381 70.5351 78.4961 70.7935L80.8867 73.1841C81.1445 73.4425 81.3486 73.7493 81.4873 74.0868C81.6261 74.4243 81.6968 74.7859 81.6953 75.1509Z" fill="url(#paint0_linear_59_1352)"/>
<path style="mix-blend-mode:multiply" d="M81.6953 75.1509C81.6951 75.5167 81.6227 75.8789 81.4824 76.2167C81.342 76.5545 81.1364 76.8614 80.8774 77.1197C80.6184 77.378 80.3109 77.5827 79.9727 77.7221C79.6345 77.8615 79.2721 77.9329 78.9063 77.9321H36.9551C34.4707 77.9321 33.2442 74.9224 34.9903 73.1841L37.3789 70.7954C37.6374 70.5369 37.8424 70.2299 37.9821 69.8921C38.1219 69.5543 38.1937 69.1922 38.1934 68.8267V62.1333C39.66 62.457 41.0782 62.9704 42.4121 63.6606C44.0289 64.4926 45.8204 64.9277 47.6387 64.9302H53.9805C55.0993 64.9299 56.2055 65.1654 57.2273 65.6212C58.249 66.077 59.1632 66.7429 59.9104 67.5756C60.6576 68.4083 61.221 69.389 61.5638 70.454C61.9067 71.5189 62.0214 72.6441 61.9004 73.7563C77.4961 68.8071 76.7266 69.0024 77.6778 68.8735C77.6865 69.5964 77.9782 70.287 78.4903 70.7974L80.8789 73.186C81.1375 73.4438 81.3427 73.75 81.4827 74.0872C81.6228 74.4243 81.6951 74.7858 81.6953 75.1509Z" fill="url(#paint1_linear_59_1352)"/>
<path d="M69.9354 14.6436L72.7206 11.8584L73.5491 12.6869L70.7639 15.4721L69.9354 14.6436Z" fill="#31424F"/>
<path d="M66.5293 9.05713H67.7012V12.9966H66.5293V9.05713Z" fill="#31424F"/>
<path d="M72.5332 17.4829H76.4727V18.6548H72.5332V17.4829Z" fill="#31424F"/>
<path d="M20.5078 44.2173L20.5313 43.0454C20.8887 43.0454 21.2832 43.0454 21.6699 43.0356L21.7129 44.2075C21.3633 44.2173 20.9082 44.2173 20.5078 44.2173ZM18.502 44.0767C18.1113 44.0298 17.7051 43.9692 17.3086 43.897L17.5176 42.7446C17.8887 42.811 18.2676 42.8677 18.6426 42.9126L18.502 44.0767ZM23.7148 44.0337L23.5566 42.8735C23.9297 42.8228 24.3086 42.7603 24.6816 42.6782L24.9043 43.8286C24.502 43.9067 24.1016 43.9731 23.707 44.022L23.7148 44.0337ZM15.3516 43.4478C14.9609 43.3403 14.5703 43.2192 14.2012 43.0884L14.5918 41.981C14.9512 42.104 15.3164 42.2173 15.6797 42.3208L15.3516 43.4478ZM26.8535 43.3696L26.5273 42.2446C26.8867 42.1392 27.252 42.0239 27.6133 41.897L28.0039 43.0044C27.6094 43.1274 27.2246 43.2505 26.8457 43.3599L26.8535 43.3696ZM12.3359 42.3462C11.9707 42.1821 11.6055 42.0044 11.252 41.8188L11.7949 40.7798C12.1289 40.9556 12.4727 41.1235 12.8184 41.2798L12.3359 42.3462ZM9.51563 40.7954C9.16809 40.5692 8.83236 40.3254 8.50977 40.0649L9.26562 39.1685C9.55114 39.3974 9.84842 39.6112 10.1563 39.8091L9.51563 40.7954Z" fill="#A9AFC4"/>
<path d="M30.8047 15.3385C28.949 13.4824 26.6064 12.1885 24.0472 11.606C21.4879 11.0236 18.8162 11.1762 16.3399 12.0464C13.8637 12.9166 11.6838 14.4688 10.0515 16.5242C8.4192 18.5796 7.40102 21.0545 7.11433 23.6635C6.82765 26.2725 7.28411 28.9094 8.43111 31.2702C9.57812 33.631 11.3689 35.6196 13.5972 37.0067C15.8254 38.3938 18.4002 39.123 21.0249 39.1102C23.6495 39.0974 26.2171 38.343 28.4317 36.9342L35.1055 39.2311L32.795 32.5182C34.4472 29.8491 35.1496 26.7003 34.7884 23.5821C34.4271 20.4639 33.0234 17.5591 30.8047 15.3385Z" fill="#F5F5F5"/>
<path d="M36.0508 40.1763L28.5039 37.5767C26.1782 38.9928 23.5009 39.7259 20.7782 39.6923C18.0555 39.6587 15.3971 38.8597 13.107 37.3867C10.8169 35.9137 8.9874 33.8261 7.82765 31.3625C6.6679 28.8989 6.22468 26.1587 6.54864 23.4551C6.87261 20.7515 7.95069 18.1936 9.65966 16.0737C11.3686 13.9539 13.6396 12.3576 16.2129 11.4674C18.7861 10.5772 21.558 10.4289 24.2116 11.0395C26.8652 11.6501 29.2934 12.995 31.2188 14.9205C33.507 17.1948 34.9686 20.1693 35.3707 23.3703C35.7727 26.5714 35.0922 29.815 33.4375 32.5845L36.0508 40.1763ZM20.9571 11.8443C18.3188 11.8449 15.74 12.6276 13.5466 14.0935C11.3531 15.5595 9.64352 17.6428 8.63387 20.0802C7.62422 22.5175 7.35985 25.1995 7.87418 27.7871C8.38851 30.3747 9.65845 32.7518 11.5235 34.6177C15.7305 38.8248 22.5196 40.0064 28.3555 36.2877L34.1602 38.2857L32.1485 32.4459L32.2969 32.2095C37.8555 23.2545 31.3106 11.8443 20.9571 11.8443Z" fill="#31424F"/>
<path style="mix-blend-mode:multiply" d="M72.7344 36.1743H43.1328C45.1367 34.3872 47.6133 33.2212 49.7441 32.8032H66.125C66.125 32.8032 66.2793 32.8325 66.5508 32.9009C68.8473 33.4734 70.9698 34.5969 72.7344 36.1743Z" fill="url(#paint2_linear_59_1352)"/>
<path d="M78.0704 32.5805C74.5451 30.6227 70.5794 29.5949 66.5469 29.5941H62.17C61.7561 29.5886 61.3554 29.7397 61.0483 30.0172C60.7411 30.2946 60.5502 30.6779 60.5137 31.0902C60.499 31.3093 60.5295 31.5291 60.6032 31.736C60.6769 31.9428 60.7924 32.1324 60.9423 32.2928C61.0923 32.4532 61.2736 32.5811 61.4751 32.6685C61.6765 32.756 61.8937 32.8011 62.1133 32.8012H65.6817C69.4588 32.8012 73.1816 33.7018 76.5411 35.4281C76.9183 35.6236 77.3573 35.6628 77.7632 35.5373C78.1691 35.4117 78.5093 35.1314 78.7102 34.7571C78.9111 34.3827 78.9566 33.9443 78.8369 33.5366C78.7172 33.129 78.4418 32.7848 78.0704 32.5785V32.5805Z" fill="#C44E47"/>
<path d="M76.2715 35.9516C72.9945 34.2701 69.3649 33.3912 65.6817 33.3871H62.1094C61.8089 33.387 61.5115 33.3251 61.2359 33.2052C60.9603 33.0853 60.7123 32.91 60.5073 32.6902C60.3023 32.4704 60.1447 32.2108 60.0444 31.9274C59.944 31.6441 59.903 31.3432 59.9239 31.0433C59.9689 30.4816 60.2254 29.9579 60.6415 29.578C61.0577 29.1981 61.6026 28.9902 62.1661 28.9965H66.543C70.6761 29.0003 74.7406 30.0534 78.3555 32.057C78.8537 32.3424 79.221 32.8109 79.3792 33.3629C79.5373 33.9149 79.474 34.5068 79.2026 35.0128C78.9311 35.5188 78.473 35.8989 77.9257 36.0724C77.3783 36.2459 76.7849 36.199 76.2715 35.9418V35.9516ZM62.17 30.1781C61.9676 30.1692 61.7671 30.2205 61.5939 30.3256C61.4207 30.4307 61.2826 30.5848 61.1971 30.7684C61.1115 30.952 61.0824 31.1569 61.1134 31.3571C61.1444 31.5573 61.2341 31.7438 61.3711 31.893C61.4658 31.9951 61.5806 32.0765 61.7084 32.132C61.8362 32.1875 61.9741 32.2158 62.1133 32.2152H65.6817C69.5535 32.2189 73.3692 33.142 76.8145 34.9086C76.971 34.9913 77.1465 35.0314 77.3234 35.0249C77.5003 35.0183 77.6723 34.9654 77.8223 34.8715C77.9755 34.7776 78.1016 34.6454 78.1881 34.4879C78.2746 34.3304 78.3186 34.1531 78.3156 33.9735C78.3127 33.7938 78.2629 33.618 78.1713 33.4635C78.0796 33.3089 77.9492 33.1809 77.793 33.0922C74.3522 31.1843 70.4832 30.1816 66.5489 30.1781H62.17Z" fill="#31424F"/>
<path d="M65.9961 32.8013H49.8711C49.4458 32.8013 49.038 32.6323 48.7372 32.3316C48.4365 32.0309 48.2676 31.623 48.2676 31.1978C48.2676 30.7725 48.4365 30.3646 48.7372 30.0639C49.038 29.7632 49.4458 29.5942 49.8711 29.5942H65.9961C66.4214 29.5942 66.8292 29.7632 67.13 30.0639C67.4307 30.3646 67.5996 30.7725 67.5996 31.1978C67.5996 31.623 67.4307 32.0309 67.13 32.3316C66.8292 32.6323 66.4214 32.8013 65.9961 32.8013Z" fill="#C44E47"/>
<path d="M65.9961 33.3872H49.8711C49.3015 33.3702 48.7609 33.132 48.364 32.723C47.9671 32.3141 47.7451 31.7666 47.7451 31.1968C47.7451 30.6269 47.9671 30.0795 48.364 29.6705C48.7609 29.2616 49.3015 29.0234 49.8711 29.0063H65.9961C66.2893 28.9976 66.5812 29.0478 66.8546 29.1539C67.128 29.2601 67.3773 29.42 67.5878 29.6243C67.7982 29.8285 67.9655 30.073 68.0798 30.3431C68.1941 30.6132 68.2529 30.9035 68.2529 31.1968C68.2529 31.4901 68.1941 31.7804 68.0798 32.0505C67.9655 32.3206 67.7982 32.565 67.5878 32.7693C67.3773 32.9736 67.128 33.1335 66.8546 33.2396C66.5812 33.3458 66.2893 33.396 65.9961 33.3872ZM49.8711 30.1782C49.6087 30.1897 49.3608 30.3021 49.1792 30.4918C48.9976 30.6816 48.8962 30.9341 48.8962 31.1968C48.8962 31.4595 48.9976 31.712 49.1792 31.9017C49.3608 32.0915 49.6087 32.2038 49.8711 32.2153H65.9961C66.1336 32.2214 66.2709 32.1995 66.3997 32.151C66.5286 32.1025 66.6463 32.0285 66.7457 31.9333C66.8451 31.8381 66.9243 31.7238 66.9783 31.5972C67.0324 31.4706 67.0603 31.3344 67.0603 31.1968C67.0603 31.0591 67.0324 30.9229 66.9783 30.7963C66.9243 30.6698 66.8451 30.5554 66.7457 30.4603C66.6463 30.3651 66.5286 30.291 66.3997 30.2426C66.2709 30.1941 66.1336 30.1722 65.9961 30.1782H49.8711Z" fill="#31424F"/>
<path d="M64.6641 17.6548L63.1289 18.8149C62.6578 19.1711 62.0774 19.3518 61.4874 19.3262C60.8974 19.3005 60.3349 19.07 59.8965 18.6743C59.4301 18.2538 58.8243 18.021 58.1963 18.021C57.5683 18.021 56.9625 18.2538 56.4961 18.6743C56.0579 19.0695 55.4957 19.2997 54.9061 19.3254C54.3166 19.351 53.7365 19.1705 53.2656 18.8149L51.7305 17.6548C51.2892 17.3186 50.75 17.1361 50.1953 17.1353H48.2637C48.2637 25.4185 51.0469 29.5942 51.0469 29.5942H65.3398C65.3398 29.5942 68.123 25.4185 68.123 17.1353H66.1914C65.6393 17.1378 65.1032 17.3202 64.6641 17.6548Z" fill="url(#paint3_linear_59_1352)"/>
<path d="M78.9063 78.5181H36.9551C36.2889 78.5188 35.6373 78.3219 35.083 77.9522C34.5288 77.5825 34.0966 77.0567 33.8413 76.4413C33.586 75.8259 33.5189 75.1485 33.6487 74.495C33.7785 73.8415 34.0993 73.2412 34.5704 72.7701L36.9649 70.3892C37.1691 70.1855 37.3309 69.9435 37.4412 69.677C37.5515 69.4105 37.608 69.1249 37.6075 68.8365V47.2076C37.5982 43.7928 38.7319 40.4732 40.8281 37.7774C42.9242 35.0817 45.8621 33.165 49.1739 32.3326C49.4649 32.2603 49.629 32.2271 49.629 32.2271C49.711 32.2115 66.1348 32.2076 66.2305 32.2271C66.2305 32.2271 66.3946 32.2603 66.6856 32.3326C69.9975 33.1649 72.9357 35.0816 75.0322 37.7773C77.1286 40.473 78.2628 43.7926 78.254 47.2076V68.8267C78.253 69.1175 78.3102 69.4055 78.4222 69.6739C78.5342 69.9422 78.6988 70.1854 78.9063 70.3892L81.295 72.7779C81.7636 73.2497 82.0821 73.8496 82.2102 74.5022C82.3383 75.1547 82.2704 75.8306 82.0149 76.4446C81.7594 77.0585 81.3278 77.5831 80.7746 77.9521C80.2214 78.3211 79.5713 78.5181 78.9063 78.5181ZM49.8047 33.3872C43.5254 34.7544 38.7793 40.4185 38.7793 47.2076V68.8267C38.7807 69.2691 38.6942 69.7073 38.5249 70.116C38.3556 70.5247 38.1068 70.8957 37.793 71.2076L35.4024 73.5962C35.0965 73.9046 34.8888 74.2966 34.8054 74.7228C34.722 75.149 34.7667 75.5904 34.9338 75.9913C35.1009 76.3922 35.383 76.7346 35.7445 76.9754C36.1059 77.2161 36.5306 77.3445 36.9649 77.3443H78.9063C79.341 77.3454 79.7663 77.2176 80.1284 76.977C80.4904 76.7364 80.773 76.3938 80.9403 75.9925C81.1076 75.5912 81.152 75.1494 81.0681 74.7228C80.9842 74.2963 80.7756 73.9042 80.4688 73.5962L78.0743 71.2095C77.7627 70.8966 77.516 70.5251 77.3484 70.1165C77.1808 69.708 77.0956 69.2703 77.0977 68.8287V47.2076C77.1043 44.0536 76.0553 40.9882 74.1177 38.4995C72.1802 36.0108 69.4656 34.2421 66.4063 33.4751C65.9454 33.3521 67.7461 33.3872 49.8047 33.3872Z" fill="#31424F"/>
<path d="M65.6562 30.1782H50.7363L50.5625 29.9185C50.4453 29.7427 47.6816 25.5005 47.6816 17.1353V16.5493H50.1953C50.8746 16.5509 51.5351 16.7722 52.0781 17.1802L53.6133 18.3384C53.9748 18.6147 54.4214 18.7562 54.876 18.7383C55.3306 18.7205 55.7648 18.5445 56.1035 18.2407C56.6776 17.723 57.4232 17.4365 58.1963 17.4365C58.9693 17.4365 59.715 17.723 60.2891 18.2407C60.6263 18.5449 61.0591 18.7221 61.5129 18.7417C61.9667 18.7613 62.4131 18.6221 62.7754 18.3481L64.3105 17.1899C64.8543 16.7819 65.5155 16.5606 66.1953 16.5591H68.7129V17.145C68.7129 25.5103 65.9492 29.7524 65.8301 29.9282L65.6562 30.1782ZM51.3828 29.0063H65.0117C65.4925 28.1195 65.8894 27.1897 66.1973 26.229C66.7832 24.4712 67.4727 21.5942 67.5371 17.7212H66.1953C65.773 17.7227 65.3622 17.8596 65.0234 18.1118L63.4766 19.2739C62.8972 19.7114 62.1837 19.9335 61.4584 19.9022C60.7331 19.8708 60.0414 19.5879 59.502 19.1021C59.1431 18.7781 58.6768 18.5989 58.1934 18.5989C57.7099 18.5989 57.2437 18.7781 56.8848 19.1021C56.3452 19.5884 55.6531 19.8716 54.9274 19.903C54.2017 19.9343 53.4877 19.7119 52.9082 19.2739L51.373 18.1157C51.0343 17.8634 50.6235 17.7265 50.2012 17.7251H48.8594C48.9238 21.5981 49.6133 24.4751 50.1973 26.2329C50.5043 27.1926 50.9013 28.1212 51.3828 29.0063Z" fill="#31424F"/>
<path d="M14 20.7839L16.1213 18.6626L27.435 29.9763L25.3137 32.0976L14 20.7839Z" fill="#C44E47"/>
<path d="M27.4351 20.7839L25.3137 18.6626L14 29.9763L16.1214 32.0976L27.4351 20.7839Z" fill="#C44E47"/>
<path d="M80.625 82.4496L54.4688 91.434C51.3911 92.4683 48.0707 92.5364 44.9531 91.6293L24.5859 85.2328L12.584 88.102V69.3774H22.5781L24.5859 68.1625C27.4395 66.5297 27.5254 66.4731 27.9395 66.2699C29.9703 65.2452 32.2152 64.7166 34.4899 64.7275C36.7647 64.7383 39.0044 65.2884 41.0254 66.3324C43.0685 67.3883 45.335 67.9389 47.6348 67.9379H53.9766C55.2912 67.9379 56.5521 68.4602 57.4817 69.3898C58.4113 70.3194 58.9336 71.5802 58.9336 72.8949C58.9336 74.2096 58.4113 75.4705 57.4817 76.4001C56.5521 77.3297 55.2912 77.852 53.9766 77.852H58.1758C58.6773 77.8521 59.1759 77.7757 59.6543 77.6254L77.2441 72.0434C78.6241 71.5956 80.1254 71.7143 81.4178 72.3734C82.7103 73.0325 83.6879 74.1781 84.1357 75.558C84.5836 76.938 84.4648 78.4393 83.8057 79.7317C83.1466 81.0242 82.0011 82.0018 80.6211 82.4496H80.625Z" fill="#F5F5F5"/>
<path d="M44.791 92.2015L24.5645 85.8402L12.7207 88.6722L12.4492 87.5336L24.6094 84.6254L45.1309 91.0707C48.1295 91.9454 51.3246 91.8772 54.2832 90.8754L80.4375 81.891C81.6698 81.4914 82.6929 80.6185 83.2817 79.4646C83.8705 78.3106 83.9768 76.97 83.5771 75.7377C83.1775 74.5054 82.3047 73.4823 81.1507 72.8935C79.9968 72.3047 78.6562 72.1984 77.4238 72.598L59.8457 78.182C59.3109 78.3493 58.7537 78.4343 58.1934 78.434H42.416V77.2621H53.9805C55.1398 77.2621 56.2516 76.8016 57.0713 75.9818C57.891 75.1621 58.3516 74.0503 58.3516 72.891C58.3516 71.7317 57.891 70.6199 57.0713 69.8002C56.2516 68.9804 55.1398 68.5199 53.9805 68.5199H47.6387C45.2457 68.5171 42.8877 67.9447 40.7598 66.85C38.712 65.7867 36.4298 65.2554 34.123 65.3049C31.8162 65.3544 29.5589 65.9831 27.5586 67.1332C24.3398 68.975 25.4316 68.3324 22.7402 69.9594H12.584V68.7875H22.4141C24.7578 67.3636 23.7422 67.9672 26.9766 66.1156C29.1468 64.8683 31.5957 64.1863 34.0983 64.1324C36.6009 64.0785 39.0769 64.6543 41.2988 65.807C43.2592 66.8183 45.4328 67.3466 47.6387 67.348H53.9805C55.1352 67.3477 56.2611 67.7082 57.2009 68.379C58.1408 69.0498 58.8476 69.9974 59.2226 71.0895C59.5976 72.1816 59.622 73.3636 59.2925 74.4702C58.9631 75.5769 58.2961 76.553 57.3848 77.2621C58.2266 77.2621 58.7266 77.2992 59.4824 77.0668L77.0703 71.4847C78.5984 70.9885 80.2611 71.1196 81.6925 71.8492C83.1239 72.5789 84.2069 73.8473 84.7031 75.3754C85.1994 76.9035 85.0683 78.5661 84.3386 79.9976C83.609 81.429 82.3406 82.5119 80.8125 83.0082L54.6582 91.9926C51.4683 93.072 48.0237 93.145 44.791 92.2015Z" fill="#31424F"/>
<path d="M53.3906 58.0572H46.375V56.8951C46.3737 55.8364 46.6347 54.7939 47.1347 53.8607C47.6347 52.9275 48.3581 52.1328 49.2402 51.5474L50.8457 50.4771C51.043 50.3464 51.2047 50.1687 51.3165 49.9601C51.4283 49.7515 51.4867 49.5185 51.4863 49.2818C51.4728 48.9213 51.3201 48.58 51.0602 48.3296C50.8004 48.0793 50.4536 47.9395 50.0928 47.9395C49.732 47.9395 49.3852 48.0793 49.1253 48.3296C48.8655 48.58 48.7127 48.9213 48.6992 49.2818V50.1158H46.375V49.2818C46.3801 48.6412 46.551 48.0129 46.871 47.4579C47.191 46.903 47.6491 46.4403 48.201 46.1149C48.7528 45.7895 49.3794 45.6125 50.0199 45.6012C50.6604 45.5898 51.293 45.7444 51.856 46.05C52.419 46.3556 52.8933 46.8017 53.2328 47.3449C53.5723 47.8882 53.7654 48.5101 53.7932 49.1501C53.8211 49.7901 53.6828 50.4264 53.3919 50.9971C53.1009 51.5678 52.6671 52.0535 52.1328 52.4068L50.5273 53.4752C49.7264 54.0073 49.1386 54.8047 48.8672 55.7271H53.3906V58.0572Z" fill="#C44E47"/>
<path d="M72.4531 58.5688C73.0399 58.5688 73.5156 58.0932 73.5156 57.5063C73.5156 56.9195 73.0399 56.4438 72.4531 56.4438C71.8663 56.4438 71.3906 56.9195 71.3906 57.5063C71.3906 58.0932 71.8663 58.5688 72.4531 58.5688Z" fill="#C44E47"/>
<path d="M66.8125 52.9868C67.3993 52.9868 67.875 52.5111 67.875 51.9243C67.875 51.3375 67.3993 50.8618 66.8125 50.8618C66.2257 50.8618 65.75 51.3375 65.75 51.9243C65.75 52.5111 66.2257 52.9868 66.8125 52.9868Z" fill="#C44E47"/>
<path d="M66.1934 58.1372C66.2921 58.236 66.4093 58.3144 66.5383 58.368C66.6674 58.4215 66.8057 58.449 66.9454 58.449C67.085 58.449 67.2234 58.4215 67.3524 58.368C67.4814 58.3144 67.5986 58.236 67.6973 58.1372L73.2051 52.6293C73.4046 52.4299 73.5166 52.1594 73.5166 51.8774C73.5166 51.5954 73.4046 51.3249 73.2051 51.1254C73.1064 51.0267 72.9891 50.9484 72.8601 50.8949C72.7311 50.8415 72.5928 50.814 72.4532 50.814C72.1711 50.814 71.9006 50.926 71.7012 51.1254L66.1934 56.6332C66.0943 56.7318 66.0157 56.849 65.962 56.978C65.9084 57.1071 65.8807 57.2454 65.8807 57.3852C65.8807 57.525 65.9084 57.6633 65.962 57.7924C66.0157 57.9214 66.0943 58.0386 66.1934 58.1372Z" fill="#C44E47"/>
<path d="M60.4395 49.8638H58.3516V47.7017H63.0664V45.5532H56.0547V51.9165H59.7656C60.137 51.9165 60.4932 52.064 60.7558 52.3267C61.0185 52.5893 61.166 52.9455 61.166 53.3169V54.3208C61.166 55.1489 60.4766 55.6274 59.7656 55.7212C59.3968 55.7137 59.0451 55.5637 58.7844 55.3026C58.5237 55.0415 58.3742 54.6897 58.3672 54.3208V53.4927H56.0547V54.3286C56.0578 55.3119 56.4497 56.254 57.145 56.9492C57.8403 57.6445 58.7824 58.0365 59.7656 58.0395C61.666 58.0395 63.4766 56.2075 63.4766 54.3286V52.895C63.4735 52.091 63.1523 51.3209 62.5832 50.753C62.0142 50.185 61.2435 49.8653 60.4395 49.8638Z" fill="#C44E47"/>
<path d="M91.3418 78.5435C90.9146 78.5435 90.4964 78.4198 90.1379 78.1874C89.7794 77.955 89.4958 77.6237 89.3215 77.2337C89.1471 76.8436 89.0894 76.4114 89.1553 75.9893C89.2212 75.5671 89.4079 75.1731 89.6928 74.8547C89.9778 74.5364 90.3488 74.3073 90.7611 74.1952C91.1734 74.0831 91.6093 74.0928 92.0162 74.223C92.4232 74.3532 92.7837 74.5985 93.0543 74.9292C93.3248 75.2598 93.4939 75.6618 93.5411 76.0864C93.5757 76.3958 93.5446 76.7089 93.4499 77.0055C93.3552 77.302 93.1989 77.5751 92.9913 77.8071C92.7837 78.039 92.5294 78.2245 92.2452 78.3514C91.9609 78.4783 91.6531 78.5437 91.3418 78.5435ZM90.5293 75.6841C90.4224 75.8179 90.3502 75.9759 90.319 76.1443C90.2877 76.3127 90.2986 76.4862 90.3504 76.6494C90.4023 76.8126 90.4937 76.9605 90.6164 77.0799C90.7391 77.1994 90.8894 77.2867 91.0539 77.3342C91.2184 77.3817 91.3921 77.3879 91.5596 77.3521C91.7271 77.3164 91.8832 77.24 92.0141 77.1295C92.1449 77.019 92.2465 76.878 92.3098 76.7189C92.3731 76.5597 92.3962 76.3875 92.377 76.2173C92.3539 76.0128 92.2708 75.8197 92.138 75.6625C92.0053 75.5052 91.8289 75.3909 91.6312 75.3338C91.4335 75.2768 91.2233 75.2796 91.0272 75.3419C90.8311 75.4043 90.6578 75.5233 90.5293 75.6841Z" fill="#31424F"/>
<path d="M84.1211 68.5493C83.7902 68.5488 83.4666 68.4525 83.1892 68.2721C82.9118 68.0917 82.6925 67.835 82.5578 67.5328C82.4231 67.2306 82.3786 66.8958 82.4299 66.569C82.4811 66.2421 82.6258 65.937 82.8465 65.6905C83.0673 65.444 83.3546 65.2666 83.6739 65.1798C83.9931 65.0929 84.3307 65.1003 84.6459 65.201C84.9611 65.3017 85.2404 65.4914 85.4502 65.7473C85.66 66.0032 85.7912 66.3143 85.8282 66.6431C85.8548 66.8831 85.8305 67.126 85.7569 67.356C85.6832 67.586 85.5619 67.7979 85.4008 67.9778C85.2397 68.1577 85.0424 68.3016 84.8219 68.4001C84.6014 68.4986 84.3626 68.5494 84.1211 68.5493ZM83.6973 66.4946C83.6418 66.5644 83.6044 66.6468 83.5883 66.7345C83.5722 66.8222 83.5779 66.9125 83.605 66.9975C83.6321 67.0824 83.6797 67.1594 83.7436 67.2216C83.8075 67.2838 83.8857 67.3293 83.9714 67.354C84.057 67.3788 84.1474 67.3822 84.2347 67.3637C84.3219 67.3453 84.4032 67.3056 84.4715 67.2483C84.5398 67.1909 84.5929 67.1177 84.6262 67.0349C84.6594 66.9522 84.6718 66.8626 84.6621 66.7739C84.6497 66.6674 84.606 66.567 84.5367 66.4851C84.4674 66.4033 84.3755 66.3438 84.2724 66.3139C84.1694 66.2841 84.0599 66.2854 83.9576 66.3175C83.8553 66.3496 83.7647 66.4113 83.6973 66.4946Z" fill="#31424F"/>
<defs>
<linearGradient id="paint0_linear_59_1352" x1="57.9336" y1="65.3481" x2="57.9336" y2="35.2935" gradientUnits="userSpaceOnUse">
<stop stop-color="#CACFDD"/>
<stop offset="1" stop-color="#EEF0F1"/>
</linearGradient>
<linearGradient id="paint1_linear_59_1352" x1="34.1738" y1="70.0317" x2="81.6953" y2="70.0317" gradientUnits="userSpaceOnUse">
<stop stop-color="#CACFDD"/>
<stop offset="1" stop-color="#EEF0F1"/>
</linearGradient>
<linearGradient id="paint2_linear_59_1352" x1="57.9336" y1="27.9517" x2="57.9336" y2="49.4341" gradientUnits="userSpaceOnUse">
<stop stop-color="#CACFDD"/>
<stop offset="1" stop-color="#EEF0F1"/>
</linearGradient>
<linearGradient id="paint3_linear_59_1352" x1="58.1973" y1="30.52" x2="58.1973" y2="17.7388" gradientUnits="userSpaceOnUse">
<stop stop-color="#CACFDD"/>
<stop offset="1" stop-color="#EEF0F1"/>
</linearGradient>
</defs>
</svg>
