<svg width="100" height="100" viewBox="0 0 100 100" fill="none" xmlns="http://www.w3.org/2000/svg">
<path d="M68.0117 11.4648C67.5235 11.4639 67.0462 11.3205 66.6382 11.0524C66.2303 10.7843 65.9094 10.403 65.7148 9.95522C65.5203 9.50748 65.4606 9.01272 65.543 8.53154C65.6253 8.05036 65.8463 7.60365 66.1787 7.24613C66.5111 6.88861 66.9406 6.63579 67.4145 6.51864C67.8884 6.4015 68.3862 6.42511 68.8469 6.58658C69.3076 6.74806 69.7112 7.04039 70.0083 7.42777C70.3053 7.81515 70.483 8.28076 70.5195 8.76757C70.5447 9.11229 70.4986 9.45851 70.384 9.7846C70.2694 10.1107 70.0888 10.4096 69.8534 10.6628C69.6181 10.9159 69.333 11.1178 69.0162 11.2558C68.6993 11.3938 68.3573 11.465 68.0117 11.4648ZM66.6816 9.05468C66.6982 9.2739 66.7686 9.48564 66.8865 9.67118C67.0044 9.85673 67.1663 10.0104 67.3577 10.1185C67.5491 10.2266 67.7642 10.2859 67.984 10.2911C68.2038 10.2963 68.4215 10.2472 68.6178 10.1483C68.8141 10.0494 68.983 9.90356 69.1096 9.7238C69.2361 9.54405 69.3165 9.33587 69.3434 9.11769C69.3704 8.89951 69.3432 8.67804 69.2642 8.47287C69.1852 8.26771 69.0569 8.08517 68.8906 7.9414C68.6901 7.76813 68.4427 7.65828 68.1798 7.62577C67.9168 7.59327 67.6501 7.63958 67.4135 7.75882C67.1769 7.87807 66.981 8.06488 66.8507 8.29558C66.7204 8.52628 66.6616 8.79048 66.6816 9.05468Z" fill="#31424F"/>
<path d="M58.9257 19.7266C58.616 19.7258 58.311 19.6502 58.0367 19.5062C57.7625 19.3622 57.5271 19.154 57.3507 18.8994C57.1742 18.6448 57.0619 18.3513 57.0234 18.044C56.9848 17.7366 57.0211 17.4245 57.1292 17.1342C57.2372 16.8439 57.4139 16.584 57.644 16.3767C57.8742 16.1694 58.151 16.0208 58.451 15.9435C58.751 15.8663 59.0652 15.8627 59.3669 15.9331C59.6685 16.0034 59.9487 16.1457 60.1836 16.3477C60.4824 16.6033 60.6956 16.9446 60.7942 17.3253C60.8928 17.706 60.8721 18.1079 60.7349 18.4765C60.5977 18.845 60.3506 19.1626 60.027 19.3862C59.7035 19.6098 59.319 19.7286 58.9257 19.7266ZM58.9257 17.0547C58.7749 17.0543 58.6275 17.0995 58.5027 17.1842C58.3779 17.2689 58.2816 17.3893 58.2263 17.5296C58.1709 17.6699 58.1592 17.8236 58.1926 17.9707C58.226 18.1178 58.3029 18.2514 58.4134 18.3541C58.5239 18.4567 58.6628 18.5237 58.8119 18.5463C58.961 18.5688 59.1135 18.5458 59.2494 18.4804C59.3853 18.415 59.4983 18.3101 59.5736 18.1794C59.649 18.0488 59.6832 17.8984 59.6718 17.748C59.6577 17.5608 59.5737 17.3856 59.4367 17.2573C59.2996 17.1289 59.1194 17.0566 58.9316 17.0547H58.9257Z" fill="#31424F"/>
<path d="M25.9492 89.3201L28.7441 86.5252L29.5726 87.3537L26.7777 90.1486L25.9492 89.3201Z" fill="#31424F"/>
<path d="M31.8438 89.0156H33.0156V92.9687H31.8438V89.0156Z" fill="#31424F"/>
<path d="M23.0391 83.3398H26.9922V84.5117H23.0391V83.3398Z" fill="#31424F"/>
<path d="M38.795 25.6835L17.3829 47.0937C16.874 47.5984 16.1859 47.8809 15.4693 47.8794C14.7526 47.8778 14.0657 47.5924 13.5591 47.0855C13.0524 46.5786 12.7673 45.8915 12.7661 45.1749C12.7649 44.4582 13.0478 43.7702 13.5528 43.2617L34.961 21.8515C35.4691 21.3433 36.1584 21.0579 36.877 21.0579C37.5956 21.0579 38.2849 21.3433 38.793 21.8515C39.3012 22.3597 39.5867 23.0489 39.5867 23.7675C39.5867 24.4862 39.3012 25.1754 38.793 25.6835H38.795Z" fill="#C44E47"/>
<path d="M30.5293 26.2871L17.9883 38.8281L14.7265 35.5664C13.725 34.564 13.1625 33.205 13.1625 31.7881C13.1625 30.3711 13.725 29.0121 14.7265 28.0097L19.7109 23.0254C20.7133 22.0239 22.0723 21.4613 23.4892 21.4613C24.9062 21.4613 26.2652 22.0239 27.2675 23.0254L30.5293 26.2871Z" fill="#DEE1EC"/>
<path d="M19.4213 45.0481L36.7428 27.7266L45.5775 36.5613L28.256 53.8828L19.4213 45.0481Z" fill="#DEE1EC"/>
<path d="M29.4648 44.6211C29.2788 44.8072 29.0579 44.9548 28.8147 45.0555C28.5716 45.1562 28.311 45.208 28.0479 45.208C27.7847 45.208 27.5241 45.1562 27.281 45.0555C27.0379 44.9548 26.8169 44.8072 26.6309 44.6211L23.2422 41.2344L26.0762 38.3984L29.4629 41.7852C29.8391 42.161 30.0506 42.6709 30.051 43.2027C30.0513 43.7345 29.8405 44.2447 29.4648 44.6211Z" fill="url(#paint0_linear_56_559)"/>
<path d="M36.3281 37.7637C35.9517 38.1391 35.4418 38.35 34.9102 38.35C34.3785 38.35 33.8686 38.1391 33.4922 37.7637L30.0996 34.375L32.9355 31.541L36.3281 34.9297C36.7035 35.3057 36.9143 35.8154 36.9143 36.3467C36.9143 36.878 36.7035 37.3876 36.3281 37.7637Z" fill="url(#paint1_linear_56_559)"/>
<path d="M63.9101 26.0507L85.3222 47.4609C85.831 47.9656 86.5191 48.2481 87.2358 48.2466C87.9525 48.245 88.6394 47.9595 89.146 47.4526C89.6526 46.9457 89.9378 46.2587 89.9389 45.542C89.9401 44.8254 89.6573 44.1374 89.1523 43.6288L67.7421 22.2187C67.4905 21.9671 67.1918 21.7675 66.8631 21.6313C66.5343 21.4951 66.1819 21.425 65.8261 21.425C65.4703 21.425 65.1179 21.4951 64.7892 21.6313C64.4604 21.7675 64.1617 21.9671 63.9101 22.2187C63.6585 22.4703 63.4589 22.769 63.3227 23.0978C63.1865 23.4265 63.1165 23.7789 63.1165 24.1347C63.1165 24.4905 63.1865 24.8429 63.3227 25.1716C63.4589 25.5004 63.6585 25.7991 63.9101 26.0507Z" fill="#C44E47"/>
<path d="M72.1758 26.6543L84.7168 39.1953L87.9785 35.9336C88.4749 35.4375 88.8686 34.8485 89.1373 34.2002C89.4059 33.5519 89.5442 32.857 89.5442 32.1552C89.5442 31.4535 89.4059 30.7586 89.1373 30.1103C88.8686 29.462 88.4749 28.873 87.9785 28.3769L82.9941 23.3925C81.9918 22.3911 80.6328 21.8285 79.2158 21.8285C77.7989 21.8285 76.4399 22.3911 75.4375 23.3925L72.1758 26.6543Z" fill="#DEE1EC"/>
<path d="M57.4772 36.5658L65.9446 28.0984L83.2661 45.4199L74.7987 53.8873L57.4772 36.5658Z" fill="#DEE1EC"/>
<path d="M17.9883 39.6484L14.3125 35.9805C13.2017 34.868 12.5779 33.3601 12.5779 31.7881C12.5779 30.216 13.2017 28.7082 14.3125 27.5957L19.2969 22.6113C20.4094 21.5006 21.9172 20.8767 23.4892 20.8767C25.0613 20.8767 26.5691 21.5006 27.6816 22.6113L31.3574 26.2871L17.9883 39.6484ZM20.1172 23.4375L15.1406 28.4238C14.2503 29.3171 13.7503 30.5269 13.7503 31.7881C13.7503 33.0493 14.2503 34.2591 15.1406 35.1523L17.9883 38L29.707 26.2812L26.8535 23.4375C26.4117 22.9943 25.8868 22.6426 25.3088 22.4027C24.7308 22.1628 24.1111 22.0393 23.4853 22.0393C22.8595 22.0393 22.2399 22.1628 21.6619 22.4027C21.0839 22.6426 20.559 22.9943 20.1172 23.4375Z" fill="#31424F"/>
<path d="M84.7168 40.0234L71.3477 26.6543L75.0234 22.9785C76.1365 21.8681 77.6446 21.2445 79.2168 21.2445C80.789 21.2445 82.2971 21.8681 83.4102 22.9785L88.3926 27.9629C89.5033 29.0753 90.1272 30.5832 90.1272 32.1552C90.1272 33.7273 89.5033 35.2351 88.3926 36.3476L84.7168 40.0234ZM72.998 26.6543L84.7168 38.373L87.5645 35.5254C88.4557 34.6326 88.9563 33.4226 88.9563 32.1611C88.9563 30.8996 88.4557 29.6896 87.5645 28.7968L82.5801 23.8125C81.6871 22.9222 80.4777 22.4224 79.2168 22.4224C77.9559 22.4224 76.7465 22.9222 75.8535 23.8125L72.998 26.6543Z" fill="#31424F"/>
<path d="M73.6093 44.6211C73.7954 44.8072 74.0163 44.9548 74.2595 45.0555C74.5026 45.1562 74.7632 45.208 75.0263 45.208C75.2895 45.208 75.5501 45.1562 75.7932 45.0555C76.0363 44.9548 76.2572 44.8072 76.4433 44.6211L79.4629 41.6016L76.6269 38.7676L73.6093 41.7852C73.2334 42.1613 73.0222 42.6713 73.0222 43.2031C73.0222 43.7349 73.2334 44.245 73.6093 44.6211Z" fill="url(#paint2_linear_56_559)"/>
<path d="M66.7519 37.7637C66.938 37.9498 67.1589 38.0974 67.4021 38.1981C67.6452 38.2988 67.9058 38.3506 68.1689 38.3506C68.4321 38.3506 68.6927 38.2988 68.9358 38.1981C69.1789 38.0974 69.3998 37.9498 69.5859 37.7637L72.6055 34.7441L69.7715 31.9102L66.7519 34.9297C66.5656 35.1156 66.4178 35.3365 66.317 35.5797C66.2161 35.8228 66.1642 36.0834 66.1642 36.3467C66.1642 36.6099 66.2161 36.8706 66.317 37.1137C66.4178 37.3569 66.5656 37.5777 66.7519 37.7637Z" fill="url(#paint3_linear_56_559)"/>
<path d="M56.3984 35.4687C55.1089 34.1799 53.3603 33.4559 51.5371 33.4559C49.7139 33.4559 47.9653 34.1799 46.6758 35.4687L27.1641 54.9805C25.8747 56.2698 25.1504 58.0184 25.1504 59.8418V64.9941C25.1496 65.8979 25.3271 66.7931 25.6726 67.6282C26.0181 68.4634 26.5249 69.2222 27.164 69.8613C27.8031 70.5004 28.562 71.0073 29.3971 71.3528C30.2323 71.6983 31.1274 71.8758 32.0313 71.875H71.0547C71.9581 71.8752 72.8527 71.6974 73.6873 71.3516C74.5219 71.0058 75.2802 70.4989 75.9187 69.8598C76.5572 69.2208 77.0635 68.4621 77.4086 67.6272C77.7536 66.7923 77.9307 65.8975 77.9297 64.9941V59.8418C77.93 58.9391 77.7526 58.0451 77.4074 57.211C77.0622 56.3769 76.5561 55.6189 75.918 54.9805L56.3984 35.4687Z" fill="#F5F5F5"/>
<path d="M15.4687 48.4726C14.817 48.4727 14.1798 48.2795 13.6379 47.9174C13.096 47.5554 12.6736 47.0408 12.4242 46.4386C12.1748 45.8365 12.1095 45.174 12.2367 44.5347C12.3638 43.8955 12.6777 43.3084 13.1386 42.8476L34.5488 21.4374C34.8548 21.1314 35.218 20.8887 35.6178 20.7231C36.0176 20.5575 36.4461 20.4723 36.8789 20.4723C37.3116 20.4723 37.7401 20.5575 38.1399 20.7231C38.5397 20.8887 38.9029 21.1314 39.2089 21.4374C39.5149 21.7434 39.7576 22.1067 39.9232 22.5065C40.0888 22.9063 40.1741 23.3348 40.1741 23.7675C40.1741 24.2003 40.0888 24.6288 39.9232 25.0285C39.7576 25.4283 39.5149 25.7916 39.2089 26.0976C39.1894 26.0976 39.6562 25.6503 17.7988 47.5078C17.4935 47.8147 17.1304 48.0581 16.7304 48.2237C16.3305 48.3893 15.9016 48.4739 15.4687 48.4726ZM36.8789 21.6445C36.5999 21.6441 36.3237 21.6987 36.066 21.8053C35.8082 21.9119 35.5741 22.0683 35.3769 22.2656L13.9667 43.6757C13.5875 44.0779 13.38 44.612 13.3881 45.1647C13.3962 45.7175 13.6194 46.2453 14.0102 46.6361C14.4011 47.027 14.9289 47.2502 15.4816 47.2583C16.0343 47.2664 16.5685 47.0588 16.9706 46.6796C38.4296 25.2187 38.4003 25.2695 38.3808 25.2695C38.6771 24.9722 38.8787 24.5938 38.9602 24.1821C39.0417 23.7704 38.9994 23.3438 38.8388 22.9561C38.6781 22.5683 38.4063 22.2369 38.0575 22.0034C37.7087 21.77 37.2985 21.6451 36.8789 21.6445Z" fill="#31424F"/>
<path d="M84.9082 47.875L63.4961 26.4649C63.1901 26.1584 62.9475 25.7946 62.7821 25.3943C62.6167 24.994 62.5317 24.5651 62.5321 24.132C62.5325 23.6989 62.6181 23.2701 62.7842 22.8701C62.9503 22.4702 63.1935 22.1068 63.5 21.8008C63.8065 21.4948 64.1703 21.2522 64.5706 21.0868C64.9708 20.9214 65.3998 20.8364 65.8329 20.8368C66.266 20.8372 66.6947 20.9228 67.0947 21.0889C67.4947 21.255 67.8581 21.4982 68.1641 21.8047L89.5664 43.2149C89.8801 43.519 90.1302 43.8825 90.3021 44.2842C90.474 44.6859 90.5643 45.1177 90.5677 45.5547C90.5712 45.9916 90.4877 46.4248 90.3221 46.8292C90.1565 47.2335 89.9122 47.6009 89.6033 47.9099C89.2944 48.2189 88.9271 48.4634 88.5228 48.6292C88.1186 48.7949 87.6854 48.8786 87.2484 48.8753C86.8115 48.8721 86.3796 48.782 85.9779 48.6103C85.5761 48.4385 85.2125 48.1886 84.9082 47.875ZM63.7031 24.1348C63.7025 24.4139 63.7572 24.6904 63.8641 24.9482C63.9711 25.206 64.1281 25.4401 64.3262 25.6367L85.7422 47.0469C86.1406 47.445 86.6807 47.6685 87.2439 47.6683C87.807 47.6681 88.3471 47.4443 88.7451 47.0459C89.1432 46.6476 89.3668 46.1074 89.3666 45.5442C89.3664 44.9811 89.1425 44.4411 88.7442 44.043L67.3281 22.6328C67.0305 22.3375 66.6522 22.1368 66.2408 22.0558C65.8294 21.9748 65.4033 22.0173 65.0159 22.1777C64.6286 22.3382 64.2973 22.6096 64.0637 22.9578C63.8302 23.306 63.7047 23.7155 63.7031 24.1348Z" fill="#31424F"/>
<path d="M56.3984 35.4687C55.1089 34.1799 53.3603 33.4559 51.5371 33.4559C49.7139 33.4559 47.9653 34.1799 46.6758 35.4687L27.1641 54.9805C25.8747 56.2698 25.1504 58.0184 25.1504 59.8418V64.9941C25.1496 65.8979 25.3271 66.7931 25.6726 67.6282C26.0181 68.4634 26.5249 69.2222 27.164 69.8613C27.8031 70.5004 28.562 71.0073 29.3971 71.3528C30.2323 71.6983 31.1274 71.8758 32.0313 71.875H71.0547C71.9581 71.8752 72.8527 71.6974 73.6873 71.3516C74.5219 71.0058 75.2802 70.4989 75.9187 69.8598C76.5572 69.2208 77.0635 68.4621 77.4086 67.6272C77.7536 66.7923 77.9307 65.8975 77.9297 64.9941V59.8418C77.93 58.9391 77.7526 58.0451 77.4074 57.211C77.0622 56.3769 76.5561 55.6189 75.918 54.9805L56.3984 35.4687Z" fill="#F5F5F5"/>
<path d="M73.7852 71.3008V79.5625C73.7841 81.0464 73.1939 82.4692 72.1443 83.5181C71.0946 84.567 69.6714 85.1563 68.1875 85.1562H34.8848C33.4024 85.1542 31.9814 84.564 30.9337 83.5152C29.8861 82.4665 29.2974 81.0449 29.2969 79.5625V71.3008C30.1597 71.6757 31.0905 71.8685 32.0312 71.8672H71.0547C71.9941 71.868 72.9236 71.6752 73.7852 71.3008Z" fill="#F5F5F5"/>
<path d="M57.3965 92.1641H45.6777C45.0561 92.1641 44.46 91.9171 44.0205 91.4776C43.5809 91.0381 43.334 90.4419 43.334 89.8203V85.1562H59.7305V89.8242C59.7294 90.4435 59.4834 91.0371 59.0461 91.4755C58.6088 91.9139 58.0157 92.1615 57.3965 92.1641Z" fill="#C44E47"/>
<path d="M78.8828 81.3672H77.7109V80.1953H78.8828V81.3672ZM78.8828 78.2422H77.7109V77.0703H78.8828V78.2422ZM79.2734 75.457L78.2305 74.9238C78.4318 74.5265 78.6883 74.1596 78.9922 73.834L79.8496 74.6309C79.6232 74.8793 79.4313 75.1572 79.2793 75.457H79.2734ZM81.2148 73.2637L80.3848 72.4355C80.6431 72.1766 80.8845 71.9013 81.1074 71.6113L82.0371 72.3262C81.7849 72.6555 81.5123 72.9686 81.2207 73.2637H81.2148ZM83.1133 70.5488L82.0508 70.0547C82.2025 69.7235 82.3329 69.3829 82.4414 69.0352L83.5586 69.3867C83.4367 69.7829 83.2899 70.1711 83.1191 70.5488H83.1133ZM83.9668 67.3477L82.7949 67.248C82.8301 66.8262 82.8242 66.5586 82.8242 66.127H83.9961C84.0078 66.5781 84.0137 66.875 83.9727 67.3477H83.9668ZM84.002 64.1738H82.8301V63.002H84.002V64.1738ZM84.002 61.0488H82.8301V59.877H84.002V61.0488Z" fill="#A9AFC4"/>
<path style="mix-blend-mode:multiply" d="M51.3906 71.875C51.3952 74.4446 50.6077 76.9531 49.1355 79.0591C47.6632 81.165 45.5777 82.7661 43.1629 83.6443C40.7481 84.5226 38.1213 84.6353 35.6402 83.9671C33.159 83.2989 30.9441 81.8823 29.2969 79.9102C29.2813 79.6368 29.2969 80.3516 29.2969 71.3008C28.2704 70.8551 27.3681 70.166 26.668 69.293C27.314 66.2773 29.0521 63.6068 31.5481 61.7952C34.044 59.9835 37.1216 59.1585 40.1891 59.4789C43.2566 59.7993 46.0973 61.2423 48.1651 63.5306C50.2329 65.8189 51.3817 68.7909 51.3906 71.875Z" fill="url(#paint4_linear_56_559)"/>
<path style="mix-blend-mode:multiply" d="M76.3848 69.3359C75.6882 70.1916 74.7968 70.8681 73.7852 71.3086V79.3418C72.1248 81.1472 69.9085 82.3457 67.4886 82.7466C65.0687 83.1474 62.5843 82.7277 60.4304 81.5542C58.2765 80.3807 56.5769 78.5207 55.6017 76.27C54.6265 74.0193 54.4319 71.5073 55.0487 69.1332C55.6654 66.7592 57.0583 64.6596 59.0057 63.1682C60.953 61.6769 63.3431 60.8794 65.7959 60.9027C68.2486 60.926 70.6231 61.7687 72.5418 63.2968C74.4605 64.8249 75.8132 66.9506 76.3848 69.3359Z" fill="url(#paint5_linear_56_559)"/>
<path style="mix-blend-mode:multiply" d="M52.1484 57.6016C50.7773 57.602 49.4369 57.1957 48.2967 56.4342C47.1565 55.6727 46.2677 54.5901 45.7429 53.3235C45.218 52.0568 45.0805 50.6629 45.3479 49.3181C45.6153 47.9733 46.2756 46.738 47.2451 45.7685C48.2146 44.799 49.4499 44.1388 50.7947 43.8714C52.1395 43.604 53.5333 43.7414 54.8 44.2663C56.0667 44.7912 57.1492 45.6799 57.9107 46.8201C58.6723 47.9603 59.0785 49.3008 59.0781 50.6719C59.0755 52.509 58.3446 54.27 57.0456 55.5691C55.7466 56.8681 53.9855 57.599 52.1484 57.6016Z" fill="url(#paint6_linear_56_559)"/>
<path d="M52.1484 54.2656C54.1332 54.2656 55.7422 52.6567 55.7422 50.6719C55.7422 48.6871 54.1332 47.0781 52.1484 47.0781C50.1637 47.0781 48.5547 48.6871 48.5547 50.6719C48.5547 52.6567 50.1637 54.2656 52.1484 54.2656Z" fill="#A9AFC4"/>
<path d="M52.1484 54.8496C51.3216 54.85 50.5132 54.6051 49.8256 54.146C49.1379 53.6869 48.6019 53.0341 48.2853 52.2703C47.9687 51.5065 47.8858 50.6659 48.047 49.855C48.2082 49.044 48.6063 48.2991 49.191 47.7144C49.7757 47.1298 50.5206 46.7317 51.3316 46.5705C52.1425 46.4092 52.9831 46.4922 53.7469 46.8088C54.5107 47.1254 55.1635 47.6614 55.6226 48.349C56.0817 49.0367 56.3266 49.845 56.3262 50.6719C56.3246 51.7794 55.884 52.8411 55.1008 53.6243C54.3177 54.4074 53.256 54.8481 52.1484 54.8496ZM52.1484 47.6563C51.5535 47.6559 50.9717 47.8319 50.4769 48.1622C49.982 48.4925 49.5961 48.9621 49.3682 49.5117C49.1402 50.0612 49.0804 50.6661 49.1962 51.2497C49.3121 51.8332 49.5984 52.3694 50.0189 52.7902C50.4395 53.2111 50.9755 53.4977 51.559 53.6139C52.1425 53.7302 52.7474 53.6707 53.2971 53.4431C53.8468 53.2155 54.3167 52.83 54.6473 52.3353C54.9778 51.8406 55.1543 51.259 55.1543 50.6641C55.1533 49.867 54.8363 49.1028 54.2729 48.5391C53.7095 47.9753 52.9455 47.6578 52.1484 47.6563Z" fill="#31424F"/>
<path style="mix-blend-mode:multiply" d="M19.4226 45.0493L36.7441 27.7278L39.5804 30.5641L22.2589 47.8856L19.4226 45.0493Z" fill="url(#paint7_linear_56_559)"/>
<path style="mix-blend-mode:multiply" d="M63.1058 30.9353L65.9421 28.099L83.2636 45.4205L80.4273 48.2568L63.1058 30.9353Z" fill="url(#paint8_linear_56_559)"/>
<path d="M71.0489 72.461H32.0313C30.0535 72.4589 28.1573 71.6724 26.7586 70.2741C25.3599 68.8758 24.5729 66.9798 24.5703 65.002V59.8418C24.5676 58.8619 24.7593 57.8912 25.1345 56.986C25.5097 56.0808 26.0608 55.259 26.7559 54.5684L46.2676 35.0567C46.9599 34.3638 47.782 33.8142 48.6869 33.4392C49.5917 33.0642 50.5616 32.8712 51.541 32.8712C52.5205 32.8712 53.4904 33.0642 54.3952 33.4392C55.3001 33.8142 56.1221 34.3638 56.8145 35.0567L76.3262 54.5684C77.0207 55.2594 77.5713 56.0812 77.9461 56.9864C78.3209 57.8916 78.5125 58.8621 78.5098 59.8418V64.9942C78.5098 66.9735 77.7239 68.8718 76.3249 70.2719C74.9259 71.672 73.0282 72.4594 71.0489 72.461ZM47.0899 35.8828L27.5782 55.3946C26.9924 55.9773 26.5281 56.6704 26.2119 57.4338C25.8958 58.1971 25.7342 59.0156 25.7364 59.8418V64.9942C25.7364 65.8208 25.8992 66.6394 26.2155 67.4031C26.5319 68.1669 26.9956 68.8608 27.5801 69.4453C28.1646 70.0299 28.8586 70.4936 29.6223 70.8099C30.3861 71.1263 31.2046 71.2891 32.0313 71.2891H71.0547C72.7232 71.2875 74.3228 70.6236 75.5021 69.4433C76.6814 68.2629 77.3438 66.6627 77.3438 64.9942V59.8418C77.346 59.0156 77.1843 58.1971 76.8682 57.4338C76.5521 56.6704 76.0877 55.9773 75.502 55.3946L55.9903 35.8828C55.4064 35.2974 54.7128 34.833 53.9492 34.5161C53.1855 34.1992 52.3669 34.036 51.5401 34.036C50.7133 34.036 49.8946 34.1992 49.131 34.5161C48.3673 34.833 47.6737 35.2974 47.0899 35.8828Z" fill="#31424F"/>
<path d="M68.1875 85.7422H34.8848C33.2476 85.7381 31.6788 85.0855 30.5217 83.9273C29.3646 82.7691 28.7135 81.1996 28.7109 79.5625V70.4062C29.8223 70.8906 30.6016 71.2812 32.0312 71.2812H71.0547C72.5371 71.2812 73.416 70.8242 74.375 70.4062V79.5625C74.3724 81.202 73.7194 82.7735 72.5594 83.9321C71.3993 85.0907 69.827 85.7417 68.1875 85.7422ZM29.8828 72.1387V79.5605C29.8844 80.8874 30.4116 82.1596 31.3491 83.0985C32.2866 84.0375 33.5579 84.5667 34.8848 84.5703H68.1875C69.5159 84.5688 70.7894 84.0405 71.7289 83.1014C72.6684 82.1623 73.1972 80.8889 73.1992 79.5605V72.1387C72.5024 72.3482 71.7785 72.4542 71.0508 72.4531H32.0312C31.3036 72.4542 30.5797 72.3482 29.8828 72.1387Z" fill="#31424F"/>
<path d="M65.6855 79.5605C69.9183 79.5605 73.3496 76.1292 73.3496 71.8965C73.3496 67.6637 69.9183 64.2324 65.6855 64.2324C61.4528 64.2324 58.0215 67.6637 58.0215 71.8965C58.0215 76.1292 61.4528 79.5605 65.6855 79.5605Z" fill="#A9AFC4"/>
<path d="M65.6855 74.4902C67.118 74.4902 68.2793 73.329 68.2793 71.8965C68.2793 70.464 67.118 69.3027 65.6855 69.3027C64.2531 69.3027 63.0918 70.464 63.0918 71.8965C63.0918 73.329 64.2531 74.4902 65.6855 74.4902Z" fill="#31424F"/>
<path d="M65.6856 80.1484C64.0534 80.1488 62.4578 79.6652 61.1005 78.7587C59.7432 77.8522 58.6852 76.5635 58.0603 75.0557C57.4355 73.5479 57.2718 71.8887 57.59 70.2878C57.9081 68.687 58.6939 67.2164 59.8479 66.0622C61.0019 64.9079 62.4722 64.1218 64.073 63.8032C65.6738 63.4847 67.3331 63.648 68.841 64.2725C70.349 64.897 71.6379 65.9547 72.5447 67.3117C73.4515 68.6688 73.9356 70.2643 73.9356 71.8965C73.9335 74.0841 73.0637 76.1815 71.517 77.7285C69.9703 79.2756 67.8731 80.1459 65.6856 80.1484ZM65.6856 64.8184C64.2851 64.818 62.9159 65.2329 61.7513 66.0108C60.5867 66.7886 59.6789 67.8943 59.1428 69.1881C58.6067 70.4819 58.4663 71.9056 58.7395 73.2792C59.0126 74.6528 59.6869 75.9145 60.6772 76.9048C61.6675 77.8951 62.9292 78.5694 64.3028 78.8426C65.6764 79.1157 67.1001 78.9753 68.3939 78.4392C69.6877 77.9031 70.7935 76.9953 71.5713 75.8307C72.3491 74.6661 72.7641 73.297 72.7637 71.8965C72.7616 70.0199 72.0152 68.2207 70.6883 66.8938C69.3613 65.5668 67.5622 64.8204 65.6856 64.8184Z" fill="#31424F"/>
<path d="M38.8887 81.0605C43.9498 81.0605 48.0527 76.9577 48.0527 71.8965C48.0527 66.8353 43.9498 62.7324 38.8887 62.7324C33.8275 62.7324 29.7246 66.8353 29.7246 71.8965C29.7246 76.9577 33.8275 81.0605 38.8887 81.0605Z" fill="#A9AFC4"/>
<path d="M38.8887 75.3301C40.785 75.3301 42.3223 73.7928 42.3223 71.8965C42.3223 70.0002 40.785 68.4629 38.8887 68.4629C36.9924 68.4629 35.4551 70.0002 35.4551 71.8965C35.4551 73.7928 36.9924 75.3301 38.8887 75.3301Z" fill="#31424F"/>
<path d="M38.8887 81.6406C36.9593 81.6422 35.0727 81.0714 33.4678 80.0004C31.8629 78.9294 30.6118 77.4065 29.8727 75.6242C29.1337 73.8419 28.9399 71.8805 29.3159 69.9881C29.6919 68.0957 30.6209 66.3573 31.9852 64.993C33.3495 63.6287 35.0878 62.6998 36.9803 62.3237C38.8727 61.9477 40.8341 62.1415 42.6164 62.8805C44.3986 63.6196 45.9216 64.8708 46.9926 66.4757C48.0635 68.0806 48.6344 69.9671 48.6328 71.8965C48.6271 74.479 47.5987 76.9542 45.7726 78.7804C43.9464 80.6065 41.4712 81.635 38.8887 81.6406ZM38.8887 63.3105C37.1916 63.309 35.5322 63.8108 34.1203 64.7523C32.7084 65.6939 31.6075 67.0331 30.9567 68.6004C30.3059 70.1677 30.1346 71.8928 30.4643 73.5576C30.794 75.2223 31.61 76.7519 32.809 77.9528C34.008 79.1538 35.5363 79.9722 37.2005 80.3045C38.8647 80.6369 40.5901 80.4683 42.1584 79.82C43.7268 79.1717 45.0677 78.0729 46.0115 76.6625C46.9554 75.2522 47.4598 73.5935 47.4609 71.8965C47.4568 69.6237 46.5525 67.4451 44.946 65.8375C43.3394 64.2298 41.1614 63.324 38.8887 63.3184V63.3105Z" fill="#31424F"/>
<path d="M31.5829 65.4153L48.916 47.9839L49.7468 48.81L32.4137 66.2415L31.5829 65.4153Z" fill="#31424F"/>
<path d="M43.9834 78.7506L60.598 65.3394L61.3339 66.2511L44.7193 79.6623L43.9834 78.7506Z" fill="#31424F"/>
<path d="M54.5144 48.8165L55.3875 48.0349L72.0325 66.6264L71.1594 67.4081L54.5144 48.8165Z" fill="#31424F"/>
<path style="mix-blend-mode:multiply" d="M43.3633 85.1973H59.7344V88.3438H43.3633V85.1973Z" fill="url(#paint9_linear_56_559)"/>
<path d="M57.3965 92.75H45.6777C44.9007 92.75 44.1556 92.4413 43.6061 91.8919C43.0567 91.3425 42.748 90.5973 42.748 89.8203V84.5703H60.3164V89.8242C60.3154 90.5989 60.0076 91.3416 59.4604 91.8899C58.9132 92.4382 58.1711 92.7474 57.3965 92.75ZM43.9199 85.7441V89.8262C43.9199 90.2924 44.1051 90.7395 44.4348 91.0691C44.7644 91.3988 45.2115 91.584 45.6777 91.584H57.3965C57.8627 91.584 58.3098 91.3988 58.6394 91.0691C58.9691 90.7395 59.1543 90.2924 59.1543 89.8262V85.7422L43.9199 85.7441Z" fill="#31424F"/>
<path d="M7.34766 60.8945C8.78304 60.8945 10.1596 61.4647 11.1746 62.4797C12.1896 63.4947 12.7598 64.8713 12.7598 66.3066C12.7592 64.8724 13.3282 63.4967 14.3416 62.4819C15.355 61.467 16.7299 60.8961 18.1641 60.8945C17.4533 60.8948 16.7494 60.755 16.0926 60.4831C15.4359 60.2112 14.8392 59.8125 14.3366 59.3099C13.8339 58.8073 13.4353 58.2106 13.1634 57.5538C12.8915 56.8971 12.7517 56.1932 12.752 55.4824C12.752 56.9164 12.1828 58.2919 11.1695 59.3066C10.1563 60.3213 8.78168 60.8925 7.34766 60.8945Z" fill="#C44E47"/>
<path d="M26.8027 15.4297C27.5203 15.4302 28.2084 15.7156 28.7156 16.2232C29.2229 16.7309 29.5078 17.4191 29.5078 18.1367C29.5083 17.4189 29.7937 16.7307 30.3013 16.2231C30.8088 15.7156 31.4971 15.4302 32.2148 15.4297C31.8594 15.4299 31.5075 15.3602 31.1791 15.2243C30.8506 15.0885 30.5522 14.8893 30.3008 14.6381C30.0494 14.3869 29.85 14.0886 29.7139 13.7602C29.5778 13.4319 29.5078 13.08 29.5078 12.7246C29.5078 13.442 29.2228 14.1301 28.7155 14.6374C28.2082 15.1447 27.5202 15.4297 26.8027 15.4297Z" fill="#C44E47"/>
<path d="M87.2402 82.2676C87.9578 82.2676 88.6461 82.5525 89.1537 83.0598C89.6613 83.567 89.9467 84.255 89.9473 84.9727C89.947 84.6174 90.0168 84.2655 90.1527 83.9372C90.2885 83.6089 90.4878 83.3105 90.739 83.0593C90.9902 82.8081 91.2885 82.6088 91.6168 82.473C91.9452 82.3371 92.297 82.2673 92.6523 82.2676C92.2971 82.2676 91.9453 82.1976 91.6172 82.0617C91.289 81.9257 90.9908 81.7265 90.7396 81.4753C90.4884 81.2241 90.2891 80.9259 90.1532 80.5977C90.0172 80.2695 89.9473 79.9177 89.9473 79.5625C89.9467 80.2801 89.6613 80.9682 89.1537 81.4754C88.6461 81.9826 87.9578 82.2676 87.2402 82.2676Z" fill="#C44E47"/>
<path d="M74.8047 54.7148L56.6562 36.5625L65.9551 27.2656L84.1074 45.418L74.8047 54.7148ZM58.3145 36.5625L74.8047 53.0586L82.4434 45.418L65.9492 28.9219L58.3145 36.5625Z" fill="#31424F"/>
<path d="M28.2637 54.7148L18.5996 45.0508L36.752 26.8984L46.416 36.5625L28.2637 54.7148ZM20.2559 45.0508L28.2637 53.0586L44.7598 36.5625L36.752 28.5547L20.2559 45.0508Z" fill="#31424F"/>
<defs>
<linearGradient id="paint0_linear_56_559" x1="23.2441" y1="41.8027" x2="30.0527" y2="41.8027" gradientUnits="userSpaceOnUse">
<stop stop-color="#A9AFC4"/>
<stop offset="1" stop-color="#D4D8E5"/>
</linearGradient>
<linearGradient id="paint1_linear_56_559" x1="30.0996" y1="34.9473" x2="36.9082" y2="34.9473" gradientUnits="userSpaceOnUse">
<stop stop-color="#A9AFC4"/>
<stop offset="1" stop-color="#D4D8E5"/>
</linearGradient>
<linearGradient id="paint2_linear_56_559" x1="73.0214" y1="41.9863" x2="79.4629" y2="41.9863" gradientUnits="userSpaceOnUse">
<stop stop-color="#A9AFC4"/>
<stop offset="1" stop-color="#D4D8E5"/>
</linearGradient>
<linearGradient id="paint3_linear_56_559" x1="66.1641" y1="35.1309" x2="72.6055" y2="35.1309" gradientUnits="userSpaceOnUse">
<stop stop-color="#A9AFC4"/>
<stop offset="1" stop-color="#D4D8E5"/>
</linearGradient>
<linearGradient id="paint4_linear_56_559" x1="26.6602" y1="71.8965" x2="51.3906" y2="71.8965" gradientUnits="userSpaceOnUse">
<stop stop-color="#CACFDD"/>
<stop offset="1" stop-color="#EEF0F1"/>
</linearGradient>
<linearGradient id="paint5_linear_56_559" x1="54.6817" y1="71.8965" x2="76.3848" y2="71.8965" gradientUnits="userSpaceOnUse">
<stop stop-color="#CACFDD"/>
<stop offset="1" stop-color="#EEF0F1"/>
</linearGradient>
<linearGradient id="paint6_linear_56_559" x1="45.2168" y1="50.6719" x2="59.0781" y2="50.6719" gradientUnits="userSpaceOnUse">
<stop stop-color="#CACFDD"/>
<stop offset="1" stop-color="#EEF0F1"/>
</linearGradient>
<linearGradient id="paint7_linear_56_559" x1="19.4213" y1="37.8009" x2="39.5754" y2="37.8009" gradientUnits="userSpaceOnUse">
<stop stop-color="#CACFDD"/>
<stop offset="1" stop-color="#EEF0F1"/>
</linearGradient>
<linearGradient id="paint8_linear_56_559" x1="83.0319" y1="38.3338" x2="62.7904" y2="38.3338" gradientUnits="userSpaceOnUse">
<stop stop-color="#CACFDD"/>
<stop offset="1" stop-color="#EEF0F1"/>
</linearGradient>
<linearGradient id="paint9_linear_56_559" x1="43.3633" y1="86.7695" x2="59.7344" y2="86.7695" gradientUnits="userSpaceOnUse">
<stop stop-color="#CACFDD"/>
<stop offset="1" stop-color="#EEF0F1"/>
</linearGradient>
</defs>
</svg>
