<svg width="60" height="60" viewBox="0 0 60 60" fill="none" xmlns="http://www.w3.org/2000/svg">
<path d="M39.9751 24.8579H21.5403C17.606 24.8579 14.4165 28.0474 14.4165 31.9817V45.7173C14.4165 49.6517 17.606 52.8411 21.5403 52.8411H39.9751C43.9095 52.8411 47.0989 49.6517 47.0989 45.7173V31.9817C47.0989 28.0474 43.9095 24.8579 39.9751 24.8579Z" fill="#C44E47"/>
<path d="M39.9774 27.1982H21.5367C18.8961 27.1982 16.7555 29.3389 16.7555 31.9795V45.7209C16.7555 48.3615 18.8961 50.5021 21.5367 50.5021H39.9774C42.618 50.5021 44.7586 48.3615 44.7586 45.7209V31.9795C44.7586 29.3389 42.618 27.1982 39.9774 27.1982Z" fill="#DEE1EC"/>
<path d="M39.9785 50.8596H21.5367C20.1754 50.8577 18.8704 50.3156 17.9085 49.3523C16.9466 48.3891 16.4062 47.0834 16.4063 45.7221V31.9783C16.4081 30.6177 16.9495 29.3133 17.9117 28.3513C18.874 27.3893 20.1784 26.8482 21.5391 26.8467H39.9785C41.3389 26.8485 42.6431 27.3898 43.6051 28.3518C44.567 29.3137 45.1083 30.6179 45.1102 31.9783V45.7221C45.1102 47.0836 44.5697 48.3895 43.6075 49.3528C42.6453 50.3161 41.34 50.858 39.9785 50.8596ZM21.5367 27.5498C20.3629 27.5517 19.2377 28.0189 18.4078 28.849C17.5778 29.6792 17.1109 30.8045 17.1094 31.9783V45.7221C17.1094 46.8969 17.5756 48.0238 18.4057 48.8552C19.2358 49.6866 20.3619 50.1546 21.5367 50.1564H39.9785C41.1526 50.1552 42.2783 49.6882 43.1086 48.858C43.9388 48.0278 44.4058 46.9021 44.407 45.7279V31.9783C44.4058 30.8042 43.9388 29.6785 43.1086 28.8483C42.2783 28.018 41.1526 27.551 39.9785 27.5498H21.5367Z" fill="#31424F"/>
<path d="M38.618 31.1718C38.1623 31.2018 37.7354 31.4052 37.425 31.7402C37.1147 32.0752 36.9444 32.5163 36.9493 32.973V35.3425C36.9494 35.5559 36.9075 35.7673 36.826 35.9645C36.7444 36.1617 36.6248 36.3408 36.474 36.4918C36.3232 36.6427 36.144 36.7625 35.9469 36.8442C35.7498 36.9259 35.5385 36.9679 35.3251 36.9679H34.1122C33.6813 36.9676 33.2682 36.7962 32.9636 36.4915C32.659 36.1867 32.488 35.7734 32.488 35.3425V32.9718C32.4926 32.5156 32.3223 32.0748 32.0122 31.7401C31.7021 31.4054 31.2757 31.2021 30.8204 31.1718C30.5834 31.1609 30.3467 31.1981 30.1245 31.2811C29.9023 31.3641 29.6991 31.4912 29.5274 31.6548C29.3556 31.8184 29.2187 32.015 29.1249 32.2329C29.0311 32.4508 28.9824 32.6854 28.9817 32.9226V35.3425C28.9819 35.5559 28.94 35.7673 28.8584 35.9645C28.7769 36.1617 28.6572 36.3408 28.5064 36.4918C28.3556 36.6427 28.1765 36.7625 27.9793 36.8442C27.7822 36.9259 27.5709 36.9679 27.3575 36.9679H26.1446C25.7135 36.9679 25.3001 36.7967 24.9953 36.4919C24.6905 36.187 24.5192 35.7736 24.5192 35.3425V32.9718C24.5238 32.5156 24.3536 32.0748 24.0435 31.7401C23.7334 31.4054 23.3069 31.2021 22.8516 31.1718C22.6148 31.1611 22.3782 31.1984 22.1561 31.2814C21.934 31.3645 21.731 31.4917 21.5594 31.6552C21.3877 31.8188 21.2509 32.0154 21.1572 32.2332C21.0635 32.451 21.0148 32.6855 21.0141 32.9226V44.4703C21.0093 44.9268 21.1796 45.3679 21.49 45.7027C21.8004 46.0375 22.2273 46.2406 22.6829 46.2703C22.9198 46.281 23.1563 46.2437 23.3784 46.1607C23.6005 46.0776 23.8035 45.9505 23.9752 45.7869C24.1468 45.6233 24.2836 45.4267 24.3773 45.2089C24.471 44.9911 24.5197 44.7566 24.5204 44.5195V42.0984C24.5204 41.6673 24.6916 41.2539 24.9965 40.9491C25.3013 40.6443 25.7147 40.473 26.1458 40.473H27.3575C27.5709 40.473 27.7822 40.5151 27.9793 40.5968C28.1765 40.6785 28.3556 40.7982 28.5064 40.9491C28.6572 41.1001 28.7769 41.2793 28.8584 41.4765C28.94 41.6737 28.9819 41.885 28.9817 42.0984V44.4691C28.9771 44.9256 29.1475 45.3665 29.4579 45.7012C29.7682 46.036 30.195 46.2392 30.6505 46.2691C30.8874 46.28 31.1241 46.2429 31.3464 46.1599C31.5686 46.0769 31.7717 45.9497 31.9435 45.7862C32.1153 45.6226 32.2522 45.4259 32.346 45.208C32.4397 44.9902 32.4884 44.7555 32.4891 44.5183V42.0984C32.4891 41.6675 32.6602 41.2543 32.9648 40.9495C33.2694 40.6447 33.6825 40.4733 34.1134 40.473H35.3262C35.5396 40.473 35.7509 40.5151 35.9481 40.5968C36.1452 40.6785 36.3243 40.7982 36.4752 40.9491C36.626 41.1001 36.7456 41.2793 36.8272 41.4765C36.9087 41.6737 36.9506 41.885 36.9505 42.0984V44.4691C36.9459 44.9256 37.1163 45.3665 37.4266 45.7012C37.737 46.036 38.1637 46.2392 38.6192 46.2691C38.8562 46.28 39.0929 46.2429 39.3151 46.1599C39.5373 46.0769 39.7405 45.9497 39.9122 45.7862C40.084 45.6226 40.2209 45.4259 40.3147 45.208C40.4085 44.9902 40.4572 44.7555 40.4579 44.5183V32.9168C40.4564 32.6799 40.4071 32.4459 40.3129 32.2286C40.2187 32.0113 40.0816 31.8153 39.9097 31.6523C39.7379 31.4893 39.5349 31.3628 39.3129 31.2802C39.091 31.1976 38.8546 31.1608 38.618 31.1718Z" fill="#A9AFC4"/>
<path d="M38.7047 46.6229C38.4245 46.6209 38.1474 46.5635 37.8895 46.454C37.6316 46.3445 37.3978 46.185 37.2018 45.9848C37.0057 45.7846 36.8512 45.5476 36.7471 45.2875C36.643 45.0273 36.5914 44.7491 36.5953 44.4689V42.0982C36.595 41.7607 36.4608 41.4371 36.2223 41.1983C35.9837 40.9595 35.6602 40.825 35.3227 40.8244H34.1121C33.7746 40.825 33.451 40.9595 33.2125 41.1983C32.9739 41.4371 32.8398 41.7607 32.8394 42.0982V44.5182C32.8388 44.803 32.7805 45.0847 32.668 45.3463C32.5556 45.608 32.3913 45.8441 32.1851 46.0406C31.9789 46.237 31.7351 46.3897 31.4683 46.4894C31.2015 46.589 30.9173 46.6336 30.6328 46.6205C30.086 46.5889 29.5725 46.3475 29.1992 45.9467C28.8259 45.5459 28.6216 45.0166 28.6289 44.4689V42.0982C28.6286 41.7607 28.4944 41.4371 28.2559 41.1983C28.0173 40.9595 27.6938 40.825 27.3562 40.8244H26.1445C25.8069 40.825 25.4832 40.9594 25.2445 41.1982C25.0057 41.4369 24.8713 41.7606 24.8707 42.0982V44.5182C24.87 44.803 24.8117 45.0847 24.6993 45.3463C24.5868 45.608 24.4225 45.8441 24.2164 46.0406C24.0102 46.237 23.7663 46.3897 23.4995 46.4894C23.2327 46.589 22.9485 46.6336 22.6641 46.6205C22.1175 46.5886 21.6043 46.3471 21.2312 45.9463C20.8582 45.5456 20.6541 45.0164 20.6613 44.4689V32.9213C20.6621 32.6367 20.7205 32.3552 20.833 32.0938C20.9454 31.8324 21.1096 31.5964 21.3157 31.4001C21.5217 31.2038 21.7654 31.0512 22.0319 30.9515C22.2985 30.8518 22.5825 30.8071 22.8668 30.8201C23.4137 30.852 23.9272 31.0936 24.3005 31.4946C24.6737 31.8956 24.878 32.4251 24.8707 32.9728V35.3424C24.8713 35.68 25.0057 36.0037 25.2445 36.2424C25.4832 36.4812 25.8069 36.6156 26.1445 36.6162H27.3562C27.6938 36.6156 28.0173 36.4811 28.2559 36.2424C28.4944 36.0036 28.6286 35.6799 28.6289 35.3424V32.9213C28.6297 32.6366 28.6881 32.355 28.8007 32.0935C28.9132 31.832 29.0775 31.596 29.2837 31.3996C29.4898 31.2033 29.7336 31.0508 30.0003 30.9512C30.267 30.8516 30.5511 30.807 30.8355 30.8201C31.3824 30.852 31.8959 31.0936 32.2692 31.4946C32.6425 31.8956 32.8467 32.4251 32.8394 32.9728V35.3424C32.8398 35.6799 32.9739 36.0036 33.2125 36.2424C33.451 36.4811 33.7746 36.6156 34.1121 36.6162H35.325C35.6625 36.6156 35.9861 36.4811 36.2246 36.2424C36.4632 36.0036 36.5973 35.6799 36.5976 35.3424V32.9717C36.5907 32.4241 36.7951 31.8949 37.1683 31.4942C37.5415 31.0935 38.0549 30.852 38.6016 30.8201C38.886 30.807 39.1702 30.8516 39.437 30.9513C39.7038 31.0509 39.9477 31.2036 40.1539 31.4C40.36 31.5965 40.5243 31.8327 40.6368 32.0943C40.7492 32.356 40.8076 32.6377 40.8082 32.9225V44.524C40.8054 45.0806 40.5828 45.6136 40.1887 46.0067C39.7947 46.3998 39.2613 46.6213 38.7047 46.6229ZM34.1121 40.1213H35.325C35.849 40.1219 36.3514 40.3304 36.7218 40.7011C37.0922 41.0717 37.3005 41.5742 37.3008 42.0982V44.4689C37.2982 44.8345 37.4345 45.1874 37.682 45.4565C37.9295 45.7255 38.2698 45.8907 38.6344 45.9186C38.8239 45.9272 39.0132 45.8975 39.191 45.8311C39.3687 45.7647 39.5312 45.663 39.6686 45.5322C39.806 45.4014 39.9155 45.2441 39.9905 45.0698C40.0655 44.8955 40.1045 44.7079 40.1051 44.5182V32.9166C40.1035 32.7275 40.0639 32.5406 39.9884 32.3671C39.913 32.1937 39.8033 32.0372 39.666 31.9072C39.5287 31.7771 39.3666 31.676 39.1893 31.6101C39.0121 31.5441 38.8233 31.5146 38.6344 31.5232C37.984 31.5232 37.3008 32.1525 37.3008 32.9728V35.3424C37.3005 35.8664 37.0922 36.3689 36.7218 36.7395C36.3514 37.1102 35.849 37.3187 35.325 37.3193H34.1121C33.5882 37.3184 33.086 37.1098 32.7156 36.7392C32.3453 36.3686 32.1369 35.8663 32.1363 35.3424V32.9717C32.1363 32.2064 31.5375 31.5561 30.8027 31.5221C30.6131 31.5124 30.4234 31.5414 30.2453 31.6073C30.0672 31.6733 29.9044 31.7748 29.7668 31.9057C29.6292 32.0366 29.5197 32.1942 29.4449 32.3688C29.3702 32.5434 29.3318 32.7314 29.332 32.9213V35.3412C29.3317 35.8652 29.1235 36.3677 28.7531 36.7384C28.3826 37.109 27.8803 37.3175 27.3562 37.3182H26.1445C25.6204 37.3175 25.1179 37.1091 24.7473 36.7384C24.3767 36.3678 24.1682 35.8653 24.1676 35.3412V32.9717C24.1704 32.6061 24.0342 32.2532 23.7866 31.9843C23.539 31.7154 23.1985 31.5506 22.834 31.5232C22.6444 31.5137 22.4549 31.5428 22.2769 31.6089C22.0989 31.6749 21.9363 31.7765 21.7988 31.9073C21.6613 32.0382 21.5519 32.1957 21.4773 32.3702C21.4026 32.5448 21.3642 32.7326 21.3644 32.9225V44.4701C21.3619 44.8357 21.4981 45.1886 21.7456 45.4577C21.9932 45.7267 22.3335 45.8918 22.698 45.9197C22.8875 45.9283 23.0767 45.8984 23.2543 45.8319C23.4319 45.7654 23.5942 45.6637 23.7315 45.5329C23.8687 45.4021 23.9781 45.2449 24.0531 45.0707C24.128 44.8965 24.167 44.709 24.1676 44.5193V42.0982C24.1682 41.5741 24.3767 41.0716 24.7473 40.701C25.1179 40.3304 25.6204 40.1219 26.1445 40.1213H27.3562C27.8803 40.1219 28.3826 40.3304 28.7531 40.7011C29.1235 41.0717 29.3317 41.5742 29.332 42.0982V44.4689C29.3295 44.8345 29.4657 45.1874 29.7132 45.4565C29.9607 45.7255 30.3011 45.8907 30.6656 45.9186C30.8551 45.9272 31.0445 45.8975 31.2222 45.8311C31.3999 45.7647 31.5624 45.663 31.6998 45.5322C31.8372 45.4014 31.9467 45.2441 32.0217 45.0698C32.0968 44.8955 32.1357 44.7079 32.1363 44.5182V42.0982C32.1369 41.5743 32.3453 41.072 32.7156 40.7014C33.086 40.3308 33.5882 40.1222 34.1121 40.1213Z" fill="#31424F"/>
<path d="M32.488 37.9111V12.5049H28.9805V37.9111C28.9641 38.1515 28.9972 38.3927 29.0779 38.6198C29.1586 38.8468 29.2851 39.0548 29.4496 39.2309C29.614 39.407 29.8129 39.5474 30.0339 39.6434C30.2549 39.7394 30.4933 39.789 30.7343 39.789C30.9752 39.789 31.2136 39.7394 31.4346 39.6434C31.6556 39.5474 31.8545 39.407 32.0189 39.2309C32.1834 39.0548 32.3099 38.8468 32.3906 38.6198C32.4713 38.3927 32.5044 38.1515 32.488 37.9111Z" fill="#F5F5F5"/>
<path style="mix-blend-mode:multiply" d="M28.9805 18.6924H32.4879V22.0826H28.9805V18.6924Z" fill="url(#paint0_linear_62_2548)"/>
<path d="M30.7349 40.017C30.1754 40.017 29.6389 39.7948 29.2433 39.3992C28.8477 39.0036 28.6255 38.4671 28.6255 37.9076V12.1533H32.836V37.9111C32.8351 38.4685 32.6136 39.0029 32.2199 39.3975C31.8262 39.7921 31.2923 40.0148 30.7349 40.017ZM29.3286 12.8564V37.9111C29.3138 38.1043 29.3391 38.2984 29.4029 38.4813C29.4666 38.6642 29.5675 38.832 29.6991 38.9741C29.8308 39.1162 29.9904 39.2296 30.1679 39.3071C30.3454 39.3847 30.537 39.4247 30.7308 39.4247C30.9245 39.4247 31.1161 39.3847 31.2936 39.3071C31.4711 39.2296 31.6307 39.1162 31.7624 38.9741C31.894 38.832 31.9949 38.6642 32.0587 38.4813C32.1224 38.2984 32.1477 38.1043 32.1329 37.9111V12.8564H29.3286Z" fill="#31424F"/>
<path d="M36.5392 5.20898C36.2751 4.8986 35.9468 4.64929 35.577 4.47831C35.2071 4.30733 34.8045 4.21877 34.397 4.21875H27.0962C26.6887 4.21877 26.2861 4.30733 25.9162 4.47831C25.5463 4.64929 25.218 4.8986 24.954 5.20898L24.3024 5.97656C23.8702 6.48439 23.633 7.12959 23.6333 7.79648C23.6333 11.1515 24.542 14.4438 26.263 17.3238C26.5126 17.7411 26.866 18.0865 27.2889 18.3264C27.7118 18.5663 28.1897 18.6924 28.6759 18.6926H32.8126C33.2986 18.6915 33.7761 18.565 34.1988 18.3252C34.6216 18.0854 34.9752 17.7404 35.2255 17.3238C36.9467 14.4444 37.8555 11.1523 37.8552 7.79766C37.8565 7.13106 37.621 6.48567 37.1907 5.97656L36.5392 5.20898Z" fill="#A9AFC4"/>
<path d="M32.8126 19.0441H28.6759C28.1291 19.0425 27.592 18.9 27.1164 18.6302C26.6407 18.3605 26.2427 17.9727 25.9606 17.5043C24.208 14.5698 23.2823 11.2157 23.2817 7.79766C23.282 7.04694 23.5486 6.32066 24.0341 5.74805L24.6868 4.98164C24.9837 4.63245 25.353 4.35194 25.769 4.15952C26.185 3.96709 26.6378 3.86735 27.0962 3.86719H34.397C34.8554 3.86688 35.3084 3.96641 35.7245 4.15887C36.1406 4.35132 36.5097 4.63209 36.8063 4.98164C36.7946 4.96992 36.9423 5.14102 37.4591 5.74805C37.9443 6.32035 38.2109 7.04617 38.2114 7.79649C38.2116 11.215 37.2858 14.5697 35.5325 17.5043C35.2501 17.9734 34.8513 18.3616 34.3748 18.6314C33.8983 18.9012 33.3602 19.0433 32.8126 19.0441ZM27.0962 4.57031C26.7396 4.57019 26.3872 4.64757 26.0634 4.79711C25.7397 4.94664 25.4523 5.16475 25.2212 5.43633L24.5696 6.20391C24.1917 6.64851 23.984 7.21295 23.9837 7.79649C23.9833 11.0877 24.8742 14.3177 26.5618 17.1434C26.7809 17.5074 27.0901 17.8088 27.4596 18.0186C27.829 18.2284 28.2463 18.3394 28.6712 18.341H32.8126C33.2375 18.3394 33.6548 18.2284 34.0242 18.0186C34.3937 17.8088 34.7029 17.5074 34.922 17.1434C36.6094 14.318 37.5003 11.0885 37.5001 7.79766C37.5001 7.21372 37.2924 6.64881 36.9142 6.20391L36.2614 5.4375C36.0307 5.16534 35.7435 4.94676 35.4196 4.79699C35.0958 4.64722 34.7432 4.56986 34.3864 4.57031H27.0962Z" fill="#31424F"/>
<path d="M24.7688 14.1893L26.7446 12.2135C27.1004 11.8573 27.5229 11.5748 27.988 11.3822C28.4532 11.1896 28.9517 11.0905 29.4551 11.0908H32.0333C32.5367 11.0907 33.0352 11.1898 33.5003 11.3824C33.9654 11.575 34.3879 11.8574 34.7438 12.2135L36.7208 14.1893C36.3207 15.2783 35.8201 16.3278 35.2254 17.324C34.9759 17.7413 34.6224 18.0867 34.1995 18.3266C33.7766 18.5665 33.2987 18.6926 32.8125 18.6928H28.6758C28.1896 18.6926 27.7118 18.5665 27.2889 18.3266C26.866 18.0867 26.5125 17.7413 26.2629 17.324C25.6682 16.328 25.168 15.2785 24.7688 14.1893Z" fill="#DEE1EC"/>
<path d="M24.7688 14.1893L26.7446 12.2135C27.1004 11.8573 27.5229 11.5748 27.988 11.3822C28.4532 11.1896 28.9517 11.0905 29.4551 11.0908H32.0333C32.5367 11.0907 33.0352 11.1898 33.5003 11.3824C33.9654 11.575 34.3879 11.8574 34.7438 12.2135L36.7208 14.1893C36.3207 15.2783 35.8201 16.3278 35.2254 17.324C34.9759 17.7413 34.6224 18.0867 34.1995 18.3266C33.7766 18.5665 33.2987 18.6926 32.8125 18.6928H28.6758C28.1896 18.6926 27.7118 18.5665 27.2889 18.3266C26.866 18.0867 26.5125 17.7413 26.2629 17.324C25.6682 16.328 25.168 15.2785 24.7688 14.1893Z" fill="#31424F"/>
<path d="M32.8125 19.0444H28.6758C28.1289 19.0428 27.5916 18.9002 27.1159 18.6302C26.6403 18.3603 26.2423 17.9721 25.9606 17.5033C25.3173 16.4257 24.7815 15.2874 24.361 14.1049L26.4961 11.9651C26.8835 11.5749 27.3446 11.2656 27.8526 11.0552C28.3606 10.8448 28.9053 10.7374 29.4551 10.7393H32.0332C32.5831 10.7374 33.1278 10.8448 33.6357 11.0552C34.1437 11.2656 34.6048 11.5749 34.9922 11.9651L37.1274 14.1002C36.7069 15.2827 36.1711 16.421 35.5278 17.4987C35.2467 17.9684 34.849 18.3575 34.3733 18.6284C33.8976 18.8992 33.3599 19.0425 32.8125 19.0444ZM25.1719 14.2783C25.5511 15.2717 26.0158 16.2304 26.5606 17.1436C26.7794 17.5078 27.0885 17.8095 27.4581 18.0193C27.8276 18.2291 28.245 18.34 28.6699 18.3412H32.8125C33.2374 18.3397 33.6547 18.2286 34.0242 18.0188C34.3936 17.8091 34.7028 17.5076 34.9219 17.1436C35.4663 16.2304 35.9306 15.2717 36.3094 14.2783L34.493 12.4619C33.839 11.8113 32.9546 11.4449 32.0321 11.4424H29.4539C28.9967 11.4412 28.5438 11.5307 28.1214 11.7057C27.6989 11.8807 27.3154 12.1377 26.993 12.4619L25.1719 14.2783Z" fill="#31424F"/>
<path d="M9.21802 38.4692H11.6555V39.1724H9.21802V38.4692Z" fill="#31424F"/>
<path d="M10.1967 42.6182L11.92 40.8949L12.4171 41.392L10.6938 43.1153L10.1967 42.6182Z" fill="#31424F"/>
<path d="M10.0455 35.0752L10.5426 34.5781L12.266 36.3014L11.7688 36.7985L10.0455 35.0752Z" fill="#31424F"/>
<path d="M44.9332 23.9898C44.5287 23.9886 44.1391 23.8367 43.8404 23.5639C43.5418 23.291 43.3554 22.9168 43.3177 22.514C43.2799 22.1112 43.3935 21.7088 43.6363 21.3852C43.8791 21.0616 44.2336 20.8401 44.6309 20.7637C44.8538 20.7208 45.0832 20.725 45.3044 20.7761C45.5255 20.8271 45.7336 20.9239 45.9152 21.0601C46.0967 21.1963 46.2478 21.369 46.3587 21.5671C46.4695 21.7652 46.5377 21.9842 46.5589 22.2102C46.5801 22.4362 46.5538 22.6642 46.4816 22.8794C46.4095 23.0946 46.2932 23.2924 46.1401 23.4599C45.987 23.6275 45.8005 23.7613 45.5927 23.8525C45.3848 23.9438 45.1602 23.9905 44.9332 23.9898ZM44.7657 21.4551C44.6167 21.4838 44.4771 21.5488 44.3592 21.6442C44.2413 21.7397 44.1488 21.8628 44.0898 22.0025C44.0307 22.1423 44.0071 22.2944 44.0208 22.4455C44.0346 22.5966 44.0853 22.742 44.1686 22.8688C44.2519 22.9956 44.3651 23.0999 44.4983 23.1725C44.6315 23.2452 44.7805 23.2839 44.9322 23.2852C45.0839 23.2866 45.2336 23.2505 45.3681 23.1803C45.5026 23.11 45.6176 23.0077 45.7032 22.8824C45.8069 22.7314 45.8633 22.5529 45.8653 22.3697C45.8672 22.1866 45.8145 22.0069 45.7139 21.8538C45.6133 21.7007 45.4694 21.581 45.3005 21.51C45.1316 21.4389 44.9454 21.4198 44.7657 21.4551Z" fill="#31424F"/>
<path d="M50.0613 28.9819C49.7944 28.9818 49.537 28.8821 49.3396 28.7023C49.1423 28.5225 49.0191 28.2755 48.9942 28.0097C48.9693 27.7439 49.0444 27.4783 49.2049 27.265C49.3655 27.0516 49.5998 26.9059 49.8621 26.8562C50.0088 26.8284 50.1597 26.8315 50.305 26.8654C50.4504 26.8992 50.5872 26.9631 50.7064 27.0528C50.8257 27.1426 50.925 27.2563 50.9978 27.3866C51.0706 27.5169 51.1154 27.661 51.1294 27.8096C51.1433 27.9583 51.126 28.1082 51.0787 28.2497C51.0313 28.3913 50.955 28.5214 50.8544 28.6318C50.7539 28.7421 50.6314 28.8303 50.4948 28.8906C50.3583 28.9509 50.2106 28.982 50.0613 28.9819ZM49.9922 27.5464C49.9326 27.5577 49.8767 27.5836 49.8294 27.6217C49.7822 27.6597 49.745 27.7089 49.7213 27.7648C49.6976 27.8206 49.688 27.8815 49.6934 27.9419C49.6988 28.0024 49.7191 28.0605 49.7523 28.1113C49.7856 28.1621 49.8308 28.2039 49.8841 28.233C49.9373 28.2621 49.9969 28.2776 50.0576 28.2782C50.1183 28.2787 50.1782 28.2643 50.232 28.2362C50.2858 28.2081 50.3318 28.1672 50.366 28.1171C50.4078 28.0569 50.4307 27.9855 50.4316 27.9122C50.4326 27.8389 50.4117 27.767 50.3715 27.7057C50.3313 27.6444 50.2738 27.5965 50.2062 27.5681C50.1386 27.5397 50.0641 27.5321 49.9922 27.5464Z" fill="#31424F"/>
<path d="M39.2672 56.1327H38.5641V55.4296H39.2672V56.1327ZM40.4742 56.0718L40.4004 55.3687C40.6242 55.3452 40.8504 55.3136 41.0731 55.2737L41.1903 55.9663C40.9571 56.0155 40.7145 56.046 40.4742 56.0718ZM42.3727 55.6933L42.1746 55.0194C42.3903 54.955 42.6071 54.8835 42.8192 54.805L43.0629 55.4647C42.8367 55.5468 42.6035 55.6253 42.3727 55.6933ZM44.1727 54.9808L43.8563 54.3538C44.0578 54.2519 44.2582 54.1417 44.4516 54.0269L44.8102 54.6327C44.6039 54.7546 44.3895 54.8718 44.1727 54.9808ZM45.8133 53.9577L45.3891 53.3976C45.5696 53.2616 45.7465 53.1175 45.9176 52.9698L46.3782 53.5007C46.1977 53.6589 46.0078 53.8124 45.8203 53.9577H45.8133ZM47.2465 52.6569L46.7285 52.1812C46.8809 52.0147 47.0297 51.8413 47.1715 51.6655L47.7199 52.105C47.5711 52.2937 47.4117 52.4788 47.2489 52.6569H47.2465ZM48.4184 51.1194L47.8242 50.7444C47.9414 50.5546 48.0586 50.3565 48.1664 50.1585L48.7852 50.4937C48.6774 50.7046 48.5532 50.9167 48.4254 51.1194H48.4184ZM49.2996 49.3968L48.6481 49.1331C48.7324 48.9245 48.811 48.7101 48.8824 48.4956L49.5516 48.7136C49.4813 48.9433 49.3969 49.1729 49.3067 49.3968H49.2996ZM49.8586 47.5429L49.1707 47.4022C49.2153 47.1808 49.2539 46.9558 49.2879 46.7319L49.9852 46.8269C49.9559 47.0659 49.9149 47.3062 49.8657 47.5429H49.8586ZM50.0766 45.6198L49.3735 45.6046C49.3735 45.4394 49.3735 45.3702 49.3735 44.9097H50.0766C50.086 45.3808 50.0871 45.4616 50.0836 45.6198H50.0766ZM50.0766 43.7378H49.3735V43.0347H50.0766V43.7378ZM50.0766 41.8628H49.3735V41.1597H50.0766V41.8628ZM50.0766 39.9878H49.3735V39.2847H50.0766V39.9878ZM50.0766 38.1128H49.3735V37.4097H50.0766V38.1128Z" fill="#A9AFC4"/>
<path d="M14.4141 20.3906C15.3281 20.3906 16.2048 20.7537 16.8511 21.4001C17.4974 22.0464 17.8605 22.923 17.8605 23.8371C17.8604 23.3844 17.9495 22.936 18.1227 22.5177C18.2959 22.0995 18.5499 21.7194 18.8701 21.3993C19.1903 21.0792 19.5704 20.8254 19.9887 20.6523C20.4071 20.4792 20.8555 20.3903 21.3082 20.3906C20.8558 20.3906 20.4077 20.3015 19.9897 20.1284C19.5717 19.9552 19.1919 19.7014 18.872 19.3815C18.5521 19.0616 18.2983 18.6818 18.1251 18.2638C17.952 17.8458 17.8629 17.3978 17.8629 16.9453C17.8629 17.3981 17.7737 17.8464 17.6003 18.2646C17.4269 18.6828 17.1728 19.0628 16.8525 19.3828C16.5322 19.7027 16.152 19.9564 15.7336 20.1294C15.3152 20.3023 14.8668 20.3911 14.4141 20.3906Z" fill="#C44E47"/>
<path d="M41.1973 7.75762C41.3912 7.75762 41.5832 7.79581 41.7623 7.87001C41.9415 7.94422 42.1042 8.05298 42.2414 8.19009C42.3785 8.3272 42.4872 8.48998 42.5614 8.66912C42.6356 8.84827 42.6738 9.04028 42.6738 9.23418C42.6741 8.84287 42.8296 8.46766 43.1062 8.19085C43.3828 7.91404 43.7579 7.75824 44.1492 7.75762C43.7579 7.75762 43.3827 7.60217 43.106 7.32549C42.8293 7.0488 42.6738 6.67352 42.6738 6.28223C42.6735 6.67363 42.5178 7.0489 42.2409 7.32556C41.9641 7.60221 41.5887 7.75762 41.1973 7.75762Z" fill="#C44E47"/>
<defs>
<linearGradient id="paint0_linear_62_2548" x1="30.7348" y1="22.4553" x2="30.7348" y2="15.4158" gradientUnits="userSpaceOnUse">
<stop stop-color="#CACFDD"/>
<stop offset="0.94" stop-color="#ECEEF0"/>
<stop offset="1" stop-color="#EEF0F1"/>
</linearGradient>
</defs>
</svg>
