<svg width="60" height="60" viewBox="0 0 60 60" fill="none" xmlns="http://www.w3.org/2000/svg">
<path d="M54.811 31.6911C54.6345 31.6898 54.4601 31.6531 54.298 31.5833C54.1359 31.5136 53.9895 31.412 53.8672 31.2847C53.745 31.1574 53.6495 31.007 53.5864 30.8422C53.5233 30.6774 53.4938 30.5016 53.4996 30.3253C53.5055 30.1489 53.5466 29.9755 53.6206 29.8153C53.6945 29.6551 53.7998 29.5113 53.9302 29.3924C54.0606 29.2735 54.2135 29.1819 54.3799 29.1231C54.5462 29.0642 54.7227 29.0392 54.8988 29.0497C55.2429 29.07 55.5654 29.224 55.7976 29.4787C56.0298 29.7334 56.1534 30.0687 56.1419 30.4132C56.1305 30.7577 55.9849 31.0841 55.7363 31.3228C55.4876 31.5615 55.1556 31.6936 54.811 31.6911ZM54.811 29.7493C54.6901 29.7493 54.5719 29.7847 54.4709 29.851C54.3699 29.9173 54.2904 30.0118 54.2424 30.1226C54.1943 30.2335 54.1797 30.3561 54.2003 30.4751C54.221 30.5942 54.276 30.7046 54.3586 30.7929C54.4412 30.8811 54.5478 30.9433 54.6652 30.9717C54.7827 31.0002 54.9059 30.9936 55.0197 30.953C55.1335 30.9123 55.2329 30.8393 55.3058 30.7429C55.3786 30.6464 55.4217 30.5308 55.4297 30.4102C55.4351 30.3256 55.4232 30.2407 55.3946 30.1608C55.366 30.081 55.3213 30.0078 55.2633 29.9459C55.2053 29.884 55.1353 29.8346 55.0575 29.8008C54.9797 29.7669 54.8958 29.7494 54.811 29.7493Z" fill="#31424F"/>
<path d="M50.1176 35.9391C50.007 35.812 49.9294 35.6597 49.8916 35.4955C49.8538 35.3314 49.8571 35.1604 49.9011 34.9978C49.9451 34.8352 50.0284 34.686 50.1438 34.5633C50.2592 34.4405 50.403 34.3481 50.5626 34.2942C50.7222 34.2403 50.8926 34.2265 51.0588 34.2541C51.225 34.2817 51.3818 34.3498 51.5154 34.4524C51.649 34.555 51.7553 34.6889 51.8248 34.8423C51.8943 34.9957 51.925 35.1639 51.9141 35.332C51.8999 35.5342 51.8262 35.7276 51.7023 35.888C51.5784 36.0484 51.4099 36.1686 51.2179 36.2335C51.0259 36.2984 50.819 36.305 50.6232 36.2526C50.4275 36.2003 50.2516 36.0912 50.1176 35.9391ZM50.8899 34.9406C50.8271 34.9405 50.7656 34.9588 50.7131 34.9932C50.6605 35.0276 50.6191 35.0766 50.594 35.1342C50.569 35.1917 50.5612 35.2554 50.5718 35.3173C50.5824 35.3792 50.6109 35.4367 50.6537 35.4826C50.6966 35.5286 50.7519 35.561 50.8129 35.5759C50.8739 35.5908 50.9379 35.5876 50.9971 35.5666C51.0563 35.5457 51.1081 35.5079 51.1461 35.4578C51.1841 35.4078 51.2066 35.3478 51.211 35.2852C51.2139 35.2411 51.2077 35.197 51.1929 35.1554C51.1781 35.1139 51.1549 35.0758 51.1248 35.0435C51.0948 35.0113 51.0584 34.9855 51.018 34.9678C50.9776 34.9501 50.934 34.9408 50.8899 34.9406Z" fill="#31424F"/>
<path d="M13.0441 51.9003H9.1019C8.75443 51.9003 8.42119 51.7623 8.17548 51.5166C7.92978 51.2709 7.79175 50.9376 7.79175 50.5901V38.2515H14.3542V50.5901C14.3544 50.7622 14.3206 50.9327 14.2548 51.0917C14.189 51.2507 14.0925 51.3952 13.9709 51.5169C13.8492 51.6386 13.7047 51.7351 13.5456 51.8009C13.3866 51.8667 13.2162 51.9004 13.0441 51.9003Z" fill="#A9AFC4"/>
<path d="M47.0567 51.9003H43.1145C42.767 51.9003 42.4338 51.7623 42.1881 51.5166C41.9424 51.2709 41.8043 50.9376 41.8043 50.5901V38.2515H48.3668V50.5901C48.367 50.7622 48.3332 50.9327 48.2674 51.0917C48.2016 51.2507 48.1051 51.3952 47.9834 51.5169C47.8617 51.6386 47.7172 51.7351 47.5582 51.8009C47.3992 51.8667 47.2288 51.9004 47.0567 51.9003Z" fill="#A9AFC4"/>
<path style="mix-blend-mode:multiply" d="M7.79175 38.2515H14.3542V48.6976H12.4863C10.7727 48.7007 9.12537 48.0361 7.8937 46.8448L7.79175 46.7464V38.2515Z" fill="url(#paint0_linear_62_2388)"/>
<path style="mix-blend-mode:multiply" d="M48.3668 38.2515V46.7464L48.2648 46.8448C47.0336 48.0361 45.3866 48.7007 43.6734 48.6976H41.8054V38.2515H48.3668Z" fill="url(#paint1_linear_62_2388)"/>
<path d="M13.0441 52.2519H9.1019C8.66128 52.2515 8.2388 52.0764 7.92723 51.7648C7.61567 51.4532 7.4405 51.0308 7.44019 50.5901V37.8999H14.7058V50.5901C14.7055 51.0308 14.5303 51.4532 14.2188 51.7648C13.9072 52.0764 13.4847 52.2515 13.0441 52.2519ZM8.14331 38.603V50.5901C8.14362 50.8443 8.24471 51.0879 8.42442 51.2676C8.60412 51.4473 8.84776 51.5484 9.1019 51.5487H13.0441C13.2982 51.5484 13.5419 51.4473 13.7216 51.2676C13.9013 51.0879 14.0024 50.8443 14.0027 50.5901V38.603H8.14331Z" fill="#31424F"/>
<path d="M47.0567 52.2519H43.1145C42.6739 52.2515 42.2514 52.0764 41.9398 51.7648C41.6282 51.4532 41.4531 51.0308 41.4528 50.5901V37.8999H48.7184V50.5901C48.7181 51.0308 48.5429 51.4532 48.2313 51.7648C47.9198 52.0764 47.4973 52.2515 47.0567 52.2519ZM42.1559 38.603V50.5901C42.1562 50.8443 42.2573 51.0879 42.437 51.2676C42.6167 51.4473 42.8603 51.5484 43.1145 51.5487H47.0567C47.3108 51.5484 47.5544 51.4473 47.7341 51.2676C47.9139 51.0879 48.0149 50.8443 48.0153 50.5901V38.603H42.1559Z" fill="#31424F"/>
<path d="M48.3668 38.2524V44.038L46.9113 45.4442C46.0418 46.2824 44.8812 46.7507 43.6734 46.7509H12.4863C11.2783 46.7508 10.1172 46.2824 9.24727 45.4442L7.79297 44.038V38.2524H10.6992L12.2133 40.9302H43.5633L45.4477 38.2524H48.3668Z" fill="#A9AFC4"/>
<path style="mix-blend-mode:multiply" d="M48.3668 38.2524V44.038L46.9113 45.4442C46.0418 46.2824 44.8812 46.7507 43.6734 46.7509H12.4863C11.2783 46.7508 10.1172 46.2824 9.24727 45.4442L7.79297 44.038V38.2524H10.6992L12.2133 40.9302H43.5633L45.4477 38.2524H48.3668Z" fill="url(#paint2_linear_62_2388)"/>
<path style="mix-blend-mode:multiply" d="M12.2122 40.9302V42.5708L15.3399 44.2114H40.4368L43.5633 42.5708V40.9302H12.2122Z" fill="url(#paint3_linear_62_2388)"/>
<path d="M42.2789 21.4032C42.0016 20.6739 41.5091 20.046 40.8668 19.6029C40.2245 19.1599 39.4627 18.9225 38.6824 18.9224H17.4714C16.6911 18.9225 15.9293 19.1599 15.287 19.6029C14.6447 20.046 14.1522 20.6739 13.875 21.4032L10.2703 30.9024H45.8882L42.2789 21.4032Z" fill="#DEE1EC"/>
<path d="M45.8882 30.9024H10.2703L13.8796 21.4103C14.1565 20.6805 14.6488 20.0522 15.2911 19.6089C15.9335 19.1655 16.6956 18.9281 17.4761 18.9282H38.6871C39.4677 18.9281 40.23 19.1654 40.8726 19.6087C41.5152 20.0521 42.0077 20.6804 42.2847 21.4103L45.8882 30.9024Z" fill="#DEE1EC"/>
<path d="M45.8882 30.9038H10.2703L13.8796 21.4034C14.1569 20.6739 14.6493 20.0459 15.2916 19.6026C15.9339 19.1594 16.6957 18.9218 17.4761 18.9214H38.6871C39.4674 18.922 40.2292 19.1596 40.8715 19.6029C41.5137 20.0461 42.0062 20.674 42.2835 21.4034C44.6039 27.5183 41.68 19.8226 45.8882 30.9038Z" fill="#DEE1EC"/>
<path d="M12.9926 30.9026L16.2445 22.3022C16.3403 22.0531 16.5092 21.8386 16.729 21.687C16.9487 21.5354 17.2092 21.4537 17.4761 21.4526H38.6871C38.9541 21.4536 39.2146 21.5352 39.4344 21.6868C39.6542 21.8384 39.823 22.053 39.9187 22.3022L43.2375 30.9026H12.9926Z" fill="#F5F5F5"/>
<path style="mix-blend-mode:multiply" d="M27.9915 21.4526L23.3895 30.9026H20.8723L25.4754 21.4526H27.9915Z" fill="url(#paint4_linear_62_2388)"/>
<path style="mix-blend-mode:multiply" d="M20.3109 21.4526L15.7078 30.9026H14.9695L19.5726 21.4526H20.3109Z" fill="url(#paint5_linear_62_2388)"/>
<path style="mix-blend-mode:multiply" d="M40.0969 22.7769L36.1395 30.9026H29.1797L33.7828 21.4526H38.6777C38.9448 21.4536 39.2053 21.5352 39.425 21.6868C39.6448 21.8384 39.8137 22.053 39.9094 22.3022L40.0969 22.7769Z" fill="url(#paint6_linear_62_2388)"/>
<path d="M43.7449 31.2542H12.484L15.9164 22.178C16.0376 21.8622 16.2514 21.5904 16.5297 21.3982C16.808 21.2061 17.138 21.1025 17.4762 21.1011H38.6871C39.0254 21.1023 39.3554 21.2057 39.6339 21.3976C39.9124 21.5896 40.1265 21.8612 40.2481 22.1769L43.7449 31.2542ZM13.5012 30.5511H42.7207L39.586 22.4288C39.516 22.2457 39.3922 22.088 39.231 21.9766C39.0697 21.8651 38.8785 21.805 38.6824 21.8042H17.4715C17.2758 21.8051 17.085 21.8652 16.9239 21.9764C16.7629 22.0876 16.6393 22.2449 16.5692 22.4276L13.5012 30.5511Z" fill="#31424F"/>
<path d="M10.2703 30.9023L10.684 29.8148L8.69177 27.5391C8.59455 27.4285 8.47485 27.3399 8.34066 27.2793C8.20648 27.2187 8.06089 27.1874 7.91365 27.1875H6.1031C5.82929 27.1875 5.56669 27.2963 5.37307 27.4899C5.17945 27.6835 5.07068 27.9461 5.07068 28.2199V29.877C5.07053 30.0126 5.09712 30.1469 5.14895 30.2722C5.20078 30.3976 5.27682 30.5114 5.37272 30.6073C5.46862 30.7032 5.5825 30.7793 5.70783 30.8311C5.83316 30.8829 5.96748 30.9095 6.1031 30.9094L10.2703 30.9023Z" fill="#DEE1EC"/>
<path d="M45.8883 30.9026L45.4758 29.8151L47.468 27.5347C47.5649 27.424 47.6844 27.3353 47.8184 27.2747C47.9524 27.2141 48.0979 27.1828 48.245 27.1831H50.0555C50.3293 27.1831 50.5919 27.2919 50.7855 27.4855C50.9792 27.6791 51.0879 27.9417 51.0879 28.2155V29.8726C51.0881 30.0082 51.0615 30.1425 51.0097 30.2678C50.9578 30.3932 50.8818 30.507 50.7859 30.6029C50.69 30.6988 50.5761 30.7749 50.4508 30.8267C50.3255 30.8785 50.1911 30.9051 50.0555 30.905L45.8883 30.9026Z" fill="#DEE1EC"/>
<path d="M10.5129 31.2541H6.1031C5.73614 31.2538 5.3843 31.1079 5.12482 30.8484C4.86534 30.5889 4.71943 30.2371 4.71912 29.8701V28.2131C4.71974 27.8462 4.86575 27.4946 5.12516 27.2351C5.38457 26.9757 5.73624 26.8297 6.1031 26.8291H7.91365C8.11079 26.8288 8.30575 26.8704 8.48557 26.9513C8.66539 27.0321 8.82596 27.1502 8.95662 27.2979L11.0871 29.7424L10.5129 31.2541ZM6.1031 27.5322C5.92262 27.5325 5.74962 27.6044 5.622 27.732C5.49438 27.8596 5.42255 28.0326 5.42224 28.2131V29.8701C5.42224 30.0507 5.49397 30.2239 5.62166 30.3516C5.74935 30.4792 5.92253 30.551 6.1031 30.551H10.0277L10.2797 29.883L8.42693 27.7654C8.36295 27.6921 8.28408 27.6333 8.19557 27.5929C8.10706 27.5525 8.01095 27.5314 7.91365 27.5311L6.1031 27.5322Z" fill="#31424F"/>
<path d="M50.0555 31.2539H45.6458L45.0715 29.7422L47.2032 27.3047C47.3335 27.157 47.4938 27.0388 47.6735 26.9579C47.8531 26.8771 48.048 26.8355 48.245 26.8359H50.0555C50.4223 26.8347 50.7746 26.979 51.0351 27.2371C51.2957 27.4952 51.4432 27.8461 51.4454 28.2129V29.8699C51.4454 30.0522 51.4094 30.2326 51.3395 30.4009C51.2695 30.5692 51.1671 30.722 51.0379 30.8506C50.9088 30.9792 50.7555 31.081 50.5869 31.1502C50.4184 31.2195 50.2378 31.2547 50.0555 31.2539ZM46.1309 30.5508H50.0555C50.2361 30.5508 50.4093 30.4791 50.537 30.3514C50.6646 30.2237 50.7364 30.0505 50.7364 29.8699V28.2129C50.7364 28.0323 50.6646 27.8591 50.537 27.7315C50.4093 27.6038 50.2361 27.532 50.0555 27.532H48.245C48.1478 27.5324 48.0519 27.5535 47.9636 27.5939C47.8753 27.6343 47.7966 27.6931 47.7329 27.7664L45.879 29.8828L46.1309 30.5508Z" fill="#31424F"/>
<path d="M48.3667 36.3444C48.3667 35.3964 47.9906 34.5772 47.4832 33.7183L45.8882 30.9058H10.2703L8.67651 33.7183C8.16909 34.6065 7.79175 35.3964 7.79175 36.3444V38.2511H10.6992L12.2121 40.93H43.5632L45.4476 38.2511H48.3667V36.3444Z" fill="#DEE1EC"/>
<path d="M48.7183 38.6027H7.44019V36.3445C7.44019 35.2664 7.88901 34.3594 8.37769 33.5391L10.0699 30.5508H46.0933L47.789 33.5449C48.2695 34.3582 48.7183 35.2652 48.7183 36.3445V38.6027ZM8.14331 37.8996H48.0152V36.3445C48.0152 35.4352 47.6144 34.6301 47.1808 33.8977L45.6832 31.2539H10.4753L8.98237 33.8918C8.54526 34.6312 8.14331 35.4352 8.14331 36.3445V37.8996Z" fill="#31424F"/>
<path d="M43.6734 47.0991H12.4863C11.1866 47.1013 9.93728 46.5968 9.00347 45.6929L7.44019 44.187V37.8999H10.9042L12.4218 40.5788H43.3816L45.2648 37.8999H48.7183V44.187L47.155 45.694C46.2215 46.5975 44.9725 47.1015 43.6734 47.0991ZM8.14331 43.8882L9.49214 45.1878C10.2949 45.9649 11.369 46.3984 12.4863 46.396H43.6734C44.7906 46.3981 45.8647 45.9647 46.6675 45.1878L48.0152 43.8882V38.603H45.6304L43.746 41.2819H12.007L10.4941 38.603H8.14331V43.8882Z" fill="#31424F"/>
<path d="M11.9531 34.1262L16.5141 35.0824C16.7463 35.1321 16.9545 35.2599 17.1038 35.4446C17.2531 35.6294 17.3345 35.8597 17.3344 36.0972V36.4488L15.8109 38.2476H10.6992V35.1422C10.6992 34.9875 10.7337 34.8347 10.8002 34.6951C10.8668 34.5555 10.9637 34.4325 11.0838 34.3351C11.204 34.2377 11.3444 34.1684 11.4948 34.1323C11.6452 34.0961 11.8018 34.094 11.9531 34.1262Z" fill="#F5F5F5"/>
<path d="M4.21875 51.5464H53.6262V52.2495H4.21875V51.5464Z" fill="#31424F"/>
<path style="mix-blend-mode:multiply" d="M43.8844 25.6257C42.0811 25.4746 40.3767 24.7376 39.0316 23.527C37.6864 22.3164 36.7744 20.6989 36.4348 18.9214H38.6836C39.464 18.922 40.2258 19.1596 40.868 19.6029C41.5103 20.0461 42.0027 20.674 42.2801 21.4034L43.8844 25.6257Z" fill="url(#paint7_linear_62_2388)"/>
<path d="M44.1973 34.1262L39.6364 35.0824C39.404 35.1319 39.1957 35.2597 39.0463 35.4445C38.897 35.6292 38.8157 35.8597 38.816 36.0973V36.4488L40.3395 38.2477H45.4559V35.1422C45.4561 34.987 45.4215 34.8338 45.3547 34.6937C45.2879 34.5537 45.1905 34.4304 45.0698 34.3329C44.949 34.2355 44.808 34.1663 44.657 34.1305C44.506 34.0947 44.3489 34.0933 44.1973 34.1262Z" fill="#F5F5F5"/>
<path d="M15.9785 38.6029H10.3535V35.1423C10.3535 34.9358 10.3995 34.7318 10.4883 34.5453C10.5771 34.3588 10.7063 34.1945 10.8666 34.0642C11.0269 33.934 11.2143 33.8412 11.415 33.7925C11.6157 33.7438 11.8248 33.7406 12.027 33.7829L16.5879 34.738C16.8996 34.8044 17.1792 34.9754 17.3803 35.2227C17.5813 35.47 17.6917 35.7787 17.693 36.0974V36.5814L15.9785 38.6029ZM11.0566 37.8997H15.6586L16.984 36.3282V36.0939C16.9832 35.9364 16.9286 35.784 16.8293 35.6619C16.7299 35.5398 16.5918 35.4553 16.4379 35.4224L11.877 34.4673C11.7775 34.4474 11.6749 34.4497 11.5765 34.4742C11.4781 34.4987 11.3864 34.5448 11.3079 34.609C11.2295 34.6732 11.1662 34.7541 11.1228 34.8457C11.0793 34.9373 11.0567 35.0374 11.0566 35.1388V37.8997Z" fill="#31424F"/>
<path d="M45.7992 38.6029H40.1684L38.4609 36.5815V36.094C38.462 35.7754 38.5721 35.4667 38.7729 35.2194C38.9738 34.9721 39.2532 34.801 39.5648 34.7346L44.1258 33.7795C44.3279 33.7372 44.537 33.7404 44.7377 33.7891C44.9385 33.8378 45.1258 33.9306 45.2861 34.0608C45.4464 34.191 45.5757 34.3554 45.6644 34.5419C45.7532 34.7284 45.7993 34.9323 45.7992 35.1389V38.6029ZM40.4953 37.8998H45.0961V35.1424C45.0962 35.0404 45.0735 34.9397 45.0297 34.8475C44.9859 34.7554 44.9221 34.6742 44.8429 34.6099C44.7638 34.5456 44.6713 34.4997 44.5721 34.4757C44.473 34.4516 44.3698 34.45 44.2699 34.4709L39.709 35.426C39.5557 35.4588 39.4182 35.5428 39.3192 35.6642C39.2201 35.7857 39.1654 35.9373 39.1641 36.094V36.3283L40.4953 37.8998Z" fill="#31424F"/>
<path d="M38.8124 36.4526H17.3354L15.812 38.2515H40.3276L38.8124 36.4526Z" fill="#31424F"/>
<path d="M41.0883 38.603H15.0586L17.168 36.1011H38.9754L41.0883 38.603ZM16.5727 37.8999H39.5742L38.6484 36.8042H17.4984L16.5727 37.8999Z" fill="#31424F"/>
<path d="M40.5234 44.5677H15.2531L11.8605 42.7853V40.5786H43.9148V42.7853L40.5234 44.5677ZM15.4265 43.8646H40.3499L43.2116 42.3599V41.2817H12.5636V42.361L15.4265 43.8646Z" fill="#31424F"/>
<path d="M46.398 31.254H9.7605L13.5515 21.279C13.8562 20.4844 14.3941 19.8006 15.0945 19.3172C15.7949 18.8339 16.6251 18.5737 17.4761 18.5708H38.6871C39.5382 18.5735 40.3687 18.8336 41.0694 19.3169C41.77 19.8003 42.3081 20.4842 42.6128 21.279L46.398 31.254ZM10.7812 30.5509H45.3785L41.9507 21.5274C41.6966 20.866 41.2486 20.2969 40.6653 19.8945C40.0821 19.4922 39.3909 19.2754 38.6824 19.2728H17.4714C16.7631 19.2757 16.0722 19.4925 15.4892 19.8948C14.9062 20.2972 14.4583 20.8662 14.2042 21.5274L10.7812 30.5509Z" fill="#31424F"/>
<path d="M44.5863 23.8581C48.177 23.8581 51.0878 20.9473 51.0878 17.3565C51.0878 13.7658 48.177 10.855 44.5863 10.855C40.9956 10.855 38.0847 13.7658 38.0847 17.3565C38.0847 20.9473 40.9956 23.8581 44.5863 23.8581Z" fill="#F5F5F5"/>
<path d="M44.5863 24.211C43.2309 24.2101 41.9061 23.8073 40.7795 23.0536C39.653 22.2999 38.7752 21.2291 38.2571 19.9765C37.739 18.724 37.604 17.346 37.869 16.0167C38.134 14.6874 38.7872 13.4665 39.7459 12.5084C40.7047 11.5502 41.926 10.8979 43.2555 10.6338C44.585 10.3697 45.9629 10.5057 47.2151 11.0246C48.4673 11.5436 49.5375 12.4221 50.2905 13.5492C51.0434 14.6763 51.4453 16.0013 51.4453 17.3567C51.4464 18.2576 51.2697 19.1497 50.9253 19.9821C50.5809 20.8145 50.0757 21.5708 49.4385 22.2075C48.8013 22.8443 48.0447 23.349 47.2121 23.6928C46.3794 24.0366 45.4871 24.2127 44.5863 24.211ZM44.5863 11.2032C43.37 11.2042 42.1813 11.5656 41.1704 12.242C40.1595 12.9184 39.3719 13.8792 38.9069 15.0031C38.442 16.1271 38.3207 17.3636 38.5584 18.5564C38.7961 19.7493 39.3821 20.8449 40.2423 21.7048C41.1025 22.5646 42.1983 23.1502 43.3912 23.3874C44.5842 23.6247 45.8207 23.5029 46.9444 23.0376C48.0682 22.5722 49.0287 21.7842 49.7047 20.773C50.3807 19.7619 50.7417 18.573 50.7422 17.3567C50.7403 15.7252 50.091 14.1611 48.9367 13.008C47.7825 11.8549 46.2178 11.207 44.5863 11.2067V11.2032Z" fill="#31424F"/>
<path d="M48.4442 15.9375L46.7004 16.9371V16.2586H40.7438C40.4951 16.2586 40.2567 16.3574 40.0809 16.5332C39.905 16.709 39.8063 16.9475 39.8063 17.1961V17.734C39.8063 17.9826 39.905 18.2211 40.0809 18.3969C40.2567 18.5727 40.4951 18.6715 40.7438 18.6715H41.6133V18.9117C41.6136 19.1708 41.7167 19.4192 41.8999 19.6025C42.0831 19.7857 42.3315 19.8888 42.5907 19.8891H46.2235C46.3993 19.889 46.5719 19.8414 46.7229 19.7512C46.874 19.6611 46.9978 19.5317 47.0813 19.377L48.9223 16.3395L49.3653 16.1543V15.9375H48.4442ZM40.7438 18.1148C40.6433 18.1148 40.5469 18.075 40.4757 18.0041C40.4045 17.9331 40.3644 17.8368 40.3641 17.7363V17.1984C40.3644 17.0979 40.4045 17.0017 40.4757 16.9307C40.5469 16.8598 40.6433 16.8199 40.7438 16.8199H41.6133V18.1148H40.7438Z" fill="#C44E47"/>
<path d="M45.9468 15.0691H44.564V14.5113H45.1347V13.8926H43.2597V14.5113H43.8281V15.0691H42.3656C42.1848 15.0692 42.0101 15.1344 41.8735 15.2528C41.7368 15.3712 41.6474 15.5348 41.6215 15.7137H46.691C46.6651 15.5348 46.5756 15.3712 46.439 15.2528C46.3023 15.1344 46.1276 15.0692 45.9468 15.0691Z" fill="#C44E47"/>
<path d="M50.4324 11.0186L51.9022 9.54877L52.3993 10.0459L50.9295 11.5157L50.4324 11.0186Z" fill="#31424F"/>
<path d="M48.6246 8.1001H49.3278V10.179H48.6246V8.1001Z" fill="#31424F"/>
<path d="M51.8356 12.5039H53.9145V13.207H51.8356V12.5039Z" fill="#31424F"/>
<path d="M11.5699 21.5884L10.9207 21.3165L11.1925 20.6685L11.8406 20.9392L11.5699 21.5884ZM12.3046 19.9056L11.6917 19.5704C11.8118 19.353 11.9441 19.1425 12.0878 18.9399L12.6597 19.3501C12.5308 19.5283 12.4123 19.7138 12.3046 19.9056ZM13.3863 18.5157L12.9058 18.0024C13.0878 17.8332 13.2795 17.6747 13.48 17.5278L13.8949 18.095C13.7175 18.2255 13.5477 18.366 13.3863 18.5157ZM14.8429 17.5349L14.5464 16.8974C14.7717 16.7928 15.003 16.7016 15.239 16.6243L15.457 17.2923C15.2477 17.3625 15.0427 17.4447 14.8429 17.5384V17.5349ZM16.5316 17.0556L16.4484 16.3583C16.6938 16.3294 16.9407 16.3149 17.1878 16.3149V17.0181C16.9685 17.0205 16.7495 17.0342 16.5316 17.0591V17.0556ZM26.5664 17.0181H25.8632V16.3149H26.5664V17.0181ZM24.6914 17.0181H23.9882V16.3149H24.6914V17.0181ZM22.8164 17.0181H22.1132V16.3149H22.8164V17.0181ZM20.9414 17.0181H20.2382V16.3149H20.9414V17.0181ZM19.0664 17.0181H18.3632V16.3149H19.0664V17.0181Z" fill="#A9AFC4"/>
<defs>
<linearGradient id="paint0_linear_62_2388" x1="11.073" y1="48.3706" x2="11.073" y2="41.3956" gradientUnits="userSpaceOnUse">
<stop stop-color="#CACFDD"/>
<stop offset="1" stop-color="#EEF0F1"/>
</linearGradient>
<linearGradient id="paint1_linear_62_2388" x1="45.0867" y1="48.3706" x2="45.0867" y2="41.3956" gradientUnits="userSpaceOnUse">
<stop stop-color="#CACFDD"/>
<stop offset="1" stop-color="#EEF0F1"/>
</linearGradient>
<linearGradient id="paint2_linear_62_2388" x1="28.0793" y1="46.4825" x2="28.0793" y2="40.8095" gradientUnits="userSpaceOnUse">
<stop stop-color="#CACFDD"/>
<stop offset="1" stop-color="#EEF0F1"/>
</linearGradient>
<linearGradient id="paint3_linear_62_2388" x1="27.8883" y1="40.3419" x2="27.8883" y2="43.9548" gradientUnits="userSpaceOnUse">
<stop stop-color="#CACFDD"/>
<stop offset="1" stop-color="#EEF0F1"/>
</linearGradient>
<linearGradient id="paint4_linear_62_2388" x1="20.8723" y1="26.1776" x2="27.9915" y2="26.1776" gradientUnits="userSpaceOnUse">
<stop stop-color="#CACFDD"/>
<stop offset="1" stop-color="#EEF0F1"/>
</linearGradient>
<linearGradient id="paint5_linear_62_2388" x1="14.9695" y1="26.1776" x2="20.3109" y2="26.1776" gradientUnits="userSpaceOnUse">
<stop stop-color="#CACFDD"/>
<stop offset="1" stop-color="#EEF0F1"/>
</linearGradient>
<linearGradient id="paint6_linear_62_2388" x1="29.1844" y1="26.1776" x2="40.0969" y2="26.1776" gradientUnits="userSpaceOnUse">
<stop stop-color="#CACFDD"/>
<stop offset="1" stop-color="#EEF0F1"/>
</linearGradient>
<linearGradient id="paint7_linear_62_2388" x1="36.4348" y1="22.2741" x2="43.8844" y2="22.2741" gradientUnits="userSpaceOnUse">
<stop stop-color="#CACFDD"/>
<stop offset="1" stop-color="#EEF0F1"/>
</linearGradient>
</defs>
</svg>
