<svg width="100" height="101" viewBox="0 0 100 101" fill="none" xmlns="http://www.w3.org/2000/svg">
<path d="M59.2617 77.3442V86.5669H48.373C43.2797 86.5672 38.2535 87.7302 33.6777 89.9673L31.0996 91.2271C27.8763 92.8026 24.3358 93.6216 20.748 93.6216C17.654 93.6216 14.6867 92.3925 12.4989 90.2047C10.3111 88.0169 9.08203 85.0496 9.08203 81.9556C9.08203 78.8615 10.3111 75.8942 12.4989 73.7064C14.6867 71.5186 17.654 70.2896 20.748 70.2896C24.3359 70.2905 27.8763 71.1101 31.0996 72.686L33.6777 73.9458C38.2531 76.1838 43.2796 77.3463 48.373 77.3442H59.2617Z" fill="#DEE1EC"/>
<path d="M16.1406 43.4536H25.3613V54.3423C25.3626 59.4356 26.5256 64.4615 28.7617 69.0376L30.0215 71.6157C31.5979 74.8387 32.417 78.3794 32.416 81.9673C32.436 83.5119 32.149 85.045 31.5718 86.4778C30.9945 87.9106 30.1385 89.2145 29.0533 90.3138C27.9681 91.4131 26.6754 92.286 25.2502 92.8817C23.825 93.4775 22.2957 93.7842 20.751 93.7842C19.2063 93.7842 17.6769 93.4775 16.2517 92.8817C14.8265 92.286 13.5338 91.4131 12.4487 90.3138C11.3635 89.2145 10.5074 87.9106 9.93017 86.4778C9.35291 85.045 9.06595 83.5119 9.08594 81.9673C9.08601 78.3795 9.90498 74.8391 11.4805 71.6157L12.7402 69.0376C14.9789 64.4623 16.142 59.4359 16.1406 54.3423V43.4536Z" fill="#DEE1EC"/>
<path style="mix-blend-mode:multiply" d="M30.3535 72.3423C29.3164 69.9653 27.6348 67.395 26.4277 62.7368C25.3689 63.2461 24.2811 63.6929 23.1699 64.0747L20.4551 65.0063C17.6337 65.98 14.9936 67.4156 12.6426 69.2544L11.4863 71.6216C9.91374 74.8384 9.0942 78.371 9.08984 81.9517C9.09506 85.0476 10.3203 88.0167 12.5 90.2153C16.1426 93.856 21.3203 94.1099 26.0586 93.0122C27.8012 92.6085 29.4924 92.0084 31.0996 91.2231L33.4434 90.0747C35.287 87.7205 36.7241 85.0747 37.6953 82.2466C38.627 79.5395 39.0098 78.2603 39.9668 76.2739C35.3711 75.0767 32.7949 73.4185 30.3535 72.3423Z" fill="url(#paint0_linear_59_1315)"/>
<path d="M20.75 94.2056C17.5006 94.2056 14.3842 92.9147 12.0866 90.6171C9.78887 88.3194 8.49805 85.203 8.49805 81.9536C8.49805 78.7042 9.78887 75.5879 12.0866 73.2902C14.3842 70.9925 17.5006 69.7017 20.75 69.7017C24.426 69.7075 28.0527 70.5469 31.3574 72.1567L33.9355 73.4165C38.4327 75.6096 43.3696 76.7517 48.373 76.7563H59.8477V87.1509H48.373C43.3699 87.1578 38.4335 88.2997 33.9355 90.4907C31.1309 91.8579 29.334 92.856 26.1934 93.5845C24.4082 93.9963 22.5821 94.2047 20.75 94.2056ZM20.75 70.8735C17.8114 70.8735 14.9931 72.0409 12.9152 74.1188C10.8373 76.1967 9.66992 79.015 9.66992 81.9536C9.66992 84.8922 10.8373 87.7105 12.9152 89.7884C14.9931 91.8663 17.8114 93.0337 20.75 93.0337C24.2492 93.0313 27.7016 92.2297 30.8438 90.6899L33.4199 89.4302C38.0785 87.161 43.1912 85.9783 48.373 85.9712H58.6758V77.9302H48.3613C43.1831 77.9245 38.0738 76.7417 33.4199 74.4712L30.8438 73.2114C27.6991 71.6793 24.248 70.88 20.75 70.8735Z" fill="#31424F"/>
<path d="M20.75 94.2173C19.1408 94.2183 17.5471 93.9021 16.0602 93.2868C14.5732 92.6714 13.2222 91.769 12.0843 90.6311C10.9464 89.4932 10.0439 88.1421 9.42858 86.6552C8.81323 85.1682 8.49702 83.5746 8.49805 81.9653C8.50408 78.2919 9.34351 74.6677 10.9531 71.3657L12.2129 68.7876C14.4053 64.2902 15.5473 59.3534 15.5527 54.3501V42.8677H25.9453V54.3423C25.955 59.3465 27.101 64.2831 29.2969 68.7798L30.5469 71.3657C32.1619 74.6661 33.0035 78.291 33.0078 81.9653C33.0088 83.5751 32.6924 85.1692 32.0767 86.6565C31.461 88.1438 30.558 89.4952 29.4195 90.6331C28.281 91.7711 26.9293 92.6734 25.4416 93.2884C23.954 93.9034 22.3597 94.2191 20.75 94.2173ZM16.7266 44.0396V54.3423C16.7203 59.5245 15.5369 64.6375 13.2656 69.2954L12.0059 71.8716C10.4704 75.0153 9.66895 78.4667 9.66211 81.9653C9.64263 83.4326 9.91481 84.8892 10.4628 86.2505C11.0109 87.6117 11.8239 88.8506 12.8546 89.8951C13.8853 90.9396 15.1132 91.7689 16.4671 92.335C17.821 92.901 19.2738 93.1925 20.7412 93.1925C22.2086 93.1925 23.6615 92.901 25.0153 92.335C26.3692 91.7689 27.5971 90.9396 28.6279 89.8951C29.6586 88.8506 30.4715 87.6117 31.0196 86.2505C31.5676 84.8892 31.8398 83.4326 31.8203 81.9653C31.818 78.4662 31.0164 75.0138 29.4766 71.8716L28.2168 69.2954C25.9485 64.6365 24.7659 59.524 24.7578 54.3423V44.0396H16.7266Z" fill="#31424F"/>
<path d="M26.0847 83.6281C27.322 80.6803 25.9354 77.2875 22.9876 76.0502C20.0397 74.8129 16.647 76.1995 15.4097 79.1473C14.1724 82.0952 15.559 85.4879 18.5068 86.7252C21.4547 87.9626 24.8474 86.5759 26.0847 83.6281Z" fill="#31424F"/>
<path d="M48.5608 47.615L60.5812 35.5946L67.1002 42.1136L55.0798 54.134L48.5608 47.615Z" fill="#DEE1EC"/>
<path style="mix-blend-mode:multiply" d="M67.1113 42.1118L58.3789 50.8442C58.0415 49.2421 57.2453 47.7726 56.0873 46.615C54.9294 45.4574 53.4597 44.6617 51.8574 44.3247L60.5918 35.5903L67.1113 42.1118Z" fill="url(#paint1_linear_59_1315)"/>
<path d="M55.0898 54.9595L47.7402 47.6118L60.5918 34.7603L67.9414 42.1099L55.0898 54.9595ZM49.3984 47.6118L55.0898 53.3032L66.2832 42.1099L60.5918 36.4165L49.3984 47.6118Z" fill="#31424F"/>
<path d="M44.7266 51.4614L51.2481 57.9829L43.543 65.6821C39.9387 69.283 37.2038 73.6591 35.5469 78.4771L34.6153 81.1899C33.4512 84.5831 31.5272 87.6654 28.9903 90.2017C27.9193 91.3369 26.6315 92.2457 25.203 92.8743C23.7745 93.5028 22.2344 93.8384 20.6739 93.8611C19.1135 93.8837 17.5643 93.5931 16.1181 93.0063C14.672 92.4195 13.3583 91.5485 12.2548 90.4449C11.1513 89.3413 10.2805 88.0275 9.69385 86.5813C9.10724 85.1351 8.81676 83.5858 8.83963 82.0254C8.8625 80.4649 9.19824 78.9248 9.82698 77.4964C10.4557 76.068 11.3647 74.7803 12.5 73.7095C15.0376 71.1728 18.1203 69.2483 21.5137 68.0825L24.2188 67.147C29.0369 65.4953 33.4135 62.7636 37.0137 59.1606L44.7266 51.4614Z" fill="#DEE1EC"/>
<path d="M20.75 94.2056C18.327 94.2054 15.9585 93.4869 13.9439 92.1407C11.9292 90.7946 10.359 88.8813 9.43163 86.6428C8.50429 84.4043 8.2615 81.9411 8.73396 79.5646C9.20642 77.1881 10.3729 75.0051 12.086 73.2915C14.6888 70.6954 17.8469 68.724 21.3223 67.5259L24.0371 66.5942C28.7679 64.9649 33.0663 62.2814 36.6075 58.7466L44.7266 50.6333L52.0762 57.9829L43.9571 66.0923C40.4241 69.6349 37.7409 73.9329 36.1094 78.6626C35.0957 81.6138 34.5274 83.5923 32.8223 86.3247C31.8521 87.8816 30.708 89.3231 29.4121 90.6216C28.2767 91.7616 26.9265 92.6653 25.4398 93.2805C23.953 93.8956 22.359 94.21 20.75 94.2056ZM44.7266 52.2915L37.4395 59.5747C33.7705 63.2368 29.3162 66.016 24.4141 67.7017L21.7032 68.6313C18.3962 69.7718 15.3911 71.6477 12.9141 74.1177C11.8699 75.1432 11.0392 76.3653 10.4699 77.7137C9.9007 79.062 9.60424 80.5097 9.59765 81.9733C9.59107 83.4368 9.87451 84.8872 10.4316 86.2406C10.9887 87.5939 11.8084 88.8236 12.8433 89.8584C13.8783 90.8932 15.108 91.7127 16.4614 92.2697C17.8149 92.8266 19.2653 93.1098 20.7288 93.1031C22.1924 93.0963 23.6401 92.7997 24.9883 92.2303C26.3366 91.6609 27.5587 90.83 28.584 89.7856C31.058 87.3118 32.9345 84.3057 34.0703 80.9966L35.002 78.2837C36.6903 73.3856 39.4685 68.9346 43.127 65.2661L50.4141 57.981L44.7266 52.2915Z" fill="#31424F"/>
<path d="M43.685 50.4341L47.5321 46.587L56.0865 55.1414L52.2394 58.9885L43.685 50.4341Z" fill="#F5F5F5"/>
<path d="M52.25 59.8188L42.875 50.4438L47.5527 45.7681L56.9277 55.1528L52.25 59.8188ZM44.5234 50.4438L52.25 58.1704L55.2734 55.1431L47.5469 47.4165L44.5234 50.4438Z" fill="#31424F"/>
<path d="M89.9551 37.4575L63.4766 63.9282L59.3047 59.7544C61.444 57.5782 62.637 54.645 62.6239 51.5934C62.6108 48.5417 61.3926 45.6189 59.2346 43.4612C57.0767 41.3035 54.1537 40.0856 51.102 40.0729C48.0504 40.0601 45.1173 41.2535 42.9414 43.3931L38.7695 39.2192L65.248 12.7485C65.5527 12.4438 65.9145 12.2021 66.3126 12.0372C66.7107 11.8722 67.1374 11.7874 67.5684 11.7874C67.9993 11.7874 68.426 11.8722 68.8241 12.0372C69.2222 12.2021 69.584 12.4438 69.8887 12.7485L89.9551 32.8149C90.5701 33.4309 90.9156 34.2658 90.9156 35.1362C90.9156 36.0067 90.5701 36.8416 89.9551 37.4575Z" fill="#F5F5F5"/>
<path d="M88.3496 39.063L63.6406 14.356L65.248 12.7485C65.5527 12.4438 65.9145 12.2021 66.3126 12.0372C66.7107 11.8722 67.1374 11.7874 67.5684 11.7874C67.9993 11.7874 68.426 11.8722 68.8241 12.0372C69.2222 12.2021 69.584 12.4438 69.8887 12.7485L89.9551 32.8149C90.5701 33.4309 90.9156 34.2658 90.9156 35.1362C90.9156 36.0067 90.5701 36.8416 89.9551 37.4575L88.3496 39.063Z" fill="#F5F5F5"/>
<path d="M68.4193 38.5337C69.2058 36.9676 68.5739 35.0604 67.0078 34.2739C65.4417 33.4873 63.5345 34.1193 62.748 35.6853C61.9614 37.2514 62.5934 39.1586 64.1594 39.9452C65.7255 40.7317 67.6327 40.0998 68.4193 38.5337Z" fill="#31424F"/>
<path d="M26.3528 84.156C27.7883 81.2977 26.635 77.8168 23.7767 76.3813C20.9183 74.9457 17.4375 76.0991 16.0019 78.9574C14.5664 81.8157 15.7198 85.2966 18.5781 86.7321C21.4364 88.1677 24.9172 87.0143 26.3528 84.156Z" fill="#C44E47"/>
<path d="M60.1154 17.8782L63.6311 14.3625L88.3347 39.0661L84.819 42.5817L60.1154 17.8782Z" fill="#DEE1EC"/>
<path d="M63.4766 64.7563L58.4746 59.7544L58.8887 59.3403C60.8821 57.2675 61.9831 54.4955 61.9552 51.6198C61.9273 48.7441 60.7727 45.994 58.7394 43.9602C56.7062 41.9265 53.9564 40.7712 51.0807 40.7426C48.205 40.7139 45.4327 41.8142 43.3594 43.8071L42.9492 44.2173L37.9473 39.2153L64.832 12.3345C65.558 11.6107 66.5413 11.2043 67.5664 11.2043C68.5915 11.2043 69.5748 11.6107 70.3008 12.3345L90.3691 32.4009C91.0929 33.1269 91.4992 34.1101 91.4992 35.1352C91.4992 36.1603 91.0929 37.1436 90.3691 37.8696L63.4766 64.7563ZM60.1309 59.7446L63.4766 63.0981L89.5332 37.0434C90.0381 36.5371 90.3216 35.8512 90.3216 35.1362C90.3216 34.4212 90.0381 33.7353 89.5332 33.229L69.4746 13.1626C68.9686 12.6578 68.2831 12.3744 67.5684 12.3744C66.8537 12.3744 66.1681 12.6578 65.6621 13.1626L39.6055 39.2192L42.9688 42.5727C45.2804 40.4723 48.3119 39.3422 51.4344 39.4169C54.5569 39.4915 57.5309 40.7653 59.7395 42.9739C61.9481 45.1825 63.2218 48.1564 63.2965 51.279C63.3712 54.4015 62.2411 57.433 60.1406 59.7446H60.1309Z" fill="#31424F"/>
<path d="M84.832 43.4087L59.2969 17.8716L63.6406 13.5259L89.1777 39.063L84.832 43.4087ZM60.9531 17.8716L84.832 41.7505L87.5195 39.063L63.6406 15.1841L60.9531 17.8716Z" fill="#31424F"/>
<path d="M25.4024 21.1138C24.8094 21.1145 24.2295 20.9392 23.7362 20.61C23.243 20.2807 22.8586 19.8125 22.6319 19.2645C22.4051 18.7166 22.3462 18.1136 22.4626 17.5321C22.5789 16.9506 22.8653 16.4168 23.2855 15.9983C23.7056 15.5798 24.2406 15.2955 24.8225 15.1814C25.4045 15.0673 26.0072 15.1286 26.5542 15.3575C27.1013 15.5864 27.5681 15.9726 27.8953 16.4672C28.2226 16.9617 28.3957 17.5422 28.3926 18.1353C28.3875 18.9256 28.0704 19.682 27.5104 20.2398C26.9504 20.7976 26.1928 21.1117 25.4024 21.1138ZM25.4024 16.2974C25.0423 16.297 24.6902 16.4033 24.3905 16.6029C24.0907 16.8024 23.8569 17.0863 23.7184 17.4187C23.5799 17.7511 23.5429 18.117 23.6122 18.4704C23.6815 18.8237 23.854 19.1486 24.1078 19.404C24.3616 19.6595 24.6853 19.834 25.0382 19.9055C25.3911 19.9771 25.7573 19.9425 26.0906 19.8062C26.4238 19.6698 26.7092 19.4377 26.9107 19.1393C27.1122 18.8409 27.2207 18.4895 27.2227 18.1294C27.224 17.8893 27.1778 17.6513 27.0868 17.429C26.9958 17.2068 26.8618 17.0048 26.6924 16.8345C26.5231 16.6643 26.3218 16.5292 26.1 16.437C25.8783 16.3448 25.6405 16.2974 25.4004 16.2974H25.4024Z" fill="#31424F"/>
<path d="M33.3984 28.6451C33.4004 28.2737 33.494 27.9085 33.6709 27.5819C33.8478 27.2553 34.1025 26.9774 34.4125 26.7728C34.7225 26.5682 35.0782 26.4433 35.448 26.409C35.8179 26.3748 36.1904 26.4323 36.5327 26.5765C36.875 26.7207 37.1764 26.9471 37.4103 27.2356C37.6441 27.5242 37.8032 27.8659 37.8734 28.2307C37.9435 28.5954 37.9227 28.9718 37.8126 29.3265C37.7025 29.6812 37.5065 30.0033 37.2422 30.2642C36.9249 30.5787 36.5213 30.7919 36.0827 30.8767C35.6441 30.9616 35.1902 30.9143 34.7785 30.7409C34.3668 30.5675 34.0159 30.2757 33.7702 29.9026C33.5245 29.5295 33.3951 29.0918 33.3984 28.6451ZM35.6543 27.5728C35.4398 27.5728 35.2301 27.6364 35.0516 27.7554C34.8731 27.8745 34.734 28.0437 34.6516 28.2418C34.5692 28.4399 34.5474 28.658 34.5888 28.8685C34.6302 29.0789 34.7331 29.2725 34.8844 29.4246C35.0357 29.5767 35.2286 29.6805 35.4389 29.7231C35.6491 29.7657 35.8673 29.745 36.0658 29.6637C36.2644 29.5824 36.4344 29.4441 36.5544 29.2663C36.6744 29.0885 36.7391 28.8791 36.7402 28.6646C36.7413 28.5219 36.7141 28.3804 36.6603 28.2483C36.6066 28.1161 36.5272 27.9959 36.4269 27.8944C36.3266 27.793 36.2072 27.7124 36.0756 27.6572C35.944 27.602 35.8028 27.5733 35.6602 27.5728H35.6543Z" fill="#31424F"/>
<path d="M74.1064 88.1604L74.935 87.3319L77.368 89.765L76.5395 90.5935L74.1064 88.1604Z" fill="#31424F"/>
<path d="M76.3438 84.3208H79.7852V85.4927H76.3438V84.3208Z" fill="#31424F"/>
<path d="M71.3242 89.6392H72.4961V93.0806H71.3242V89.6392Z" fill="#31424F"/>
<path d="M39.8691 14.8247C40.618 14.8247 41.3595 14.9722 42.0513 15.2589C42.7432 15.5455 43.3717 15.9656 43.9012 16.4952C44.4306 17.0248 44.8505 17.6536 45.1369 18.3455C45.4233 19.0374 45.5706 19.779 45.5703 20.5278C45.5701 19.779 45.7173 19.0374 46.0037 18.3455C46.2901 17.6536 46.71 17.0248 47.2395 16.4952C47.7689 15.9656 48.3975 15.5455 49.0893 15.2589C49.7811 14.9722 50.5226 14.8247 51.2715 14.8247C49.7594 14.8247 48.3093 14.224 47.2401 13.1549C46.171 12.0857 45.5703 10.6356 45.5703 9.12354C45.5703 10.6356 44.9697 12.0857 43.9005 13.1549C42.8313 14.224 41.3812 14.8247 39.8691 14.8247Z" fill="#C44E47"/>
<path d="M72.6289 64.8013C73.5078 64.8039 74.3498 65.1548 74.9704 65.7772C75.591 66.3996 75.9395 67.2427 75.9395 68.1216C75.9395 67.241 76.2893 66.3964 76.912 65.7738C77.5346 65.1511 78.3792 64.8013 79.2598 64.8013C78.3809 64.8013 77.5378 64.4528 76.9154 63.8322C76.293 63.2117 75.942 62.3696 75.9395 61.4907C75.9369 62.3679 75.5873 63.2085 74.967 63.8288C74.3467 64.4491 73.5061 64.7987 72.6289 64.8013Z" fill="#C44E47"/>
<path d="M81.5488 19.3384L80.7207 18.5103L81.5488 17.6822L82.3789 18.5103L81.5488 19.3384ZM79.3398 17.1294L78.5156 16.3013L79.3438 15.4732L80.1719 16.3013L79.3398 17.1294ZM77.1309 14.9204L76.3008 14.0904L77.1309 13.2622L77.959 14.0904L77.1309 14.9204ZM59.2969 13.4986L58.4688 12.6704L59.2969 11.8423L60.127 12.6704L59.2969 13.4986ZM74.9219 12.7173L74.0938 11.8892L74.9219 11.0611L75.75 11.8892L74.9219 12.7173ZM61.5098 11.2974L60.6816 10.4693L61.5098 9.63919L62.3379 10.4693L61.5098 11.2974ZM72.7129 10.5161C72.459 10.253 72.1861 10.0088 71.8965 9.78567L72.6113 8.85794C72.9413 9.1113 73.252 9.38875 73.541 9.68801L72.7129 10.5161ZM63.752 9.34427L63.1406 8.34427C63.4979 8.12137 63.8713 7.92551 64.2578 7.75833L64.709 8.84036C64.3773 8.97986 64.0567 9.1444 63.75 9.33255L63.752 9.34427ZM70.3418 8.86575C70.0095 8.72308 69.6667 8.6062 69.3164 8.51614L69.6113 7.38137C70.0179 7.48738 70.4161 7.62316 70.8027 7.78762L70.3418 8.86575ZM66.4492 8.36184L66.2793 7.20364C66.6938 7.14278 67.1123 7.11275 67.5313 7.1138V8.28567C67.1694 8.28305 66.8077 8.30655 66.4492 8.35598V8.36184Z" fill="#A9AFC4"/>
<path d="M17.416 30.3306H24.0801V43.4536H17.416V30.3306Z" fill="#F5F5F5"/>
<path d="M24.668 44.0396H16.8301V30.3306H18.002V42.8677H23.4961V30.3306H24.668V44.0396Z" fill="#31424F"/>
<path d="M59.2637 78.6196H72.3828V85.2895H59.2637V78.6196Z" fill="#F5F5F5"/>
<path d="M58.6816 85.8774L58.6758 78.0356L72.3809 78.0317L72.3828 79.2036L59.8477 79.2075L59.8516 84.7036L72.3867 84.7017V85.8735L58.6816 85.8774Z" fill="#31424F"/>
<defs>
<linearGradient id="paint0_linear_59_1315" x1="9.08398" y1="78.1567" x2="39.9766" y2="78.1567" gradientUnits="userSpaceOnUse">
<stop stop-color="#CACFDD"/>
<stop offset="1" stop-color="#EEF0F1"/>
</linearGradient>
<linearGradient id="paint1_linear_59_1315" x1="51.8574" y1="43.2173" x2="67.1113" y2="43.2173" gradientUnits="userSpaceOnUse">
<stop stop-color="#CACFDD"/>
<stop offset="1" stop-color="#EEF0F1"/>
</linearGradient>
</defs>
</svg>
