<svg width="100" height="101" viewBox="0 0 100 101" fill="none" xmlns="http://www.w3.org/2000/svg">
<path d="M65.625 18.6313C-34.0938 18.6313 55.9414 18.6313 16.084 18.6313C17.0654 18.6311 18.0372 18.8242 18.9439 19.1996C19.8507 19.5751 20.6746 20.1255 21.3685 20.8195C22.0625 21.5134 22.6129 22.3373 22.9883 23.244C23.3638 24.1508 23.5569 25.1226 23.5566 26.104C23.5566 95.2017 23.5273 74.4595 23.5273 80.4692C23.5273 81.4506 23.7206 82.4223 24.0962 83.3289C24.4717 84.2355 25.0221 85.0593 25.716 85.7532C26.4099 86.4471 27.2337 86.9975 28.1403 87.3731C29.047 87.7486 30.0187 87.9419 31 87.9419C31.9813 87.9419 32.953 87.7486 33.8597 87.3731C34.7663 86.9975 35.5901 86.4471 36.284 85.7532C36.9779 85.0593 37.5283 84.2355 37.9038 83.3289C38.2794 82.4223 38.4727 81.4506 38.4727 80.4692V78.1646C38.4922 78.1548 38.1914 78.1646 73.0977 78.1646V26.1099C73.0984 25.128 72.9057 24.1557 72.5305 23.2484C72.1553 22.3411 71.605 21.5166 70.911 20.8221C70.2171 20.1276 69.393 19.5766 68.486 19.2007C67.579 18.8248 66.6068 18.6313 65.625 18.6313Z" fill="#F5F5F5"/>
<path style="mix-blend-mode:multiply" d="M53.9824 39.1099C53.7289 41.3808 52.8706 43.5421 51.4972 45.3683C50.1238 47.1945 48.2854 48.6187 46.174 49.4923C44.0626 50.366 41.7554 50.6571 39.4932 50.3352C37.2309 50.0134 35.0965 49.0904 33.3125 47.6626L30.9922 49.9829C31.1468 50.5003 31.1584 51.0499 31.0257 51.5733C30.8929 52.0968 30.6208 52.5744 30.2383 52.9556L23.5605 59.6333V62.4614L30.2383 55.7837C30.6197 55.4018 30.8911 54.9241 31.0238 54.401C31.1565 53.8778 31.1456 53.3285 30.9922 52.811L33.3125 50.4907C35.2846 52.0689 37.6804 53.0267 40.1969 53.2431C42.7134 53.4596 45.2375 52.9249 47.4501 51.7066C49.6627 50.4884 51.4643 48.6413 52.627 46.3991C53.7898 44.1569 54.2615 41.6202 53.9824 39.1099Z" fill="url(#paint0_linear_59_1617)"/>
<path style="mix-blend-mode:multiply" d="M73.1035 26.1099V43.0454L68.0254 40.5259C64.6332 38.8462 61.7778 36.252 59.7814 33.0359C57.785 29.8199 56.7269 26.11 56.7266 22.3247V18.6314H65.625C66.6074 18.6303 67.5803 18.8231 68.4881 19.1985C69.3959 19.574 70.2208 20.1248 70.9154 20.8195C71.61 21.5141 72.1609 22.3389 72.5363 23.2467C72.9118 24.1545 73.1045 25.1275 73.1035 26.1099Z" fill="url(#paint1_linear_59_1617)"/>
<path d="M8.61719 28.4146V26.1099C8.61719 24.128 9.40448 22.2273 10.8059 20.8259C12.2073 19.4245 14.108 18.6372 16.0898 18.6372C18.0717 18.6372 19.9724 19.4245 21.3738 20.8259C22.7752 22.2273 23.5625 24.128 23.5625 26.1099V28.4146H8.61719Z" fill="url(#paint2_linear_59_1617)"/>
<path d="M38.4766 78.1685V80.4731C38.4768 81.4545 38.2837 82.4264 37.9083 83.3331C37.5328 84.2399 36.9824 85.0637 36.2884 85.7577C35.5945 86.4516 34.7706 87.0021 33.8639 87.3775C32.9571 87.753 31.9853 87.9461 31.0039 87.9458C80.3184 87.9458 80.4297 87.9653 80.4297 87.9458C82.4116 87.9458 84.3123 87.1585 85.7136 85.7571C87.115 84.3557 87.9023 82.455 87.9023 80.4731V78.1685H38.4766Z" fill="url(#paint3_linear_59_1617)"/>
<path d="M24.1484 29.0005H8.03125V26.1099C8.03125 23.9726 8.88028 21.9229 10.3916 20.4116C11.9028 18.9003 13.9526 18.0513 16.0898 18.0513C18.2271 18.0513 20.2768 18.9003 21.7881 20.4116C23.2994 21.9229 24.1484 23.9726 24.1484 26.1099V29.0005ZM9.20312 27.8286H22.9766V26.1099C22.9766 24.2834 22.251 22.5317 20.9595 21.2402C19.668 19.9487 17.9163 19.2231 16.0898 19.2231C14.2634 19.2231 12.5117 19.9487 11.2202 21.2402C9.92869 22.5317 9.20312 24.2834 9.20312 26.1099V27.8286Z" fill="#31424F"/>
<path d="M31.0059 88.5317V87.3599C32.8314 87.3573 34.5813 86.6308 35.872 85.3398C37.1626 84.0488 37.8886 82.2986 37.8906 80.4731V77.5825H88.4902V80.4731C88.4877 82.6096 87.6378 84.6579 86.1271 86.1686C84.6164 87.6793 82.5681 88.5292 80.4316 88.5317H31.0059ZM35.1875 87.3599H80.4316C82.2575 87.3578 84.0079 86.6316 85.299 85.3405C86.5901 84.0494 87.3163 82.299 87.3184 80.4731V78.7544H39.0625V80.4731C39.0624 81.8572 38.7058 83.2179 38.027 84.4241C37.3483 85.6303 36.3704 86.6413 35.1875 87.3599Z" fill="#31424F"/>
<path d="M31.0059 88.5317C28.8694 88.5292 26.8211 87.6793 25.3104 86.1686C23.7997 84.6579 22.9499 82.6096 22.9473 80.4731C22.9473 80.4536 22.9766 80.4419 22.9766 26.1079C22.9776 25.2031 22.8002 24.3069 22.4545 23.4707C22.1088 22.6345 21.6017 21.8746 20.962 21.2346C20.3224 20.5946 19.5628 20.087 18.7268 19.7408C17.8908 19.3947 16.9947 19.2168 16.0898 19.2173V18.0454C68.6035 18.0454 66.2109 18.0454 66.2109 18.0728C68.2407 18.2226 70.1388 19.1341 71.5247 20.6247C72.9105 22.1152 73.6817 24.0746 73.6836 26.1099V78.7544H39.0625V80.4731C39.0599 82.6093 38.2103 84.6572 36.7 86.1679C35.1897 87.6785 33.142 88.5286 31.0059 88.5317ZM24.1191 80.4731C24.1191 81.3775 24.2973 82.273 24.6434 83.1086C24.9895 83.9441 25.4967 84.7033 26.1362 85.3428C26.7757 85.9823 27.5349 86.4895 28.3704 86.8356C29.206 87.1817 30.1015 87.3599 31.0059 87.3599C31.9102 87.3599 32.8058 87.1817 33.6413 86.8356C34.4768 86.4895 35.236 85.9823 35.8755 85.3428C36.515 84.7033 37.0223 83.9441 37.3684 83.1086C37.7144 82.273 37.8926 81.3775 37.8926 80.4731V77.7622C38.459 77.5513 38.3379 77.5825 38.4785 77.5825H72.5176V26.1099C72.5176 25.2047 72.3393 24.3084 71.9929 23.4722C71.6465 22.6359 71.1388 21.8761 70.4988 21.2361C69.8588 20.596 69.0989 20.0883 68.2627 19.742C67.4264 19.3956 66.5301 19.2173 65.625 19.2173H20.2812C21.4634 19.936 22.4403 20.9474 23.1176 22.1537C23.795 23.36 24.1501 24.7205 24.1484 26.104C24.1484 95.1548 24.1191 74.3149 24.1191 80.4731Z" fill="#31424F"/>
<path d="M73.1035 7.69385L59.9395 13.5923V22.3169C59.9393 25.5023 60.8292 28.6245 62.5088 31.3311C64.1884 34.0378 66.5909 36.2212 69.4453 37.6353L73.1035 39.4458L76.7578 37.6353C79.6127 36.2217 82.0158 34.0384 83.6958 31.3317C85.3758 28.625 86.2659 25.5026 86.2656 22.3169V13.5923L73.1035 7.69385Z" fill="#F5F5F5"/>
<path d="M73.1035 40.1001L69.1855 38.1626C66.226 36.7098 63.7347 34.4539 61.9961 31.6527C60.2575 28.8514 59.3418 25.6177 59.3535 22.3208V13.2114L73.1035 7.04541L86.8555 13.2114V22.3188C86.8673 25.6163 85.9515 28.8506 84.2126 31.6522C82.4736 34.4539 79.9817 36.7099 77.0215 38.1626L73.1035 40.1001ZM60.5254 13.9712V22.3188C60.5137 25.3972 61.3684 28.4167 62.9917 31.0323C64.615 33.6478 66.9414 35.7539 69.7051 37.1099L73.1015 38.7935L76.5 37.1099C79.2636 35.7539 81.5901 33.6478 83.2133 31.0323C84.8366 28.4167 85.6913 25.3972 85.6797 22.3188V13.9712L73.1035 8.33057L60.5254 13.9712Z" fill="#31424F"/>
<path d="M71.5703 29.2017L65.3203 22.9517L67.2715 21.0005L71.5703 25.2993L79.9375 16.9321L81.8887 18.8833L71.5703 29.2017Z" fill="#C44E47"/>
<path d="M38.7051 55.5337H65.1641V57.9966H38.7051V55.5337Z" fill="#DEE1EC"/>
<path d="M31.3867 61.9692H46.0273V64.4321H31.3867V61.9692Z" fill="#DEE1EC"/>
<path d="M50.5254 61.9692H65.166V64.4321H50.5254V61.9692Z" fill="#DEE1EC"/>
<path d="M31.3867 68.4067H46.0273V70.8696H31.3867V68.4067Z" fill="#DEE1EC"/>
<path d="M44.1967 46.2093C48.9151 44.5983 51.4342 39.4672 49.8231 34.7487C48.2121 30.0302 43.081 27.5111 38.3625 29.1222C33.644 30.7333 31.1249 35.8644 32.736 40.5829C34.3471 45.3013 39.4782 47.8204 44.1967 46.2093Z" fill="#F5F5F5"/>
<path d="M30.9922 49.9829L30.6875 50.2856L30.0781 49.686L30.5977 49.1685C30.7716 49.4173 30.9048 49.6922 30.9922 49.9829Z" fill="#31424F"/>
<path d="M30.6035 49.1646L30.0781 49.686L30.6816 50.2895L30.9863 49.9868C30.9033 49.6941 30.7741 49.4165 30.6035 49.1646Z" fill="#DEE1EC"/>
<path d="M16.5527 62.4048C16.22 62.0721 15.9561 61.6772 15.776 61.2425C15.5959 60.8079 15.5032 60.342 15.5032 59.8716C15.5032 59.4011 15.5959 58.9352 15.776 58.5006C15.9561 58.0659 16.22 57.671 16.5527 57.3383L25.5859 48.3051C25.9186 47.9725 26.3135 47.7086 26.7482 47.5286C27.1828 47.3485 27.6487 47.2559 28.1191 47.2559C28.5896 47.2559 29.0554 47.3485 29.4901 47.5286C29.9247 47.7086 30.3197 47.9725 30.6523 48.3051C30.985 48.6378 31.2489 49.0327 31.4289 49.4674C31.6089 49.902 31.7016 50.3679 31.7016 50.8383C31.7016 51.3088 31.6089 51.7747 31.4289 52.2093C31.2489 52.644 30.985 53.0389 30.6523 53.3716L21.6191 62.4048C20.9466 63.0753 20.0356 63.4518 19.0859 63.4518C18.1362 63.4518 17.2253 63.0753 16.5527 62.4048ZM28.125 48.4282C27.8087 48.4278 27.4954 48.4899 27.2031 48.6109C26.9108 48.7319 26.6453 48.9094 26.4219 49.1333L17.3828 58.1665C16.9308 58.6188 16.6768 59.2321 16.6768 59.8716C16.6768 60.511 16.9308 61.1243 17.3828 61.5766C17.835 62.0281 18.4479 62.2816 19.0869 62.2816C19.7259 62.2816 20.3388 62.0281 20.791 61.5766L29.8242 52.5434C30.1603 52.2063 30.3892 51.7774 30.4819 51.3105C30.5747 50.8436 30.5273 50.3597 30.3456 49.9197C30.164 49.4797 29.8562 49.1033 29.461 48.8379C29.0658 48.5725 28.601 48.4299 28.125 48.4282Z" fill="#31424F"/>
<path d="M50.3223 46.7231C52.0649 44.9806 53.2661 42.7711 53.7811 40.3612C54.2961 37.9513 54.1029 35.4439 53.2248 33.1413C52.3467 30.8387 50.8212 28.8394 48.8322 27.3844C46.8433 25.9294 44.4759 25.0809 42.0155 24.9412C39.5551 24.8015 37.1069 25.3766 34.9661 26.5972C32.8252 27.8177 31.0832 29.6316 29.9502 31.82C28.8171 34.0084 28.3414 36.4778 28.5803 38.9306C28.8193 41.3833 29.7627 43.7145 31.2969 45.643L28.6719 48.268L30.6895 50.2856L33.3125 47.6625C35.7665 49.6265 38.8586 50.6165 41.9969 50.4432C45.1353 50.2699 48.0995 48.9453 50.3223 46.7231ZM34.9043 31.3071C36.1671 30.0443 37.776 29.1844 39.5275 28.836C41.279 28.4876 43.0945 28.6665 44.7443 29.3499C46.3942 30.0333 47.8044 31.1906 48.7965 32.6755C49.7887 34.1603 50.3182 35.906 50.3182 37.6918C50.3182 39.4776 49.7887 41.2234 48.7965 42.7082C47.8044 44.1931 46.3942 45.3504 44.7443 46.0338C43.0945 46.7172 41.279 46.896 39.5275 46.5477C37.776 46.1993 36.1671 45.3393 34.9043 44.0766C33.2114 42.383 32.2604 40.0864 32.2604 37.6918C32.2604 35.2972 33.2114 33.0007 34.9043 31.3071Z" fill="#DEE1EC"/>
<path d="M30.6895 51.1137L27.8438 48.268L30.5195 45.5922C29.0096 43.5311 28.1224 41.0802 27.9633 38.5301C27.8041 35.9801 28.3797 33.4379 29.6218 31.205C30.8638 28.9722 32.7201 27.1424 34.9707 25.9328C37.2212 24.7231 39.7714 24.1842 42.3189 24.3801C44.8664 24.5761 47.3043 25.4985 49.3434 27.038C51.3825 28.5776 52.9373 30.6697 53.8233 33.0662C54.7093 35.4626 54.8895 38.063 54.3423 40.5587C53.7952 43.0545 52.5437 45.3409 50.7363 47.1469C48.4777 49.4142 45.479 50.7936 42.2876 51.0331C39.0963 51.2727 35.9253 50.3564 33.3535 48.4516L30.6895 51.1137ZM33.2695 46.8774L33.6777 47.2055C36.0172 49.0846 38.9687 50.0325 41.9647 49.8671C44.9608 49.7016 47.79 48.4343 49.9082 46.309C51.5709 44.6465 52.7171 42.5385 53.2086 40.2392C53.7001 37.9398 53.5159 35.5474 52.6782 33.3504C51.8404 31.1535 50.385 29.2458 48.4873 27.8574C46.5897 26.4691 44.3309 25.6594 41.9834 25.5261C39.6359 25.3927 37.3 25.9413 35.2573 27.1058C33.2147 28.2703 31.5525 30.0009 30.4714 32.0888C29.3902 34.1768 28.9362 36.533 29.1641 38.8732C29.392 41.2134 30.2921 43.4377 31.7559 45.2778L32.082 45.686L29.4922 48.268L30.6816 49.4575L33.2695 46.8774ZM41.291 47.309C39.0655 47.3099 36.9085 46.5391 35.1876 45.1279C33.4667 43.7166 32.2884 41.7523 31.8534 39.5697C31.4185 37.3871 31.7539 35.1212 32.8024 33.1581C33.8509 31.195 35.5477 29.6562 37.6036 28.804C39.6595 27.9517 41.9473 27.8388 44.0772 28.4843C46.207 29.1298 48.0472 30.4939 49.284 32.3441C50.5208 34.1943 51.0778 36.4162 50.8601 38.631C50.6423 40.8459 49.6633 42.9168 48.0898 44.4907C47.1972 45.384 46.1374 46.0927 44.9708 46.5763C43.8043 47.0598 42.5538 47.3088 41.291 47.309ZM41.291 29.2504C39.621 29.2504 37.9885 29.7457 36.5999 30.6735C35.2114 31.6014 34.1292 32.9202 33.4902 34.4631C32.8512 36.0061 32.6841 37.7038 33.01 39.3417C33.336 40.9796 34.1403 42.4841 35.3213 43.6649C36.5024 44.8456 38.007 45.6496 39.645 45.9752C41.283 46.3007 42.9807 46.1332 44.5235 45.4939C46.0663 44.8545 47.3848 43.772 48.3124 42.3833C49.2399 40.9945 49.7348 39.3619 49.7344 37.6918C49.7351 36.5829 49.5173 35.4847 49.0932 34.4601C48.6691 33.4355 48.0472 32.5045 47.263 31.7205C46.4788 30.9364 45.5476 30.3147 44.5229 29.8909C43.4982 29.467 42.3999 29.2494 41.291 29.2504Z" fill="#31424F"/>
<path d="M16.9668 61.9906C16.4055 61.4281 16.0903 60.666 16.0903 59.8714C16.0903 59.0768 16.4055 58.3147 16.9668 57.7523L26 48.7191C26.2783 48.4408 26.6086 48.22 26.9722 48.0694C27.3358 47.9188 27.7256 47.8413 28.1191 47.8413C28.5127 47.8413 28.9024 47.9188 29.266 48.0694C29.6296 48.22 29.96 48.4408 30.2383 48.7191C30.5165 48.9974 30.7373 49.3278 30.8879 49.6914C31.0385 50.055 31.116 50.4447 31.116 50.8382C31.116 51.2318 31.0385 51.6215 30.8879 51.9851C30.7373 52.3487 30.5165 52.6791 30.2383 52.9574L21.2051 61.9906C20.6429 62.5523 19.8807 62.8679 19.0859 62.8679C18.2912 62.8679 17.529 62.5523 16.9668 61.9906Z" fill="#31424F"/>
<path d="M18.8979 90.2104L21.487 87.6213L22.3155 88.4499L19.7264 91.039L18.8979 90.2104Z" fill="#31424F"/>
<path d="M24.3477 89.9634H25.5195V93.6255H24.3477V89.9634Z" fill="#31424F"/>
<path d="M16.2324 84.6587H19.8945V85.8306H16.2324V84.6587Z" fill="#31424F"/>
<path d="M91.4492 37.7349C91.0829 37.7346 90.7201 37.8066 90.3816 37.9466C90.0431 38.0867 89.7355 38.2921 89.4765 38.5512C89.2174 38.8102 89.012 39.1178 88.8719 39.4563C88.7319 39.7948 88.6599 40.1576 88.6602 40.5239C88.6602 39.7842 88.3663 39.0748 87.8433 38.5518C87.3202 38.0287 86.6108 37.7349 85.8711 37.7349C86.6108 37.7349 87.3202 37.441 87.8433 36.918C88.3663 36.3949 88.6602 35.6855 88.6602 34.9458C88.6602 35.6855 88.954 36.3949 89.4771 36.918C90.0001 37.441 90.7095 37.7349 91.4492 37.7349Z" fill="#C44E47"/>
<path d="M88.4902 52.9224C86.9772 52.9224 85.526 53.5234 84.4561 54.5933C83.3862 55.6632 82.7852 57.1144 82.7852 58.6274C82.7852 57.1144 82.1841 55.6632 81.1142 54.5933C80.0443 53.5234 78.5932 52.9224 77.0801 52.9224C78.5933 52.9218 80.0444 52.3203 81.1143 51.2501C82.1842 50.1799 82.7852 48.7286 82.7852 47.2153C82.7852 48.7286 83.3862 50.1799 84.456 51.2501C85.5259 52.3203 86.977 52.9218 88.4902 52.9224Z" fill="#C44E47"/>
<path d="M55.6641 13.2993H54.4922V12.1274H55.6641V13.2993ZM52.5391 13.2993H51.3672V12.1274H52.5391V13.2993ZM49.4141 13.2993H48.2422V12.1274H49.4141V13.2993ZM46.2891 13.2993H45.1172V12.1274H46.2891V13.2993ZM43.1641 13.2993H41.9922V12.1274H43.1641V13.2993Z" fill="#A9AFC4"/>
<path d="M41.998 15.2134H43.1699V16.3853H41.998V15.2134Z" fill="#A9AFC4"/>
<path d="M41.998 20.5942H43.1699V21.7661H41.998V20.5942Z" fill="#A9AFC4"/>
<defs>
<linearGradient id="paint0_linear_59_1617" x1="23.5605" y1="50.7856" x2="54.0605" y2="50.7856" gradientUnits="userSpaceOnUse">
<stop stop-color="#CACFDD"/>
<stop offset="1" stop-color="#EEF0F1"/>
</linearGradient>
<linearGradient id="paint1_linear_59_1617" x1="56.7187" y1="30.8384" x2="73.1035" y2="30.8384" gradientUnits="userSpaceOnUse">
<stop stop-color="#CACFDD"/>
<stop offset="1" stop-color="#EEF0F1"/>
</linearGradient>
<linearGradient id="paint2_linear_59_1617" x1="8.61719" y1="23.5259" x2="23.5625" y2="23.5259" gradientUnits="userSpaceOnUse">
<stop stop-color="#CACFDD"/>
<stop offset="1" stop-color="#EEF0F1"/>
</linearGradient>
<linearGradient id="paint3_linear_59_1617" x1="31.0059" y1="83.061" x2="87.9043" y2="83.061" gradientUnits="userSpaceOnUse">
<stop stop-color="#CACFDD"/>
<stop offset="1" stop-color="#EEF0F1"/>
</linearGradient>
</defs>
</svg>
