<svg width="100" height="101" viewBox="0 0 100 101" fill="none" xmlns="http://www.w3.org/2000/svg">
<path d="M85.6816 32.6528V77.6001C85.6932 78.2097 85.4622 78.7989 85.0396 79.2383C84.617 79.6778 84.0373 79.9315 83.4277 79.9439C60.1953 79.9439 11.6738 79.9731 13.541 79.9692C13.2388 79.9697 12.9394 79.9107 12.6601 79.7954C12.3807 79.6801 12.1269 79.5108 11.913 79.2973C11.6991 79.0838 11.5294 78.8302 11.4136 78.551C11.2979 78.2719 11.2383 77.9726 11.2383 77.6704V32.7251C11.2383 31.4712 12.2363 30.3462 13.4902 30.3462H83.3789C83.9881 30.3533 84.5703 30.5987 85.0007 31.0299C85.4311 31.4611 85.6756 32.0436 85.6816 32.6528Z" fill="#A9AFC4"/>
<path d="M85.6797 32.6548V70.4868H11.2383V32.7446C11.2383 31.479 12.2461 30.3481 13.5117 30.3481H83.373C83.9828 30.3547 84.5656 30.5999 84.9968 31.031C85.4279 31.4622 85.6731 32.0451 85.6797 32.6548Z" fill="#DEE1EC"/>
<path d="M15.2871 34.3931H81.873V70.4849H15.2871V34.3931Z" fill="#F5F5F5"/>
<path d="M57.0547 79.9497H39.9258L39.9355 89.397H57.0547V79.9497Z" fill="#A9AFC4"/>
<path d="M58.9551 93.1411L38.043 93.1626C37.7971 93.1631 37.5535 93.1152 37.3262 93.0215C37.0989 92.9278 36.8922 92.7902 36.7181 92.6166C36.5439 92.443 36.4057 92.2368 36.3113 92.0098C36.2169 91.7828 36.1682 91.5393 36.168 91.2935C36.1669 90.7945 36.3629 90.3154 36.7133 89.9602C37.0637 89.6051 37.5402 89.4026 38.0391 89.397H58.9512C59.4372 89.4127 59.8981 89.6168 60.2364 89.9662C60.5746 90.3155 60.7637 90.7828 60.7637 91.269C60.7637 91.7553 60.5746 92.2226 60.2364 92.5719C59.8981 92.9213 59.4372 93.1254 58.9512 93.1411H58.9551Z" fill="#A9AFC4"/>
<path d="M38.041 93.7485C37.3863 93.7485 36.7583 93.4884 36.2953 93.0255C35.8324 92.5625 35.5723 91.9345 35.5723 91.2798C35.5723 90.625 35.8324 89.9971 36.2953 89.5341C36.7583 89.0711 37.3863 88.811 38.041 88.811H58.9512C59.5911 88.8291 60.1987 89.096 60.645 89.5549C61.0912 90.0139 61.3409 90.6289 61.3409 91.269C61.3409 91.9092 61.0912 92.5241 60.645 92.9831C60.1987 93.4421 59.5911 93.709 58.9512 93.727L38.041 93.7485ZM58.9531 89.9829H38.0391C37.7837 89.9868 37.5352 90.0657 37.3243 90.2097C37.1134 90.3537 36.9495 90.5565 36.8529 90.7929C36.7564 91.0293 36.7314 91.2889 36.7812 91.5393C36.831 91.7898 36.9532 92.0201 37.1328 92.2017C37.2518 92.3212 37.3934 92.4159 37.5493 92.4803C37.7052 92.5447 37.8723 92.5774 38.041 92.5767L58.9531 92.5552C59.2856 92.5422 59.6001 92.401 59.8307 92.1613C60.0613 91.9215 60.1901 91.6017 60.1901 91.269C60.1901 90.9364 60.0613 90.6166 59.8307 90.3768C59.6001 90.137 59.2856 89.9959 58.9531 89.9829Z" fill="#31424F"/>
<path style="mix-blend-mode:multiply" d="M39.9258 79.9497H57.0547V84.8247H39.9297L39.9258 79.9497Z" fill="url(#paint0_linear_59_1530)"/>
<path d="M24.2129 92.5669H73.7832V93.7388H24.2129V92.5669Z" fill="#31424F"/>
<path d="M57.6406 89.9829H39.3496L39.3379 79.3735H57.6406V89.9829ZM40.5195 88.811H56.4687V80.5454H40.5117L40.5195 88.811Z" fill="#31424F"/>
<path d="M82.459 71.0728H14.7012V33.8071H82.459V71.0728ZM15.873 69.9009H81.2871V34.979H15.873V69.9009Z" fill="#31424F"/>
<path d="M21.9512 51.6411H44.9199V55.5884H21.9512V51.6411Z" fill="#31424F"/>
<path d="M21.9512 45.0415H44.9199V48.9888H21.9512V45.0415Z" fill="#A9AFC4"/>
<path d="M21.9512 58.7817H26.2676V59.9536H21.9512V58.7817Z" fill="#31424F"/>
<path d="M29.9766 58.7817H44.9199V59.9536H29.9766V58.7817Z" fill="#31424F"/>
<path d="M21.9512 63.2349H26.2676V64.4067H21.9512V63.2349Z" fill="#31424F"/>
<path d="M29.9766 63.2349H44.9199V64.4067H29.9766V63.2349Z" fill="#31424F"/>
<path d="M50.873 45.0415H75.2324V64.647H50.873V45.0415Z" fill="#DEE1EC"/>
<path d="M54.5391 48.4536H57.7402V49.6255H54.5391V48.4536Z" fill="#31424F"/>
<path d="M60.4883 48.4536H71.5664V49.6255H60.4883V48.4536Z" fill="#31424F"/>
<path d="M54.5391 52.7271H57.7402V53.8989H54.5391V52.7271Z" fill="#31424F"/>
<path d="M60.4883 52.7271H71.5664V53.8989H60.4883V52.7271Z" fill="#31424F"/>
<path d="M54.543 56.6606H71.5664V61.1782H54.543V56.6606Z" fill="#A9AFC4"/>
<path style="mix-blend-mode:multiply" d="M76.0391 30.3501C68.6816 38.1411 58.832 43.5649 47.9434 43.5649C37.0547 43.5649 27.2051 38.1392 19.8457 30.3501H76.0391Z" fill="url(#paint1_linear_59_1530)"/>
<path d="M13.5391 80.561C13.1601 80.5613 12.7847 80.4869 12.4345 80.342C12.0843 80.1971 11.766 79.9847 11.498 79.7168C11.2299 79.4489 11.0172 79.1308 10.8721 78.7807C10.727 78.4305 10.6523 78.0553 10.6523 77.6763V32.7231C10.6523 31.145 11.8809 29.7622 13.4922 29.7603H83.377C83.7563 29.76 84.132 29.8345 84.4826 29.9794C84.8331 30.1243 85.1517 30.3369 85.4201 30.6049C85.6885 30.873 85.9015 31.1913 86.0469 31.5417C86.1924 31.892 86.2673 32.2676 86.2676 32.647V77.6001C86.2791 78.3651 85.9864 79.1033 85.4539 79.6526C84.9215 80.202 84.1927 80.5175 83.4277 80.5298L13.5391 80.561ZM13.4922 30.936C12.5391 30.936 11.8242 31.7896 11.8242 32.7271V77.6763C11.8245 77.9015 11.8691 78.1244 11.9555 78.3324C12.0419 78.5403 12.1684 78.7292 12.3279 78.8883C12.4873 79.0473 12.6765 79.1734 12.8846 79.2594C13.0928 79.3453 13.3158 79.3894 13.541 79.3892L83.4277 79.3735C83.8817 79.3608 84.3122 79.1686 84.6248 78.8391C84.9374 78.5097 85.1067 78.0698 85.0957 77.6157V32.6489C85.0947 32.1943 84.9133 31.7586 84.5915 31.4375C84.2696 31.1164 83.8335 30.936 83.3789 30.936H13.4922Z" fill="#31424F"/>
<path d="M47.9434 8.14893C29.832 8.14893 18.8281 24.311 18.8281 24.311C18.8281 24.311 29.832 40.4731 47.9434 40.4731C66.0527 40.4731 77.0566 24.311 77.0566 24.311C77.0566 24.311 66.0527 8.14893 47.9434 8.14893Z" fill="#F5F5F5"/>
<path style="mix-blend-mode:multiply" d="M77.0566 24.311C77.0566 24.311 76.4199 25.2446 75.2031 26.6548C71.3555 22.1626 61.6992 12.8442 47.9434 12.8442C34.1875 12.8442 24.5293 22.1802 20.6836 26.6646C20.0267 25.915 19.4081 25.1327 18.8301 24.3208C18.8301 24.3208 29.832 8.15869 47.9434 8.15869C66.0547 8.15869 77.0566 24.311 77.0566 24.311Z" fill="url(#paint2_linear_59_1530)"/>
<path d="M26.2266 32.8482C23.2969 30.4829 20.1504 27.2915 18.1211 24.311C20.1562 21.3208 23.3008 18.1314 26.2266 15.772C40.0938 4.59425 56.3809 5.07472 69.6582 15.772C72.5879 18.1314 75.7305 21.3208 77.7656 24.311C75.7266 27.3071 72.5762 30.4966 69.6582 32.8482C55.7832 44.022 39.5039 43.5454 26.2266 32.8482ZM19.5508 24.311C21.7062 27.1566 24.2049 29.7249 26.9902 31.9575C40.1484 42.5415 55.791 42.5161 68.9238 31.9341C71.6987 29.7099 74.1883 27.1514 76.3359 24.3169C74.1799 21.4708 71.6805 18.9018 68.8945 16.6685C64.4023 13.0513 57.1133 8.74074 47.9434 8.74074C38.7734 8.74074 31.4883 13.0513 26.9902 16.6685C24.2046 18.8993 21.7058 21.4663 19.5508 24.311Z" fill="#31424F"/>
<path d="M48.3066 36.0649C54.7981 36.0649 60.0606 30.8025 60.0606 24.311C60.0606 17.8195 54.7981 12.5571 48.3066 12.5571C41.8151 12.5571 36.5527 17.8195 36.5527 24.311C36.5527 30.8025 41.8151 36.0649 48.3066 36.0649Z" fill="#C44E47"/>
<path d="M41.6309 19.9595C42.9156 19.9595 43.957 18.918 43.957 17.6333C43.957 16.3486 42.9156 15.3071 41.6309 15.3071C40.3461 15.3071 39.3047 16.3486 39.3047 17.6333C39.3047 18.918 40.3461 19.9595 41.6309 19.9595Z" fill="#F5F5F5"/>
<path d="M54.9883 22.3423V21.1704H52.9297C52.852 20.8824 52.7003 20.6198 52.4895 20.4087C52.2788 20.1976 52.0164 20.0454 51.7285 19.9673V17.9126H50.5566V19.9087H49.1426V17.9126H47.9707V19.9087H46.5566V17.9126H45.3848V19.9673C45.0999 20.0479 44.8408 20.2012 44.633 20.4121C44.4251 20.6231 44.2757 20.8843 44.1992 21.1704H42.1426V22.3423H44.1406V23.7563H42.1426V24.9282H44.1406V26.3442H42.1426V27.5161H44.1992C44.2773 27.804 44.4295 28.0664 44.6406 28.2771C44.8517 28.4879 45.1143 28.6396 45.4023 28.7173V30.7739H46.5742V28.7603H47.9883V30.7563H49.1602V28.7603H50.5742V30.7563H51.7461V28.6997C52.0307 28.6195 52.2895 28.4665 52.497 28.2559C52.7045 28.0453 52.8536 27.7843 52.9297 27.4985H54.9863V26.3267H52.9922V24.9106H54.9883V23.7388H52.9922V22.3423H54.9883Z" fill="#31424F"/>
<path d="M45.6406 21.5122H51.4922V27.1548H45.6406V21.5122Z" fill="#F5F5F5"/>
<path d="M89.371 80.1353C89.1482 79.827 89.005 79.4685 88.9541 79.0915C88.9031 78.7146 88.946 78.3309 89.0789 77.9745C89.2119 77.6181 89.4307 77.3 89.7161 77.0485C90.0015 76.797 90.3445 76.6199 90.7148 76.5328C91.0851 76.4457 91.4711 76.4514 91.8387 76.5493C92.2062 76.6473 92.5439 76.8344 92.8218 77.0942C93.0996 77.354 93.309 77.6784 93.4314 78.0385C93.5538 78.3987 93.5854 78.7835 93.5234 79.1588C93.4473 79.6077 93.2405 80.0242 92.9289 80.3562C92.6172 80.6882 92.2146 80.9209 91.7713 81.0251C91.3281 81.1294 90.8639 81.1006 90.437 80.9423C90.01 80.784 89.6392 80.5033 89.371 80.1353ZM91.246 77.647C91.0285 77.6465 90.8153 77.7082 90.6317 77.8251C90.4482 77.9419 90.3019 78.1088 90.2103 78.3061C90.1187 78.5035 90.0855 78.7229 90.1147 78.9385C90.1439 79.1541 90.2342 79.3569 90.3751 79.5227C90.5159 79.6886 90.7013 79.8106 90.9093 79.8744C91.1173 79.9381 91.3393 79.941 91.5488 79.8826C91.7584 79.8241 91.9469 79.7069 92.0919 79.5447C92.2369 79.3825 92.3324 79.1821 92.3671 78.9674C92.3931 78.8049 92.3835 78.6387 92.3392 78.4802C92.2948 78.3218 92.2167 78.1748 92.1102 78.0494C92.0037 77.924 91.8714 77.8231 91.7222 77.7536C91.573 77.6842 91.4106 77.6478 91.246 77.647Z" fill="#31424F"/>
<path d="M82.1582 88.2329C81.9118 88.2331 81.668 88.1821 81.4423 88.0834C81.2165 87.9846 81.0137 87.8401 80.8466 87.659C80.6795 87.4779 80.5518 87.2642 80.4714 87.0313C80.391 86.7983 80.3598 86.5513 80.3797 86.3057C80.3996 86.0601 80.4702 85.8213 80.587 85.6043C80.7038 85.3874 80.8644 85.197 81.0584 85.0452C81.2525 84.8934 81.4759 84.7834 81.7146 84.7223C81.9533 84.6611 82.2021 84.6501 82.4453 84.6899C82.8872 84.7623 83.2857 84.9983 83.5616 85.351C83.8376 85.7038 83.9707 86.1474 83.9345 86.5937C83.8983 87.0401 83.6955 87.4565 83.3664 87.7602C83.0373 88.0639 82.606 88.2326 82.1582 88.2329ZM82.1582 85.8384C82.0413 85.838 81.9269 85.8711 81.8283 85.9338C81.7297 85.9965 81.6511 86.0861 81.6019 86.192C81.5526 86.2979 81.5348 86.4157 81.5504 86.5315C81.566 86.6473 81.6145 86.7561 81.6901 86.8452C81.7657 86.9343 81.8652 86.9999 81.9769 87.0341C82.0885 87.0684 82.2077 87.07 82.3202 87.0386C82.4328 87.0073 82.534 86.9444 82.6119 86.8573C82.6897 86.7702 82.7411 86.6627 82.7597 86.5474C82.7735 86.4602 82.7683 86.371 82.7445 86.286C82.7206 86.201 82.6787 86.1222 82.6216 86.0549C82.5645 85.9876 82.4935 85.9334 82.4135 85.896C82.3335 85.8586 82.2464 85.839 82.1582 85.8384Z" fill="#31424F"/>
<path d="M15.881 13.9504L16.7095 13.1219L19.4767 15.8892L18.6482 16.7177L15.881 13.9504Z" fill="#31424F"/>
<path d="M13.0996 18.9458H17.0137V20.1177H13.0996V18.9458Z" fill="#31424F"/>
<path d="M21.4688 10.2329H22.6406V14.147H21.4688V10.2329Z" fill="#31424F"/>
<path d="M13.043 84.6235L13.1348 83.4517C13.4238 83.4751 13.8867 83.4712 14.2598 83.4712V84.6431C13.7109 84.647 13.418 84.647 13.043 84.6235ZM23.5527 84.647H22.4609V83.4751H23.5508L23.5527 84.647ZM20.5078 84.647H19.3359V83.4751H20.5078V84.647ZM17.3828 84.647H16.2109V83.4751H17.3828V84.647ZM10.9766 84.145C10.5803 83.9894 10.1992 83.7978 9.83789 83.5728L10.4551 82.5767C10.7572 82.7643 11.0755 82.9245 11.4063 83.0552L10.9766 84.145ZM8.22266 82.2036C7.94189 81.8836 7.69025 81.5391 7.4707 81.1743L8.47266 80.5688C8.65717 80.874 8.86828 81.1622 9.10352 81.4302L8.22266 82.2036ZM6.66016 79.2173C6.55887 78.8044 6.49352 78.3836 6.46484 77.9595L7.63672 77.8813C7.65989 78.2364 7.7148 78.5888 7.80078 78.9341L6.66016 79.2173ZM7.61719 75.9673H6.44531V74.7954H7.61719V75.9673Z" fill="#A9AFC4"/>
<defs>
<linearGradient id="paint0_linear_59_1530" x1="48.4902" y1="74.2251" x2="48.4902" y2="91.645" gradientUnits="userSpaceOnUse">
<stop stop-color="#CACFDD"/>
<stop offset="1" stop-color="#EEF0F1"/>
</linearGradient>
<linearGradient id="paint1_linear_59_1530" x1="19.8457" y1="36.9556" x2="76.0391" y2="36.9556" gradientUnits="userSpaceOnUse">
<stop stop-color="#CACFDD"/>
<stop offset="1" stop-color="#EEF0F1"/>
</linearGradient>
<linearGradient id="paint2_linear_59_1530" x1="47.9434" y1="-3.31006" x2="47.9434" y2="21.7544" gradientUnits="userSpaceOnUse">
<stop stop-color="#CACFDD"/>
<stop offset="1" stop-color="#EEF0F1"/>
</linearGradient>
</defs>
</svg>
