<svg width="154" height="39" viewBox="0 0 154 39" fill="none" xmlns="http://www.w3.org/2000/svg">
  <g clip-path="url(#clip0_49_803)">
    <mask id="mask0_49_803" style="mask-type:luminance" maskUnits="userSpaceOnUse" x="0" y="0" width="154" height="39">
      <path d="M153.332 0H0V39H153.332V0Z" fill="white" />
    </mask>
    <g mask="url(#mask0_49_803)">
      <path d="M58.6109 0.916994L45.3824 35.4791H52.4915L55.2368 28.2606H69.2819L72.0141 35.4791H79.0692L65.8898 0.916994H58.6109ZM57.6457 21.9175L62.2741 9.75554L66.8763 21.9175H57.6457Z" fill="#A5A5A5" />
      <path d="M140.75 10.7615C138.262 10.7615 135.831 11.499 133.763 12.8809C131.695 14.2626 130.084 16.2267 129.132 18.5244C128.18 20.8222 127.931 23.3506 128.416 25.79C128.901 28.2293 130.099 30.4701 131.858 32.2287C133.616 33.9874 135.857 35.1851 138.296 35.6703C140.736 36.1555 143.265 35.9065 145.562 34.9547C147.859 34.0029 149.824 32.3911 151.205 30.3231C152.588 28.2552 153.324 25.8239 153.324 23.3368C153.324 20.0016 152 16.803 149.642 14.4448C147.284 12.0864 144.085 10.7615 140.75 10.7615ZM140.75 29.4643C139.538 29.4643 138.354 29.105 137.347 28.4319C136.339 27.7588 135.554 26.802 135.09 25.6826C134.626 24.5633 134.505 23.3315 134.742 22.1433C134.978 20.955 135.561 19.8634 136.418 19.0068C137.275 18.15 138.366 17.5665 139.554 17.3302C140.743 17.0938 141.974 17.2151 143.094 17.6788C144.213 18.1424 145.17 18.9276 145.844 19.935C146.516 20.9424 146.875 22.1268 146.875 23.3384C146.877 24.1432 146.719 24.9404 146.412 25.6842C146.104 26.4279 145.654 27.1038 145.084 27.6729C144.516 28.2421 143.839 28.6932 143.095 29.0006C142.352 29.308 141.555 29.4655 140.75 29.4643Z" fill="#A5A5A5" />
      <path d="M87.5403 26.5655L81.7982 11.1976H75.0175L84.2594 35.4791H90.9863L100.063 11.1976H93.2825L87.5403 26.5655Z" fill="#A5A5A5" />
      <path d="M121.391 4.74507H114.938V11.1976H111.165V16.9953H114.938V27.3314C114.938 33.1829 118.165 35.6979 122.703 35.6979C124.243 35.7202 125.77 35.4221 127.188 34.8226V28.8078C126.416 29.0923 125.603 29.243 124.781 29.2536C122.821 29.2536 121.391 28.4877 121.391 25.8632V16.9953H127.188V11.1976H121.391V4.74507Z" fill="#A5A5A5" />
      <path d="M105.368 9.44852C107.965 9.44852 110.071 7.34272 110.071 4.74508C110.071 2.14744 107.965 0.0416441 105.368 0.0416441C102.77 0.0416441 100.664 2.14744 100.664 4.74508C100.664 7.34272 102.77 9.44852 105.368 9.44852Z" fill="#A5A5A5" />
      <path d="M108.595 11.1976H102.142V35.4791H108.595V11.1976Z" fill="#A5A5A5" />
      <path d="M12.6201 38.9251C19.567 38.9251 25.1986 33.2935 25.1986 26.3467C25.1986 19.3997 19.567 13.7682 12.6201 13.7682C5.6733 13.7682 0.041748 19.3997 0.041748 26.3467C0.041748 33.2935 5.6733 38.9251 12.6201 38.9251Z" fill="#A5A5A5" />
      <path d="M34.4405 37.3377C38.6383 37.3377 42.0411 33.9347 42.0411 29.737C42.0411 25.5393 38.6383 22.1364 34.4405 22.1364C30.2428 22.1364 26.8398 25.5393 26.8398 29.737C26.8398 33.9347 30.2428 37.3377 34.4405 37.3377Z" fill="#A5A5A5" />
      <path d="M15.0257 12.1285C17.6234 12.1285 19.7292 10.0227 19.7292 7.42505C19.7292 4.82741 17.6234 2.7216 15.0257 2.7216C12.4281 2.7216 10.3223 4.82741 10.3223 7.42505C10.3223 10.0227 12.4281 12.1285 15.0257 12.1285Z" fill="#A5A5A5" />
      <path d="M31.4877 20.4951C37.1357 20.4951 41.7144 15.9164 41.7144 10.2684C41.7144 4.6203 37.1357 0.0416441 31.4877 0.0416441C25.8396 0.0416441 21.261 4.6203 21.261 10.2684C21.261 15.9164 25.8396 20.4951 31.4877 20.4951Z" fill="#A5A5A5" />
    </g>
  </g>
  <defs>
    <clipPath id="clip0_49_803">
      <rect width="153.332" height="39" fill="white" />
    </clipPath>
  </defs>
</svg>