<svg width="183" height="30" viewBox="0 0 183 30" fill="none" xmlns="http://www.w3.org/2000/svg">
<g clip-path="url(#clip0_20_3)">
<path d="M4.83644 0H27.9823V7.55816H0V4.97732C0 3.65725 0.509552 2.39125 1.41656 1.45782C2.32357 0.524395 3.55374 0 4.83644 0Z" fill="#C44E47"/>
<path d="M32.1321 0H34.2645C35.545 0.00348622 36.7719 0.52942 37.6762 1.46247C38.5804 2.39552 39.0882 3.65953 39.0882 4.97732V7.55816H32.1321V0Z" fill="#C44E47"/>
<path d="M27.9823 22.4419V30H4.83644C4.20095 30 3.57169 29.8711 2.98463 29.6207C2.39757 29.3703 1.86421 29.0033 1.41505 28.5406C0.965893 28.078 0.609732 27.5288 0.366929 26.9244C0.124126 26.32 -0.000558516 25.6723 1.88066e-06 25.0183V11.109H7.17789V22.4419H27.9823Z" fill="#C44E47"/>
<path d="M39.0882 11.109V18.4916H39.0541V25.0183C39.0546 25.6723 38.9299 26.32 38.6871 26.9244C38.4443 27.5288 38.0882 28.078 37.639 28.5406C37.1899 29.0033 36.6565 29.3703 36.0694 29.6207C35.4824 29.8711 34.8531 30 34.2176 30H31.8762V18.4916H13.6478V16.0863C13.6467 14.7689 14.1535 13.5049 15.0571 12.5717C15.9607 11.6386 17.1871 11.1125 18.4672 11.109H39.0882Z" fill="#31424F"/>
<path d="M69.2583 21.8405V16.9026H63.5135V13.1674H73.6683V25.7029H64.4006C57.9179 25.7029 54.6751 22.3101 54.6722 15.5244C54.6722 11.896 55.4072 9.19085 56.8772 7.40885C58.4609 5.49517 60.9687 4.53833 64.4006 4.53833H73.6768V8.21646H64.4006C62.5126 8.21646 61.1862 8.94799 60.4214 10.411C59.8357 11.5113 59.5428 13.1382 59.5428 15.2918C59.5428 17.3664 59.8413 18.9085 60.4384 19.918C61.1976 21.2084 62.5183 21.8536 64.4006 21.8536L69.2583 21.8405Z" fill="#31424F"/>
<path d="M94.8864 4.53833V8.21646H87.7853C84.5468 8.21646 82.9275 9.86679 82.9275 13.1674H94.8693V16.8456H82.9275C82.9275 18.6539 83.3014 19.9707 84.0492 20.7958C84.797 21.621 86.0423 22.0336 87.7853 22.0336H94.8864V25.7073H87.636C81.2244 25.7073 78.02 22.3145 78.0228 15.5288C78.0228 11.9297 78.7536 9.23913 80.215 7.45713C81.7987 5.51419 84.3093 4.54272 87.7469 4.54272L94.8864 4.53833Z" fill="#31424F"/>
<path d="M109.737 25.703H105.259V8.27359H98.6736V4.59546H116.382V8.27359H109.737V25.703Z" fill="#31424F"/>
<path d="M136.158 4.53833V8.15501H129.057C127.067 8.15501 125.671 8.96408 124.869 10.5822C124.3 11.7527 124.016 13.5083 124.016 15.8492C124.016 19.1323 124.83 21.0841 126.46 21.7044C127.305 21.9658 128.188 22.0786 129.07 22.038H136.171V25.7117H128.921C122.512 25.7117 119.307 22.3189 119.307 15.5332C119.307 11.9341 120.037 9.24352 121.495 7.46152C123.076 5.51858 125.588 4.54711 129.031 4.54711L136.158 4.53833Z" fill="#31424F"/>
<path d="M143.242 25.7029H138.666L147.303 4.53833H151.879L160.652 25.7029H155.854L153.964 20.629H145.008L143.242 25.7029ZM146.407 16.9026H152.557L149.448 8.809L146.407 16.9026Z" fill="#31424F"/>
<path d="M168.546 25.7029H164.234V4.53833H174.837C177.2 4.53833 178.953 4.98895 180.096 5.8902C181.401 6.90556 182.052 8.58515 182.049 10.929C182.095 12.261 181.751 13.5764 181.059 14.7037C180.701 15.2552 180.241 15.7284 179.704 16.096C179.168 16.4636 178.566 16.7183 177.933 16.8456L183 25.7029H178.159L173.609 17.4337H168.546V25.7029ZM173.839 8.33935H168.546V13.6985H173.839C175.118 13.6985 176.031 13.5712 176.539 13.3123C177.303 12.9319 177.684 12.1565 177.682 10.986C177.682 10.1082 177.528 9.52443 177.225 9.19085C176.705 8.62319 175.576 8.33935 173.839 8.33935Z" fill="#31424F"/>
</g>
<defs>
<clipPath id="clip0_20_3">
<rect width="183" height="30" fill="white"/>
</clipPath>
</defs>
</svg>
