<svg width="109" height="109" viewBox="0 0 109 109" fill="none" xmlns="http://www.w3.org/2000/svg">
<g clip-path="url(#clip0_109_234)">
<path d="M0 1.87931C0 2.91722 0.841396 3.75862 1.87931 3.75862C2.91722 3.75862 3.75862 2.91722 3.75862 1.87931C3.75862 0.841396 2.91722 0 1.87931 0C0.841396 0 0 0.841396 0 1.87931Z" fill="#31424F"/>
<path d="M3.75861 1.87931C3.75861 2.91722 4.6 3.75862 5.63792 3.75862C6.67583 3.75862 7.51723 2.91722 7.51723 1.87931C7.51723 0.841396 6.67583 0 5.63792 0C4.6 0 3.75861 0.841396 3.75861 1.87931Z" fill="#31424F"/>
<path d="M7.51721 1.87931C7.51721 2.91722 8.35861 3.75862 9.39652 3.75862C10.4344 3.75862 11.2758 2.91722 11.2758 1.87931C11.2758 0.841396 10.4344 0 9.39652 0C8.35861 0 7.51721 0.841396 7.51721 1.87931Z" fill="#31424F"/>
<path d="M11.2759 1.87931C11.2759 2.91722 12.1173 3.75862 13.1552 3.75862C14.1931 3.75862 15.0345 2.91722 15.0345 1.87931C15.0345 0.841396 14.1931 0 13.1552 0C12.1173 0 11.2759 0.841396 11.2759 1.87931Z" fill="#31424F"/>
<path d="M15.0345 1.87931C15.0345 2.91722 15.8759 3.75862 16.9138 3.75862C17.9517 3.75862 18.7931 2.91722 18.7931 1.87931C18.7931 0.841396 17.9517 0 16.9138 0C15.8759 0 15.0345 0.841396 15.0345 1.87931Z" fill="#31424F"/>
<path d="M18.7931 1.87931C18.7931 2.91722 19.6345 3.75862 20.6724 3.75862C21.7103 3.75862 22.5517 2.91722 22.5517 1.87931C22.5517 0.841396 21.7103 0 20.6724 0C19.6345 0 18.7931 0.841396 18.7931 1.87931Z" fill="#31424F"/>
<path d="M22.5517 1.87931C22.5517 2.91722 23.3931 3.75862 24.431 3.75862C25.4689 3.75862 26.3103 2.91722 26.3103 1.87931C26.3103 0.841396 25.4689 0 24.431 0C23.3931 0 22.5517 0.841396 22.5517 1.87931Z" fill="#31424F"/>
<path d="M33.8276 1.87931C33.8276 2.91722 34.669 3.75862 35.7069 3.75862C36.7448 3.75862 37.5862 2.91722 37.5862 1.87931C37.5862 0.841396 36.7448 0 35.7069 0C34.669 0 33.8276 0.841396 33.8276 1.87931Z" fill="#31424F"/>
<path d="M37.5862 1.87931C37.5862 2.91722 38.4276 3.75862 39.4655 3.75862C40.5034 3.75862 41.3448 2.91722 41.3448 1.87931C41.3448 0.841396 40.5034 0 39.4655 0C38.4276 0 37.5862 0.841396 37.5862 1.87931Z" fill="#31424F"/>
<path d="M48.8621 1.87931C48.8621 2.91722 49.7035 3.75862 50.7414 3.75862C51.7793 3.75862 52.6207 2.91722 52.6207 1.87931C52.6207 0.841396 51.7793 0 50.7414 0C49.7035 0 48.8621 0.841396 48.8621 1.87931Z" fill="#31424F"/>
<path d="M56.3793 1.87931C56.3793 2.91722 57.2207 3.75862 58.2586 3.75862C59.2966 3.75862 60.138 2.91722 60.138 1.87931C60.138 0.841396 59.2966 0 58.2586 0C57.2207 0 56.3793 0.841396 56.3793 1.87931Z" fill="#31424F"/>
<path d="M60.1379 1.87931C60.1379 2.91722 60.9793 3.75862 62.0172 3.75862C63.0552 3.75862 63.8966 2.91722 63.8966 1.87931C63.8966 0.841396 63.0552 0 62.0172 0C60.9793 0 60.1379 0.841396 60.1379 1.87931Z" fill="#31424F"/>
<path d="M63.8965 1.87931C63.8965 2.91722 64.7379 3.75862 65.7759 3.75862C66.8138 3.75862 67.6552 2.91722 67.6552 1.87931C67.6552 0.841396 66.8138 0 65.7759 0C64.7379 0 63.8965 0.841396 63.8965 1.87931Z" fill="#31424F"/>
<path d="M71.4138 1.87931C71.4138 2.91722 72.2552 3.75862 73.2931 3.75862C74.331 3.75862 75.1724 2.91722 75.1724 1.87931C75.1724 0.841396 74.331 0 73.2931 0C72.2552 0 71.4138 0.841396 71.4138 1.87931Z" fill="#31424F"/>
<path d="M75.1724 1.87931C75.1724 2.91722 76.0138 3.75862 77.0517 3.75862C78.0896 3.75862 78.931 2.91722 78.931 1.87931C78.931 0.841396 78.0896 0 77.0517 0C76.0138 0 75.1724 0.841396 75.1724 1.87931Z" fill="#31424F"/>
<path d="M82.6896 1.87931C82.6896 2.91722 83.531 3.75862 84.5689 3.75862C85.6069 3.75862 86.4483 2.91722 86.4483 1.87931C86.4483 0.841396 85.6069 0 84.5689 0C83.531 0 82.6896 0.841396 82.6896 1.87931Z" fill="#31424F"/>
<path d="M86.4483 1.87931C86.4483 2.91722 87.2897 3.75862 88.3276 3.75862C89.3655 3.75862 90.2069 2.91722 90.2069 1.87931C90.2069 0.841396 89.3655 0 88.3276 0C87.2897 0 86.4483 0.841396 86.4483 1.87931Z" fill="#31424F"/>
<path d="M90.2069 1.87931C90.2069 2.91722 91.0483 3.75862 92.0862 3.75862C93.1241 3.75862 93.9655 2.91722 93.9655 1.87931C93.9655 0.841396 93.1241 0 92.0862 0C91.0483 0 90.2069 0.841396 90.2069 1.87931Z" fill="#31424F"/>
<path d="M93.9655 1.87931C93.9655 2.91722 94.8069 3.75862 95.8448 3.75862C96.8827 3.75862 97.7241 2.91722 97.7241 1.87931C97.7241 0.841396 96.8827 0 95.8448 0C94.8069 0 93.9655 0.841396 93.9655 1.87931Z" fill="#31424F"/>
<path d="M97.7241 1.87931C97.7241 2.91722 98.5655 3.75862 99.6034 3.75862C100.641 3.75862 101.483 2.91722 101.483 1.87931C101.483 0.841396 100.641 0 99.6034 0C98.5655 0 97.7241 0.841396 97.7241 1.87931Z" fill="#31424F"/>
<path d="M101.483 1.87931C101.483 2.91722 102.324 3.75862 103.362 3.75862C104.4 3.75862 105.241 2.91722 105.241 1.87931C105.241 0.841396 104.4 0 103.362 0C102.324 0 101.483 0.841396 101.483 1.87931Z" fill="#31424F"/>
<path d="M105.241 1.87931C105.241 2.91722 106.083 3.75862 107.121 3.75862C108.159 3.75862 109 2.91722 109 1.87931C109 0.841396 108.159 0 107.121 0C106.083 0 105.241 0.841396 105.241 1.87931Z" fill="#31424F"/>
<path d="M0 5.63792C0 6.67583 0.841396 7.51723 1.87931 7.51723C2.91722 7.51723 3.75862 6.67583 3.75862 5.63792C3.75862 4.6 2.91722 3.75861 1.87931 3.75861C0.841396 3.75861 0 4.6 0 5.63792Z" fill="#31424F"/>
<path d="M22.5517 5.63792C22.5517 6.67583 23.3931 7.51723 24.431 7.51723C25.4689 7.51723 26.3103 6.67583 26.3103 5.63792C26.3103 4.6 25.4689 3.75861 24.431 3.75861C23.3931 3.75861 22.5517 4.6 22.5517 5.63792Z" fill="#31424F"/>
<path d="M30.069 5.63792C30.069 6.67583 30.9104 7.51723 31.9483 7.51723C32.9862 7.51723 33.8276 6.67583 33.8276 5.63792C33.8276 4.6 32.9862 3.75861 31.9483 3.75861C30.9104 3.75861 30.069 4.6 30.069 5.63792Z" fill="#31424F"/>
<path d="M37.5862 5.63792C37.5862 6.67583 38.4276 7.51723 39.4655 7.51723C40.5034 7.51723 41.3448 6.67583 41.3448 5.63792C41.3448 4.6 40.5034 3.75861 39.4655 3.75861C38.4276 3.75861 37.5862 4.6 37.5862 5.63792Z" fill="#31424F"/>
<path d="M60.1379 5.63792C60.1379 6.67583 60.9793 7.51723 62.0172 7.51723C63.0552 7.51723 63.8966 6.67583 63.8966 5.63792C63.8966 4.6 63.0552 3.75861 62.0172 3.75861C60.9793 3.75861 60.1379 4.6 60.1379 5.63792Z" fill="#31424F"/>
<path d="M63.8965 5.63792C63.8965 6.67583 64.7379 7.51723 65.7759 7.51723C66.8138 7.51723 67.6552 6.67583 67.6552 5.63792C67.6552 4.6 66.8138 3.75861 65.7759 3.75861C64.7379 3.75861 63.8965 4.6 63.8965 5.63792Z" fill="#31424F"/>
<path d="M75.1724 5.63792C75.1724 6.67583 76.0138 7.51723 77.0517 7.51723C78.0896 7.51723 78.931 6.67583 78.931 5.63792C78.931 4.6 78.0896 3.75861 77.0517 3.75861C76.0138 3.75861 75.1724 4.6 75.1724 5.63792Z" fill="#31424F"/>
<path d="M82.6896 5.63792C82.6896 6.67583 83.531 7.51723 84.5689 7.51723C85.6069 7.51723 86.4483 6.67583 86.4483 5.63792C86.4483 4.6 85.6069 3.75861 84.5689 3.75861C83.531 3.75861 82.6896 4.6 82.6896 5.63792Z" fill="#31424F"/>
<path d="M105.241 5.63792C105.241 6.67583 106.083 7.51723 107.121 7.51723C108.159 7.51723 109 6.67583 109 5.63792C109 4.6 108.159 3.75861 107.121 3.75861C106.083 3.75861 105.241 4.6 105.241 5.63792Z" fill="#31424F"/>
<path d="M0 9.39652C0 10.4344 0.841396 11.2758 1.87931 11.2758C2.91722 11.2758 3.75862 10.4344 3.75862 9.39652C3.75862 8.35861 2.91722 7.51721 1.87931 7.51721C0.841396 7.51721 0 8.35861 0 9.39652Z" fill="#31424F"/>
<path d="M7.51721 9.39652C7.51721 10.4344 8.35861 11.2758 9.39652 11.2758C10.4344 11.2758 11.2758 10.4344 11.2758 9.39652C11.2758 8.35861 10.4344 7.51721 9.39652 7.51721C8.35861 7.51721 7.51721 8.35861 7.51721 9.39652Z" fill="#31424F"/>
<path d="M11.2759 9.39652C11.2759 10.4344 12.1173 11.2758 13.1552 11.2758C14.1931 11.2758 15.0345 10.4344 15.0345 9.39652C15.0345 8.35861 14.1931 7.51721 13.1552 7.51721C12.1173 7.51721 11.2759 8.35861 11.2759 9.39652Z" fill="#31424F"/>
<path d="M15.0345 9.39652C15.0345 10.4344 15.8759 11.2758 16.9138 11.2758C17.9517 11.2758 18.7931 10.4344 18.7931 9.39652C18.7931 8.35861 17.9517 7.51721 16.9138 7.51721C15.8759 7.51721 15.0345 8.35861 15.0345 9.39652Z" fill="#31424F"/>
<path d="M22.5517 9.39652C22.5517 10.4344 23.3931 11.2758 24.431 11.2758C25.4689 11.2758 26.3103 10.4344 26.3103 9.39652C26.3103 8.35861 25.4689 7.51721 24.431 7.51721C23.3931 7.51721 22.5517 8.35861 22.5517 9.39652Z" fill="#31424F"/>
<path d="M30.069 9.39652C30.069 10.4344 30.9104 11.2758 31.9483 11.2758C32.9862 11.2758 33.8276 10.4344 33.8276 9.39652C33.8276 8.35861 32.9862 7.51721 31.9483 7.51721C30.9104 7.51721 30.069 8.35861 30.069 9.39652Z" fill="#31424F"/>
<path d="M33.8276 9.39652C33.8276 10.4344 34.669 11.2758 35.7069 11.2758C36.7448 11.2758 37.5862 10.4344 37.5862 9.39652C37.5862 8.35861 36.7448 7.51721 35.7069 7.51721C34.669 7.51721 33.8276 8.35861 33.8276 9.39652Z" fill="#31424F"/>
<path d="M41.3448 9.39652C41.3448 10.4344 42.1862 11.2758 43.2242 11.2758C44.2621 11.2758 45.1035 10.4344 45.1035 9.39652C45.1035 8.35861 44.2621 7.51721 43.2242 7.51721C42.1862 7.51721 41.3448 8.35861 41.3448 9.39652Z" fill="#31424F"/>
<path d="M48.8621 9.39652C48.8621 10.4344 49.7035 11.2758 50.7414 11.2758C51.7793 11.2758 52.6207 10.4344 52.6207 9.39652C52.6207 8.35861 51.7793 7.51721 50.7414 7.51721C49.7035 7.51721 48.8621 8.35861 48.8621 9.39652Z" fill="#31424F"/>
<path d="M52.6207 9.39652C52.6207 10.4344 53.4621 11.2758 54.5 11.2758C55.5379 11.2758 56.3793 10.4344 56.3793 9.39652C56.3793 8.35861 55.5379 7.51721 54.5 7.51721C53.4621 7.51721 52.6207 8.35861 52.6207 9.39652Z" fill="#31424F"/>
<path d="M56.3793 9.39652C56.3793 10.4344 57.2207 11.2758 58.2586 11.2758C59.2966 11.2758 60.138 10.4344 60.138 9.39652C60.138 8.35861 59.2966 7.51721 58.2586 7.51721C57.2207 7.51721 56.3793 8.35861 56.3793 9.39652Z" fill="#31424F"/>
<path d="M67.6552 9.39652C67.6552 10.4344 68.4965 11.2758 69.5345 11.2758C70.5724 11.2758 71.4138 10.4344 71.4138 9.39652C71.4138 8.35861 70.5724 7.51721 69.5345 7.51721C68.4965 7.51721 67.6552 8.35861 67.6552 9.39652Z" fill="#31424F"/>
<path d="M71.4138 9.39652C71.4138 10.4344 72.2552 11.2758 73.2931 11.2758C74.331 11.2758 75.1724 10.4344 75.1724 9.39652C75.1724 8.35861 74.331 7.51721 73.2931 7.51721C72.2552 7.51721 71.4138 8.35861 71.4138 9.39652Z" fill="#31424F"/>
<path d="M75.1724 9.39652C75.1724 10.4344 76.0138 11.2758 77.0517 11.2758C78.0896 11.2758 78.931 10.4344 78.931 9.39652C78.931 8.35861 78.0896 7.51721 77.0517 7.51721C76.0138 7.51721 75.1724 8.35861 75.1724 9.39652Z" fill="#31424F"/>
<path d="M82.6896 9.39652C82.6896 10.4344 83.531 11.2758 84.5689 11.2758C85.6069 11.2758 86.4483 10.4344 86.4483 9.39652C86.4483 8.35861 85.6069 7.51721 84.5689 7.51721C83.531 7.51721 82.6896 8.35861 82.6896 9.39652Z" fill="#31424F"/>
<path d="M90.2069 9.39652C90.2069 10.4344 91.0483 11.2758 92.0862 11.2758C93.1241 11.2758 93.9655 10.4344 93.9655 9.39652C93.9655 8.35861 93.1241 7.51721 92.0862 7.51721C91.0483 7.51721 90.2069 8.35861 90.2069 9.39652Z" fill="#31424F"/>
<path d="M93.9655 9.39652C93.9655 10.4344 94.8069 11.2758 95.8448 11.2758C96.8827 11.2758 97.7241 10.4344 97.7241 9.39652C97.7241 8.35861 96.8827 7.51721 95.8448 7.51721C94.8069 7.51721 93.9655 8.35861 93.9655 9.39652Z" fill="#31424F"/>
<path d="M97.7241 9.39652C97.7241 10.4344 98.5655 11.2758 99.6034 11.2758C100.641 11.2758 101.483 10.4344 101.483 9.39652C101.483 8.35861 100.641 7.51721 99.6034 7.51721C98.5655 7.51721 97.7241 8.35861 97.7241 9.39652Z" fill="#31424F"/>
<path d="M105.241 9.39652C105.241 10.4344 106.083 11.2758 107.121 11.2758C108.159 11.2758 109 10.4344 109 9.39652C109 8.35861 108.159 7.51721 107.121 7.51721C106.083 7.51721 105.241 8.35861 105.241 9.39652Z" fill="#31424F"/>
<path d="M0 13.1552C0 14.1931 0.841396 15.0345 1.87931 15.0345C2.91722 15.0345 3.75862 14.1931 3.75862 13.1552C3.75862 12.1173 2.91722 11.2759 1.87931 11.2759C0.841396 11.2759 0 12.1173 0 13.1552Z" fill="#31424F"/>
<path d="M7.51721 13.1552C7.51721 14.1931 8.35861 15.0345 9.39652 15.0345C10.4344 15.0345 11.2758 14.1931 11.2758 13.1552C11.2758 12.1173 10.4344 11.2759 9.39652 11.2759C8.35861 11.2759 7.51721 12.1173 7.51721 13.1552Z" fill="#31424F"/>
<path d="M11.2759 13.1552C11.2759 14.1931 12.1173 15.0345 13.1552 15.0345C14.1931 15.0345 15.0345 14.1931 15.0345 13.1552C15.0345 12.1173 14.1931 11.2759 13.1552 11.2759C12.1173 11.2759 11.2759 12.1173 11.2759 13.1552Z" fill="#31424F"/>
<path d="M15.0345 13.1552C15.0345 14.1931 15.8759 15.0345 16.9138 15.0345C17.9517 15.0345 18.7931 14.1931 18.7931 13.1552C18.7931 12.1173 17.9517 11.2759 16.9138 11.2759C15.8759 11.2759 15.0345 12.1173 15.0345 13.1552Z" fill="#31424F"/>
<path d="M22.5517 13.1552C22.5517 14.1931 23.3931 15.0345 24.431 15.0345C25.4689 15.0345 26.3103 14.1931 26.3103 13.1552C26.3103 12.1173 25.4689 11.2759 24.431 11.2759C23.3931 11.2759 22.5517 12.1173 22.5517 13.1552Z" fill="#31424F"/>
<path d="M30.069 13.1552C30.069 14.1931 30.9104 15.0345 31.9483 15.0345C32.9862 15.0345 33.8276 14.1931 33.8276 13.1552C33.8276 12.1173 32.9862 11.2759 31.9483 11.2759C30.9104 11.2759 30.069 12.1173 30.069 13.1552Z" fill="#31424F"/>
<path d="M37.5862 13.1552C37.5862 14.1931 38.4276 15.0345 39.4655 15.0345C40.5034 15.0345 41.3448 14.1931 41.3448 13.1552C41.3448 12.1173 40.5034 11.2759 39.4655 11.2759C38.4276 11.2759 37.5862 12.1173 37.5862 13.1552Z" fill="#31424F"/>
<path d="M45.1035 13.1552C45.1035 14.1931 45.9449 15.0345 46.9828 15.0345C48.0207 15.0345 48.8621 14.1931 48.8621 13.1552C48.8621 12.1173 48.0207 11.2759 46.9828 11.2759C45.9449 11.2759 45.1035 12.1173 45.1035 13.1552Z" fill="#31424F"/>
<path d="M48.8621 13.1552C48.8621 14.1931 49.7035 15.0345 50.7414 15.0345C51.7793 15.0345 52.6207 14.1931 52.6207 13.1552C52.6207 12.1173 51.7793 11.2759 50.7414 11.2759C49.7035 11.2759 48.8621 12.1173 48.8621 13.1552Z" fill="#31424F"/>
<path d="M56.3793 13.1552C56.3793 14.1931 57.2207 15.0345 58.2586 15.0345C59.2966 15.0345 60.138 14.1931 60.138 13.1552C60.138 12.1173 59.2966 11.2759 58.2586 11.2759C57.2207 11.2759 56.3793 12.1173 56.3793 13.1552Z" fill="#31424F"/>
<path d="M63.8965 13.1552C63.8965 14.1931 64.7379 15.0345 65.7759 15.0345C66.8138 15.0345 67.6552 14.1931 67.6552 13.1552C67.6552 12.1173 66.8138 11.2759 65.7759 11.2759C64.7379 11.2759 63.8965 12.1173 63.8965 13.1552Z" fill="#31424F"/>
<path d="M67.6552 13.1552C67.6552 14.1931 68.4965 15.0345 69.5345 15.0345C70.5724 15.0345 71.4138 14.1931 71.4138 13.1552C71.4138 12.1173 70.5724 11.2759 69.5345 11.2759C68.4965 11.2759 67.6552 12.1173 67.6552 13.1552Z" fill="#31424F"/>
<path d="M82.6896 13.1552C82.6896 14.1931 83.531 15.0345 84.5689 15.0345C85.6069 15.0345 86.4483 14.1931 86.4483 13.1552C86.4483 12.1173 85.6069 11.2759 84.5689 11.2759C83.531 11.2759 82.6896 12.1173 82.6896 13.1552Z" fill="#31424F"/>
<path d="M90.2069 13.1552C90.2069 14.1931 91.0483 15.0345 92.0862 15.0345C93.1241 15.0345 93.9655 14.1931 93.9655 13.1552C93.9655 12.1173 93.1241 11.2759 92.0862 11.2759C91.0483 11.2759 90.2069 12.1173 90.2069 13.1552Z" fill="#31424F"/>
<path d="M93.9655 13.1552C93.9655 14.1931 94.8069 15.0345 95.8448 15.0345C96.8827 15.0345 97.7241 14.1931 97.7241 13.1552C97.7241 12.1173 96.8827 11.2759 95.8448 11.2759C94.8069 11.2759 93.9655 12.1173 93.9655 13.1552Z" fill="#31424F"/>
<path d="M97.7241 13.1552C97.7241 14.1931 98.5655 15.0345 99.6034 15.0345C100.641 15.0345 101.483 14.1931 101.483 13.1552C101.483 12.1173 100.641 11.2759 99.6034 11.2759C98.5655 11.2759 97.7241 12.1173 97.7241 13.1552Z" fill="#31424F"/>
<path d="M105.241 13.1552C105.241 14.1931 106.083 15.0345 107.121 15.0345C108.159 15.0345 109 14.1931 109 13.1552C109 12.1173 108.159 11.2759 107.121 11.2759C106.083 11.2759 105.241 12.1173 105.241 13.1552Z" fill="#31424F"/>
<path d="M0 16.9138C0 17.9517 0.841396 18.7931 1.87931 18.7931C2.91722 18.7931 3.75862 17.9517 3.75862 16.9138C3.75862 15.8759 2.91722 15.0345 1.87931 15.0345C0.841396 15.0345 0 15.8759 0 16.9138Z" fill="#31424F"/>
<path d="M7.51721 16.9138C7.51721 17.9517 8.35861 18.7931 9.39652 18.7931C10.4344 18.7931 11.2758 17.9517 11.2758 16.9138C11.2758 15.8759 10.4344 15.0345 9.39652 15.0345C8.35861 15.0345 7.51721 15.8759 7.51721 16.9138Z" fill="#31424F"/>
<path d="M11.2759 16.9138C11.2759 17.9517 12.1173 18.7931 13.1552 18.7931C14.1931 18.7931 15.0345 17.9517 15.0345 16.9138C15.0345 15.8759 14.1931 15.0345 13.1552 15.0345C12.1173 15.0345 11.2759 15.8759 11.2759 16.9138Z" fill="#31424F"/>
<path d="M15.0345 16.9138C15.0345 17.9517 15.8759 18.7931 16.9138 18.7931C17.9517 18.7931 18.7931 17.9517 18.7931 16.9138C18.7931 15.8759 17.9517 15.0345 16.9138 15.0345C15.8759 15.0345 15.0345 15.8759 15.0345 16.9138Z" fill="#31424F"/>
<path d="M22.5517 16.9138C22.5517 17.9517 23.3931 18.7931 24.431 18.7931C25.4689 18.7931 26.3103 17.9517 26.3103 16.9138C26.3103 15.8759 25.4689 15.0345 24.431 15.0345C23.3931 15.0345 22.5517 15.8759 22.5517 16.9138Z" fill="#31424F"/>
<path d="M30.069 16.9138C30.069 17.9517 30.9104 18.7931 31.9483 18.7931C32.9862 18.7931 33.8276 17.9517 33.8276 16.9138C33.8276 15.8759 32.9862 15.0345 31.9483 15.0345C30.9104 15.0345 30.069 15.8759 30.069 16.9138Z" fill="#31424F"/>
<path d="M45.1035 16.9138C45.1035 17.9517 45.9449 18.7931 46.9828 18.7931C48.0207 18.7931 48.8621 17.9517 48.8621 16.9138C48.8621 15.8759 48.0207 15.0345 46.9828 15.0345C45.9449 15.0345 45.1035 15.8759 45.1035 16.9138Z" fill="#31424F"/>
<path d="M52.6207 16.9138C52.6207 17.9517 53.4621 18.7931 54.5 18.7931C55.5379 18.7931 56.3793 17.9517 56.3793 16.9138C56.3793 15.8759 55.5379 15.0345 54.5 15.0345C53.4621 15.0345 52.6207 15.8759 52.6207 16.9138Z" fill="#31424F"/>
<path d="M60.1379 16.9138C60.1379 17.9517 60.9793 18.7931 62.0172 18.7931C63.0552 18.7931 63.8966 17.9517 63.8966 16.9138C63.8966 15.8759 63.0552 15.0345 62.0172 15.0345C60.9793 15.0345 60.1379 15.8759 60.1379 16.9138Z" fill="#31424F"/>
<path d="M67.6552 16.9138C67.6552 17.9517 68.4965 18.7931 69.5345 18.7931C70.5724 18.7931 71.4138 17.9517 71.4138 16.9138C71.4138 15.8759 70.5724 15.0345 69.5345 15.0345C68.4965 15.0345 67.6552 15.8759 67.6552 16.9138Z" fill="#31424F"/>
<path d="M71.4138 16.9138C71.4138 17.9517 72.2552 18.7931 73.2931 18.7931C74.331 18.7931 75.1724 17.9517 75.1724 16.9138C75.1724 15.8759 74.331 15.0345 73.2931 15.0345C72.2552 15.0345 71.4138 15.8759 71.4138 16.9138Z" fill="#31424F"/>
<path d="M82.6896 16.9138C82.6896 17.9517 83.531 18.7931 84.5689 18.7931C85.6069 18.7931 86.4483 17.9517 86.4483 16.9138C86.4483 15.8759 85.6069 15.0345 84.5689 15.0345C83.531 15.0345 82.6896 15.8759 82.6896 16.9138Z" fill="#31424F"/>
<path d="M90.2069 16.9138C90.2069 17.9517 91.0483 18.7931 92.0862 18.7931C93.1241 18.7931 93.9655 17.9517 93.9655 16.9138C93.9655 15.8759 93.1241 15.0345 92.0862 15.0345C91.0483 15.0345 90.2069 15.8759 90.2069 16.9138Z" fill="#31424F"/>
<path d="M93.9655 16.9138C93.9655 17.9517 94.8069 18.7931 95.8448 18.7931C96.8827 18.7931 97.7241 17.9517 97.7241 16.9138C97.7241 15.8759 96.8827 15.0345 95.8448 15.0345C94.8069 15.0345 93.9655 15.8759 93.9655 16.9138Z" fill="#31424F"/>
<path d="M97.7241 16.9138C97.7241 17.9517 98.5655 18.7931 99.6034 18.7931C100.641 18.7931 101.483 17.9517 101.483 16.9138C101.483 15.8759 100.641 15.0345 99.6034 15.0345C98.5655 15.0345 97.7241 15.8759 97.7241 16.9138Z" fill="#31424F"/>
<path d="M105.241 16.9138C105.241 17.9517 106.083 18.7931 107.121 18.7931C108.159 18.7931 109 17.9517 109 16.9138C109 15.8759 108.159 15.0345 107.121 15.0345C106.083 15.0345 105.241 15.8759 105.241 16.9138Z" fill="#31424F"/>
<path d="M0 20.6724C0 21.7103 0.841396 22.5517 1.87931 22.5517C2.91722 22.5517 3.75862 21.7103 3.75862 20.6724C3.75862 19.6345 2.91722 18.7931 1.87931 18.7931C0.841396 18.7931 0 19.6345 0 20.6724Z" fill="#31424F"/>
<path d="M22.5517 20.6724C22.5517 21.7103 23.3931 22.5517 24.431 22.5517C25.4689 22.5517 26.3103 21.7103 26.3103 20.6724C26.3103 19.6345 25.4689 18.7931 24.431 18.7931C23.3931 18.7931 22.5517 19.6345 22.5517 20.6724Z" fill="#31424F"/>
<path d="M30.069 20.6724C30.069 21.7103 30.9104 22.5517 31.9483 22.5517C32.9862 22.5517 33.8276 21.7103 33.8276 20.6724C33.8276 19.6345 32.9862 18.7931 31.9483 18.7931C30.9104 18.7931 30.069 19.6345 30.069 20.6724Z" fill="#31424F"/>
<path d="M56.3793 20.6724C56.3793 21.7103 57.2207 22.5517 58.2586 22.5517C59.2966 22.5517 60.138 21.7103 60.138 20.6724C60.138 19.6345 59.2966 18.7931 58.2586 18.7931C57.2207 18.7931 56.3793 19.6345 56.3793 20.6724Z" fill="#31424F"/>
<path d="M63.8965 20.6724C63.8965 21.7103 64.7379 22.5517 65.7759 22.5517C66.8138 22.5517 67.6552 21.7103 67.6552 20.6724C67.6552 19.6345 66.8138 18.7931 65.7759 18.7931C64.7379 18.7931 63.8965 19.6345 63.8965 20.6724Z" fill="#31424F"/>
<path d="M67.6552 20.6724C67.6552 21.7103 68.4965 22.5517 69.5345 22.5517C70.5724 22.5517 71.4138 21.7103 71.4138 20.6724C71.4138 19.6345 70.5724 18.7931 69.5345 18.7931C68.4965 18.7931 67.6552 19.6345 67.6552 20.6724Z" fill="#31424F"/>
<path d="M75.1724 20.6724C75.1724 21.7103 76.0138 22.5517 77.0517 22.5517C78.0896 22.5517 78.931 21.7103 78.931 20.6724C78.931 19.6345 78.0896 18.7931 77.0517 18.7931C76.0138 18.7931 75.1724 19.6345 75.1724 20.6724Z" fill="#31424F"/>
<path d="M82.6896 20.6724C82.6896 21.7103 83.531 22.5517 84.5689 22.5517C85.6069 22.5517 86.4483 21.7103 86.4483 20.6724C86.4483 19.6345 85.6069 18.7931 84.5689 18.7931C83.531 18.7931 82.6896 19.6345 82.6896 20.6724Z" fill="#31424F"/>
<path d="M105.241 20.6724C105.241 21.7103 106.083 22.5517 107.121 22.5517C108.159 22.5517 109 21.7103 109 20.6724C109 19.6345 108.159 18.7931 107.121 18.7931C106.083 18.7931 105.241 19.6345 105.241 20.6724Z" fill="#31424F"/>
<path d="M0 24.431C0 25.4689 0.841396 26.3103 1.87931 26.3103C2.91722 26.3103 3.75862 25.4689 3.75862 24.431C3.75862 23.3931 2.91722 22.5517 1.87931 22.5517C0.841396 22.5517 0 23.3931 0 24.431Z" fill="#31424F"/>
<path d="M3.75861 24.431C3.75861 25.4689 4.6 26.3103 5.63792 26.3103C6.67583 26.3103 7.51723 25.4689 7.51723 24.431C7.51723 23.3931 6.67583 22.5517 5.63792 22.5517C4.6 22.5517 3.75861 23.3931 3.75861 24.431Z" fill="#31424F"/>
<path d="M7.51721 24.431C7.51721 25.4689 8.35861 26.3103 9.39652 26.3103C10.4344 26.3103 11.2758 25.4689 11.2758 24.431C11.2758 23.3931 10.4344 22.5517 9.39652 22.5517C8.35861 22.5517 7.51721 23.3931 7.51721 24.431Z" fill="#31424F"/>
<path d="M11.2759 24.431C11.2759 25.4689 12.1173 26.3103 13.1552 26.3103C14.1931 26.3103 15.0345 25.4689 15.0345 24.431C15.0345 23.3931 14.1931 22.5517 13.1552 22.5517C12.1173 22.5517 11.2759 23.3931 11.2759 24.431Z" fill="#31424F"/>
<path d="M15.0345 24.431C15.0345 25.4689 15.8759 26.3103 16.9138 26.3103C17.9517 26.3103 18.7931 25.4689 18.7931 24.431C18.7931 23.3931 17.9517 22.5517 16.9138 22.5517C15.8759 22.5517 15.0345 23.3931 15.0345 24.431Z" fill="#31424F"/>
<path d="M18.7931 24.431C18.7931 25.4689 19.6345 26.3103 20.6724 26.3103C21.7103 26.3103 22.5517 25.4689 22.5517 24.431C22.5517 23.3931 21.7103 22.5517 20.6724 22.5517C19.6345 22.5517 18.7931 23.3931 18.7931 24.431Z" fill="#31424F"/>
<path d="M22.5517 24.431C22.5517 25.4689 23.3931 26.3103 24.431 26.3103C25.4689 26.3103 26.3103 25.4689 26.3103 24.431C26.3103 23.3931 25.4689 22.5517 24.431 22.5517C23.3931 22.5517 22.5517 23.3931 22.5517 24.431Z" fill="#31424F"/>
<path d="M30.069 24.431C30.069 25.4689 30.9104 26.3103 31.9483 26.3103C32.9862 26.3103 33.8276 25.4689 33.8276 24.431C33.8276 23.3931 32.9862 22.5517 31.9483 22.5517C30.9104 22.5517 30.069 23.3931 30.069 24.431Z" fill="#31424F"/>
<path d="M37.5862 24.431C37.5862 25.4689 38.4276 26.3103 39.4655 26.3103C40.5034 26.3103 41.3448 25.4689 41.3448 24.431C41.3448 23.3931 40.5034 22.5517 39.4655 22.5517C38.4276 22.5517 37.5862 23.3931 37.5862 24.431Z" fill="#31424F"/>
<path d="M45.1035 24.431C45.1035 25.4689 45.9449 26.3103 46.9828 26.3103C48.0207 26.3103 48.8621 25.4689 48.8621 24.431C48.8621 23.3931 48.0207 22.5517 46.9828 22.5517C45.9449 22.5517 45.1035 23.3931 45.1035 24.431Z" fill="#31424F"/>
<path d="M52.6207 24.431C52.6207 25.4689 53.4621 26.3103 54.5 26.3103C55.5379 26.3103 56.3793 25.4689 56.3793 24.431C56.3793 23.3931 55.5379 22.5517 54.5 22.5517C53.4621 22.5517 52.6207 23.3931 52.6207 24.431Z" fill="#31424F"/>
<path d="M60.1379 24.431C60.1379 25.4689 60.9793 26.3103 62.0172 26.3103C63.0552 26.3103 63.8966 25.4689 63.8966 24.431C63.8966 23.3931 63.0552 22.5517 62.0172 22.5517C60.9793 22.5517 60.1379 23.3931 60.1379 24.431Z" fill="#31424F"/>
<path d="M67.6552 24.431C67.6552 25.4689 68.4965 26.3103 69.5345 26.3103C70.5724 26.3103 71.4138 25.4689 71.4138 24.431C71.4138 23.3931 70.5724 22.5517 69.5345 22.5517C68.4965 22.5517 67.6552 23.3931 67.6552 24.431Z" fill="#31424F"/>
<path d="M75.1724 24.431C75.1724 25.4689 76.0138 26.3103 77.0517 26.3103C78.0896 26.3103 78.931 25.4689 78.931 24.431C78.931 23.3931 78.0896 22.5517 77.0517 22.5517C76.0138 22.5517 75.1724 23.3931 75.1724 24.431Z" fill="#31424F"/>
<path d="M82.6896 24.431C82.6896 25.4689 83.531 26.3103 84.5689 26.3103C85.6069 26.3103 86.4483 25.4689 86.4483 24.431C86.4483 23.3931 85.6069 22.5517 84.5689 22.5517C83.531 22.5517 82.6896 23.3931 82.6896 24.431Z" fill="#31424F"/>
<path d="M86.4483 24.431C86.4483 25.4689 87.2897 26.3103 88.3276 26.3103C89.3655 26.3103 90.2069 25.4689 90.2069 24.431C90.2069 23.3931 89.3655 22.5517 88.3276 22.5517C87.2897 22.5517 86.4483 23.3931 86.4483 24.431Z" fill="#31424F"/>
<path d="M90.2069 24.431C90.2069 25.4689 91.0483 26.3103 92.0862 26.3103C93.1241 26.3103 93.9655 25.4689 93.9655 24.431C93.9655 23.3931 93.1241 22.5517 92.0862 22.5517C91.0483 22.5517 90.2069 23.3931 90.2069 24.431Z" fill="#31424F"/>
<path d="M93.9655 24.431C93.9655 25.4689 94.8069 26.3103 95.8448 26.3103C96.8827 26.3103 97.7241 25.4689 97.7241 24.431C97.7241 23.3931 96.8827 22.5517 95.8448 22.5517C94.8069 22.5517 93.9655 23.3931 93.9655 24.431Z" fill="#31424F"/>
<path d="M97.7241 24.431C97.7241 25.4689 98.5655 26.3103 99.6034 26.3103C100.641 26.3103 101.483 25.4689 101.483 24.431C101.483 23.3931 100.641 22.5517 99.6034 22.5517C98.5655 22.5517 97.7241 23.3931 97.7241 24.431Z" fill="#31424F"/>
<path d="M101.483 24.431C101.483 25.4689 102.324 26.3103 103.362 26.3103C104.4 26.3103 105.241 25.4689 105.241 24.431C105.241 23.3931 104.4 22.5517 103.362 22.5517C102.324 22.5517 101.483 23.3931 101.483 24.431Z" fill="#31424F"/>
<path d="M105.241 24.431C105.241 25.4689 106.083 26.3103 107.121 26.3103C108.159 26.3103 109 25.4689 109 24.431C109 23.3931 108.159 22.5517 107.121 22.5517C106.083 22.5517 105.241 23.3931 105.241 24.431Z" fill="#31424F"/>
<path d="M33.8276 28.1897C33.8276 29.2276 34.669 30.069 35.7069 30.069C36.7448 30.069 37.5862 29.2276 37.5862 28.1897C37.5862 27.1518 36.7448 26.3104 35.7069 26.3104C34.669 26.3104 33.8276 27.1518 33.8276 28.1897Z" fill="#31424F"/>
<path d="M41.3448 28.1897C41.3448 29.2276 42.1862 30.069 43.2242 30.069C44.2621 30.069 45.1035 29.2276 45.1035 28.1897C45.1035 27.1518 44.2621 26.3104 43.2242 26.3104C42.1862 26.3104 41.3448 27.1518 41.3448 28.1897Z" fill="#31424F"/>
<path d="M48.8621 28.1897C48.8621 29.2276 49.7035 30.069 50.7414 30.069C51.7793 30.069 52.6207 29.2276 52.6207 28.1897C52.6207 27.1518 51.7793 26.3104 50.7414 26.3104C49.7035 26.3104 48.8621 27.1518 48.8621 28.1897Z" fill="#31424F"/>
<path d="M56.3793 28.1897C56.3793 29.2276 57.2207 30.069 58.2586 30.069C59.2966 30.069 60.138 29.2276 60.138 28.1897C60.138 27.1518 59.2966 26.3104 58.2586 26.3104C57.2207 26.3104 56.3793 27.1518 56.3793 28.1897Z" fill="#31424F"/>
<path d="M63.8965 28.1897C63.8965 29.2276 64.7379 30.069 65.7759 30.069C66.8138 30.069 67.6552 29.2276 67.6552 28.1897C67.6552 27.1518 66.8138 26.3104 65.7759 26.3104C64.7379 26.3104 63.8965 27.1518 63.8965 28.1897Z" fill="#31424F"/>
<path d="M71.4138 28.1897C71.4138 29.2276 72.2552 30.069 73.2931 30.069C74.331 30.069 75.1724 29.2276 75.1724 28.1897C75.1724 27.1518 74.331 26.3104 73.2931 26.3104C72.2552 26.3104 71.4138 27.1518 71.4138 28.1897Z" fill="#31424F"/>
<path d="M75.1724 28.1897C75.1724 29.2276 76.0138 30.069 77.0517 30.069C78.0896 30.069 78.931 29.2276 78.931 28.1897C78.931 27.1518 78.0896 26.3104 77.0517 26.3104C76.0138 26.3104 75.1724 27.1518 75.1724 28.1897Z" fill="#31424F"/>
<path d="M7.51721 31.9483C7.51721 32.9862 8.35861 33.8276 9.39652 33.8276C10.4344 33.8276 11.2758 32.9862 11.2758 31.9483C11.2758 30.9104 10.4344 30.069 9.39652 30.069C8.35861 30.069 7.51721 30.9104 7.51721 31.9483Z" fill="#31424F"/>
<path d="M18.7931 31.9483C18.7931 32.9862 19.6345 33.8276 20.6724 33.8276C21.7103 33.8276 22.5517 32.9862 22.5517 31.9483C22.5517 30.9104 21.7103 30.069 20.6724 30.069C19.6345 30.069 18.7931 30.9104 18.7931 31.9483Z" fill="#31424F"/>
<path d="M22.5517 31.9483C22.5517 32.9862 23.3931 33.8276 24.431 33.8276C25.4689 33.8276 26.3103 32.9862 26.3103 31.9483C26.3103 30.9104 25.4689 30.069 24.431 30.069C23.3931 30.069 22.5517 30.9104 22.5517 31.9483Z" fill="#31424F"/>
<path d="M26.3104 31.9483C26.3104 32.9862 27.1518 33.8276 28.1897 33.8276C29.2276 33.8276 30.069 32.9862 30.069 31.9483C30.069 30.9104 29.2276 30.069 28.1897 30.069C27.1518 30.069 26.3104 30.9104 26.3104 31.9483Z" fill="#31424F"/>
<path d="M30.069 31.9483C30.069 32.9862 30.9104 33.8276 31.9483 33.8276C32.9862 33.8276 33.8276 32.9862 33.8276 31.9483C33.8276 30.9104 32.9862 30.069 31.9483 30.069C30.9104 30.069 30.069 30.9104 30.069 31.9483Z" fill="#31424F"/>
<path d="M33.8276 31.9483C33.8276 32.9862 34.669 33.8276 35.7069 33.8276C36.7448 33.8276 37.5862 32.9862 37.5862 31.9483C37.5862 30.9104 36.7448 30.069 35.7069 30.069C34.669 30.069 33.8276 30.9104 33.8276 31.9483Z" fill="#31424F"/>
<path d="M41.3448 31.9483C41.3448 32.9862 42.1862 33.8276 43.2242 33.8276C44.2621 33.8276 45.1035 32.9862 45.1035 31.9483C45.1035 30.9104 44.2621 30.069 43.2242 30.069C42.1862 30.069 41.3448 30.9104 41.3448 31.9483Z" fill="#31424F"/>
<path d="M52.6207 31.9483C52.6207 32.9862 53.4621 33.8276 54.5 33.8276C55.5379 33.8276 56.3793 32.9862 56.3793 31.9483C56.3793 30.9104 55.5379 30.069 54.5 30.069C53.4621 30.069 52.6207 30.9104 52.6207 31.9483Z" fill="#31424F"/>
<path d="M56.3793 31.9483C56.3793 32.9862 57.2207 33.8276 58.2586 33.8276C59.2966 33.8276 60.138 32.9862 60.138 31.9483C60.138 30.9104 59.2966 30.069 58.2586 30.069C57.2207 30.069 56.3793 30.9104 56.3793 31.9483Z" fill="#31424F"/>
<path d="M63.8965 31.9483C63.8965 32.9862 64.7379 33.8276 65.7759 33.8276C66.8138 33.8276 67.6552 32.9862 67.6552 31.9483C67.6552 30.9104 66.8138 30.069 65.7759 30.069C64.7379 30.069 63.8965 30.9104 63.8965 31.9483Z" fill="#31424F"/>
<path d="M71.4138 31.9483C71.4138 32.9862 72.2552 33.8276 73.2931 33.8276C74.331 33.8276 75.1724 32.9862 75.1724 31.9483C75.1724 30.9104 74.331 30.069 73.2931 30.069C72.2552 30.069 71.4138 30.9104 71.4138 31.9483Z" fill="#31424F"/>
<path d="M75.1724 31.9483C75.1724 32.9862 76.0138 33.8276 77.0517 33.8276C78.0896 33.8276 78.931 32.9862 78.931 31.9483C78.931 30.9104 78.0896 30.069 77.0517 30.069C76.0138 30.069 75.1724 30.9104 75.1724 31.9483Z" fill="#31424F"/>
<path d="M78.931 31.9483C78.931 32.9862 79.7724 33.8276 80.8103 33.8276C81.8483 33.8276 82.6897 32.9862 82.6897 31.9483C82.6897 30.9104 81.8483 30.069 80.8103 30.069C79.7724 30.069 78.931 30.9104 78.931 31.9483Z" fill="#31424F"/>
<path d="M86.4483 31.9483C86.4483 32.9862 87.2897 33.8276 88.3276 33.8276C89.3655 33.8276 90.2069 32.9862 90.2069 31.9483C90.2069 30.9104 89.3655 30.069 88.3276 30.069C87.2897 30.069 86.4483 30.9104 86.4483 31.9483Z" fill="#31424F"/>
<path d="M90.2069 31.9483C90.2069 32.9862 91.0483 33.8276 92.0862 33.8276C93.1241 33.8276 93.9655 32.9862 93.9655 31.9483C93.9655 30.9104 93.1241 30.069 92.0862 30.069C91.0483 30.069 90.2069 30.9104 90.2069 31.9483Z" fill="#31424F"/>
<path d="M93.9655 31.9483C93.9655 32.9862 94.8069 33.8276 95.8448 33.8276C96.8827 33.8276 97.7241 32.9862 97.7241 31.9483C97.7241 30.9104 96.8827 30.069 95.8448 30.069C94.8069 30.069 93.9655 30.9104 93.9655 31.9483Z" fill="#31424F"/>
<path d="M97.7241 31.9483C97.7241 32.9862 98.5655 33.8276 99.6034 33.8276C100.641 33.8276 101.483 32.9862 101.483 31.9483C101.483 30.9104 100.641 30.069 99.6034 30.069C98.5655 30.069 97.7241 30.9104 97.7241 31.9483Z" fill="#31424F"/>
<path d="M101.483 31.9483C101.483 32.9862 102.324 33.8276 103.362 33.8276C104.4 33.8276 105.241 32.9862 105.241 31.9483C105.241 30.9104 104.4 30.069 103.362 30.069C102.324 30.069 101.483 30.9104 101.483 31.9483Z" fill="#31424F"/>
<path d="M3.75861 35.7069C3.75861 36.7448 4.6 37.5862 5.63792 37.5862C6.67583 37.5862 7.51723 36.7448 7.51723 35.7069C7.51723 34.669 6.67583 33.8276 5.63792 33.8276C4.6 33.8276 3.75861 34.669 3.75861 35.7069Z" fill="#31424F"/>
<path d="M7.51721 35.7069C7.51721 36.7448 8.35861 37.5862 9.39652 37.5862C10.4344 37.5862 11.2758 36.7448 11.2758 35.7069C11.2758 34.669 10.4344 33.8276 9.39652 33.8276C8.35861 33.8276 7.51721 34.669 7.51721 35.7069Z" fill="#31424F"/>
<path d="M11.2759 35.7069C11.2759 36.7448 12.1173 37.5862 13.1552 37.5862C14.1931 37.5862 15.0345 36.7448 15.0345 35.7069C15.0345 34.669 14.1931 33.8276 13.1552 33.8276C12.1173 33.8276 11.2759 34.669 11.2759 35.7069Z" fill="#31424F"/>
<path d="M15.0345 35.7069C15.0345 36.7448 15.8759 37.5862 16.9138 37.5862C17.9517 37.5862 18.7931 36.7448 18.7931 35.7069C18.7931 34.669 17.9517 33.8276 16.9138 33.8276C15.8759 33.8276 15.0345 34.669 15.0345 35.7069Z" fill="#31424F"/>
<path d="M26.3104 35.7069C26.3104 36.7448 27.1518 37.5862 28.1897 37.5862C29.2276 37.5862 30.069 36.7448 30.069 35.7069C30.069 34.669 29.2276 33.8276 28.1897 33.8276C27.1518 33.8276 26.3104 34.669 26.3104 35.7069Z" fill="#31424F"/>
<path d="M30.069 35.7069C30.069 36.7448 30.9104 37.5862 31.9483 37.5862C32.9862 37.5862 33.8276 36.7448 33.8276 35.7069C33.8276 34.669 32.9862 33.8276 31.9483 33.8276C30.9104 33.8276 30.069 34.669 30.069 35.7069Z" fill="#31424F"/>
<path d="M33.8276 35.7069C33.8276 36.7448 34.669 37.5862 35.7069 37.5862C36.7448 37.5862 37.5862 36.7448 37.5862 35.7069C37.5862 34.669 36.7448 33.8276 35.7069 33.8276C34.669 33.8276 33.8276 34.669 33.8276 35.7069Z" fill="#31424F"/>
<path d="M37.5862 35.7069C37.5862 36.7448 38.4276 37.5862 39.4655 37.5862C40.5034 37.5862 41.3448 36.7448 41.3448 35.7069C41.3448 34.669 40.5034 33.8276 39.4655 33.8276C38.4276 33.8276 37.5862 34.669 37.5862 35.7069Z" fill="#31424F"/>
<path d="M48.8621 35.7069C48.8621 36.7448 49.7035 37.5862 50.7414 37.5862C51.7793 37.5862 52.6207 36.7448 52.6207 35.7069C52.6207 34.669 51.7793 33.8276 50.7414 33.8276C49.7035 33.8276 48.8621 34.669 48.8621 35.7069Z" fill="#31424F"/>
<path d="M56.3793 35.7069C56.3793 36.7448 57.2207 37.5862 58.2586 37.5862C59.2966 37.5862 60.138 36.7448 60.138 35.7069C60.138 34.669 59.2966 33.8276 58.2586 33.8276C57.2207 33.8276 56.3793 34.669 56.3793 35.7069Z" fill="#31424F"/>
<path d="M63.8965 35.7069C63.8965 36.7448 64.7379 37.5862 65.7759 37.5862C66.8138 37.5862 67.6552 36.7448 67.6552 35.7069C67.6552 34.669 66.8138 33.8276 65.7759 33.8276C64.7379 33.8276 63.8965 34.669 63.8965 35.7069Z" fill="#31424F"/>
<path d="M75.1724 35.7069C75.1724 36.7448 76.0138 37.5862 77.0517 37.5862C78.0896 37.5862 78.931 36.7448 78.931 35.7069C78.931 34.669 78.0896 33.8276 77.0517 33.8276C76.0138 33.8276 75.1724 34.669 75.1724 35.7069Z" fill="#31424F"/>
<path d="M86.4483 35.7069C86.4483 36.7448 87.2897 37.5862 88.3276 37.5862C89.3655 37.5862 90.2069 36.7448 90.2069 35.7069C90.2069 34.669 89.3655 33.8276 88.3276 33.8276C87.2897 33.8276 86.4483 34.669 86.4483 35.7069Z" fill="#31424F"/>
<path d="M90.2069 35.7069C90.2069 36.7448 91.0483 37.5862 92.0862 37.5862C93.1241 37.5862 93.9655 36.7448 93.9655 35.7069C93.9655 34.669 93.1241 33.8276 92.0862 33.8276C91.0483 33.8276 90.2069 34.669 90.2069 35.7069Z" fill="#31424F"/>
<path d="M101.483 35.7069C101.483 36.7448 102.324 37.5862 103.362 37.5862C104.4 37.5862 105.241 36.7448 105.241 35.7069C105.241 34.669 104.4 33.8276 103.362 33.8276C102.324 33.8276 101.483 34.669 101.483 35.7069Z" fill="#31424F"/>
<path d="M0 39.4655C0 40.5034 0.841396 41.3448 1.87931 41.3448C2.91722 41.3448 3.75862 40.5034 3.75862 39.4655C3.75862 38.4276 2.91722 37.5862 1.87931 37.5862C0.841396 37.5862 0 38.4276 0 39.4655Z" fill="#31424F"/>
<path d="M22.5517 39.4655C22.5517 40.5034 23.3931 41.3448 24.431 41.3448C25.4689 41.3448 26.3103 40.5034 26.3103 39.4655C26.3103 38.4276 25.4689 37.5862 24.431 37.5862C23.3931 37.5862 22.5517 38.4276 22.5517 39.4655Z" fill="#31424F"/>
<path d="M37.5862 39.4655C37.5862 40.5034 38.4276 41.3448 39.4655 41.3448C40.5034 41.3448 41.3448 40.5034 41.3448 39.4655C41.3448 38.4276 40.5034 37.5862 39.4655 37.5862C38.4276 37.5862 37.5862 38.4276 37.5862 39.4655Z" fill="#31424F"/>
<path d="M41.3448 39.4655C41.3448 40.5034 42.1862 41.3448 43.2242 41.3448C44.2621 41.3448 45.1035 40.5034 45.1035 39.4655C45.1035 38.4276 44.2621 37.5862 43.2242 37.5862C42.1862 37.5862 41.3448 38.4276 41.3448 39.4655Z" fill="#31424F"/>
<path d="M52.6207 39.4655C52.6207 40.5034 53.4621 41.3448 54.5 41.3448C55.5379 41.3448 56.3793 40.5034 56.3793 39.4655C56.3793 38.4276 55.5379 37.5862 54.5 37.5862C53.4621 37.5862 52.6207 38.4276 52.6207 39.4655Z" fill="#31424F"/>
<path d="M75.1724 39.4655C75.1724 40.5034 76.0138 41.3448 77.0517 41.3448C78.0896 41.3448 78.931 40.5034 78.931 39.4655C78.931 38.4276 78.0896 37.5862 77.0517 37.5862C76.0138 37.5862 75.1724 38.4276 75.1724 39.4655Z" fill="#31424F"/>
<path d="M82.6896 39.4655C82.6896 40.5034 83.531 41.3448 84.5689 41.3448C85.6069 41.3448 86.4483 40.5034 86.4483 39.4655C86.4483 38.4276 85.6069 37.5862 84.5689 37.5862C83.531 37.5862 82.6896 38.4276 82.6896 39.4655Z" fill="#31424F"/>
<path d="M86.4483 39.4655C86.4483 40.5034 87.2897 41.3448 88.3276 41.3448C89.3655 41.3448 90.2069 40.5034 90.2069 39.4655C90.2069 38.4276 89.3655 37.5862 88.3276 37.5862C87.2897 37.5862 86.4483 38.4276 86.4483 39.4655Z" fill="#31424F"/>
<path d="M93.9655 39.4655C93.9655 40.5034 94.8069 41.3448 95.8448 41.3448C96.8827 41.3448 97.7241 40.5034 97.7241 39.4655C97.7241 38.4276 96.8827 37.5862 95.8448 37.5862C94.8069 37.5862 93.9655 38.4276 93.9655 39.4655Z" fill="#31424F"/>
<path d="M0 43.2242C0 44.2621 0.841396 45.1035 1.87931 45.1035C2.91722 45.1035 3.75862 44.2621 3.75862 43.2242C3.75862 42.1862 2.91722 41.3448 1.87931 41.3448C0.841396 41.3448 0 42.1862 0 43.2242Z" fill="#31424F"/>
<path d="M7.51721 43.2242C7.51721 44.2621 8.35861 45.1035 9.39652 45.1035C10.4344 45.1035 11.2758 44.2621 11.2758 43.2242C11.2758 42.1862 10.4344 41.3448 9.39652 41.3448C8.35861 41.3448 7.51721 42.1862 7.51721 43.2242Z" fill="#31424F"/>
<path d="M15.0345 43.2242C15.0345 44.2621 15.8759 45.1035 16.9138 45.1035C17.9517 45.1035 18.7931 44.2621 18.7931 43.2242C18.7931 42.1862 17.9517 41.3448 16.9138 41.3448C15.8759 41.3448 15.0345 42.1862 15.0345 43.2242Z" fill="#31424F"/>
<path d="M26.3104 43.2242C26.3104 44.2621 27.1518 45.1035 28.1897 45.1035C29.2276 45.1035 30.069 44.2621 30.069 43.2242C30.069 42.1862 29.2276 41.3448 28.1897 41.3448C27.1518 41.3448 26.3104 42.1862 26.3104 43.2242Z" fill="#31424F"/>
<path d="M30.069 43.2242C30.069 44.2621 30.9104 45.1035 31.9483 45.1035C32.9862 45.1035 33.8276 44.2621 33.8276 43.2242C33.8276 42.1862 32.9862 41.3448 31.9483 41.3448C30.9104 41.3448 30.069 42.1862 30.069 43.2242Z" fill="#31424F"/>
<path d="M33.8276 43.2242C33.8276 44.2621 34.669 45.1035 35.7069 45.1035C36.7448 45.1035 37.5862 44.2621 37.5862 43.2242C37.5862 42.1862 36.7448 41.3448 35.7069 41.3448C34.669 41.3448 33.8276 42.1862 33.8276 43.2242Z" fill="#31424F"/>
<path d="M71.4138 43.2242C71.4138 44.2621 72.2552 45.1035 73.2931 45.1035C74.331 45.1035 75.1724 44.2621 75.1724 43.2242C75.1724 42.1862 74.331 41.3448 73.2931 41.3448C72.2552 41.3448 71.4138 42.1862 71.4138 43.2242Z" fill="#31424F"/>
<path d="M75.1724 43.2242C75.1724 44.2621 76.0138 45.1035 77.0517 45.1035C78.0896 45.1035 78.931 44.2621 78.931 43.2242C78.931 42.1862 78.0896 41.3448 77.0517 41.3448C76.0138 41.3448 75.1724 42.1862 75.1724 43.2242Z" fill="#31424F"/>
<path d="M78.931 43.2242C78.931 44.2621 79.7724 45.1035 80.8103 45.1035C81.8483 45.1035 82.6897 44.2621 82.6897 43.2242C82.6897 42.1862 81.8483 41.3448 80.8103 41.3448C79.7724 41.3448 78.931 42.1862 78.931 43.2242Z" fill="#31424F"/>
<path d="M82.6896 43.2242C82.6896 44.2621 83.531 45.1035 84.5689 45.1035C85.6069 45.1035 86.4483 44.2621 86.4483 43.2242C86.4483 42.1862 85.6069 41.3448 84.5689 41.3448C83.531 41.3448 82.6896 42.1862 82.6896 43.2242Z" fill="#31424F"/>
<path d="M86.4483 43.2242C86.4483 44.2621 87.2897 45.1035 88.3276 45.1035C89.3655 45.1035 90.2069 44.2621 90.2069 43.2242C90.2069 42.1862 89.3655 41.3448 88.3276 41.3448C87.2897 41.3448 86.4483 42.1862 86.4483 43.2242Z" fill="#31424F"/>
<path d="M90.2069 43.2242C90.2069 44.2621 91.0483 45.1035 92.0862 45.1035C93.1241 45.1035 93.9655 44.2621 93.9655 43.2242C93.9655 42.1862 93.1241 41.3448 92.0862 41.3448C91.0483 41.3448 90.2069 42.1862 90.2069 43.2242Z" fill="#31424F"/>
<path d="M93.9655 43.2242C93.9655 44.2621 94.8069 45.1035 95.8448 45.1035C96.8827 45.1035 97.7241 44.2621 97.7241 43.2242C97.7241 42.1862 96.8827 41.3448 95.8448 41.3448C94.8069 41.3448 93.9655 42.1862 93.9655 43.2242Z" fill="#31424F"/>
<path d="M97.7241 43.2242C97.7241 44.2621 98.5655 45.1035 99.6034 45.1035C100.641 45.1035 101.483 44.2621 101.483 43.2242C101.483 42.1862 100.641 41.3448 99.6034 41.3448C98.5655 41.3448 97.7241 42.1862 97.7241 43.2242Z" fill="#31424F"/>
<path d="M22.5517 46.9828C22.5517 48.0207 23.3931 48.8621 24.431 48.8621C25.4689 48.8621 26.3103 48.0207 26.3103 46.9828C26.3103 45.9449 25.4689 45.1035 24.431 45.1035C23.3931 45.1035 22.5517 45.9449 22.5517 46.9828Z" fill="#31424F"/>
<path d="M26.3104 46.9828C26.3104 48.0207 27.1518 48.8621 28.1897 48.8621C29.2276 48.8621 30.069 48.0207 30.069 46.9828C30.069 45.9449 29.2276 45.1035 28.1897 45.1035C27.1518 45.1035 26.3104 45.9449 26.3104 46.9828Z" fill="#31424F"/>
<path d="M30.069 46.9828C30.069 48.0207 30.9104 48.8621 31.9483 48.8621C32.9862 48.8621 33.8276 48.0207 33.8276 46.9828C33.8276 45.9449 32.9862 45.1035 31.9483 45.1035C30.9104 45.1035 30.069 45.9449 30.069 46.9828Z" fill="#31424F"/>
<path d="M33.8276 46.9828C33.8276 48.0207 34.669 48.8621 35.7069 48.8621C36.7448 48.8621 37.5862 48.0207 37.5862 46.9828C37.5862 45.9449 36.7448 45.1035 35.7069 45.1035C34.669 45.1035 33.8276 45.9449 33.8276 46.9828Z" fill="#31424F"/>
<path d="M48.8621 46.9828C48.8621 48.0207 49.7035 48.8621 50.7414 48.8621C51.7793 48.8621 52.6207 48.0207 52.6207 46.9828C52.6207 45.9449 51.7793 45.1035 50.7414 45.1035C49.7035 45.1035 48.8621 45.9449 48.8621 46.9828Z" fill="#31424F"/>
<path d="M78.931 46.9828C78.931 48.0207 79.7724 48.8621 80.8103 48.8621C81.8483 48.8621 82.6897 48.0207 82.6897 46.9828C82.6897 45.9449 81.8483 45.1035 80.8103 45.1035C79.7724 45.1035 78.931 45.9449 78.931 46.9828Z" fill="#31424F"/>
<path d="M82.6896 46.9828C82.6896 48.0207 83.531 48.8621 84.5689 48.8621C85.6069 48.8621 86.4483 48.0207 86.4483 46.9828C86.4483 45.9449 85.6069 45.1035 84.5689 45.1035C83.531 45.1035 82.6896 45.9449 82.6896 46.9828Z" fill="#31424F"/>
<path d="M86.4483 46.9828C86.4483 48.0207 87.2897 48.8621 88.3276 48.8621C89.3655 48.8621 90.2069 48.0207 90.2069 46.9828C90.2069 45.9449 89.3655 45.1035 88.3276 45.1035C87.2897 45.1035 86.4483 45.9449 86.4483 46.9828Z" fill="#31424F"/>
<path d="M90.2069 46.9828C90.2069 48.0207 91.0483 48.8621 92.0862 48.8621C93.1241 48.8621 93.9655 48.0207 93.9655 46.9828C93.9655 45.9449 93.1241 45.1035 92.0862 45.1035C91.0483 45.1035 90.2069 45.9449 90.2069 46.9828Z" fill="#31424F"/>
<path d="M101.483 46.9828C101.483 48.0207 102.324 48.8621 103.362 48.8621C104.4 48.8621 105.241 48.0207 105.241 46.9828C105.241 45.9449 104.4 45.1035 103.362 45.1035C102.324 45.1035 101.483 45.9449 101.483 46.9828Z" fill="#31424F"/>
<path d="M105.241 46.9828C105.241 48.0207 106.083 48.8621 107.121 48.8621C108.159 48.8621 109 48.0207 109 46.9828C109 45.9449 108.159 45.1035 107.121 45.1035C106.083 45.1035 105.241 45.9449 105.241 46.9828Z" fill="#31424F"/>
<path d="M3.75861 50.7414C3.75861 51.7793 4.6 52.6207 5.63792 52.6207C6.67583 52.6207 7.51723 51.7793 7.51723 50.7414C7.51723 49.7035 6.67583 48.8621 5.63792 48.8621C4.6 48.8621 3.75861 49.7035 3.75861 50.7414Z" fill="#31424F"/>
<path d="M7.51721 50.7414C7.51721 51.7793 8.35861 52.6207 9.39652 52.6207C10.4344 52.6207 11.2758 51.7793 11.2758 50.7414C11.2758 49.7035 10.4344 48.8621 9.39652 48.8621C8.35861 48.8621 7.51721 49.7035 7.51721 50.7414Z" fill="#31424F"/>
<path d="M18.7931 50.7414C18.7931 51.7793 19.6345 52.6207 20.6724 52.6207C21.7103 52.6207 22.5517 51.7793 22.5517 50.7414C22.5517 49.7035 21.7103 48.8621 20.6724 48.8621C19.6345 48.8621 18.7931 49.7035 18.7931 50.7414Z" fill="#31424F"/>
<path d="M30.069 50.7414C30.069 51.7793 30.9104 52.6207 31.9483 52.6207C32.9862 52.6207 33.8276 51.7793 33.8276 50.7414C33.8276 49.7035 32.9862 48.8621 31.9483 48.8621C30.9104 48.8621 30.069 49.7035 30.069 50.7414Z" fill="#31424F"/>
<path d="M71.4138 50.7414C71.4138 51.7793 72.2552 52.6207 73.2931 52.6207C74.331 52.6207 75.1724 51.7793 75.1724 50.7414C75.1724 49.7035 74.331 48.8621 73.2931 48.8621C72.2552 48.8621 71.4138 49.7035 71.4138 50.7414Z" fill="#31424F"/>
<path d="M75.1724 50.7414C75.1724 51.7793 76.0138 52.6207 77.0517 52.6207C78.0896 52.6207 78.931 51.7793 78.931 50.7414C78.931 49.7035 78.0896 48.8621 77.0517 48.8621C76.0138 48.8621 75.1724 49.7035 75.1724 50.7414Z" fill="#31424F"/>
<path d="M78.931 50.7414C78.931 51.7793 79.7724 52.6207 80.8103 52.6207C81.8483 52.6207 82.6897 51.7793 82.6897 50.7414C82.6897 49.7035 81.8483 48.8621 80.8103 48.8621C79.7724 48.8621 78.931 49.7035 78.931 50.7414Z" fill="#31424F"/>
<path d="M82.6896 50.7414C82.6896 51.7793 83.531 52.6207 84.5689 52.6207C85.6069 52.6207 86.4483 51.7793 86.4483 50.7414C86.4483 49.7035 85.6069 48.8621 84.5689 48.8621C83.531 48.8621 82.6896 49.7035 82.6896 50.7414Z" fill="#31424F"/>
<path d="M93.9655 50.7414C93.9655 51.7793 94.8069 52.6207 95.8448 52.6207C96.8827 52.6207 97.7241 51.7793 97.7241 50.7414C97.7241 49.7035 96.8827 48.8621 95.8448 48.8621C94.8069 48.8621 93.9655 49.7035 93.9655 50.7414Z" fill="#31424F"/>
<path d="M101.483 50.7414C101.483 51.7793 102.324 52.6207 103.362 52.6207C104.4 52.6207 105.241 51.7793 105.241 50.7414C105.241 49.7035 104.4 48.8621 103.362 48.8621C102.324 48.8621 101.483 49.7035 101.483 50.7414Z" fill="#31424F"/>
<path d="M3.75861 54.5C3.75861 55.5379 4.6 56.3793 5.63792 56.3793C6.67583 56.3793 7.51723 55.5379 7.51723 54.5C7.51723 53.4621 6.67583 52.6207 5.63792 52.6207C4.6 52.6207 3.75861 53.4621 3.75861 54.5Z" fill="#31424F"/>
<path d="M7.51721 54.5C7.51721 55.5379 8.35861 56.3793 9.39652 56.3793C10.4344 56.3793 11.2758 55.5379 11.2758 54.5C11.2758 53.4621 10.4344 52.6207 9.39652 52.6207C8.35861 52.6207 7.51721 53.4621 7.51721 54.5Z" fill="#31424F"/>
<path d="M11.2759 54.5C11.2759 55.5379 12.1173 56.3793 13.1552 56.3793C14.1931 56.3793 15.0345 55.5379 15.0345 54.5C15.0345 53.4621 14.1931 52.6207 13.1552 52.6207C12.1173 52.6207 11.2759 53.4621 11.2759 54.5Z" fill="#31424F"/>
<path d="M15.0345 54.5C15.0345 55.5379 15.8759 56.3793 16.9138 56.3793C17.9517 56.3793 18.7931 55.5379 18.7931 54.5C18.7931 53.4621 17.9517 52.6207 16.9138 52.6207C15.8759 52.6207 15.0345 53.4621 15.0345 54.5Z" fill="#31424F"/>
<path d="M22.5517 54.5C22.5517 55.5379 23.3931 56.3793 24.431 56.3793C25.4689 56.3793 26.3103 55.5379 26.3103 54.5C26.3103 53.4621 25.4689 52.6207 24.431 52.6207C23.3931 52.6207 22.5517 53.4621 22.5517 54.5Z" fill="#31424F"/>
<path d="M33.8276 54.5C33.8276 55.5379 34.669 56.3793 35.7069 56.3793C36.7448 56.3793 37.5862 55.5379 37.5862 54.5C37.5862 53.4621 36.7448 52.6207 35.7069 52.6207C34.669 52.6207 33.8276 53.4621 33.8276 54.5Z" fill="#31424F"/>
<path d="M41.3448 54.5C41.3448 55.5379 42.1862 56.3793 43.2242 56.3793C44.2621 56.3793 45.1035 55.5379 45.1035 54.5C45.1035 53.4621 44.2621 52.6207 43.2242 52.6207C42.1862 52.6207 41.3448 53.4621 41.3448 54.5Z" fill="#31424F"/>
<path d="M63.8965 54.5C63.8965 55.5379 64.7379 56.3793 65.7759 56.3793C66.8138 56.3793 67.6552 55.5379 67.6552 54.5C67.6552 53.4621 66.8138 52.6207 65.7759 52.6207C64.7379 52.6207 63.8965 53.4621 63.8965 54.5Z" fill="#31424F"/>
<path d="M75.1724 54.5C75.1724 55.5379 76.0138 56.3793 77.0517 56.3793C78.0896 56.3793 78.931 55.5379 78.931 54.5C78.931 53.4621 78.0896 52.6207 77.0517 52.6207C76.0138 52.6207 75.1724 53.4621 75.1724 54.5Z" fill="#31424F"/>
<path d="M78.931 54.5C78.931 55.5379 79.7724 56.3793 80.8103 56.3793C81.8483 56.3793 82.6897 55.5379 82.6897 54.5C82.6897 53.4621 81.8483 52.6207 80.8103 52.6207C79.7724 52.6207 78.931 53.4621 78.931 54.5Z" fill="#31424F"/>
<path d="M82.6896 54.5C82.6896 55.5379 83.531 56.3793 84.5689 56.3793C85.6069 56.3793 86.4483 55.5379 86.4483 54.5C86.4483 53.4621 85.6069 52.6207 84.5689 52.6207C83.531 52.6207 82.6896 53.4621 82.6896 54.5Z" fill="#31424F"/>
<path d="M93.9655 54.5C93.9655 55.5379 94.8069 56.3793 95.8448 56.3793C96.8827 56.3793 97.7241 55.5379 97.7241 54.5C97.7241 53.4621 96.8827 52.6207 95.8448 52.6207C94.8069 52.6207 93.9655 53.4621 93.9655 54.5Z" fill="#31424F"/>
<path d="M105.241 54.5C105.241 55.5379 106.083 56.3793 107.121 56.3793C108.159 56.3793 109 55.5379 109 54.5C109 53.4621 108.159 52.6207 107.121 52.6207C106.083 52.6207 105.241 53.4621 105.241 54.5Z" fill="#31424F"/>
<path d="M0 58.2586C0 59.2966 0.841396 60.138 1.87931 60.138C2.91722 60.138 3.75862 59.2966 3.75862 58.2586C3.75862 57.2207 2.91722 56.3793 1.87931 56.3793C0.841396 56.3793 0 57.2207 0 58.2586Z" fill="#31424F"/>
<path d="M7.51721 58.2586C7.51721 59.2966 8.35861 60.138 9.39652 60.138C10.4344 60.138 11.2758 59.2966 11.2758 58.2586C11.2758 57.2207 10.4344 56.3793 9.39652 56.3793C8.35861 56.3793 7.51721 57.2207 7.51721 58.2586Z" fill="#31424F"/>
<path d="M33.8276 58.2586C33.8276 59.2966 34.669 60.138 35.7069 60.138C36.7448 60.138 37.5862 59.2966 37.5862 58.2586C37.5862 57.2207 36.7448 56.3793 35.7069 56.3793C34.669 56.3793 33.8276 57.2207 33.8276 58.2586Z" fill="#31424F"/>
<path d="M71.4138 58.2586C71.4138 59.2966 72.2552 60.138 73.2931 60.138C74.331 60.138 75.1724 59.2966 75.1724 58.2586C75.1724 57.2207 74.331 56.3793 73.2931 56.3793C72.2552 56.3793 71.4138 57.2207 71.4138 58.2586Z" fill="#31424F"/>
<path d="M78.931 58.2586C78.931 59.2966 79.7724 60.138 80.8103 60.138C81.8483 60.138 82.6897 59.2966 82.6897 58.2586C82.6897 57.2207 81.8483 56.3793 80.8103 56.3793C79.7724 56.3793 78.931 57.2207 78.931 58.2586Z" fill="#31424F"/>
<path d="M86.4483 58.2586C86.4483 59.2966 87.2897 60.138 88.3276 60.138C89.3655 60.138 90.2069 59.2966 90.2069 58.2586C90.2069 57.2207 89.3655 56.3793 88.3276 56.3793C87.2897 56.3793 86.4483 57.2207 86.4483 58.2586Z" fill="#31424F"/>
<path d="M97.7241 58.2586C97.7241 59.2966 98.5655 60.138 99.6034 60.138C100.641 60.138 101.483 59.2966 101.483 58.2586C101.483 57.2207 100.641 56.3793 99.6034 56.3793C98.5655 56.3793 97.7241 57.2207 97.7241 58.2586Z" fill="#31424F"/>
<path d="M105.241 58.2586C105.241 59.2966 106.083 60.138 107.121 60.138C108.159 60.138 109 59.2966 109 58.2586C109 57.2207 108.159 56.3793 107.121 56.3793C106.083 56.3793 105.241 57.2207 105.241 58.2586Z" fill="#31424F"/>
<path d="M11.2759 62.0172C11.2759 63.0552 12.1173 63.8966 13.1552 63.8966C14.1931 63.8966 15.0345 63.0552 15.0345 62.0172C15.0345 60.9793 14.1931 60.1379 13.1552 60.1379C12.1173 60.1379 11.2759 60.9793 11.2759 62.0172Z" fill="#31424F"/>
<path d="M22.5517 62.0172C22.5517 63.0552 23.3931 63.8966 24.431 63.8966C25.4689 63.8966 26.3103 63.0552 26.3103 62.0172C26.3103 60.9793 25.4689 60.1379 24.431 60.1379C23.3931 60.1379 22.5517 60.9793 22.5517 62.0172Z" fill="#31424F"/>
<path d="M26.3104 62.0172C26.3104 63.0552 27.1518 63.8966 28.1897 63.8966C29.2276 63.8966 30.069 63.0552 30.069 62.0172C30.069 60.9793 29.2276 60.1379 28.1897 60.1379C27.1518 60.1379 26.3104 60.9793 26.3104 62.0172Z" fill="#31424F"/>
<path d="M30.069 62.0172C30.069 63.0552 30.9104 63.8966 31.9483 63.8966C32.9862 63.8966 33.8276 63.0552 33.8276 62.0172C33.8276 60.9793 32.9862 60.1379 31.9483 60.1379C30.9104 60.1379 30.069 60.9793 30.069 62.0172Z" fill="#31424F"/>
<path d="M33.8276 62.0172C33.8276 63.0552 34.669 63.8966 35.7069 63.8966C36.7448 63.8966 37.5862 63.0552 37.5862 62.0172C37.5862 60.9793 36.7448 60.1379 35.7069 60.1379C34.669 60.1379 33.8276 60.9793 33.8276 62.0172Z" fill="#31424F"/>
<path d="M41.3448 62.0172C41.3448 63.0552 42.1862 63.8966 43.2242 63.8966C44.2621 63.8966 45.1035 63.0552 45.1035 62.0172C45.1035 60.9793 44.2621 60.1379 43.2242 60.1379C42.1862 60.1379 41.3448 60.9793 41.3448 62.0172Z" fill="#31424F"/>
<path d="M48.8621 62.0172C48.8621 63.0552 49.7035 63.8966 50.7414 63.8966C51.7793 63.8966 52.6207 63.0552 52.6207 62.0172C52.6207 60.9793 51.7793 60.1379 50.7414 60.1379C49.7035 60.1379 48.8621 60.9793 48.8621 62.0172Z" fill="#31424F"/>
<path d="M52.6207 62.0172C52.6207 63.0552 53.4621 63.8966 54.5 63.8966C55.5379 63.8966 56.3793 63.0552 56.3793 62.0172C56.3793 60.9793 55.5379 60.1379 54.5 60.1379C53.4621 60.1379 52.6207 60.9793 52.6207 62.0172Z" fill="#31424F"/>
<path d="M71.4138 62.0172C71.4138 63.0552 72.2552 63.8966 73.2931 63.8966C74.331 63.8966 75.1724 63.0552 75.1724 62.0172C75.1724 60.9793 74.331 60.1379 73.2931 60.1379C72.2552 60.1379 71.4138 60.9793 71.4138 62.0172Z" fill="#31424F"/>
<path d="M78.931 62.0172C78.931 63.0552 79.7724 63.8966 80.8103 63.8966C81.8483 63.8966 82.6897 63.0552 82.6897 62.0172C82.6897 60.9793 81.8483 60.1379 80.8103 60.1379C79.7724 60.1379 78.931 60.9793 78.931 62.0172Z" fill="#31424F"/>
<path d="M82.6896 62.0172C82.6896 63.0552 83.531 63.8966 84.5689 63.8966C85.6069 63.8966 86.4483 63.0552 86.4483 62.0172C86.4483 60.9793 85.6069 60.1379 84.5689 60.1379C83.531 60.1379 82.6896 60.9793 82.6896 62.0172Z" fill="#31424F"/>
<path d="M90.2069 62.0172C90.2069 63.0552 91.0483 63.8966 92.0862 63.8966C93.1241 63.8966 93.9655 63.0552 93.9655 62.0172C93.9655 60.9793 93.1241 60.1379 92.0862 60.1379C91.0483 60.1379 90.2069 60.9793 90.2069 62.0172Z" fill="#31424F"/>
<path d="M93.9655 62.0172C93.9655 63.0552 94.8069 63.8966 95.8448 63.8966C96.8827 63.8966 97.7241 63.0552 97.7241 62.0172C97.7241 60.9793 96.8827 60.1379 95.8448 60.1379C94.8069 60.1379 93.9655 60.9793 93.9655 62.0172Z" fill="#31424F"/>
<path d="M97.7241 62.0172C97.7241 63.0552 98.5655 63.8966 99.6034 63.8966C100.641 63.8966 101.483 63.0552 101.483 62.0172C101.483 60.9793 100.641 60.1379 99.6034 60.1379C98.5655 60.1379 97.7241 60.9793 97.7241 62.0172Z" fill="#31424F"/>
<path d="M105.241 62.0172C105.241 63.0552 106.083 63.8966 107.121 63.8966C108.159 63.8966 109 63.0552 109 62.0172C109 60.9793 108.159 60.1379 107.121 60.1379C106.083 60.1379 105.241 60.9793 105.241 62.0172Z" fill="#31424F"/>
<path d="M7.51721 65.7759C7.51721 66.8138 8.35861 67.6552 9.39652 67.6552C10.4344 67.6552 11.2758 66.8138 11.2758 65.7759C11.2758 64.7379 10.4344 63.8965 9.39652 63.8965C8.35861 63.8965 7.51721 64.7379 7.51721 65.7759Z" fill="#31424F"/>
<path d="M11.2759 65.7759C11.2759 66.8138 12.1173 67.6552 13.1552 67.6552C14.1931 67.6552 15.0345 66.8138 15.0345 65.7759C15.0345 64.7379 14.1931 63.8965 13.1552 63.8965C12.1173 63.8965 11.2759 64.7379 11.2759 65.7759Z" fill="#31424F"/>
<path d="M30.069 65.7759C30.069 66.8138 30.9104 67.6552 31.9483 67.6552C32.9862 67.6552 33.8276 66.8138 33.8276 65.7759C33.8276 64.7379 32.9862 63.8965 31.9483 63.8965C30.9104 63.8965 30.069 64.7379 30.069 65.7759Z" fill="#31424F"/>
<path d="M78.931 65.7759C78.931 66.8138 79.7724 67.6552 80.8103 67.6552C81.8483 67.6552 82.6897 66.8138 82.6897 65.7759C82.6897 64.7379 81.8483 63.8965 80.8103 63.8965C79.7724 63.8965 78.931 64.7379 78.931 65.7759Z" fill="#31424F"/>
<path d="M0 69.5345C0 70.5724 0.841396 71.4138 1.87931 71.4138C2.91722 71.4138 3.75862 70.5724 3.75862 69.5345C3.75862 68.4965 2.91722 67.6552 1.87931 67.6552C0.841396 67.6552 0 68.4965 0 69.5345Z" fill="#31424F"/>
<path d="M3.75861 69.5345C3.75861 70.5724 4.6 71.4138 5.63792 71.4138C6.67583 71.4138 7.51723 70.5724 7.51723 69.5345C7.51723 68.4965 6.67583 67.6552 5.63792 67.6552C4.6 67.6552 3.75861 68.4965 3.75861 69.5345Z" fill="#31424F"/>
<path d="M11.2759 69.5345C11.2759 70.5724 12.1173 71.4138 13.1552 71.4138C14.1931 71.4138 15.0345 70.5724 15.0345 69.5345C15.0345 68.4965 14.1931 67.6552 13.1552 67.6552C12.1173 67.6552 11.2759 68.4965 11.2759 69.5345Z" fill="#31424F"/>
<path d="M15.0345 69.5345C15.0345 70.5724 15.8759 71.4138 16.9138 71.4138C17.9517 71.4138 18.7931 70.5724 18.7931 69.5345C18.7931 68.4965 17.9517 67.6552 16.9138 67.6552C15.8759 67.6552 15.0345 68.4965 15.0345 69.5345Z" fill="#31424F"/>
<path d="M18.7931 69.5345C18.7931 70.5724 19.6345 71.4138 20.6724 71.4138C21.7103 71.4138 22.5517 70.5724 22.5517 69.5345C22.5517 68.4965 21.7103 67.6552 20.6724 67.6552C19.6345 67.6552 18.7931 68.4965 18.7931 69.5345Z" fill="#31424F"/>
<path d="M22.5517 69.5345C22.5517 70.5724 23.3931 71.4138 24.431 71.4138C25.4689 71.4138 26.3103 70.5724 26.3103 69.5345C26.3103 68.4965 25.4689 67.6552 24.431 67.6552C23.3931 67.6552 22.5517 68.4965 22.5517 69.5345Z" fill="#31424F"/>
<path d="M26.3104 69.5345C26.3104 70.5724 27.1518 71.4138 28.1897 71.4138C29.2276 71.4138 30.069 70.5724 30.069 69.5345C30.069 68.4965 29.2276 67.6552 28.1897 67.6552C27.1518 67.6552 26.3104 68.4965 26.3104 69.5345Z" fill="#31424F"/>
<path d="M30.069 69.5345C30.069 70.5724 30.9104 71.4138 31.9483 71.4138C32.9862 71.4138 33.8276 70.5724 33.8276 69.5345C33.8276 68.4965 32.9862 67.6552 31.9483 67.6552C30.9104 67.6552 30.069 68.4965 30.069 69.5345Z" fill="#31424F"/>
<path d="M37.5862 69.5345C37.5862 70.5724 38.4276 71.4138 39.4655 71.4138C40.5034 71.4138 41.3448 70.5724 41.3448 69.5345C41.3448 68.4965 40.5034 67.6552 39.4655 67.6552C38.4276 67.6552 37.5862 68.4965 37.5862 69.5345Z" fill="#31424F"/>
<path d="M41.3448 69.5345C41.3448 70.5724 42.1862 71.4138 43.2242 71.4138C44.2621 71.4138 45.1035 70.5724 45.1035 69.5345C45.1035 68.4965 44.2621 67.6552 43.2242 67.6552C42.1862 67.6552 41.3448 68.4965 41.3448 69.5345Z" fill="#31424F"/>
<path d="M45.1035 69.5345C45.1035 70.5724 45.9449 71.4138 46.9828 71.4138C48.0207 71.4138 48.8621 70.5724 48.8621 69.5345C48.8621 68.4965 48.0207 67.6552 46.9828 67.6552C45.9449 67.6552 45.1035 68.4965 45.1035 69.5345Z" fill="#31424F"/>
<path d="M48.8621 69.5345C48.8621 70.5724 49.7035 71.4138 50.7414 71.4138C51.7793 71.4138 52.6207 70.5724 52.6207 69.5345C52.6207 68.4965 51.7793 67.6552 50.7414 67.6552C49.7035 67.6552 48.8621 68.4965 48.8621 69.5345Z" fill="#31424F"/>
<path d="M56.3793 69.5345C56.3793 70.5724 57.2207 71.4138 58.2586 71.4138C59.2966 71.4138 60.138 70.5724 60.138 69.5345C60.138 68.4965 59.2966 67.6552 58.2586 67.6552C57.2207 67.6552 56.3793 68.4965 56.3793 69.5345Z" fill="#31424F"/>
<path d="M60.1379 69.5345C60.1379 70.5724 60.9793 71.4138 62.0172 71.4138C63.0552 71.4138 63.8966 70.5724 63.8966 69.5345C63.8966 68.4965 63.0552 67.6552 62.0172 67.6552C60.9793 67.6552 60.1379 68.4965 60.1379 69.5345Z" fill="#31424F"/>
<path d="M67.6552 69.5345C67.6552 70.5724 68.4965 71.4138 69.5345 71.4138C70.5724 71.4138 71.4138 70.5724 71.4138 69.5345C71.4138 68.4965 70.5724 67.6552 69.5345 67.6552C68.4965 67.6552 67.6552 68.4965 67.6552 69.5345Z" fill="#31424F"/>
<path d="M71.4138 69.5345C71.4138 70.5724 72.2552 71.4138 73.2931 71.4138C74.331 71.4138 75.1724 70.5724 75.1724 69.5345C75.1724 68.4965 74.331 67.6552 73.2931 67.6552C72.2552 67.6552 71.4138 68.4965 71.4138 69.5345Z" fill="#31424F"/>
<path d="M78.931 69.5345C78.931 70.5724 79.7724 71.4138 80.8103 71.4138C81.8483 71.4138 82.6897 70.5724 82.6897 69.5345C82.6897 68.4965 81.8483 67.6552 80.8103 67.6552C79.7724 67.6552 78.931 68.4965 78.931 69.5345Z" fill="#31424F"/>
<path d="M82.6896 69.5345C82.6896 70.5724 83.531 71.4138 84.5689 71.4138C85.6069 71.4138 86.4483 70.5724 86.4483 69.5345C86.4483 68.4965 85.6069 67.6552 84.5689 67.6552C83.531 67.6552 82.6896 68.4965 82.6896 69.5345Z" fill="#31424F"/>
<path d="M90.2069 69.5345C90.2069 70.5724 91.0483 71.4138 92.0862 71.4138C93.1241 71.4138 93.9655 70.5724 93.9655 69.5345C93.9655 68.4965 93.1241 67.6552 92.0862 67.6552C91.0483 67.6552 90.2069 68.4965 90.2069 69.5345Z" fill="#31424F"/>
<path d="M93.9655 69.5345C93.9655 70.5724 94.8069 71.4138 95.8448 71.4138C96.8827 71.4138 97.7241 70.5724 97.7241 69.5345C97.7241 68.4965 96.8827 67.6552 95.8448 67.6552C94.8069 67.6552 93.9655 68.4965 93.9655 69.5345Z" fill="#31424F"/>
<path d="M97.7241 69.5345C97.7241 70.5724 98.5655 71.4138 99.6034 71.4138C100.641 71.4138 101.483 70.5724 101.483 69.5345C101.483 68.4965 100.641 67.6552 99.6034 67.6552C98.5655 67.6552 97.7241 68.4965 97.7241 69.5345Z" fill="#31424F"/>
<path d="M105.241 69.5345C105.241 70.5724 106.083 71.4138 107.121 71.4138C108.159 71.4138 109 70.5724 109 69.5345C109 68.4965 108.159 67.6552 107.121 67.6552C106.083 67.6552 105.241 68.4965 105.241 69.5345Z" fill="#31424F"/>
<path d="M15.0345 73.2931C15.0345 74.331 15.8759 75.1724 16.9138 75.1724C17.9517 75.1724 18.7931 74.331 18.7931 73.2931C18.7931 72.2552 17.9517 71.4138 16.9138 71.4138C15.8759 71.4138 15.0345 72.2552 15.0345 73.2931Z" fill="#31424F"/>
<path d="M26.3104 73.2931C26.3104 74.331 27.1518 75.1724 28.1897 75.1724C29.2276 75.1724 30.069 74.331 30.069 73.2931C30.069 72.2552 29.2276 71.4138 28.1897 71.4138C27.1518 71.4138 26.3104 72.2552 26.3104 73.2931Z" fill="#31424F"/>
<path d="M30.069 73.2931C30.069 74.331 30.9104 75.1724 31.9483 75.1724C32.9862 75.1724 33.8276 74.331 33.8276 73.2931C33.8276 72.2552 32.9862 71.4138 31.9483 71.4138C30.9104 71.4138 30.069 72.2552 30.069 73.2931Z" fill="#31424F"/>
<path d="M48.8621 73.2931C48.8621 74.331 49.7035 75.1724 50.7414 75.1724C51.7793 75.1724 52.6207 74.331 52.6207 73.2931C52.6207 72.2552 51.7793 71.4138 50.7414 71.4138C49.7035 71.4138 48.8621 72.2552 48.8621 73.2931Z" fill="#31424F"/>
<path d="M52.6207 73.2931C52.6207 74.331 53.4621 75.1724 54.5 75.1724C55.5379 75.1724 56.3793 74.331 56.3793 73.2931C56.3793 72.2552 55.5379 71.4138 54.5 71.4138C53.4621 71.4138 52.6207 72.2552 52.6207 73.2931Z" fill="#31424F"/>
<path d="M56.3793 73.2931C56.3793 74.331 57.2207 75.1724 58.2586 75.1724C59.2966 75.1724 60.138 74.331 60.138 73.2931C60.138 72.2552 59.2966 71.4138 58.2586 71.4138C57.2207 71.4138 56.3793 72.2552 56.3793 73.2931Z" fill="#31424F"/>
<path d="M60.1379 73.2931C60.1379 74.331 60.9793 75.1724 62.0172 75.1724C63.0552 75.1724 63.8966 74.331 63.8966 73.2931C63.8966 72.2552 63.0552 71.4138 62.0172 71.4138C60.9793 71.4138 60.1379 72.2552 60.1379 73.2931Z" fill="#31424F"/>
<path d="M63.8965 73.2931C63.8965 74.331 64.7379 75.1724 65.7759 75.1724C66.8138 75.1724 67.6552 74.331 67.6552 73.2931C67.6552 72.2552 66.8138 71.4138 65.7759 71.4138C64.7379 71.4138 63.8965 72.2552 63.8965 73.2931Z" fill="#31424F"/>
<path d="M67.6552 73.2931C67.6552 74.331 68.4965 75.1724 69.5345 75.1724C70.5724 75.1724 71.4138 74.331 71.4138 73.2931C71.4138 72.2552 70.5724 71.4138 69.5345 71.4138C68.4965 71.4138 67.6552 72.2552 67.6552 73.2931Z" fill="#31424F"/>
<path d="M78.931 73.2931C78.931 74.331 79.7724 75.1724 80.8103 75.1724C81.8483 75.1724 82.6897 74.331 82.6897 73.2931C82.6897 72.2552 81.8483 71.4138 80.8103 71.4138C79.7724 71.4138 78.931 72.2552 78.931 73.2931Z" fill="#31424F"/>
<path d="M82.6896 73.2931C82.6896 74.331 83.531 75.1724 84.5689 75.1724C85.6069 75.1724 86.4483 74.331 86.4483 73.2931C86.4483 72.2552 85.6069 71.4138 84.5689 71.4138C83.531 71.4138 82.6896 72.2552 82.6896 73.2931Z" fill="#31424F"/>
<path d="M105.241 73.2931C105.241 74.331 106.083 75.1724 107.121 75.1724C108.159 75.1724 109 74.331 109 73.2931C109 72.2552 108.159 71.4138 107.121 71.4138C106.083 71.4138 105.241 72.2552 105.241 73.2931Z" fill="#31424F"/>
<path d="M0 77.0517C0 78.0896 0.841396 78.931 1.87931 78.931C2.91722 78.931 3.75862 78.0896 3.75862 77.0517C3.75862 76.0138 2.91722 75.1724 1.87931 75.1724C0.841396 75.1724 0 76.0138 0 77.0517Z" fill="#31424F"/>
<path d="M3.75861 77.0517C3.75861 78.0896 4.6 78.931 5.63792 78.931C6.67583 78.931 7.51723 78.0896 7.51723 77.0517C7.51723 76.0138 6.67583 75.1724 5.63792 75.1724C4.6 75.1724 3.75861 76.0138 3.75861 77.0517Z" fill="#31424F"/>
<path d="M7.51721 77.0517C7.51721 78.0896 8.35861 78.931 9.39652 78.931C10.4344 78.931 11.2758 78.0896 11.2758 77.0517C11.2758 76.0138 10.4344 75.1724 9.39652 75.1724C8.35861 75.1724 7.51721 76.0138 7.51721 77.0517Z" fill="#31424F"/>
<path d="M15.0345 77.0517C15.0345 78.0896 15.8759 78.931 16.9138 78.931C17.9517 78.931 18.7931 78.0896 18.7931 77.0517C18.7931 76.0138 17.9517 75.1724 16.9138 75.1724C15.8759 75.1724 15.0345 76.0138 15.0345 77.0517Z" fill="#31424F"/>
<path d="M22.5517 77.0517C22.5517 78.0896 23.3931 78.931 24.431 78.931C25.4689 78.931 26.3103 78.0896 26.3103 77.0517C26.3103 76.0138 25.4689 75.1724 24.431 75.1724C23.3931 75.1724 22.5517 76.0138 22.5517 77.0517Z" fill="#31424F"/>
<path d="M26.3104 77.0517C26.3104 78.0896 27.1518 78.931 28.1897 78.931C29.2276 78.931 30.069 78.0896 30.069 77.0517C30.069 76.0138 29.2276 75.1724 28.1897 75.1724C27.1518 75.1724 26.3104 76.0138 26.3104 77.0517Z" fill="#31424F"/>
<path d="M30.069 77.0517C30.069 78.0896 30.9104 78.931 31.9483 78.931C32.9862 78.931 33.8276 78.0896 33.8276 77.0517C33.8276 76.0138 32.9862 75.1724 31.9483 75.1724C30.9104 75.1724 30.069 76.0138 30.069 77.0517Z" fill="#31424F"/>
<path d="M37.5862 77.0517C37.5862 78.0896 38.4276 78.931 39.4655 78.931C40.5034 78.931 41.3448 78.0896 41.3448 77.0517C41.3448 76.0138 40.5034 75.1724 39.4655 75.1724C38.4276 75.1724 37.5862 76.0138 37.5862 77.0517Z" fill="#31424F"/>
<path d="M41.3448 77.0517C41.3448 78.0896 42.1862 78.931 43.2242 78.931C44.2621 78.931 45.1035 78.0896 45.1035 77.0517C45.1035 76.0138 44.2621 75.1724 43.2242 75.1724C42.1862 75.1724 41.3448 76.0138 41.3448 77.0517Z" fill="#31424F"/>
<path d="M45.1035 77.0517C45.1035 78.0896 45.9449 78.931 46.9828 78.931C48.0207 78.931 48.8621 78.0896 48.8621 77.0517C48.8621 76.0138 48.0207 75.1724 46.9828 75.1724C45.9449 75.1724 45.1035 76.0138 45.1035 77.0517Z" fill="#31424F"/>
<path d="M48.8621 77.0517C48.8621 78.0896 49.7035 78.931 50.7414 78.931C51.7793 78.931 52.6207 78.0896 52.6207 77.0517C52.6207 76.0138 51.7793 75.1724 50.7414 75.1724C49.7035 75.1724 48.8621 76.0138 48.8621 77.0517Z" fill="#31424F"/>
<path d="M52.6207 77.0517C52.6207 78.0896 53.4621 78.931 54.5 78.931C55.5379 78.931 56.3793 78.0896 56.3793 77.0517C56.3793 76.0138 55.5379 75.1724 54.5 75.1724C53.4621 75.1724 52.6207 76.0138 52.6207 77.0517Z" fill="#31424F"/>
<path d="M67.6552 77.0517C67.6552 78.0896 68.4965 78.931 69.5345 78.931C70.5724 78.931 71.4138 78.0896 71.4138 77.0517C71.4138 76.0138 70.5724 75.1724 69.5345 75.1724C68.4965 75.1724 67.6552 76.0138 67.6552 77.0517Z" fill="#31424F"/>
<path d="M71.4138 77.0517C71.4138 78.0896 72.2552 78.931 73.2931 78.931C74.331 78.931 75.1724 78.0896 75.1724 77.0517C75.1724 76.0138 74.331 75.1724 73.2931 75.1724C72.2552 75.1724 71.4138 76.0138 71.4138 77.0517Z" fill="#31424F"/>
<path d="M75.1724 77.0517C75.1724 78.0896 76.0138 78.931 77.0517 78.931C78.0896 78.931 78.931 78.0896 78.931 77.0517C78.931 76.0138 78.0896 75.1724 77.0517 75.1724C76.0138 75.1724 75.1724 76.0138 75.1724 77.0517Z" fill="#31424F"/>
<path d="M78.931 77.0517C78.931 78.0896 79.7724 78.931 80.8103 78.931C81.8483 78.931 82.6897 78.0896 82.6897 77.0517C82.6897 76.0138 81.8483 75.1724 80.8103 75.1724C79.7724 75.1724 78.931 76.0138 78.931 77.0517Z" fill="#31424F"/>
<path d="M82.6896 77.0517C82.6896 78.0896 83.531 78.931 84.5689 78.931C85.6069 78.931 86.4483 78.0896 86.4483 77.0517C86.4483 76.0138 85.6069 75.1724 84.5689 75.1724C83.531 75.1724 82.6896 76.0138 82.6896 77.0517Z" fill="#31424F"/>
<path d="M86.4483 77.0517C86.4483 78.0896 87.2897 78.931 88.3276 78.931C89.3655 78.931 90.2069 78.0896 90.2069 77.0517C90.2069 76.0138 89.3655 75.1724 88.3276 75.1724C87.2897 75.1724 86.4483 76.0138 86.4483 77.0517Z" fill="#31424F"/>
<path d="M90.2069 77.0517C90.2069 78.0896 91.0483 78.931 92.0862 78.931C93.1241 78.931 93.9655 78.0896 93.9655 77.0517C93.9655 76.0138 93.1241 75.1724 92.0862 75.1724C91.0483 75.1724 90.2069 76.0138 90.2069 77.0517Z" fill="#31424F"/>
<path d="M93.9655 77.0517C93.9655 78.0896 94.8069 78.931 95.8448 78.931C96.8827 78.931 97.7241 78.0896 97.7241 77.0517C97.7241 76.0138 96.8827 75.1724 95.8448 75.1724C94.8069 75.1724 93.9655 76.0138 93.9655 77.0517Z" fill="#31424F"/>
<path d="M97.7241 77.0517C97.7241 78.0896 98.5655 78.931 99.6034 78.931C100.641 78.931 101.483 78.0896 101.483 77.0517C101.483 76.0138 100.641 75.1724 99.6034 75.1724C98.5655 75.1724 97.7241 76.0138 97.7241 77.0517Z" fill="#31424F"/>
<path d="M101.483 77.0517C101.483 78.0896 102.324 78.931 103.362 78.931C104.4 78.931 105.241 78.0896 105.241 77.0517C105.241 76.0138 104.4 75.1724 103.362 75.1724C102.324 75.1724 101.483 76.0138 101.483 77.0517Z" fill="#31424F"/>
<path d="M30.069 80.8103C30.069 81.8483 30.9104 82.6897 31.9483 82.6897C32.9862 82.6897 33.8276 81.8483 33.8276 80.8103C33.8276 79.7724 32.9862 78.931 31.9483 78.931C30.9104 78.931 30.069 79.7724 30.069 80.8103Z" fill="#31424F"/>
<path d="M41.3448 80.8103C41.3448 81.8483 42.1862 82.6897 43.2242 82.6897C44.2621 82.6897 45.1035 81.8483 45.1035 80.8103C45.1035 79.7724 44.2621 78.931 43.2242 78.931C42.1862 78.931 41.3448 79.7724 41.3448 80.8103Z" fill="#31424F"/>
<path d="M45.1035 80.8103C45.1035 81.8483 45.9449 82.6897 46.9828 82.6897C48.0207 82.6897 48.8621 81.8483 48.8621 80.8103C48.8621 79.7724 48.0207 78.931 46.9828 78.931C45.9449 78.931 45.1035 79.7724 45.1035 80.8103Z" fill="#31424F"/>
<path d="M48.8621 80.8103C48.8621 81.8483 49.7035 82.6897 50.7414 82.6897C51.7793 82.6897 52.6207 81.8483 52.6207 80.8103C52.6207 79.7724 51.7793 78.931 50.7414 78.931C49.7035 78.931 48.8621 79.7724 48.8621 80.8103Z" fill="#31424F"/>
<path d="M52.6207 80.8103C52.6207 81.8483 53.4621 82.6897 54.5 82.6897C55.5379 82.6897 56.3793 81.8483 56.3793 80.8103C56.3793 79.7724 55.5379 78.931 54.5 78.931C53.4621 78.931 52.6207 79.7724 52.6207 80.8103Z" fill="#31424F"/>
<path d="M67.6552 80.8103C67.6552 81.8483 68.4965 82.6897 69.5345 82.6897C70.5724 82.6897 71.4138 81.8483 71.4138 80.8103C71.4138 79.7724 70.5724 78.931 69.5345 78.931C68.4965 78.931 67.6552 79.7724 67.6552 80.8103Z" fill="#31424F"/>
<path d="M71.4138 80.8103C71.4138 81.8483 72.2552 82.6897 73.2931 82.6897C74.331 82.6897 75.1724 81.8483 75.1724 80.8103C75.1724 79.7724 74.331 78.931 73.2931 78.931C72.2552 78.931 71.4138 79.7724 71.4138 80.8103Z" fill="#31424F"/>
<path d="M75.1724 80.8103C75.1724 81.8483 76.0138 82.6897 77.0517 82.6897C78.0896 82.6897 78.931 81.8483 78.931 80.8103C78.931 79.7724 78.0896 78.931 77.0517 78.931C76.0138 78.931 75.1724 79.7724 75.1724 80.8103Z" fill="#31424F"/>
<path d="M90.2069 80.8103C90.2069 81.8483 91.0483 82.6897 92.0862 82.6897C93.1241 82.6897 93.9655 81.8483 93.9655 80.8103C93.9655 79.7724 93.1241 78.931 92.0862 78.931C91.0483 78.931 90.2069 79.7724 90.2069 80.8103Z" fill="#31424F"/>
<path d="M93.9655 80.8103C93.9655 81.8483 94.8069 82.6897 95.8448 82.6897C96.8827 82.6897 97.7241 81.8483 97.7241 80.8103C97.7241 79.7724 96.8827 78.931 95.8448 78.931C94.8069 78.931 93.9655 79.7724 93.9655 80.8103Z" fill="#31424F"/>
<path d="M101.483 80.8103C101.483 81.8483 102.324 82.6897 103.362 82.6897C104.4 82.6897 105.241 81.8483 105.241 80.8103C105.241 79.7724 104.4 78.931 103.362 78.931C102.324 78.931 101.483 79.7724 101.483 80.8103Z" fill="#31424F"/>
<path d="M0 84.5689C0 85.6069 0.841396 86.4483 1.87931 86.4483C2.91722 86.4483 3.75862 85.6069 3.75862 84.5689C3.75862 83.531 2.91722 82.6896 1.87931 82.6896C0.841396 82.6896 0 83.531 0 84.5689Z" fill="#31424F"/>
<path d="M3.75861 84.5689C3.75861 85.6069 4.6 86.4483 5.63792 86.4483C6.67583 86.4483 7.51723 85.6069 7.51723 84.5689C7.51723 83.531 6.67583 82.6896 5.63792 82.6896C4.6 82.6896 3.75861 83.531 3.75861 84.5689Z" fill="#31424F"/>
<path d="M7.51721 84.5689C7.51721 85.6069 8.35861 86.4483 9.39652 86.4483C10.4344 86.4483 11.2758 85.6069 11.2758 84.5689C11.2758 83.531 10.4344 82.6896 9.39652 82.6896C8.35861 82.6896 7.51721 83.531 7.51721 84.5689Z" fill="#31424F"/>
<path d="M11.2759 84.5689C11.2759 85.6069 12.1173 86.4483 13.1552 86.4483C14.1931 86.4483 15.0345 85.6069 15.0345 84.5689C15.0345 83.531 14.1931 82.6896 13.1552 82.6896C12.1173 82.6896 11.2759 83.531 11.2759 84.5689Z" fill="#31424F"/>
<path d="M15.0345 84.5689C15.0345 85.6069 15.8759 86.4483 16.9138 86.4483C17.9517 86.4483 18.7931 85.6069 18.7931 84.5689C18.7931 83.531 17.9517 82.6896 16.9138 82.6896C15.8759 82.6896 15.0345 83.531 15.0345 84.5689Z" fill="#31424F"/>
<path d="M18.7931 84.5689C18.7931 85.6069 19.6345 86.4483 20.6724 86.4483C21.7103 86.4483 22.5517 85.6069 22.5517 84.5689C22.5517 83.531 21.7103 82.6896 20.6724 82.6896C19.6345 82.6896 18.7931 83.531 18.7931 84.5689Z" fill="#31424F"/>
<path d="M22.5517 84.5689C22.5517 85.6069 23.3931 86.4483 24.431 86.4483C25.4689 86.4483 26.3103 85.6069 26.3103 84.5689C26.3103 83.531 25.4689 82.6896 24.431 82.6896C23.3931 82.6896 22.5517 83.531 22.5517 84.5689Z" fill="#31424F"/>
<path d="M30.069 84.5689C30.069 85.6069 30.9104 86.4483 31.9483 86.4483C32.9862 86.4483 33.8276 85.6069 33.8276 84.5689C33.8276 83.531 32.9862 82.6896 31.9483 82.6896C30.9104 82.6896 30.069 83.531 30.069 84.5689Z" fill="#31424F"/>
<path d="M33.8276 84.5689C33.8276 85.6069 34.669 86.4483 35.7069 86.4483C36.7448 86.4483 37.5862 85.6069 37.5862 84.5689C37.5862 83.531 36.7448 82.6896 35.7069 82.6896C34.669 82.6896 33.8276 83.531 33.8276 84.5689Z" fill="#31424F"/>
<path d="M41.3448 84.5689C41.3448 85.6069 42.1862 86.4483 43.2242 86.4483C44.2621 86.4483 45.1035 85.6069 45.1035 84.5689C45.1035 83.531 44.2621 82.6896 43.2242 82.6896C42.1862 82.6896 41.3448 83.531 41.3448 84.5689Z" fill="#31424F"/>
<path d="M48.8621 84.5689C48.8621 85.6069 49.7035 86.4483 50.7414 86.4483C51.7793 86.4483 52.6207 85.6069 52.6207 84.5689C52.6207 83.531 51.7793 82.6896 50.7414 82.6896C49.7035 82.6896 48.8621 83.531 48.8621 84.5689Z" fill="#31424F"/>
<path d="M52.6207 84.5689C52.6207 85.6069 53.4621 86.4483 54.5 86.4483C55.5379 86.4483 56.3793 85.6069 56.3793 84.5689C56.3793 83.531 55.5379 82.6896 54.5 82.6896C53.4621 82.6896 52.6207 83.531 52.6207 84.5689Z" fill="#31424F"/>
<path d="M56.3793 84.5689C56.3793 85.6069 57.2207 86.4483 58.2586 86.4483C59.2966 86.4483 60.138 85.6069 60.138 84.5689C60.138 83.531 59.2966 82.6896 58.2586 82.6896C57.2207 82.6896 56.3793 83.531 56.3793 84.5689Z" fill="#31424F"/>
<path d="M60.1379 84.5689C60.1379 85.6069 60.9793 86.4483 62.0172 86.4483C63.0552 86.4483 63.8966 85.6069 63.8966 84.5689C63.8966 83.531 63.0552 82.6896 62.0172 82.6896C60.9793 82.6896 60.1379 83.531 60.1379 84.5689Z" fill="#31424F"/>
<path d="M67.6552 84.5689C67.6552 85.6069 68.4965 86.4483 69.5345 86.4483C70.5724 86.4483 71.4138 85.6069 71.4138 84.5689C71.4138 83.531 70.5724 82.6896 69.5345 82.6896C68.4965 82.6896 67.6552 83.531 67.6552 84.5689Z" fill="#31424F"/>
<path d="M75.1724 84.5689C75.1724 85.6069 76.0138 86.4483 77.0517 86.4483C78.0896 86.4483 78.931 85.6069 78.931 84.5689C78.931 83.531 78.0896 82.6896 77.0517 82.6896C76.0138 82.6896 75.1724 83.531 75.1724 84.5689Z" fill="#31424F"/>
<path d="M82.6896 84.5689C82.6896 85.6069 83.531 86.4483 84.5689 86.4483C85.6069 86.4483 86.4483 85.6069 86.4483 84.5689C86.4483 83.531 85.6069 82.6896 84.5689 82.6896C83.531 82.6896 82.6896 83.531 82.6896 84.5689Z" fill="#31424F"/>
<path d="M90.2069 84.5689C90.2069 85.6069 91.0483 86.4483 92.0862 86.4483C93.1241 86.4483 93.9655 85.6069 93.9655 84.5689C93.9655 83.531 93.1241 82.6896 92.0862 82.6896C91.0483 82.6896 90.2069 83.531 90.2069 84.5689Z" fill="#31424F"/>
<path d="M0 88.3276C0 89.3655 0.841396 90.2069 1.87931 90.2069C2.91722 90.2069 3.75862 89.3655 3.75862 88.3276C3.75862 87.2897 2.91722 86.4483 1.87931 86.4483C0.841396 86.4483 0 87.2897 0 88.3276Z" fill="#31424F"/>
<path d="M22.5517 88.3276C22.5517 89.3655 23.3931 90.2069 24.431 90.2069C25.4689 90.2069 26.3103 89.3655 26.3103 88.3276C26.3103 87.2897 25.4689 86.4483 24.431 86.4483C23.3931 86.4483 22.5517 87.2897 22.5517 88.3276Z" fill="#31424F"/>
<path d="M30.069 88.3276C30.069 89.3655 30.9104 90.2069 31.9483 90.2069C32.9862 90.2069 33.8276 89.3655 33.8276 88.3276C33.8276 87.2897 32.9862 86.4483 31.9483 86.4483C30.9104 86.4483 30.069 87.2897 30.069 88.3276Z" fill="#31424F"/>
<path d="M33.8276 88.3276C33.8276 89.3655 34.669 90.2069 35.7069 90.2069C36.7448 90.2069 37.5862 89.3655 37.5862 88.3276C37.5862 87.2897 36.7448 86.4483 35.7069 86.4483C34.669 86.4483 33.8276 87.2897 33.8276 88.3276Z" fill="#31424F"/>
<path d="M37.5862 88.3276C37.5862 89.3655 38.4276 90.2069 39.4655 90.2069C40.5034 90.2069 41.3448 89.3655 41.3448 88.3276C41.3448 87.2897 40.5034 86.4483 39.4655 86.4483C38.4276 86.4483 37.5862 87.2897 37.5862 88.3276Z" fill="#31424F"/>
<path d="M48.8621 88.3276C48.8621 89.3655 49.7035 90.2069 50.7414 90.2069C51.7793 90.2069 52.6207 89.3655 52.6207 88.3276C52.6207 87.2897 51.7793 86.4483 50.7414 86.4483C49.7035 86.4483 48.8621 87.2897 48.8621 88.3276Z" fill="#31424F"/>
<path d="M56.3793 88.3276C56.3793 89.3655 57.2207 90.2069 58.2586 90.2069C59.2966 90.2069 60.138 89.3655 60.138 88.3276C60.138 87.2897 59.2966 86.4483 58.2586 86.4483C57.2207 86.4483 56.3793 87.2897 56.3793 88.3276Z" fill="#31424F"/>
<path d="M60.1379 88.3276C60.1379 89.3655 60.9793 90.2069 62.0172 90.2069C63.0552 90.2069 63.8966 89.3655 63.8966 88.3276C63.8966 87.2897 63.0552 86.4483 62.0172 86.4483C60.9793 86.4483 60.1379 87.2897 60.1379 88.3276Z" fill="#31424F"/>
<path d="M63.8965 88.3276C63.8965 89.3655 64.7379 90.2069 65.7759 90.2069C66.8138 90.2069 67.6552 89.3655 67.6552 88.3276C67.6552 87.2897 66.8138 86.4483 65.7759 86.4483C64.7379 86.4483 63.8965 87.2897 63.8965 88.3276Z" fill="#31424F"/>
<path d="M67.6552 88.3276C67.6552 89.3655 68.4965 90.2069 69.5345 90.2069C70.5724 90.2069 71.4138 89.3655 71.4138 88.3276C71.4138 87.2897 70.5724 86.4483 69.5345 86.4483C68.4965 86.4483 67.6552 87.2897 67.6552 88.3276Z" fill="#31424F"/>
<path d="M71.4138 88.3276C71.4138 89.3655 72.2552 90.2069 73.2931 90.2069C74.331 90.2069 75.1724 89.3655 75.1724 88.3276C75.1724 87.2897 74.331 86.4483 73.2931 86.4483C72.2552 86.4483 71.4138 87.2897 71.4138 88.3276Z" fill="#31424F"/>
<path d="M75.1724 88.3276C75.1724 89.3655 76.0138 90.2069 77.0517 90.2069C78.0896 90.2069 78.931 89.3655 78.931 88.3276C78.931 87.2897 78.0896 86.4483 77.0517 86.4483C76.0138 86.4483 75.1724 87.2897 75.1724 88.3276Z" fill="#31424F"/>
<path d="M90.2069 88.3276C90.2069 89.3655 91.0483 90.2069 92.0862 90.2069C93.1241 90.2069 93.9655 89.3655 93.9655 88.3276C93.9655 87.2897 93.1241 86.4483 92.0862 86.4483C91.0483 86.4483 90.2069 87.2897 90.2069 88.3276Z" fill="#31424F"/>
<path d="M93.9655 88.3276C93.9655 89.3655 94.8069 90.2069 95.8448 90.2069C96.8827 90.2069 97.7241 89.3655 97.7241 88.3276C97.7241 87.2897 96.8827 86.4483 95.8448 86.4483C94.8069 86.4483 93.9655 87.2897 93.9655 88.3276Z" fill="#31424F"/>
<path d="M105.241 88.3276C105.241 89.3655 106.083 90.2069 107.121 90.2069C108.159 90.2069 109 89.3655 109 88.3276C109 87.2897 108.159 86.4483 107.121 86.4483C106.083 86.4483 105.241 87.2897 105.241 88.3276Z" fill="#31424F"/>
<path d="M0 92.0862C0 93.1241 0.841396 93.9655 1.87931 93.9655C2.91722 93.9655 3.75862 93.1241 3.75862 92.0862C3.75862 91.0483 2.91722 90.2069 1.87931 90.2069C0.841396 90.2069 0 91.0483 0 92.0862Z" fill="#31424F"/>
<path d="M7.51721 92.0862C7.51721 93.1241 8.35861 93.9655 9.39652 93.9655C10.4344 93.9655 11.2758 93.1241 11.2758 92.0862C11.2758 91.0483 10.4344 90.2069 9.39652 90.2069C8.35861 90.2069 7.51721 91.0483 7.51721 92.0862Z" fill="#31424F"/>
<path d="M11.2759 92.0862C11.2759 93.1241 12.1173 93.9655 13.1552 93.9655C14.1931 93.9655 15.0345 93.1241 15.0345 92.0862C15.0345 91.0483 14.1931 90.2069 13.1552 90.2069C12.1173 90.2069 11.2759 91.0483 11.2759 92.0862Z" fill="#31424F"/>
<path d="M15.0345 92.0862C15.0345 93.1241 15.8759 93.9655 16.9138 93.9655C17.9517 93.9655 18.7931 93.1241 18.7931 92.0862C18.7931 91.0483 17.9517 90.2069 16.9138 90.2069C15.8759 90.2069 15.0345 91.0483 15.0345 92.0862Z" fill="#31424F"/>
<path d="M22.5517 92.0862C22.5517 93.1241 23.3931 93.9655 24.431 93.9655C25.4689 93.9655 26.3103 93.1241 26.3103 92.0862C26.3103 91.0483 25.4689 90.2069 24.431 90.2069C23.3931 90.2069 22.5517 91.0483 22.5517 92.0862Z" fill="#31424F"/>
<path d="M33.8276 92.0862C33.8276 93.1241 34.669 93.9655 35.7069 93.9655C36.7448 93.9655 37.5862 93.1241 37.5862 92.0862C37.5862 91.0483 36.7448 90.2069 35.7069 90.2069C34.669 90.2069 33.8276 91.0483 33.8276 92.0862Z" fill="#31424F"/>
<path d="M41.3448 92.0862C41.3448 93.1241 42.1862 93.9655 43.2242 93.9655C44.2621 93.9655 45.1035 93.1241 45.1035 92.0862C45.1035 91.0483 44.2621 90.2069 43.2242 90.2069C42.1862 90.2069 41.3448 91.0483 41.3448 92.0862Z" fill="#31424F"/>
<path d="M45.1035 92.0862C45.1035 93.1241 45.9449 93.9655 46.9828 93.9655C48.0207 93.9655 48.8621 93.1241 48.8621 92.0862C48.8621 91.0483 48.0207 90.2069 46.9828 90.2069C45.9449 90.2069 45.1035 91.0483 45.1035 92.0862Z" fill="#31424F"/>
<path d="M48.8621 92.0862C48.8621 93.1241 49.7035 93.9655 50.7414 93.9655C51.7793 93.9655 52.6207 93.1241 52.6207 92.0862C52.6207 91.0483 51.7793 90.2069 50.7414 90.2069C49.7035 90.2069 48.8621 91.0483 48.8621 92.0862Z" fill="#31424F"/>
<path d="M67.6552 92.0862C67.6552 93.1241 68.4965 93.9655 69.5345 93.9655C70.5724 93.9655 71.4138 93.1241 71.4138 92.0862C71.4138 91.0483 70.5724 90.2069 69.5345 90.2069C68.4965 90.2069 67.6552 91.0483 67.6552 92.0862Z" fill="#31424F"/>
<path d="M75.1724 92.0862C75.1724 93.1241 76.0138 93.9655 77.0517 93.9655C78.0896 93.9655 78.931 93.1241 78.931 92.0862C78.931 91.0483 78.0896 90.2069 77.0517 90.2069C76.0138 90.2069 75.1724 91.0483 75.1724 92.0862Z" fill="#31424F"/>
<path d="M78.931 92.0862C78.931 93.1241 79.7724 93.9655 80.8103 93.9655C81.8483 93.9655 82.6897 93.1241 82.6897 92.0862C82.6897 91.0483 81.8483 90.2069 80.8103 90.2069C79.7724 90.2069 78.931 91.0483 78.931 92.0862Z" fill="#31424F"/>
<path d="M82.6896 92.0862C82.6896 93.1241 83.531 93.9655 84.5689 93.9655C85.6069 93.9655 86.4483 93.1241 86.4483 92.0862C86.4483 91.0483 85.6069 90.2069 84.5689 90.2069C83.531 90.2069 82.6896 91.0483 82.6896 92.0862Z" fill="#31424F"/>
<path d="M86.4483 92.0862C86.4483 93.1241 87.2897 93.9655 88.3276 93.9655C89.3655 93.9655 90.2069 93.1241 90.2069 92.0862C90.2069 91.0483 89.3655 90.2069 88.3276 90.2069C87.2897 90.2069 86.4483 91.0483 86.4483 92.0862Z" fill="#31424F"/>
<path d="M90.2069 92.0862C90.2069 93.1241 91.0483 93.9655 92.0862 93.9655C93.1241 93.9655 93.9655 93.1241 93.9655 92.0862C93.9655 91.0483 93.1241 90.2069 92.0862 90.2069C91.0483 90.2069 90.2069 91.0483 90.2069 92.0862Z" fill="#31424F"/>
<path d="M93.9655 92.0862C93.9655 93.1241 94.8069 93.9655 95.8448 93.9655C96.8827 93.9655 97.7241 93.1241 97.7241 92.0862C97.7241 91.0483 96.8827 90.2069 95.8448 90.2069C94.8069 90.2069 93.9655 91.0483 93.9655 92.0862Z" fill="#31424F"/>
<path d="M97.7241 92.0862C97.7241 93.1241 98.5655 93.9655 99.6034 93.9655C100.641 93.9655 101.483 93.1241 101.483 92.0862C101.483 91.0483 100.641 90.2069 99.6034 90.2069C98.5655 90.2069 97.7241 91.0483 97.7241 92.0862Z" fill="#31424F"/>
<path d="M105.241 92.0862C105.241 93.1241 106.083 93.9655 107.121 93.9655C108.159 93.9655 109 93.1241 109 92.0862C109 91.0483 108.159 90.2069 107.121 90.2069C106.083 90.2069 105.241 91.0483 105.241 92.0862Z" fill="#31424F"/>
<path d="M0 95.8448C0 96.8827 0.841396 97.7241 1.87931 97.7241C2.91722 97.7241 3.75862 96.8827 3.75862 95.8448C3.75862 94.8069 2.91722 93.9655 1.87931 93.9655C0.841396 93.9655 0 94.8069 0 95.8448Z" fill="#31424F"/>
<path d="M7.51721 95.8448C7.51721 96.8827 8.35861 97.7241 9.39652 97.7241C10.4344 97.7241 11.2758 96.8827 11.2758 95.8448C11.2758 94.8069 10.4344 93.9655 9.39652 93.9655C8.35861 93.9655 7.51721 94.8069 7.51721 95.8448Z" fill="#31424F"/>
<path d="M11.2759 95.8448C11.2759 96.8827 12.1173 97.7241 13.1552 97.7241C14.1931 97.7241 15.0345 96.8827 15.0345 95.8448C15.0345 94.8069 14.1931 93.9655 13.1552 93.9655C12.1173 93.9655 11.2759 94.8069 11.2759 95.8448Z" fill="#31424F"/>
<path d="M15.0345 95.8448C15.0345 96.8827 15.8759 97.7241 16.9138 97.7241C17.9517 97.7241 18.7931 96.8827 18.7931 95.8448C18.7931 94.8069 17.9517 93.9655 16.9138 93.9655C15.8759 93.9655 15.0345 94.8069 15.0345 95.8448Z" fill="#31424F"/>
<path d="M22.5517 95.8448C22.5517 96.8827 23.3931 97.7241 24.431 97.7241C25.4689 97.7241 26.3103 96.8827 26.3103 95.8448C26.3103 94.8069 25.4689 93.9655 24.431 93.9655C23.3931 93.9655 22.5517 94.8069 22.5517 95.8448Z" fill="#31424F"/>
<path d="M37.5862 95.8448C37.5862 96.8827 38.4276 97.7241 39.4655 97.7241C40.5034 97.7241 41.3448 96.8827 41.3448 95.8448C41.3448 94.8069 40.5034 93.9655 39.4655 93.9655C38.4276 93.9655 37.5862 94.8069 37.5862 95.8448Z" fill="#31424F"/>
<path d="M45.1035 95.8448C45.1035 96.8827 45.9449 97.7241 46.9828 97.7241C48.0207 97.7241 48.8621 96.8827 48.8621 95.8448C48.8621 94.8069 48.0207 93.9655 46.9828 93.9655C45.9449 93.9655 45.1035 94.8069 45.1035 95.8448Z" fill="#31424F"/>
<path d="M48.8621 95.8448C48.8621 96.8827 49.7035 97.7241 50.7414 97.7241C51.7793 97.7241 52.6207 96.8827 52.6207 95.8448C52.6207 94.8069 51.7793 93.9655 50.7414 93.9655C49.7035 93.9655 48.8621 94.8069 48.8621 95.8448Z" fill="#31424F"/>
<path d="M63.8965 95.8448C63.8965 96.8827 64.7379 97.7241 65.7759 97.7241C66.8138 97.7241 67.6552 96.8827 67.6552 95.8448C67.6552 94.8069 66.8138 93.9655 65.7759 93.9655C64.7379 93.9655 63.8965 94.8069 63.8965 95.8448Z" fill="#31424F"/>
<path d="M67.6552 95.8448C67.6552 96.8827 68.4965 97.7241 69.5345 97.7241C70.5724 97.7241 71.4138 96.8827 71.4138 95.8448C71.4138 94.8069 70.5724 93.9655 69.5345 93.9655C68.4965 93.9655 67.6552 94.8069 67.6552 95.8448Z" fill="#31424F"/>
<path d="M75.1724 95.8448C75.1724 96.8827 76.0138 97.7241 77.0517 97.7241C78.0896 97.7241 78.931 96.8827 78.931 95.8448C78.931 94.8069 78.0896 93.9655 77.0517 93.9655C76.0138 93.9655 75.1724 94.8069 75.1724 95.8448Z" fill="#31424F"/>
<path d="M82.6896 95.8448C82.6896 96.8827 83.531 97.7241 84.5689 97.7241C85.6069 97.7241 86.4483 96.8827 86.4483 95.8448C86.4483 94.8069 85.6069 93.9655 84.5689 93.9655C83.531 93.9655 82.6896 94.8069 82.6896 95.8448Z" fill="#31424F"/>
<path d="M93.9655 95.8448C93.9655 96.8827 94.8069 97.7241 95.8448 97.7241C96.8827 97.7241 97.7241 96.8827 97.7241 95.8448C97.7241 94.8069 96.8827 93.9655 95.8448 93.9655C94.8069 93.9655 93.9655 94.8069 93.9655 95.8448Z" fill="#31424F"/>
<path d="M97.7241 95.8448C97.7241 96.8827 98.5655 97.7241 99.6034 97.7241C100.641 97.7241 101.483 96.8827 101.483 95.8448C101.483 94.8069 100.641 93.9655 99.6034 93.9655C98.5655 93.9655 97.7241 94.8069 97.7241 95.8448Z" fill="#31424F"/>
<path d="M101.483 95.8448C101.483 96.8827 102.324 97.7241 103.362 97.7241C104.4 97.7241 105.241 96.8827 105.241 95.8448C105.241 94.8069 104.4 93.9655 103.362 93.9655C102.324 93.9655 101.483 94.8069 101.483 95.8448Z" fill="#31424F"/>
<path d="M0 99.6034C0 100.641 0.841396 101.483 1.87931 101.483C2.91722 101.483 3.75862 100.641 3.75862 99.6034C3.75862 98.5655 2.91722 97.7241 1.87931 97.7241C0.841396 97.7241 0 98.5655 0 99.6034Z" fill="#31424F"/>
<path d="M7.51721 99.6034C7.51721 100.641 8.35861 101.483 9.39652 101.483C10.4344 101.483 11.2758 100.641 11.2758 99.6034C11.2758 98.5655 10.4344 97.7241 9.39652 97.7241C8.35861 97.7241 7.51721 98.5655 7.51721 99.6034Z" fill="#31424F"/>
<path d="M11.2759 99.6034C11.2759 100.641 12.1173 101.483 13.1552 101.483C14.1931 101.483 15.0345 100.641 15.0345 99.6034C15.0345 98.5655 14.1931 97.7241 13.1552 97.7241C12.1173 97.7241 11.2759 98.5655 11.2759 99.6034Z" fill="#31424F"/>
<path d="M15.0345 99.6034C15.0345 100.641 15.8759 101.483 16.9138 101.483C17.9517 101.483 18.7931 100.641 18.7931 99.6034C18.7931 98.5655 17.9517 97.7241 16.9138 97.7241C15.8759 97.7241 15.0345 98.5655 15.0345 99.6034Z" fill="#31424F"/>
<path d="M22.5517 99.6034C22.5517 100.641 23.3931 101.483 24.431 101.483C25.4689 101.483 26.3103 100.641 26.3103 99.6034C26.3103 98.5655 25.4689 97.7241 24.431 97.7241C23.3931 97.7241 22.5517 98.5655 22.5517 99.6034Z" fill="#31424F"/>
<path d="M30.069 99.6034C30.069 100.641 30.9104 101.483 31.9483 101.483C32.9862 101.483 33.8276 100.641 33.8276 99.6034C33.8276 98.5655 32.9862 97.7241 31.9483 97.7241C30.9104 97.7241 30.069 98.5655 30.069 99.6034Z" fill="#31424F"/>
<path d="M52.6207 99.6034C52.6207 100.641 53.4621 101.483 54.5 101.483C55.5379 101.483 56.3793 100.641 56.3793 99.6034C56.3793 98.5655 55.5379 97.7241 54.5 97.7241C53.4621 97.7241 52.6207 98.5655 52.6207 99.6034Z" fill="#31424F"/>
<path d="M56.3793 99.6034C56.3793 100.641 57.2207 101.483 58.2586 101.483C59.2966 101.483 60.138 100.641 60.138 99.6034C60.138 98.5655 59.2966 97.7241 58.2586 97.7241C57.2207 97.7241 56.3793 98.5655 56.3793 99.6034Z" fill="#31424F"/>
<path d="M71.4138 99.6034C71.4138 100.641 72.2552 101.483 73.2931 101.483C74.331 101.483 75.1724 100.641 75.1724 99.6034C75.1724 98.5655 74.331 97.7241 73.2931 97.7241C72.2552 97.7241 71.4138 98.5655 71.4138 99.6034Z" fill="#31424F"/>
<path d="M75.1724 99.6034C75.1724 100.641 76.0138 101.483 77.0517 101.483C78.0896 101.483 78.931 100.641 78.931 99.6034C78.931 98.5655 78.0896 97.7241 77.0517 97.7241C76.0138 97.7241 75.1724 98.5655 75.1724 99.6034Z" fill="#31424F"/>
<path d="M78.931 99.6034C78.931 100.641 79.7724 101.483 80.8103 101.483C81.8483 101.483 82.6897 100.641 82.6897 99.6034C82.6897 98.5655 81.8483 97.7241 80.8103 97.7241C79.7724 97.7241 78.931 98.5655 78.931 99.6034Z" fill="#31424F"/>
<path d="M90.2069 99.6034C90.2069 100.641 91.0483 101.483 92.0862 101.483C93.1241 101.483 93.9655 100.641 93.9655 99.6034C93.9655 98.5655 93.1241 97.7241 92.0862 97.7241C91.0483 97.7241 90.2069 98.5655 90.2069 99.6034Z" fill="#31424F"/>
<path d="M93.9655 99.6034C93.9655 100.641 94.8069 101.483 95.8448 101.483C96.8827 101.483 97.7241 100.641 97.7241 99.6034C97.7241 98.5655 96.8827 97.7241 95.8448 97.7241C94.8069 97.7241 93.9655 98.5655 93.9655 99.6034Z" fill="#31424F"/>
<path d="M101.483 99.6034C101.483 100.641 102.324 101.483 103.362 101.483C104.4 101.483 105.241 100.641 105.241 99.6034C105.241 98.5655 104.4 97.7241 103.362 97.7241C102.324 97.7241 101.483 98.5655 101.483 99.6034Z" fill="#31424F"/>
<path d="M105.241 99.6034C105.241 100.641 106.083 101.483 107.121 101.483C108.159 101.483 109 100.641 109 99.6034C109 98.5655 108.159 97.7241 107.121 97.7241C106.083 97.7241 105.241 98.5655 105.241 99.6034Z" fill="#31424F"/>
<path d="M0 103.362C0 104.4 0.841396 105.241 1.87931 105.241C2.91722 105.241 3.75862 104.4 3.75862 103.362C3.75862 102.324 2.91722 101.483 1.87931 101.483C0.841396 101.483 0 102.324 0 103.362Z" fill="#31424F"/>
<path d="M22.5517 103.362C22.5517 104.4 23.3931 105.241 24.431 105.241C25.4689 105.241 26.3103 104.4 26.3103 103.362C26.3103 102.324 25.4689 101.483 24.431 101.483C23.3931 101.483 22.5517 102.324 22.5517 103.362Z" fill="#31424F"/>
<path d="M37.5862 103.362C37.5862 104.4 38.4276 105.241 39.4655 105.241C40.5034 105.241 41.3448 104.4 41.3448 103.362C41.3448 102.324 40.5034 101.483 39.4655 101.483C38.4276 101.483 37.5862 102.324 37.5862 103.362Z" fill="#31424F"/>
<path d="M41.3448 103.362C41.3448 104.4 42.1862 105.241 43.2242 105.241C44.2621 105.241 45.1035 104.4 45.1035 103.362C45.1035 102.324 44.2621 101.483 43.2242 101.483C42.1862 101.483 41.3448 102.324 41.3448 103.362Z" fill="#31424F"/>
<path d="M63.8965 103.362C63.8965 104.4 64.7379 105.241 65.7759 105.241C66.8138 105.241 67.6552 104.4 67.6552 103.362C67.6552 102.324 66.8138 101.483 65.7759 101.483C64.7379 101.483 63.8965 102.324 63.8965 103.362Z" fill="#31424F"/>
<path d="M67.6552 103.362C67.6552 104.4 68.4965 105.241 69.5345 105.241C70.5724 105.241 71.4138 104.4 71.4138 103.362C71.4138 102.324 70.5724 101.483 69.5345 101.483C68.4965 101.483 67.6552 102.324 67.6552 103.362Z" fill="#31424F"/>
<path d="M78.931 103.362C78.931 104.4 79.7724 105.241 80.8103 105.241C81.8483 105.241 82.6897 104.4 82.6897 103.362C82.6897 102.324 81.8483 101.483 80.8103 101.483C79.7724 101.483 78.931 102.324 78.931 103.362Z" fill="#31424F"/>
<path d="M82.6896 103.362C82.6896 104.4 83.531 105.241 84.5689 105.241C85.6069 105.241 86.4483 104.4 86.4483 103.362C86.4483 102.324 85.6069 101.483 84.5689 101.483C83.531 101.483 82.6896 102.324 82.6896 103.362Z" fill="#31424F"/>
<path d="M86.4483 103.362C86.4483 104.4 87.2897 105.241 88.3276 105.241C89.3655 105.241 90.2069 104.4 90.2069 103.362C90.2069 102.324 89.3655 101.483 88.3276 101.483C87.2897 101.483 86.4483 102.324 86.4483 103.362Z" fill="#31424F"/>
<path d="M90.2069 103.362C90.2069 104.4 91.0483 105.241 92.0862 105.241C93.1241 105.241 93.9655 104.4 93.9655 103.362C93.9655 102.324 93.1241 101.483 92.0862 101.483C91.0483 101.483 90.2069 102.324 90.2069 103.362Z" fill="#31424F"/>
<path d="M93.9655 103.362C93.9655 104.4 94.8069 105.241 95.8448 105.241C96.8827 105.241 97.7241 104.4 97.7241 103.362C97.7241 102.324 96.8827 101.483 95.8448 101.483C94.8069 101.483 93.9655 102.324 93.9655 103.362Z" fill="#31424F"/>
<path d="M97.7241 103.362C97.7241 104.4 98.5655 105.241 99.6034 105.241C100.641 105.241 101.483 104.4 101.483 103.362C101.483 102.324 100.641 101.483 99.6034 101.483C98.5655 101.483 97.7241 102.324 97.7241 103.362Z" fill="#31424F"/>
<path d="M101.483 103.362C101.483 104.4 102.324 105.241 103.362 105.241C104.4 105.241 105.241 104.4 105.241 103.362C105.241 102.324 104.4 101.483 103.362 101.483C102.324 101.483 101.483 102.324 101.483 103.362Z" fill="#31424F"/>
<path d="M105.241 103.362C105.241 104.4 106.083 105.241 107.121 105.241C108.159 105.241 109 104.4 109 103.362C109 102.324 108.159 101.483 107.121 101.483C106.083 101.483 105.241 102.324 105.241 103.362Z" fill="#31424F"/>
<path d="M0 107.121C0 108.159 0.841396 109 1.87931 109C2.91722 109 3.75862 108.159 3.75862 107.121C3.75862 106.083 2.91722 105.241 1.87931 105.241C0.841396 105.241 0 106.083 0 107.121Z" fill="#31424F"/>
<path d="M3.75861 107.121C3.75861 108.159 4.6 109 5.63792 109C6.67583 109 7.51723 108.159 7.51723 107.121C7.51723 106.083 6.67583 105.241 5.63792 105.241C4.6 105.241 3.75861 106.083 3.75861 107.121Z" fill="#31424F"/>
<path d="M7.51721 107.121C7.51721 108.159 8.35861 109 9.39652 109C10.4344 109 11.2758 108.159 11.2758 107.121C11.2758 106.083 10.4344 105.241 9.39652 105.241C8.35861 105.241 7.51721 106.083 7.51721 107.121Z" fill="#31424F"/>
<path d="M11.2759 107.121C11.2759 108.159 12.1173 109 13.1552 109C14.1931 109 15.0345 108.159 15.0345 107.121C15.0345 106.083 14.1931 105.241 13.1552 105.241C12.1173 105.241 11.2759 106.083 11.2759 107.121Z" fill="#31424F"/>
<path d="M15.0345 107.121C15.0345 108.159 15.8759 109 16.9138 109C17.9517 109 18.7931 108.159 18.7931 107.121C18.7931 106.083 17.9517 105.241 16.9138 105.241C15.8759 105.241 15.0345 106.083 15.0345 107.121Z" fill="#31424F"/>
<path d="M18.7931 107.121C18.7931 108.159 19.6345 109 20.6724 109C21.7103 109 22.5517 108.159 22.5517 107.121C22.5517 106.083 21.7103 105.241 20.6724 105.241C19.6345 105.241 18.7931 106.083 18.7931 107.121Z" fill="#31424F"/>
<path d="M22.5517 107.121C22.5517 108.159 23.3931 109 24.431 109C25.4689 109 26.3103 108.159 26.3103 107.121C26.3103 106.083 25.4689 105.241 24.431 105.241C23.3931 105.241 22.5517 106.083 22.5517 107.121Z" fill="#31424F"/>
<path d="M33.8276 107.121C33.8276 108.159 34.669 109 35.7069 109C36.7448 109 37.5862 108.159 37.5862 107.121C37.5862 106.083 36.7448 105.241 35.7069 105.241C34.669 105.241 33.8276 106.083 33.8276 107.121Z" fill="#31424F"/>
<path d="M37.5862 107.121C37.5862 108.159 38.4276 109 39.4655 109C40.5034 109 41.3448 108.159 41.3448 107.121C41.3448 106.083 40.5034 105.241 39.4655 105.241C38.4276 105.241 37.5862 106.083 37.5862 107.121Z" fill="#31424F"/>
<path d="M41.3448 107.121C41.3448 108.159 42.1862 109 43.2242 109C44.2621 109 45.1035 108.159 45.1035 107.121C45.1035 106.083 44.2621 105.241 43.2242 105.241C42.1862 105.241 41.3448 106.083 41.3448 107.121Z" fill="#31424F"/>
<path d="M45.1035 107.121C45.1035 108.159 45.9449 109 46.9828 109C48.0207 109 48.8621 108.159 48.8621 107.121C48.8621 106.083 48.0207 105.241 46.9828 105.241C45.9449 105.241 45.1035 106.083 45.1035 107.121Z" fill="#31424F"/>
<path d="M52.6207 107.121C52.6207 108.159 53.4621 109 54.5 109C55.5379 109 56.3793 108.159 56.3793 107.121C56.3793 106.083 55.5379 105.241 54.5 105.241C53.4621 105.241 52.6207 106.083 52.6207 107.121Z" fill="#31424F"/>
<path d="M56.3793 107.121C56.3793 108.159 57.2207 109 58.2586 109C59.2966 109 60.138 108.159 60.138 107.121C60.138 106.083 59.2966 105.241 58.2586 105.241C57.2207 105.241 56.3793 106.083 56.3793 107.121Z" fill="#31424F"/>
<path d="M60.1379 107.121C60.1379 108.159 60.9793 109 62.0172 109C63.0552 109 63.8966 108.159 63.8966 107.121C63.8966 106.083 63.0552 105.241 62.0172 105.241C60.9793 105.241 60.1379 106.083 60.1379 107.121Z" fill="#31424F"/>
<path d="M63.8965 107.121C63.8965 108.159 64.7379 109 65.7759 109C66.8138 109 67.6552 108.159 67.6552 107.121C67.6552 106.083 66.8138 105.241 65.7759 105.241C64.7379 105.241 63.8965 106.083 63.8965 107.121Z" fill="#31424F"/>
<path d="M67.6552 107.121C67.6552 108.159 68.4965 109 69.5345 109C70.5724 109 71.4138 108.159 71.4138 107.121C71.4138 106.083 70.5724 105.241 69.5345 105.241C68.4965 105.241 67.6552 106.083 67.6552 107.121Z" fill="#31424F"/>
<path d="M78.931 107.121C78.931 108.159 79.7724 109 80.8103 109C81.8483 109 82.6897 108.159 82.6897 107.121C82.6897 106.083 81.8483 105.241 80.8103 105.241C79.7724 105.241 78.931 106.083 78.931 107.121Z" fill="#31424F"/>
<path d="M90.2069 107.121C90.2069 108.159 91.0483 109 92.0862 109C93.1241 109 93.9655 108.159 93.9655 107.121C93.9655 106.083 93.1241 105.241 92.0862 105.241C91.0483 105.241 90.2069 106.083 90.2069 107.121Z" fill="#31424F"/>
<path d="M93.9655 107.121C93.9655 108.159 94.8069 109 95.8448 109C96.8827 109 97.7241 108.159 97.7241 107.121C97.7241 106.083 96.8827 105.241 95.8448 105.241C94.8069 105.241 93.9655 106.083 93.9655 107.121Z" fill="#31424F"/>
<path d="M97.7241 107.121C97.7241 108.159 98.5655 109 99.6034 109C100.641 109 101.483 108.159 101.483 107.121C101.483 106.083 100.641 105.241 99.6034 105.241C98.5655 105.241 97.7241 106.083 97.7241 107.121Z" fill="#31424F"/>
<path d="M105.241 107.121C105.241 108.159 106.083 109 107.121 109C108.159 109 109 108.159 109 107.121C109 106.083 108.159 105.241 107.121 105.241C106.083 105.241 105.241 106.083 105.241 107.121Z" fill="#31424F"/>
<path d="M43.7127 43.6865H60.3983V49.1351H40.2262V47.2746C40.2262 46.323 40.5935 45.4104 41.2474 44.7375C41.9012 44.0646 42.7881 43.6865 43.7127 43.6865Z" fill="#31424F"/>
<path d="M63.3899 43.6865H64.9272C65.8503 43.689 66.7347 44.0682 67.3866 44.7408C68.0384 45.4134 68.4045 46.3246 68.4045 47.2746V49.1351H63.3899V43.6865Z" fill="#31424F"/>
<path d="M60.3983 59.8649V65.3135H43.7127C43.2546 65.3135 42.801 65.2206 42.3778 65.0401C41.9546 64.8596 41.5701 64.595 41.2463 64.2615C40.9225 63.928 40.6657 63.532 40.4907 63.0963C40.3157 62.6606 40.2258 62.1937 40.2262 61.7223V51.6952H45.4007V59.8649H60.3983Z" fill="#31424F"/>
<path d="M68.4045 51.6952V57.0172H68.3799V61.7223C68.3803 62.1937 68.2904 62.6606 68.1154 63.0963C67.9403 63.532 67.6836 63.928 67.3598 64.2615C67.036 64.595 66.6515 64.8596 66.2283 65.0401C65.8051 65.2206 65.3514 65.3135 64.8933 65.3135H63.2054V57.0172H50.0648V55.2833C50.0639 54.3336 50.4293 53.4224 51.0807 52.7497C51.7321 52.0769 52.6162 51.6977 53.539 51.6952H68.4045Z" fill="#31424F"/>
</g>
<defs>
<clipPath id="clip0_109_234">
<rect width="109" height="109" rx="3" fill="white"/>
</clipPath>
</defs>
</svg>
