<svg width="1440" height="1344" viewBox="0 0 1440 1344" fill="none" xmlns="http://www.w3.org/2000/svg">
<g opacity="0.1">
<path d="M-15 1012L1454 3.5" stroke="#C44E47" stroke-width="7"/>
<path d="M-15 1069.5L1454 61" stroke="#31424F" stroke-width="7"/>
<path d="M-15 1127L1454 118.5" stroke="#C44E47" stroke-width="7"/>
<path d="M-15 1184.5L1454 176" stroke="#31424F" stroke-width="7"/>
<path d="M-15 1242L1454 233.5" stroke="#C44E47" stroke-width="7"/>
</g>
<g opacity="0.1">
<path d="M64.1817 1223.92L146.408 1163.83L166.03 1190.68L66.6212 1263.32L59.9213 1254.16C56.4943 1249.47 55.018 1243.65 55.817 1237.98C56.6159 1232.31 59.6248 1227.25 64.1817 1223.92Z" fill="#C44E47"/>
<path d="M161.15 1153.06L168.726 1147.52C173.284 1144.21 179.008 1142.89 184.643 1143.86C190.277 1144.83 195.363 1148 198.784 1152.68L205.484 1161.85L180.772 1179.91L161.15 1153.06Z" fill="#C44E47"/>
<path d="M204.668 1243.56L224.289 1270.41L142.062 1330.5C139.805 1332.14 137.234 1333.32 134.499 1333.96C131.763 1334.59 128.916 1334.67 126.119 1334.19C123.322 1333.72 120.631 1332.69 118.2 1331.17C115.768 1329.66 113.644 1327.68 111.948 1325.35L75.8389 1275.94L101.339 1257.31L130.759 1297.57L204.668 1243.56Z" fill="#C44E47"/>
<path d="M214.702 1174.47L233.868 1200.69L233.747 1200.78L250.69 1223.97C252.39 1226.29 253.628 1228.91 254.335 1231.69C255.041 1234.47 255.202 1237.34 254.807 1240.15C254.413 1242.96 253.471 1245.65 252.035 1248.07C250.6 1250.48 248.699 1252.57 246.441 1254.22L238.123 1260.3L208.247 1219.41L143.49 1266.74L137.245 1258.19C133.821 1253.51 132.341 1247.71 133.128 1242.05C133.915 1236.39 136.907 1231.33 141.445 1228L214.702 1174.47Z" fill="#31424F"/>
</g>
</svg>
