<svg width="100" height="100" viewBox="0 0 100 100" fill="none" xmlns="http://www.w3.org/2000/svg">
<path d="M7.57617 82.2793H92.9688V83.4512H7.57617V82.2793Z" fill="#5E6175"/>
<path d="M27.9297 35.5469C27.6035 35.5456 27.2815 35.4727 26.9866 35.3332C26.6916 35.1938 26.4309 34.9912 26.2229 34.7399C26.0149 34.4886 25.8647 34.1946 25.7828 33.8788C25.701 33.563 25.6896 33.233 25.7494 32.9123C25.8091 32.5916 25.9387 32.2879 26.1288 32.0228C26.3189 31.7577 26.565 31.5376 26.8495 31.3781C27.1341 31.2185 27.4503 31.1235 27.7757 31.0997C28.101 31.0759 28.4277 31.1238 28.7325 31.2402C29.2194 31.4261 29.6256 31.777 29.8805 32.2316C30.1353 32.6863 30.2226 33.2159 30.1271 33.7283C30.0316 34.2407 29.7594 34.7033 29.3578 35.0356C28.9563 35.3679 28.4509 35.5489 27.9297 35.5469ZM27.9297 32.2637C27.7373 32.2623 27.5481 32.3135 27.3827 32.4119C27.2173 32.5103 27.082 32.6521 26.9915 32.8219C26.9009 32.9917 26.8585 33.183 26.8689 33.3752C26.8792 33.5674 26.942 33.753 27.0504 33.9121C27.1587 34.0711 27.3085 34.1975 27.4835 34.2775C27.6585 34.3575 27.8521 34.3881 28.0433 34.366C28.2345 34.3439 28.4159 34.2699 28.5681 34.152C28.7202 34.0341 28.8371 33.8768 28.9063 33.6972C28.9675 33.538 28.9892 33.3663 28.9696 33.1968C28.9499 33.0273 28.8896 32.8651 28.7936 32.724C28.6976 32.5829 28.5689 32.4672 28.4185 32.3867C28.268 32.3062 28.1003 32.2633 27.9297 32.2617V32.2637Z" fill="#5E6175"/>
<path d="M19.1523 40.998C18.8989 40.9979 18.6486 40.942 18.4192 40.8343C18.1898 40.7265 17.987 40.5696 17.8251 40.3747C17.6631 40.1798 17.5461 39.9516 17.4823 39.7063C17.4185 39.4611 17.4094 39.2048 17.4558 38.9556C17.5021 38.7065 17.6028 38.4706 17.7505 38.2647C17.8983 38.0589 18.0896 37.888 18.3108 37.7644C18.532 37.6407 18.7777 37.5673 19.0305 37.5493C19.2832 37.5313 19.5369 37.5691 19.7734 37.6602C20.1497 37.805 20.4635 38.077 20.6603 38.4291C20.8571 38.7811 20.9244 39.1909 20.8506 39.5873C20.7769 39.9838 20.5666 40.3419 20.2564 40.5996C19.9462 40.8573 19.5556 40.9983 19.1523 40.998ZM18.6484 39.498C18.6856 39.5813 18.7427 39.6541 18.8148 39.71C18.8868 39.7659 18.9716 39.8032 19.0615 39.8186C19.1514 39.8339 19.2436 39.8269 19.3302 39.7981C19.4167 39.7692 19.4948 39.7195 19.5575 39.6533C19.6202 39.5871 19.6657 39.5065 19.6898 39.4185C19.7139 39.3306 19.716 39.238 19.6958 39.1491C19.6756 39.0602 19.6338 38.9776 19.5741 38.9086C19.5144 38.8397 19.4386 38.7866 19.3535 38.7539C19.2511 38.7156 19.1396 38.7083 19.0331 38.733C18.9266 38.7576 18.8297 38.8131 18.7545 38.8924C18.6792 38.9718 18.6291 39.0716 18.6102 39.1793C18.5914 39.287 18.6046 39.3978 18.6484 39.498Z" fill="#5E6175"/>
<path d="M21.5957 66.7344H12.6094C11.6742 66.7344 10.916 67.4925 10.916 68.4277V81.0352C10.916 81.9704 11.6742 82.7285 12.6094 82.7285H21.5957C22.5309 82.7285 23.2891 81.9704 23.2891 81.0352V68.4277C23.2891 67.4925 22.5309 66.7344 21.5957 66.7344Z" fill="#A9AFC4"/>
<path d="M86.9297 66.7344H77.9434C77.0081 66.7344 76.25 67.4925 76.25 68.4277V81.0352C76.25 81.9704 77.0081 82.7285 77.9434 82.7285H86.9297C87.8649 82.7285 88.623 81.9704 88.623 81.0352V68.4277C88.623 67.4925 87.8649 66.7344 86.9297 66.7344Z" fill="#A9AFC4"/>
<path d="M23.2891 68.4277V81.0371C23.2891 81.4857 23.1109 81.9159 22.7937 82.2331C22.4765 82.5503 22.0462 82.7285 21.5977 82.7285H12.6133C12.3909 82.7288 12.1707 82.6852 11.9651 82.6004C11.7596 82.5155 11.5727 82.391 11.4153 82.2339C11.2579 82.0769 11.133 81.8903 11.0476 81.685C10.9623 81.4796 10.9182 81.2595 10.918 81.0371V68.4277C10.918 67.9781 11.0966 67.5469 11.4145 67.229C11.7324 66.911 12.1637 66.7324 12.6133 66.7324H21.5977C22.0466 66.7335 22.4768 66.9125 22.7939 67.2303C23.111 67.5482 23.2891 67.9788 23.2891 68.4277Z" fill="#A9AFC4"/>
<path d="M88.623 68.4277V81.0371C88.623 81.4857 88.4448 81.9159 88.1276 82.2331C87.8104 82.5503 87.3802 82.7285 86.9316 82.7285H77.9473C77.7249 82.7288 77.5046 82.6852 77.2991 82.6004C77.0935 82.5155 76.9067 82.391 76.7493 82.2339C76.5919 82.0769 76.4669 81.8903 76.3816 81.685C76.2963 81.4796 76.2522 81.2595 76.252 81.0371V68.4277C76.252 68.2051 76.2958 67.9847 76.381 67.779C76.4662 67.5733 76.5911 67.3864 76.7485 67.229C76.9059 67.0715 77.0928 66.9467 77.2985 66.8615C77.5042 66.7763 77.7246 66.7324 77.9473 66.7324H86.9316C87.3806 66.7335 87.8108 66.9125 88.1279 67.2303C88.445 67.5482 88.623 67.9788 88.623 68.4277Z" fill="#A9AFC4"/>
<path style="mix-blend-mode:multiply" d="M23.2891 68.4277V79.1836H17.3516C16.9182 79.1827 16.4886 79.1026 16.084 78.9473L13.1543 77.8145C12.4931 77.5584 11.9247 77.1084 11.5239 76.5235C11.123 75.9386 10.9084 75.2462 10.9082 74.5371V68.4277C10.9082 67.9781 11.0868 67.5469 11.4047 67.229C11.7227 66.911 12.1539 66.7324 12.6035 66.7324H21.5879C21.811 66.7317 22.0321 66.7749 22.2385 66.8598C22.4448 66.9446 22.6324 67.0694 22.7904 67.2269C22.9485 67.3844 23.0739 67.5715 23.1595 67.7776C23.245 67.9837 23.2891 68.2046 23.2891 68.4277Z" fill="url(#paint0_linear_56_688)"/>
<path style="mix-blend-mode:multiply" d="M88.623 68.4277V74.5371C88.6228 75.2462 88.4082 75.9386 88.0074 76.5235C87.6065 77.1084 87.0382 77.5584 86.377 77.8145L83.457 78.9473C83.0517 79.1026 82.6215 79.1827 82.1875 79.1836H76.25V68.4277C76.25 67.9781 76.4286 67.5469 76.7465 67.229C77.0645 66.911 77.4957 66.7324 77.9453 66.7324H86.9297C87.379 66.7329 87.8097 66.9118 88.1272 67.2297C88.4447 67.5475 88.623 67.9784 88.623 68.4277Z" fill="url(#paint1_linear_56_688)"/>
<path d="M21.5957 83.3145H12.6113C12.0068 83.3139 11.4272 83.0737 10.9995 82.6464C10.5719 82.2191 10.3311 81.6397 10.3301 81.0352V68.4277C10.3311 67.8235 10.5716 67.2444 10.9988 66.8172C11.426 66.3899 12.0052 66.1495 12.6094 66.1484H21.5938C22.1981 66.149 22.7775 66.3893 23.2049 66.8166C23.6322 67.2439 23.8725 67.8234 23.873 68.4277V81.0352C23.8725 81.6392 23.6325 82.2183 23.2056 82.6456C22.7787 83.0729 22.1997 83.3134 21.5957 83.3145ZM12.6113 67.3203C12.3178 67.3208 12.0364 67.4377 11.8288 67.6452C11.6213 67.8528 11.5044 68.1342 11.5039 68.4277V81.0352C11.5039 81.3289 11.6206 81.6105 11.8283 81.8182C12.0359 82.0259 12.3176 82.1426 12.6113 82.1426H21.5957C21.8894 82.1426 22.1711 82.0259 22.3788 81.8182C22.5864 81.6105 22.7031 81.3289 22.7031 81.0352V68.4277C22.7026 68.1342 22.5858 67.8528 22.3782 67.6452C22.1706 67.4377 21.8893 67.3208 21.5957 67.3203H12.6113Z" fill="#5E6175"/>
<path d="M86.9297 83.3145H77.9453C77.3408 83.3139 76.7611 83.0737 76.3335 82.6464C75.9058 82.2191 75.6651 81.6397 75.6641 81.0352V68.4277C75.6651 67.8235 75.9056 67.2444 76.3328 66.8172C76.76 66.3899 77.3392 66.1495 77.9434 66.1484H86.9277C87.5321 66.149 88.1115 66.3893 88.5389 66.8166C88.9662 67.2439 89.2065 67.8234 89.207 68.4277V81.0352C89.2065 81.6392 88.9665 82.2183 88.5396 82.6456C88.1126 83.0729 87.5337 83.3134 86.9297 83.3145ZM77.9453 67.3203C77.6518 67.3208 77.3704 67.4377 77.1628 67.6452C76.9553 67.8528 76.8384 68.1342 76.8379 68.4277V81.0352C76.8384 81.3287 76.9553 81.6101 77.1628 81.8177C77.3704 82.0252 77.6518 82.1421 77.9453 82.1426H86.9297C87.2234 82.1426 87.5051 82.0259 87.7128 81.8182C87.9204 81.6105 88.0371 81.3289 88.0371 81.0352V68.4277C88.0366 68.1342 87.9198 67.8528 87.7122 67.6452C87.5046 67.4377 87.2232 67.3208 86.9297 67.3203H77.9453Z" fill="#5E6175"/>
<path d="M79.1211 52.8926L75.8574 44.2891C75.4347 43.1738 74.7187 42.1933 73.785 41.4511C72.8514 40.7089 71.7346 40.2325 70.5527 40.0723L67.541 39.6621C55.5993 38.0371 43.4925 38.0371 31.5508 39.6621L28.5391 40.0723C27.3586 40.234 26.2436 40.7111 25.3115 41.4532C24.3793 42.1953 23.6645 43.1749 23.2422 44.2891L19.9785 52.8926L13.2578 56.5254C12.5513 56.9047 11.9604 57.468 11.5478 58.1556C11.1352 58.8433 10.9162 59.6297 10.9141 60.4316V70.2773C10.9149 70.9855 11.1296 71.6769 11.53 72.261C11.9305 72.8451 12.498 73.2947 13.1582 73.5508L16.0879 74.6836C16.4915 74.84 16.9207 74.9201 17.3535 74.9199H82.1973C82.6308 74.92 83.0605 74.8398 83.4649 74.6836L86.3945 73.5508C87.0548 73.2947 87.6223 72.8451 88.0227 72.261C88.4231 71.6769 88.6378 70.9855 88.6387 70.2773V60.4922C88.6358 59.6744 88.4078 58.8732 87.9795 58.1766C87.5512 57.4799 86.9393 56.9147 86.2109 56.543L79.1211 52.8926Z" fill="#DEE1EC"/>
<path d="M71.9316 44.8985L74.6211 52.2813L71.584 53.2363L27.793 53.2461L24.5176 52.2949L27.209 44.8985C27.3334 44.5697 27.5442 44.2805 27.8192 44.0615C28.0942 43.8426 28.4232 43.7019 28.7715 43.6543L31.5703 43.2754C42.5684 41.7793 56.0352 41.7129 67.5684 43.2754L70.3672 43.6543C70.7158 43.7015 71.0453 43.8421 71.3206 44.0611C71.596 44.2801 71.8071 44.5694 71.9316 44.8985Z" fill="#F5F5F5"/>
<path style="mix-blend-mode:multiply" d="M43.5547 42.252L38.2012 53.2441H34L39.2344 42.502C40.6719 42.3945 42.1191 42.3125 43.5547 42.252Z" fill="url(#paint2_linear_56_688)"/>
<path style="mix-blend-mode:multiply" d="M58.8887 42.4297L53.6152 53.2403H44.9824C50.4824 41.9453 50.3809 42.1192 50.4004 42.1192C53.1074 42.1387 56.0039 42.2422 58.8887 42.4297Z" fill="url(#paint3_linear_56_688)"/>
<path d="M27.709 53.8321L23.752 52.6836L26.6582 44.6973C26.8194 44.2683 27.0937 43.8909 27.452 43.6051C27.8103 43.3194 28.2392 43.1359 28.6934 43.0743L31.4922 42.6934C43.1797 41.1055 56.6875 41.2032 67.6484 42.6934L70.4473 43.0743C70.9002 43.1356 71.3281 43.318 71.686 43.6023C72.0438 43.8866 72.3183 44.2622 72.4805 44.6895C72.7324 45.3633 71.5234 42.0606 75.3809 52.6582C71.2793 53.9454 71.7129 53.8301 71.584 53.8301L27.709 53.8321ZM25.2813 51.9063L27.875 52.6602L71.4941 52.6504L73.8594 51.9063L71.3828 45.1036C71.2952 44.8741 71.1474 44.6725 70.9549 44.5199C70.7625 44.3673 70.5325 44.2693 70.2891 44.2364L67.4902 43.8458C56.2949 42.3243 42.8672 42.3204 31.6504 43.8458L28.8516 44.2364C28.6076 44.2692 28.377 44.3673 28.1842 44.5202C27.9913 44.6732 27.8433 44.8754 27.7559 45.1055L25.2813 51.9063Z" fill="#5E6175"/>
<path d="M21.0098 50.1543L19.9707 52.8887L19.6191 53.084L12.668 51.9297C12.1824 51.8675 11.7361 51.6305 11.4126 51.2632C11.0891 50.8958 10.9105 50.4231 10.9102 49.9336V48.8516C10.9104 48.5864 10.9629 48.324 11.0647 48.0792C11.1664 47.8344 11.3154 47.612 11.5032 47.4248C11.6909 47.2376 11.9137 47.0893 12.1588 46.9882C12.4039 46.8872 12.6665 46.8354 12.9316 46.8359H16.8887C17.1554 46.8362 17.4194 46.8893 17.6655 46.9922C17.9116 47.0951 18.1348 47.2458 18.3223 47.4355L21.0098 50.1543Z" fill="#DEE1EC"/>
<path d="M19.7266 53.6934L12.5879 52.5098C11.965 52.424 11.3941 52.1161 10.9802 51.6427C10.5664 51.1693 10.3376 50.5624 10.3359 49.9336V48.8516C10.337 48.1629 10.6106 47.5027 11.097 47.0152C11.5834 46.5277 12.243 46.2526 12.9316 46.25H16.8887C17.2332 46.2523 17.5739 46.3224 17.8912 46.4565C18.2086 46.5906 18.4965 46.7859 18.7383 47.0312L21.6914 50.0176L20.4414 53.3125L19.7266 53.6934ZM12.9316 47.4219C12.5526 47.4224 12.1893 47.5732 11.9213 47.8412C11.6533 48.1092 11.5025 48.4725 11.502 48.8516V49.9336C11.5028 50.2835 11.6315 50.621 11.8639 50.8825C12.0963 51.144 12.4163 51.3116 12.7637 51.3535L19.5039 52.4707L20.3281 50.2988L17.9043 47.8516C17.7713 47.7173 17.6131 47.6106 17.4389 47.5376C17.2646 47.4645 17.0776 47.4265 16.8887 47.4258L12.9316 47.4219Z" fill="#5E6175"/>
<path d="M49.8164 58.5488H49.4961C48.2398 58.5495 47.001 58.8433 45.8782 59.4069C44.7554 59.9705 43.7796 60.7883 43.0284 61.7953C42.2773 62.8023 41.7714 63.9707 41.5512 65.2075C41.331 66.4444 41.4024 67.7155 41.7597 68.9199L43.5547 74.9277H55.7734L57.5605 68.9199C57.9181 67.7149 57.9894 66.443 57.7687 65.2056C57.5481 63.9682 57.0415 62.7993 56.2895 61.7922C55.5374 60.785 54.5606 59.9674 53.4368 59.4043C52.3131 58.8412 51.0733 58.5483 49.8164 58.5488Z" fill="#5E6175"/>
<path d="M39.6289 74.9277H17.3516C16.9187 74.9275 16.4897 74.8474 16.0859 74.6914L13.1563 73.5605C12.4953 73.3046 11.9272 72.8549 11.5264 72.2704C11.1256 71.6859 10.9108 70.9939 10.9102 70.2852V61.209H21.7871L30.7891 63.0156L37.625 65.1992V66.3711C37.6348 70.1582 38.6836 72.5059 39.6289 74.9277Z" fill="#A9AFC4"/>
<path d="M88.623 61.209V70.2852C88.6226 70.9937 88.4081 71.6855 88.0076 72.27C87.6072 72.8545 87.0395 73.3043 86.3789 73.5605L83.4492 74.6914C83.0455 74.8474 82.6164 74.9275 82.1836 74.9277H59.9395L60.6836 73.0195C61.5094 70.8975 61.9333 68.6403 61.9336 66.3633V65.1914L68.7695 63.0078L77.7715 61.2012L88.623 61.209Z" fill="#A9AFC4"/>
<path d="M21.7949 61.207H17.7305V64.6484C17.7305 65.2521 17.9701 65.831 18.3968 66.2581C18.8235 66.6851 19.4022 66.9253 20.0059 66.9258H28.5156C28.8148 66.926 29.111 66.8673 29.3874 66.753C29.6638 66.6386 29.915 66.4709 30.1265 66.2593C30.338 66.0478 30.5058 65.7967 30.6201 65.5202C30.7345 65.2438 30.7932 64.9476 30.793 64.6484V63.0176L21.7949 61.207Z" fill="#F5F5F5"/>
<path d="M77.7461 61.207H81.8105V64.6484C81.8105 65.2524 81.5706 65.8317 81.1435 66.2588C80.7164 66.6858 80.1372 66.9258 79.5332 66.9258H71.0215C70.4185 66.9242 69.8408 66.6836 69.4149 66.2567C68.9891 65.8298 68.75 65.2514 68.75 64.6484V63.0176L77.7461 61.207Z" fill="#F5F5F5"/>
<path d="M28.5156 67.5098H20.0059C19.2473 67.5087 18.5201 67.2069 17.9837 66.6706C17.4474 66.1342 17.1456 65.407 17.1445 64.6484V60.6211H21.8535L31.3789 62.5352V64.6484C31.3779 65.4073 31.0758 66.1348 30.539 66.6713C30.0022 67.2077 29.2745 67.5092 28.5156 67.5098ZM18.3164 61.793V64.6484C18.3164 65.0967 18.4943 65.5266 18.8111 65.8438C19.1279 66.1609 19.5576 66.3393 20.0059 66.3398H28.5156C28.9639 66.3393 29.3936 66.1609 29.7104 65.8438C30.0271 65.5266 30.2051 65.0967 30.2051 64.6484V63.4961L21.7344 61.793H18.3164Z" fill="#5E6175"/>
<path d="M79.5332 67.5098H71.0215C70.2636 67.5077 69.5374 67.2055 69.0019 66.6692C68.4663 66.1329 68.1651 65.4063 68.1641 64.6484V62.5352L77.6914 60.6211H82.4004V64.6484C82.3988 65.4078 82.0961 66.1356 81.5585 66.6721C81.021 67.2085 80.2926 67.5098 79.5332 67.5098ZM69.3359 63.4961V64.6484C69.3359 65.0967 69.5139 65.5266 69.8306 65.8438C70.1474 66.1609 70.5771 66.3393 71.0254 66.3398H79.5371C79.9855 66.3393 80.4155 66.161 80.7325 65.8439C81.0496 65.5268 81.228 65.0969 81.2285 64.6484V61.793H77.8047L69.3359 63.4961Z" fill="#5E6175"/>
<path d="M21.0098 50.1543L20.2949 52.0391C20.2754 52.0391 20.3867 52.0957 15.9629 49.4414H10.916V48.8555C10.9158 48.5905 10.9677 48.3281 11.0688 48.0832C11.17 47.8383 11.3184 47.6158 11.5056 47.4283C11.6927 47.2407 11.915 47.0919 12.1597 46.9903C12.4044 46.8886 12.6667 46.8362 12.9316 46.8359H16.8887C17.1554 46.8362 17.4194 46.8893 17.6655 46.9922C17.9116 47.0951 18.1348 47.2458 18.3223 47.4355L21.0098 50.1543Z" fill="#A9AFC4"/>
<path d="M20.7031 52.625H20.1348C19.916 52.4961 20.1348 52.625 15.8027 50.0273H10.334V48.8555C10.334 48.1658 10.6074 47.5043 11.0943 47.0159C11.5813 46.5275 12.242 46.2521 12.9316 46.25H16.8887C17.2333 46.2518 17.5741 46.3218 17.8915 46.4559C18.2089 46.59 18.4967 46.7855 18.7383 47.0312L21.6895 50.0195L20.7031 52.625ZM11.5039 48.8555H16.125L19.9961 51.1719L20.3281 50.293L17.9062 47.8516C17.6365 47.5812 17.2706 47.4288 16.8887 47.4277H12.9316C12.553 47.4282 12.1899 47.5788 11.922 47.8464C11.654 48.1139 11.503 48.4768 11.502 48.8555H11.5039Z" fill="#5E6175"/>
<path d="M78.084 50.1543C78.9414 52.4141 78.7109 51.8066 79.1211 52.8887L79.4746 53.084L86.4238 51.9297C86.9096 51.8679 87.3561 51.6311 87.6797 51.2636C88.0033 50.8961 88.1817 50.4232 88.1816 49.9336V48.8516C88.1816 48.3173 87.9695 47.8049 87.592 47.427C87.2144 47.049 86.7022 46.8365 86.168 46.8359H82.2051C81.9381 46.8361 81.6737 46.8892 81.4273 46.9921C81.1809 47.095 80.9574 47.2457 80.7695 47.4355L78.084 50.1543Z" fill="#DEE1EC"/>
<path d="M79.3711 53.6934L78.6504 53.3027L77.4023 50.0098L80.3535 47.0234C80.8422 46.5282 81.5074 46.2472 82.2031 46.2422H86.1602C86.85 46.2427 87.5114 46.517 87.9992 47.0047C88.4869 47.4925 88.7612 48.1539 88.7617 48.8438V49.9258C88.7601 50.5543 88.5316 51.161 88.1182 51.6343C87.7047 52.1077 87.1343 52.4158 86.5117 52.502L79.3711 53.6934ZM78.7637 50.2988L79.5879 52.4707L86.3477 51.3496C86.691 51.3038 87.006 51.135 87.2344 50.8747C87.4628 50.6143 87.5891 50.28 87.5898 49.9336V48.8516C87.5893 48.4725 87.4385 48.1092 87.1705 47.8412C86.9025 47.5732 86.5392 47.4224 86.1602 47.4219H82.2031C81.8216 47.4238 81.4563 47.5769 81.1875 47.8477L78.7637 50.2988Z" fill="#5E6175"/>
<path d="M78.084 50.1543L78.7969 52.0391C78.8164 52.0391 78.7051 52.0957 83.1309 49.4414H88.1758V48.8555C88.1758 48.3212 87.9637 47.8088 87.5861 47.4309C87.2085 47.0529 86.6963 46.8404 86.1621 46.8398H82.2051C81.9381 46.84 81.6737 46.8931 81.4273 46.996C81.1809 47.0989 80.9574 47.2496 80.7695 47.4395L78.084 50.1543Z" fill="#A9AFC4"/>
<path d="M78.9609 52.625H78.3945L77.4023 50.0117L80.3535 47.0234C80.5954 46.7776 80.8836 46.5821 81.2013 46.448C81.5191 46.3139 81.8602 46.244 82.2051 46.2422H86.1621C86.8516 46.2432 87.5125 46.5177 87.9999 47.0054C88.4872 47.4931 88.7612 48.1543 88.7617 48.8438V50.0156H83.293L78.9609 52.625ZM78.7656 50.2988L79.1016 51.1719L82.9707 48.8496H87.5938C87.5938 48.4708 87.4434 48.1074 87.1757 47.8394C86.908 47.5713 86.5449 47.4204 86.166 47.4199H82.2051C82.0157 47.42 81.8283 47.4576 81.6536 47.5307C81.4789 47.6038 81.3205 47.7109 81.1875 47.8457L78.7656 50.2988Z" fill="#5E6175"/>
<path d="M82.1875 75.5137H17.3438C16.838 75.5137 16.3366 75.4197 15.8652 75.2363L12.9356 74.1055C12.1664 73.8045 11.5055 73.2793 11.0385 72.5981C10.5715 71.9169 10.3199 71.1111 10.3164 70.2851V60.4394C10.3153 59.5312 10.5604 58.6396 11.0258 57.8595C11.4911 57.0795 12.1592 56.4402 12.959 56.0098L19.502 52.4805L22.6875 44.082C23.1473 42.8678 23.9264 41.8002 24.9426 40.992C25.9588 40.1838 27.1744 39.6649 28.4609 39.4902L31.4727 39.0801C43.467 37.4492 55.6268 37.4492 67.6211 39.0801L70.6328 39.4902C71.9193 39.6653 73.1346 40.1843 74.1508 40.9925C75.1669 41.8006 75.9461 42.868 76.4063 44.082L79.5899 52.4805L86.4805 56.0293C87.305 56.4504 87.9969 57.0915 88.4795 57.8816C88.9622 58.6717 89.2167 59.58 89.2149 60.5059V70.291C89.2114 71.1169 88.9598 71.9227 88.4928 72.604C88.0258 73.2852 87.3648 73.8103 86.5957 74.1113L83.666 75.2422C83.1943 75.4237 82.6929 75.5158 82.1875 75.5137ZM49.5469 39.0293C40.6738 39.0293 34.6074 39.8379 28.6191 40.6523C27.5413 40.7981 26.523 41.2325 25.6717 41.9094C24.8205 42.5864 24.168 43.4808 23.7832 44.498L20.4414 53.3047L13.5293 57.0312C12.9159 57.3623 12.4036 57.8532 12.0467 58.4519C11.6898 59.0505 11.5015 59.7346 11.502 60.4316V70.2773C11.5036 70.8682 11.6829 71.4449 12.0166 71.9326C12.3502 72.4202 12.8229 72.7962 13.3731 73.0117L16.3027 74.1426C16.6392 74.2724 16.9968 74.3386 17.3574 74.3379H82.2012C82.5624 74.3385 82.9207 74.2723 83.2578 74.1426L86.1875 73.0117C86.7375 72.7961 87.2098 72.42 87.5432 71.9324C87.8765 71.4447 88.0555 70.868 88.0567 70.2773V60.4922C88.0544 59.7809 87.8552 59.0841 87.4811 58.479C87.1071 57.874 86.5728 57.3844 85.9375 57.0644L78.6524 53.3203L75.3106 44.5078C74.9253 43.4909 74.2726 42.5968 73.4214 41.9199C72.5703 41.2431 71.5522 40.8085 70.4746 40.6621C63.6367 39.7207 58.0469 39.0293 49.5469 39.0293Z" fill="#5E6175"/>
<path d="M71.9863 43.7773C78.0571 43.7773 82.9785 38.856 82.9785 32.7852C82.9785 26.7143 78.0571 21.793 71.9863 21.793C65.9155 21.793 60.9941 26.7143 60.9941 32.7852C60.9941 38.856 65.9155 43.7773 71.9863 43.7773Z" fill="#F5F5F5"/>
<path d="M71.9863 44.3633C69.6958 44.3637 67.4567 43.6848 65.552 42.4125C63.6474 41.1402 62.1629 39.3317 61.2862 37.2156C60.4094 35.0996 60.18 32.771 60.6267 30.5245C61.0735 28.278 62.1764 26.2145 63.796 24.5949C65.4157 22.9752 67.4792 21.8723 69.7257 21.4255C71.9722 20.9788 74.3007 21.2083 76.4168 22.085C78.5328 22.9617 80.3414 24.4462 81.6137 26.3509C82.886 28.2555 83.5648 30.4947 83.5645 32.7852C83.566 34.3061 83.2676 35.8123 82.6863 37.2177C82.105 38.6232 81.2522 39.9001 80.1767 40.9756C79.1013 42.051 77.8243 42.9038 76.4189 43.4851C75.0135 44.0664 73.5072 44.3648 71.9863 44.3633ZM71.9863 22.377C69.9277 22.3766 67.9152 22.9867 66.2033 24.1301C64.4914 25.2735 63.1571 26.8989 62.369 28.8008C61.5809 30.7026 61.3745 32.7954 61.7759 34.8145C62.1773 36.8336 63.1684 38.6884 64.624 40.1442C66.0795 41.6 67.9341 42.5915 69.9531 42.9932C71.9722 43.395 74.065 43.189 75.967 42.4013C77.8689 41.6136 79.4946 40.2795 80.6383 38.5679C81.7821 36.8562 82.3926 34.8438 82.3926 32.7852C82.389 30.0262 81.2915 27.3812 79.3408 25.4301C77.3901 23.4791 74.7453 22.3811 71.9863 22.377Z" fill="#5E6175"/>
<path d="M81.8816 22.0826L84.3658 19.5985L85.1943 20.427L82.7101 22.9112L81.8816 22.0826Z" fill="#5E6175"/>
<path d="M78.8223 17.1348H79.9941V20.6484H78.8223V17.1348Z" fill="#5E6175"/>
<path d="M84.2422 24.5879H87.7559V25.7598H84.2422V24.5879Z" fill="#5E6175"/>
<path d="M75.3379 36.8203C74.6191 37.6016 74.1016 37.834 71.9863 39.1289L69.8691 37.834C69.0274 37.3116 68.3319 36.5844 67.8476 35.7202C67.3632 34.856 67.1059 33.8832 67.0996 32.8926V28.3555H68.6992C69.8489 28.3454 70.9782 28.0509 71.9863 27.498C73.918 28.4746 75.0176 28.3555 76.8691 28.3555V32.8926C76.8665 34.347 76.3204 35.7479 75.3379 36.8203Z" fill="#C44E47"/>
<path d="M71.4707 35.0039L69.2734 32.8047L69.959 32.1191L71.4707 33.6309L74.4121 30.6875L75.0996 31.375L71.4707 35.0039Z" fill="#F5F5F5"/>
<path d="M7.61719 73.3223H6.44531V72.1504H7.61719V73.3223ZM7.61719 70.1973H6.44531V69.0254H7.61719V70.1973ZM7.61719 67.0723H6.44531V65.9004H7.61719V67.0723ZM7.61719 63.9473H6.44531V62.7754H7.61719V63.9473ZM7.61719 60.8223H6.44531C6.44531 60.2559 6.44531 59.9902 6.4668 59.6094L7.63867 59.6934C7.61719 60.0449 7.61719 60.2793 7.61719 60.8223ZM7.98633 57.9238L6.87305 57.5566C7.00502 57.1582 7.16559 56.7698 7.35352 56.3945L8.40039 56.9219C8.23825 57.2454 8.09987 57.5802 7.98633 57.9238ZM9.4082 55.4199L8.51367 54.6602L9.27344 53.7676L10.166 54.5254L9.4082 55.4199Z" fill="#A9AFC4"/>
<defs>
<linearGradient id="paint0_linear_56_688" x1="10.916" y1="72.959" x2="23.2891" y2="72.959" gradientUnits="userSpaceOnUse">
<stop stop-color="#CACFDD"/>
<stop offset="1" stop-color="#EEF0F1"/>
</linearGradient>
<linearGradient id="paint1_linear_56_688" x1="76.25" y1="72.959" x2="88.623" y2="72.959" gradientUnits="userSpaceOnUse">
<stop stop-color="#CACFDD"/>
<stop offset="1" stop-color="#EEF0F1"/>
</linearGradient>
<linearGradient id="paint2_linear_56_688" x1="34" y1="47.748" x2="43.5488" y2="47.748" gradientUnits="userSpaceOnUse">
<stop stop-color="#CACFDD"/>
<stop offset="1" stop-color="#EEF0F1"/>
</linearGradient>
<linearGradient id="paint3_linear_56_688" x1="44.9902" y1="47.6817" x2="58.8887" y2="47.6817" gradientUnits="userSpaceOnUse">
<stop stop-color="#CACFDD"/>
<stop offset="1" stop-color="#EEF0F1"/>
</linearGradient>
</defs>
</svg>
