<svg width="60" height="60" viewBox="0 0 60 60" fill="none" xmlns="http://www.w3.org/2000/svg">
<path d="M46.4836 11.0029L43.7883 47.9006C43.7551 48.3497 43.5533 48.7697 43.2234 49.0762C42.8934 49.3826 42.4597 49.553 42.0094 49.5529H20.2582C19.8497 49.5538 19.4533 49.4138 19.1359 49.1566C18.8185 48.8994 18.5994 48.5407 18.5156 48.1408C18.1641 46.4533 17.243 43.5916 14.8828 41.474C13.6605 40.376 12.0516 39.4818 9.9375 39.0459C9.53403 38.9659 9.17066 38.7487 8.90902 38.4313C8.64737 38.1139 8.50355 37.7158 8.50195 37.3045V24.2967C8.50229 24.0484 8.5546 23.8029 8.65551 23.5761C8.75642 23.3492 8.90371 23.146 9.08789 22.9795L23.7891 9.55566C24.1167 9.2547 24.5453 9.08745 24.9902 9.08691H44.7047C44.95 9.08706 45.1927 9.13778 45.4176 9.23593C45.6425 9.33407 45.8447 9.47752 46.0116 9.65733C46.1785 9.83713 46.3066 10.0494 46.3878 10.2809C46.469 10.5125 46.5016 10.7582 46.4836 11.0029Z" fill="#DEE1EC"/>
<path d="M46.4836 11.0029C44.3449 40.2764 44.9062 32.5982 43.7883 47.9006C43.7552 48.3498 43.5534 48.7699 43.2235 49.0766C42.8935 49.3833 42.4598 49.5538 42.0094 49.5541H20.2582C19.8497 49.555 19.4533 49.415 19.1359 49.1578C18.8185 48.9006 18.5994 48.5418 18.5156 48.142C18.1641 46.4533 17.243 43.5916 14.8828 41.474C13.6605 40.376 12.0516 39.4818 9.9375 39.0459C9.53413 38.9661 9.17078 38.7492 8.90912 38.432C8.64746 38.1148 8.5036 37.7169 8.50195 37.3057V24.2908C8.50224 24.0427 8.55452 23.7974 8.65545 23.5707C8.75637 23.344 8.90369 23.141 9.08789 22.9748L23.7891 9.55566C24.117 9.25509 24.5454 9.08791 24.9902 9.08691H44.7047C44.9501 9.08688 45.1929 9.13749 45.4178 9.23558C45.6428 9.33366 45.845 9.47711 46.012 9.65695C46.179 9.83679 46.307 10.0492 46.3882 10.2808C46.4693 10.5124 46.5018 10.7582 46.4836 11.0029Z" fill="#DEE1EC"/>
<path d="M43.1004 25.241L44.0016 12.8988C44.0155 12.7106 43.9904 12.5216 43.9278 12.3435C43.8653 12.1655 43.7668 12.0022 43.6383 11.8639C43.5099 11.7257 43.3543 11.6154 43.1813 11.54C43.0083 11.4647 42.8216 11.4258 42.6329 11.4258H25.7344C25.3919 11.4256 25.0617 11.5535 24.8086 11.7844L11.284 24.1266C11.0791 24.3131 10.9355 24.5572 10.872 24.8269C10.8085 25.0967 10.8281 25.3793 10.9283 25.6376C11.0285 25.8959 11.2045 26.1179 11.4333 26.2743C11.662 26.4306 11.9327 26.5141 12.2098 26.5137H41.7317C42.0783 26.5134 42.4121 26.3821 42.6659 26.1461C42.9198 25.91 43.075 25.5867 43.1004 25.241Z" fill="#F5F5F5"/>
<path d="M44.0028 12.8988L43.1004 25.2398C43.0753 25.5858 42.9202 25.9094 42.6663 26.1456C42.4124 26.3819 42.0785 26.5134 41.7317 26.5137H12.2098C11.9327 26.5141 11.662 26.4306 11.4333 26.2743C11.2045 26.1179 11.0285 25.8959 10.9283 25.6376C10.8281 25.3793 10.8085 25.0967 10.872 24.8269C10.9355 24.5572 11.0791 24.3131 11.284 24.1266L24.8086 11.7855C25.0612 11.5545 25.391 11.4262 25.7332 11.4258H42.6328C42.8215 11.4263 43.008 11.4655 43.1808 11.5411C43.3536 11.6166 43.509 11.7269 43.6375 11.865C43.7659 12.0031 43.8646 12.1662 43.9275 12.344C43.9903 12.5218 44.0159 12.7107 44.0028 12.8988Z" fill="#F5F5F5"/>
<path d="M13.125 24.444V23.3366C13.125 22.7877 13.343 22.2614 13.7312 21.8732C14.1193 21.4851 14.6457 21.2671 15.1945 21.2671H16.5035C16.6962 21.2671 16.881 21.3436 17.0173 21.4799C17.1535 21.6162 17.2301 21.801 17.2301 21.9937V25.787C17.2301 25.9797 17.1535 26.1645 17.0173 26.3008C16.881 26.437 16.6962 26.5136 16.5035 26.5136H15.198C14.926 26.514 14.6565 26.4608 14.405 26.3571C14.1535 26.2533 13.9249 26.1009 13.7324 25.9087C13.5398 25.7164 13.3871 25.4881 13.2829 25.2368C13.1786 24.9855 13.125 24.7161 13.125 24.444Z" fill="#A9AFC4"/>
<path d="M16.507 26.8651H15.198C14.5556 26.8651 13.9394 26.6102 13.4848 26.1562C13.0302 25.7023 12.7744 25.0865 12.7734 24.444V23.3366C12.7744 22.6948 13.0297 22.0795 13.4836 21.6257C13.9374 21.1718 14.5527 20.9165 15.1945 20.9155H16.5035C16.7894 20.9158 17.0634 21.0295 17.2655 21.2316C17.4676 21.4338 17.5813 21.7078 17.5816 21.9937V25.787C17.5813 26.0722 17.4681 26.3458 17.2668 26.5478C17.0654 26.7498 16.7923 26.8639 16.507 26.8651ZM15.198 21.6187C14.742 21.6183 14.3045 21.7991 13.9817 22.1213C13.6589 22.4434 13.4772 22.8806 13.4766 23.3366V24.444C13.4772 24.8995 13.6584 25.3361 13.9804 25.6581C14.3025 25.9802 14.7391 26.1614 15.1945 26.162H16.5035C16.603 26.162 16.6984 26.1225 16.7687 26.0522C16.839 25.9819 16.8785 25.8865 16.8785 25.787V21.9937C16.8785 21.8942 16.839 21.7988 16.7687 21.7285C16.6984 21.6582 16.603 21.6187 16.5035 21.6187H15.198Z" fill="#31424F"/>
<path style="mix-blend-mode:multiply" d="M35.0742 39.0459V41.474H14.8828C13.6605 40.376 12.0516 39.4818 9.9375 39.0459H35.0742Z" fill="url(#paint0_linear_59_2103)"/>
<path style="mix-blend-mode:multiply" d="M33.9504 11.4258L25.5504 26.5137H19.5914L27.9903 11.4258H33.9504Z" fill="url(#paint1_linear_59_2103)"/>
<path style="mix-blend-mode:multiply" d="M43.9922 12.6141L36.2578 26.5137H32.5922L40.9898 11.4258H42.6304C42.9628 11.4256 43.2839 11.5459 43.5343 11.7644C43.7847 11.9829 43.9474 12.2848 43.9922 12.6141Z" fill="url(#paint2_linear_59_2103)"/>
<path d="M41.7317 26.8652H12.2098C11.862 26.8651 11.5224 26.7598 11.2355 26.5633C10.9486 26.3667 10.7278 26.088 10.6021 25.7637C10.4764 25.4395 10.4516 25.0848 10.5311 24.7462C10.6105 24.4076 10.7905 24.1009 11.0473 23.8664L24.5719 11.5254C24.8893 11.2348 25.3041 11.0738 25.7344 11.0742H42.6328C42.8699 11.0744 43.1043 11.1234 43.3216 11.2182C43.5389 11.313 43.7343 11.4514 43.8957 11.625C44.0571 11.7986 44.181 12.0036 44.2597 12.2272C44.3384 12.4508 44.3702 12.6882 44.3532 12.9246L43.4508 25.2656C43.4178 25.6995 43.2226 26.1051 42.904 26.4016C42.5854 26.698 42.1668 26.8635 41.7317 26.8652ZM25.7344 11.7773C25.4794 11.7771 25.2335 11.8724 25.0453 12.0445L11.5207 24.3855C11.3685 24.5245 11.2619 24.7062 11.2148 24.9068C11.1678 25.1075 11.1825 25.3176 11.257 25.5098C11.3315 25.7019 11.4624 25.867 11.6324 25.9834C11.8024 26.0998 12.0037 26.1621 12.2098 26.1621H41.7317C41.9893 26.1611 42.2372 26.0631 42.4259 25.8877C42.6146 25.7122 42.7303 25.4721 42.75 25.2152L43.6512 12.873C43.6617 12.733 43.6431 12.5923 43.5967 12.4597C43.5503 12.3272 43.4769 12.2057 43.3813 12.1028C43.2857 11.9999 43.1699 11.9179 43.0411 11.8619C42.9123 11.8059 42.7733 11.7771 42.6328 11.7773H25.7344Z" fill="#31424F"/>
<path d="M48.8437 22.5412L48.1406 22.4838L48.198 21.7807L48.9011 21.8393L48.8437 22.5412ZM48.9972 20.6732L48.2941 20.6158L48.3527 19.9127L49.0558 19.9701L48.9972 20.6732ZM49.1519 18.8041L48.4488 18.7467L48.5062 18.0436L49.2093 18.101L49.1519 18.8041ZM49.3054 16.9361L48.6023 16.8775L48.6609 16.1744L49.364 16.233L49.3054 16.9361ZM49.4601 15.0611L48.757 15.0037L48.8144 14.3006L49.5175 14.358L49.4601 15.0611ZM49.6136 13.1932L48.9105 13.1346L48.9679 12.4314L49.671 12.49L49.6136 13.1932ZM49.7683 11.324L49.0652 11.2666L49.1226 10.5635L49.8257 10.6209L49.7683 11.324ZM49.0722 9.49355C49.0324 9.28203 48.9748 9.07426 48.9 8.87246L49.5609 8.62988C49.6477 8.86829 49.7155 9.11319 49.7636 9.3623L49.0722 9.49355ZM48.3984 7.93262C48.2721 7.75824 48.1317 7.59441 47.9789 7.44277L48.4734 6.94355C48.6538 7.12184 48.8192 7.31468 48.9679 7.52012L48.3984 7.93262ZM47.1199 6.79707C46.9319 6.69305 46.736 6.6041 46.5339 6.53105L46.7683 5.86895C47.0069 5.95483 47.2381 6.05986 47.4597 6.18301L47.1199 6.79707ZM45.4792 6.31309C45.3011 6.30137 45.2085 6.30371 44.7996 6.30371V5.60059C45.1722 5.60059 45.3175 5.60059 45.5261 5.6123L45.4792 6.31309ZM43.6277 6.30371H42.9246V5.60059H43.6277V6.30371ZM41.7527 6.30371H41.0496V5.60059H41.7527V6.30371Z" fill="#A9AFC4"/>
<path d="M5.91602 18.4092L6.41313 17.9121L8.0743 19.5732L7.57719 20.0704L5.91602 18.4092Z" fill="#31424F"/>
<path d="M4.24805 21.4092H6.59766V22.1123H4.24805V21.4092Z" fill="#31424F"/>
<path d="M9.27307 16.1792H9.9762V18.5288H9.27307V16.1792Z" fill="#31424F"/>
<path d="M49.2621 37.0151C48.9212 37.0153 48.5876 36.9164 48.3019 36.7303C48.0162 36.5443 47.7908 36.2792 47.6531 35.9674C47.5154 35.6555 47.4713 35.3103 47.5263 34.9739C47.5813 34.6374 47.7329 34.3242 47.9627 34.0724C48.1925 33.8206 48.4906 33.641 48.8206 33.5556C49.1506 33.4702 49.4984 33.4825 49.8215 33.5912C50.1446 33.6999 50.4292 33.9002 50.6405 34.1677C50.8518 34.4353 50.9808 34.7584 51.0117 35.0979C51.0349 35.3414 51.0069 35.5869 50.9295 35.8189C50.852 36.0508 50.7269 36.2639 50.562 36.4445C50.3972 36.6252 50.1964 36.7692 49.9725 36.8675C49.7486 36.9658 49.5066 37.0161 49.2621 37.0151ZM49.2691 34.2144C49.123 34.2148 48.9787 34.2455 48.8451 34.3046C48.7116 34.3638 48.5917 34.45 48.4932 34.5578C48.3948 34.6657 48.3197 34.7928 48.273 34.9312C48.2262 35.0696 48.2086 35.2161 48.2214 35.3616C48.2394 35.5656 48.3164 35.76 48.443 35.9209C48.5695 36.0819 48.7402 36.2026 48.9342 36.2681C49.1282 36.3337 49.3371 36.3415 49.5354 36.2903C49.7337 36.2392 49.9128 36.1315 50.0509 35.9802C50.189 35.829 50.2801 35.6409 50.313 35.4388C50.346 35.2367 50.3194 35.0293 50.2365 34.8421C50.1536 34.6548 50.018 34.4958 49.8462 34.3843C49.6744 34.2728 49.4739 34.2138 49.2691 34.2144Z" fill="#31424F"/>
<path d="M54.7757 30.0356C54.5633 30.0353 54.354 29.9838 54.1657 29.8856C53.9773 29.7874 53.8153 29.6452 53.6934 29.4712C53.5715 29.2972 53.4933 29.0965 53.4653 28.8859C53.4373 28.6753 53.4604 28.461 53.5326 28.2612C53.6048 28.0614 53.7241 27.882 53.8803 27.7379C54.0364 27.5939 54.225 27.4896 54.43 27.4337C54.635 27.3779 54.8504 27.3722 55.058 27.4172C55.2656 27.4621 55.4594 27.5563 55.623 27.6919C56.571 28.477 56.0156 30.0356 54.7757 30.0356ZM54.1593 28.7688C54.1691 28.8704 54.2038 28.9679 54.2602 29.0528C54.3167 29.1378 54.3931 29.2075 54.4829 29.2559C54.5727 29.3043 54.673 29.3298 54.775 29.3302C54.877 29.3306 54.9775 29.3059 55.0677 29.2583C55.1578 29.2107 55.2349 29.1415 55.292 29.0571C55.3491 28.9726 55.3846 28.8754 55.3952 28.7739C55.4059 28.6725 55.3914 28.57 55.353 28.4755C55.3147 28.381 55.2537 28.2974 55.1753 28.2321C55.0808 28.1532 54.9649 28.1043 54.8424 28.0914C54.7199 28.0786 54.5963 28.1024 54.4874 28.1599C54.3785 28.2175 54.2892 28.3061 54.2308 28.4145C54.1724 28.5229 54.1475 28.6463 54.1593 28.7688Z" fill="#31424F"/>
<path d="M15.1816 7.2751C15.9493 7.2751 16.6856 7.58006 17.2284 8.12289C17.7712 8.66572 18.0762 9.40195 18.0762 10.1696C18.0762 9.78902 18.1512 9.41215 18.2971 9.06059C18.4429 8.70902 18.6566 8.38967 18.926 8.12081C19.1954 7.85195 19.5152 7.63887 19.8671 7.49375C20.2189 7.34863 20.596 7.27433 20.9766 7.2751C20.2086 7.2751 19.472 6.97002 18.929 6.42697C18.3859 5.88392 18.0809 5.14738 18.0809 4.37939C18.081 4.76 18.0061 5.13691 17.8604 5.48853C17.7147 5.84015 17.5011 6.15959 17.2318 6.42855C16.9625 6.69752 16.6428 6.91074 16.291 7.056C15.9392 7.20126 15.5622 7.27571 15.1816 7.2751Z" fill="#C44E47"/>
<path d="M8.50073 45.4687C8.75691 45.4687 9.01057 45.5192 9.24724 45.6173C9.4839 45.7154 9.69892 45.8591 9.88 46.0403C10.0611 46.2215 10.2047 46.4366 10.3026 46.6733C10.4006 46.91 10.4509 47.1637 10.4507 47.4199C10.4507 47.1637 10.5012 46.91 10.5993 46.6732C10.6973 46.4365 10.841 46.2214 11.0222 46.0402C11.2034 45.8591 11.4185 45.7153 11.6552 45.6173C11.892 45.5192 12.1457 45.4687 12.4019 45.4687C12.1457 45.4687 11.892 45.4183 11.6552 45.3202C11.4185 45.2222 11.2034 45.0784 11.0222 44.8973C10.841 44.7161 10.6973 44.501 10.5993 44.2643C10.5012 44.0275 10.4507 43.7738 10.4507 43.5176C10.4509 43.7738 10.4006 44.0274 10.3026 44.2642C10.2047 44.5009 10.0611 44.716 9.88 44.8972C9.69892 45.0784 9.4839 45.2221 9.24724 45.3202C9.01057 45.4183 8.75691 45.4687 8.50073 45.4687Z" fill="#C44E47"/>
<path d="M39.9152 32.2137H32.1562V31.4859C32.1562 31.14 32.2937 30.8083 32.5383 30.5637C32.7829 30.3191 33.1146 30.1816 33.4605 30.1816H38.6168C38.9627 30.1816 39.2945 30.3191 39.5391 30.5637C39.7837 30.8083 39.9211 31.14 39.9211 31.4859L39.9152 32.2137Z" fill="#31424F"/>
<path style="mix-blend-mode:multiply" d="M44.5207 37.8776L43.7882 47.9007C43.7551 48.3499 43.5533 48.77 43.2234 49.0767C42.8935 49.3833 42.4598 49.5539 42.0093 49.5542H34.1953C33.9353 48.0789 34.0113 46.564 34.4178 45.1222C34.8243 43.6804 35.5507 42.3489 36.5431 41.2267C37.5354 40.1046 38.768 39.2206 40.1493 38.6408C41.5305 38.0609 43.0247 37.8001 44.5207 37.8776Z" fill="url(#paint3_linear_59_2103)"/>
<path d="M42.0093 49.9046H20.2582C19.7691 49.904 19.2951 49.7357 18.9153 49.4277C18.5354 49.1197 18.2727 48.6907 18.171 48.2124C17.8535 46.689 16.9734 43.8214 14.6472 41.7355C13.3406 40.5636 11.7316 39.7726 9.8648 39.3917C9.38313 39.2936 8.94981 39.033 8.63747 38.6534C8.32512 38.2738 8.15272 37.7985 8.14917 37.3069V24.2991C8.14903 24.0022 8.21086 23.7086 8.33073 23.437C8.45059 23.1654 8.62584 22.9218 8.84526 22.7218L23.5476 9.29561C23.9408 8.93654 24.4542 8.73756 24.9867 8.73779H44.7046C44.9979 8.73817 45.288 8.79891 45.5568 8.91623C45.8257 9.03355 46.0675 9.20493 46.2672 9.41972C46.4669 9.63451 46.6203 9.88811 46.7178 10.1647C46.8153 10.4414 46.8548 10.7351 46.8339 11.0276C46.8339 11.0394 46.7167 12.6882 44.1386 47.9265C44.0971 48.4634 43.855 48.965 43.4605 49.3315C43.0659 49.6981 42.5479 49.9027 42.0093 49.9046ZM24.9867 9.44092C24.6303 9.44142 24.2868 9.5747 24.0234 9.81475L9.3187 23.2339C9.17162 23.3675 9.05397 23.5303 8.97327 23.7119C8.89256 23.8935 8.85057 24.0899 8.84995 24.2886V37.2964C8.84956 37.6272 8.96466 37.9478 9.17539 38.2028C9.38613 38.4578 9.67928 38.6313 10.0042 38.6933C11.9964 39.1011 13.7144 39.946 15.1148 41.2046C17.5898 43.4241 18.5214 46.4534 18.8566 48.0612C18.9252 48.3815 19.1015 48.6685 19.3561 48.8745C19.6108 49.0805 19.9283 49.193 20.2558 49.1933H42.0093C42.3705 49.192 42.718 49.0548 42.9827 48.809C43.2474 48.5632 43.4099 48.2268 43.4378 47.8667C45.1558 24.3472 46.1332 10.9526 46.1332 10.969C46.1475 10.7727 46.1212 10.5755 46.0559 10.3898C45.9906 10.2041 45.8877 10.0338 45.7537 9.88961C45.6196 9.74544 45.4573 9.63046 45.2768 9.55184C45.0963 9.47323 44.9015 9.43268 44.7046 9.43272L24.9867 9.44092Z" fill="#31424F"/>
<path d="M44.0062 55.6209C48.3115 55.6209 51.8016 52.1308 51.8016 47.8256C51.8016 43.5204 48.3115 40.0303 44.0062 40.0303C39.701 40.0303 36.2109 43.5204 36.2109 47.8256C36.2109 52.1308 39.701 55.6209 44.0062 55.6209Z" fill="#F5F5F5"/>
<path d="M44.0062 55.9724C42.3944 55.9735 40.8184 55.4966 39.4777 54.6019C38.1369 53.7073 37.0917 52.4351 36.4741 50.9462C35.8565 49.4574 35.6944 47.8189 36.0082 46.2379C36.3221 44.6569 37.0977 43.2045 38.2371 42.0644C39.3766 40.9244 40.8285 40.1479 42.4093 39.8331C43.9901 39.5184 45.6287 39.6796 47.1179 40.2963C48.6071 40.913 49.8799 41.9575 50.7754 43.2978C51.6708 44.638 52.1486 46.2137 52.1484 47.8255C52.1459 49.9846 51.2874 52.0546 49.7611 53.5818C48.2349 55.109 46.1653 55.9686 44.0062 55.9724ZM44.0062 40.3864C42.5332 40.3853 41.093 40.8211 39.8678 41.6387C38.6426 42.4563 37.6875 43.619 37.1233 44.9796C36.559 46.3402 36.4111 47.8376 36.6982 49.2823C36.9853 50.7271 37.6944 52.0542 38.736 53.0957C39.7775 54.1372 41.1046 54.8464 42.5494 55.1335C43.9941 55.4206 45.4915 55.2727 46.8521 54.7084C48.2127 54.1442 49.3754 53.1891 50.193 51.9639C51.0106 50.7387 51.4464 49.2985 51.4453 47.8255C51.4431 45.8527 50.6588 43.9612 49.2644 42.5656C47.8699 41.17 45.979 40.3843 44.0062 40.3806V40.3864Z" fill="#31424F"/>
<path d="M42.8109 51.361L39.6469 48.1981L40.8316 47.0134L42.8109 48.9915L47.2394 44.563L48.4242 45.7489L42.8109 51.361Z" fill="#C44E47"/>
<defs>
<linearGradient id="paint0_linear_59_2103" x1="9.93633" y1="40.26" x2="35.0742" y2="40.26" gradientUnits="userSpaceOnUse">
<stop stop-color="#CACFDD"/>
<stop offset="1" stop-color="#EEF0F1"/>
</linearGradient>
<linearGradient id="paint1_linear_59_2103" x1="19.5914" y1="18.9691" x2="33.9504" y2="18.9691" gradientUnits="userSpaceOnUse">
<stop stop-color="#CACFDD"/>
<stop offset="1" stop-color="#EEF0F1"/>
</linearGradient>
<linearGradient id="paint2_linear_59_2103" x1="32.5922" y1="18.9691" x2="43.9922" y2="18.9691" gradientUnits="userSpaceOnUse">
<stop stop-color="#CACFDD"/>
<stop offset="1" stop-color="#EEF0F1"/>
</linearGradient>
<linearGradient id="paint3_linear_59_2103" x1="34.0418" y1="43.7089" x2="44.5207" y2="43.7089" gradientUnits="userSpaceOnUse">
<stop stop-color="#CACFDD"/>
<stop offset="1" stop-color="#EEF0F1"/>
</linearGradient>
</defs>
</svg>
