<svg width="100" height="100" viewBox="0 0 100 100" fill="none" xmlns="http://www.w3.org/2000/svg">
<path d="M81.8672 51.8555H18.1328L12 60.7734V68.3711L14.5391 80.3281C14.6858 81.0174 15.0649 81.6355 15.6127 82.0788C16.1606 82.5221 16.8441 82.7639 17.5488 82.7637H82.4434C83.1481 82.7639 83.8316 82.5221 84.3795 82.0788C84.9273 81.6355 85.3063 81.0174 85.4531 80.3281L87.9922 68.3711V60.7031L81.8672 51.8555Z" fill="#DEE1EC"/>
<path style="mix-blend-mode:multiply" d="M81.8672 51.8555H18.1328L12 60.7734V68.3711L14.5391 80.3281C14.6858 81.0174 15.0649 81.6355 15.6127 82.0788C16.1606 82.5221 16.8441 82.7639 17.5488 82.7637H82.4434C83.1481 82.7639 83.8316 82.5221 84.3795 82.0788C84.9273 81.6355 85.3063 81.0174 85.4531 80.3281L87.9922 68.3711V60.7031L81.8672 51.8555Z" fill="url(#paint0_linear_56_17)"/>
<path d="M75.1563 34.5703C64.5801 33.5781 50.6348 32.1504 30.5547 34.0351L24.8438 34.5703C24.3238 34.6191 23.8305 34.8233 23.4282 35.1564C23.0258 35.4894 22.733 35.9358 22.5879 36.4375L18.1328 51.8555H81.8672L77.4121 36.4375C77.267 35.9358 76.9742 35.4894 76.5718 35.1564C76.1695 34.8233 75.6762 34.6191 75.1563 34.5703Z" fill="#DEE1EC"/>
<path d="M81.8652 51.8575H18.1328L22.5879 36.4375C22.7334 35.9357 23.0265 35.4892 23.4292 35.1562C23.8319 34.8232 24.3254 34.6191 24.8457 34.5704C34.2207 33.6895 46.7422 32.3516 64.9473 33.6622C67.6484 33.8575 68.6035 33.9551 75.1562 34.5704C75.6762 34.6192 76.1695 34.8234 76.5718 35.1564C76.9742 35.4894 77.267 35.9358 77.4121 36.4375L81.8652 51.8575Z" fill="#DEE1EC"/>
<path d="M22.0176 51.8555L25.9609 38.2148L30.9023 37.75C43.6063 36.5596 56.3937 36.5596 69.0977 37.75L74.0391 38.2148L77.9824 51.8555H22.0176Z" fill="#A9AFC4"/>
<path d="M78.7617 52.4414H21.2383L25.5078 37.668C33.1094 36.9551 39.6406 36.2715 50 36.2715C60.4766 36.2715 67.4121 37.0039 74.4922 37.668L78.7617 52.4414ZM22.7969 51.2695H77.2031L73.5879 38.7695C67.0742 38.1582 60.2148 37.4512 50 37.4512C39.8809 37.4512 33.1289 38.1387 26.4121 38.7695L22.7969 51.2695Z" fill="#31424F"/>
<path d="M18.1328 69.3457V63.1855L31.6055 67.3105V72.2168H24.8691L18.1328 69.3457Z" fill="#F5F5F5"/>
<path d="M81.8672 69.3457V63.1855L68.3945 67.3105V72.2168H75.1309L81.8672 69.3457Z" fill="#F5F5F5"/>
<path d="M36.9355 67.3086V72.2168L41.0371 78.5723H58.9668L63.0684 72.2168V67.3086H36.9355Z" fill="#31424F"/>
<path d="M19.0977 74.1543V78.5723H24.1699V76.3281L19.0977 74.1543Z" fill="#C44E47"/>
<path d="M81.8672 74.1543V78.5723H76.7949V76.3281L81.8672 74.1543Z" fill="#C44E47"/>
<path d="M12 68.3711V88.8457C11.9997 89.1356 12.0567 89.4227 12.1675 89.6906C12.2783 89.9585 12.4409 90.2019 12.6459 90.4069C12.8508 90.6119 13.0942 90.7744 13.3621 90.8853C13.63 90.9961 13.9171 91.053 14.207 91.0527H23.541C23.8308 91.0527 24.1177 90.9956 24.3853 90.8847C24.653 90.7738 24.8961 90.6112 25.1009 90.4062C25.3057 90.2012 25.4681 89.9579 25.5788 89.6901C25.6895 89.4224 25.7464 89.1354 25.7461 88.8457V82.7637H17.5566C16.8519 82.7639 16.1684 82.5221 15.6205 82.0788C15.0727 81.6355 14.6936 81.0174 14.5469 80.3281L12 68.3711Z" fill="#31424F"/>
<path d="M88 68.3711V88.8457C88.0003 89.1356 87.9433 89.4227 87.8325 89.6906C87.7217 89.9585 87.5591 90.2019 87.3542 90.4069C87.1492 90.6119 86.9058 90.7744 86.6379 90.8853C86.37 90.9961 86.0829 91.053 85.793 91.0527H76.459C76.1692 91.0527 75.8823 90.9956 75.6147 90.8847C75.347 90.7738 75.1039 90.6112 74.8991 90.4062C74.6943 90.2012 74.5319 89.9579 74.4212 89.6901C74.3105 89.4224 74.2537 89.1354 74.2539 88.8457V82.7637H82.4434C83.1481 82.7639 83.8316 82.5221 84.3795 82.0788C84.9273 81.6355 85.3064 81.0174 85.4531 80.3281L88 68.3711Z" fill="#31424F"/>
<path d="M23.541 91.6387H14.207C13.4664 91.6382 12.7563 91.3437 12.2327 90.8201C11.709 90.2964 11.4146 89.5863 11.4141 88.8457V62.8105L15.125 80.2051C15.2456 80.7621 15.5527 81.2613 15.9956 81.62C16.4385 81.9788 16.9906 82.1755 17.5605 82.1777H26.3379V88.8457C26.3369 89.5868 26.0417 90.2972 25.5173 90.8209C24.9929 91.3445 24.2821 91.6387 23.541 91.6387ZM12.5859 73.9316V88.8457C12.5865 89.2755 12.7574 89.6875 13.0613 89.9914C13.3652 90.2953 13.7772 90.4663 14.207 90.4668H23.541C23.9708 90.4663 24.3828 90.2953 24.6867 89.9914C24.9906 89.6875 25.1616 89.2755 25.1621 88.8457V83.3496H17.5566C16.7185 83.3464 15.9066 83.0571 15.2553 82.5297C14.6039 82.0023 14.1521 81.2683 13.9746 80.4492L12.5859 73.9316Z" fill="#31424F"/>
<path d="M85.793 91.6387H76.459C75.7186 91.6376 75.0088 91.3431 74.4852 90.8195C73.9616 90.2959 73.667 89.5861 73.666 88.8457V82.1777H82.4434C83.0133 82.1755 83.5654 81.9788 84.0083 81.62C84.4512 81.2613 84.7583 80.7621 84.8789 80.2051L88.5898 62.8105V88.8457C88.5896 89.2127 88.517 89.5761 88.3763 89.9151C88.2356 90.2541 88.0296 90.5621 87.7698 90.8214C87.5101 91.0808 87.2019 91.2864 86.8627 91.4267C86.5235 91.5669 86.16 91.6389 85.793 91.6387ZM74.8379 83.3496V88.8457C74.8384 89.2755 75.0094 89.6875 75.3133 89.9914C75.6172 90.2953 76.0292 90.4663 76.459 90.4668H85.793C86.2227 90.4663 86.6348 90.2953 86.9387 89.9914C87.2426 89.6875 87.4135 89.2755 87.4141 88.8457V73.9316L86.0254 80.4492C85.8479 81.2683 85.3961 82.0023 84.7447 82.5297C84.0934 83.0571 83.2815 83.3464 82.4434 83.3496H74.8379Z" fill="#31424F"/>
<path d="M81.8672 51.8555L85.1191 46.957C85.2988 46.6875 85.5421 46.4665 85.8276 46.3135C86.1131 46.1605 86.432 46.0803 86.7559 46.0801H91.0039C91.2622 46.0798 91.5179 46.1305 91.7566 46.2293C91.9952 46.3281 92.212 46.473 92.3945 46.6557C92.5771 46.8384 92.7217 47.0553 92.8203 47.2941C92.9188 47.5328 92.9693 47.7886 92.9687 48.0469V49.8926C92.969 50.1507 92.9184 50.4063 92.8197 50.6448C92.7211 50.8833 92.5763 51.1 92.3938 51.2825C92.2113 51.465 91.9946 51.6097 91.7561 51.7084C91.5176 51.807 91.262 51.8577 91.0039 51.8574L81.8672 51.8555Z" fill="#DEE1EC"/>
<path d="M18.1328 51.8555L14.8809 46.957C14.7012 46.6875 14.4579 46.4665 14.1724 46.3135C13.8869 46.1605 13.568 46.0803 13.2441 46.0801H8.9961C8.73783 46.0798 8.48206 46.1305 8.24343 46.2293C8.0048 46.3281 7.78801 46.473 7.60548 46.6557C7.42295 46.8384 7.27827 47.0553 7.17973 47.2941C7.0812 47.5328 7.03074 47.7886 7.03125 48.0469V49.8926C7.03125 50.1505 7.08209 50.4059 7.18086 50.6442C7.27962 50.8825 7.42438 51.0989 7.60686 51.2812C7.78934 51.4635 8.00596 51.6081 8.24433 51.7066C8.48271 51.8051 8.73816 51.8557 8.9961 51.8555H18.1328Z" fill="#DEE1EC"/>
<path d="M91.0039 52.4414H80.7734L84.6328 46.6328C84.8647 46.2821 85.1801 45.9944 85.5507 45.7957C85.9212 45.5969 86.3354 45.4933 86.7559 45.4941H91.0039C91.6804 45.4952 92.3289 45.7645 92.8071 46.2431C93.2853 46.7216 93.5542 47.3704 93.5547 48.0469V49.8926C93.5537 50.5686 93.2845 51.2166 92.8063 51.6944C92.3281 52.1723 91.6799 52.4409 91.0039 52.4414ZM82.959 51.2695H91.0039C91.3695 51.269 91.7199 51.1236 91.9784 50.8651C92.2369 50.6066 92.3823 50.2562 92.3828 49.8906V48.0469C92.3823 47.6813 92.2369 47.3309 91.9784 47.0724C91.7199 46.8139 91.3695 46.6685 91.0039 46.668H86.7559C86.5284 46.6669 86.3042 46.7226 86.1036 46.83C85.9031 46.9374 85.7325 47.0932 85.6074 47.2832L82.959 51.2695Z" fill="#31424F"/>
<path d="M19.2266 52.4414H8.99609C8.31974 52.4409 7.67124 52.172 7.19299 51.6937C6.71474 51.2155 6.44583 50.567 6.44531 49.8906V48.0469C6.44635 47.3707 6.71542 46.7225 7.19356 46.2443C7.6717 45.7662 8.3199 45.4971 8.99609 45.4961H13.2441C13.6646 45.4953 14.0788 45.5989 14.4493 45.7976C14.8199 45.9964 15.1353 46.284 15.3672 46.6348L19.2266 52.4414ZM8.99609 46.666C8.63021 46.6665 8.27948 46.8122 8.02094 47.0712C7.7624 47.3301 7.61719 47.681 7.61719 48.0469V49.8926C7.6177 50.2581 7.76315 50.6086 8.02163 50.867C8.28011 51.1255 8.63054 51.271 8.99609 51.2715H17.041L14.3926 47.2813C14.2675 47.0913 14.0969 46.9355 13.8964 46.828C13.6958 46.7206 13.4716 46.6649 13.2441 46.666H8.99609Z" fill="#31424F"/>
<path d="M12 61.293L31.6055 67.3086H68.3945L88 61.293V60.707L81.8672 51.8594H18.1328L12 60.7773V61.293Z" fill="#DEE1EC"/>
<path d="M82.4434 83.3496H17.5566C16.7185 83.3464 15.9066 83.0571 15.2553 82.5297C14.6039 82.0023 14.1521 81.2683 13.9746 80.4492L11.4141 68.4336V60.5918L17.8262 51.2695H82.1738L88.5859 60.5195V68.4336C88.5664 68.5312 86.0469 80.3301 86.0254 80.4492C85.8479 81.2683 85.3961 82.0023 84.7447 82.5297C84.0934 83.0571 83.2815 83.3464 82.4434 83.3496ZM12.5859 68.3105L15.125 80.207C15.2456 80.7641 15.5527 81.2633 15.9956 81.622C16.4385 81.9807 16.9906 82.1775 17.5605 82.1797H82.4434C83.0133 82.1775 83.5654 81.9807 84.0083 81.622C84.4512 81.2633 84.7583 80.7641 84.8789 80.207L87.418 68.3105V60.8887L81.5586 52.4434H18.4414L12.582 60.957L12.5859 68.3105Z" fill="#31424F"/>
<path d="M68.4824 67.8945H31.5176L11.4141 61.7188V60.584L17.8262 51.2695H82.1738L88.5859 60.5195V61.7188L68.4824 67.8945ZM31.6934 66.7227H68.3066L87.4004 60.8633L81.5605 52.4395H18.4414L12.6387 60.877L31.6934 66.7227Z" fill="#31424F"/>
<path d="M55.1367 70.9199H45.5254C44.5643 70.9199 43.7852 71.6991 43.7852 72.6602V72.9199C43.7852 73.881 44.5643 74.6602 45.5254 74.6602H55.1367C56.0978 74.6602 56.877 73.881 56.877 72.9199V72.6602C56.877 71.6991 56.0978 70.9199 55.1367 70.9199Z" fill="#DEE1EC"/>
<path style="mix-blend-mode:multiply" d="M64.9473 33.6621C63.2937 36.8269 60.8097 39.4817 57.7617 41.3418L50.1719 45.9824L50.0137 45.9062L49.8418 45.9902L42.2383 41.3418C39.1984 39.4724 36.7172 36.8199 35.0547 33.6621C45.006 32.9453 54.996 32.9453 64.9473 33.6621Z" fill="url(#paint1_linear_56_17)"/>
<path d="M7.03125 90.4668H92.9688V91.6387H7.03125V90.4668Z" fill="#31424F"/>
<path d="M79.2546 32.3171L82.0647 29.5071L82.8932 30.3356L80.0832 33.1457L79.2546 32.3171Z" fill="#31424F"/>
<path d="M75.8184 26.6758H76.9902V30.6504H75.8184V26.6758Z" fill="#31424F"/>
<path d="M81.873 35.1855H85.8477V36.3574H81.873V35.1855Z" fill="#31424F"/>
<path d="M13.0547 37.3554C12.7886 37.0746 12.5961 36.7324 12.4945 36.3591C12.3928 35.9858 12.3851 35.5932 12.4721 35.2163C12.5591 34.8393 12.7381 34.4898 12.993 34.1988C13.2479 33.9078 13.5709 33.6845 13.9331 33.5487C14.2954 33.4129 14.6856 33.3689 15.069 33.4205C15.4524 33.4722 15.817 33.618 16.1303 33.8449C16.4437 34.0717 16.696 34.3726 16.8648 34.7207C17.0336 35.0688 17.1136 35.4533 17.0976 35.8398C17.0786 36.3001 16.9244 36.7446 16.6543 37.1178C16.3841 37.4909 16.0099 37.7762 15.5786 37.9379C15.1472 38.0996 14.6777 38.1306 14.2288 38.027C13.7799 37.9234 13.3715 37.6898 13.0547 37.3554ZM13.9121 36.5547C14.0696 36.7255 14.2744 36.8456 14.5004 36.8997C14.7263 36.9538 14.9633 36.9396 15.1811 36.8587C15.399 36.7779 15.5879 36.6341 15.7238 36.4457C15.8598 36.2572 15.9366 36.0326 15.9446 35.8004C15.9526 35.5681 15.8914 35.3388 15.7687 35.1414C15.646 34.9441 15.4675 34.7877 15.2557 34.692C15.0439 34.5964 14.8085 34.5659 14.5793 34.6044C14.3502 34.6429 14.1376 34.7486 13.9687 34.9082C13.7445 35.12 13.6128 35.4116 13.6022 35.7198C13.5916 36.028 13.703 36.328 13.9121 36.5547Z" fill="#31424F"/>
<path d="M26.8457 29.2285C26.4869 29.2283 26.1364 29.1209 25.8391 28.9201C25.5417 28.7194 25.3111 28.4344 25.1769 28.1016C25.0426 27.7689 25.0108 27.4037 25.0855 27.0528C25.1602 26.7019 25.338 26.3813 25.5961 26.1321C25.8543 25.8829 26.181 25.7165 26.5343 25.6543C26.8876 25.592 27.2515 25.6367 27.5793 25.7826C27.907 25.9286 28.1837 26.1691 28.3739 26.4733C28.564 26.7776 28.6589 27.1317 28.6465 27.4902C28.6303 27.9569 28.4334 28.3991 28.0975 28.7234C27.7615 29.0477 27.3127 29.2288 26.8457 29.2285ZM26.8457 26.7988C26.7233 26.7994 26.6038 26.8355 26.5016 26.9028C26.3994 26.9701 26.3189 27.0656 26.2701 27.1778C26.2212 27.29 26.2061 27.414 26.2264 27.5347C26.2468 27.6553 26.3018 27.7675 26.3848 27.8574C26.456 27.9335 26.545 27.9908 26.6438 28.0239C26.7426 28.0571 26.8482 28.0652 26.9509 28.0475C27.0536 28.0298 27.1503 27.9868 27.2323 27.9225C27.3143 27.8581 27.379 27.7744 27.4206 27.6788C27.4622 27.5832 27.4794 27.4788 27.4707 27.375C27.4619 27.2711 27.4275 27.171 27.3705 27.0838C27.3135 26.9965 27.2357 26.9248 27.1441 26.875C27.0525 26.8253 26.95 26.7991 26.8457 26.7988Z" fill="#31424F"/>
<path d="M8.46487 77.4707H7.29299V76.2988H8.46487V77.4707ZM8.46487 74.3457H7.29299V73.1738H8.46487V74.3457ZM8.46487 71.2207H7.29299V70.0488H8.46487V71.2207ZM8.46487 68.0957H7.29299V66.9238H8.46487V68.0957ZM8.46487 64.9707H7.29299V63.7988H8.46487V64.9707ZM8.46487 61.8457H7.29299C7.29045 61.4253 7.32114 61.0054 7.38479 60.5898L8.54299 60.7676C8.4881 61.1243 8.46197 61.4848 8.46487 61.8457ZM9.0508 59.0508L7.98245 58.5703C8.156 58.1853 8.36044 57.8149 8.59377 57.4629L9.57034 58.1094C9.37225 58.4091 9.19789 58.7239 9.04885 59.0508H9.0508ZM10.7422 56.6133L9.82424 55.8789L10.5586 54.9648L11.4707 55.7012L10.7422 56.6133Z" fill="#A9AFC4"/>
<path d="M82.6465 52.4414H17.3535L22.0254 36.2754C22.201 35.6592 22.5589 35.1105 23.0522 34.7016C23.5455 34.2927 24.151 34.0426 24.7891 33.9844C35.3926 32.9902 49.4141 31.5644 69.5 33.4492L75.2109 33.9844C75.8488 34.0425 76.4541 34.2923 76.9473 34.7008C77.4406 35.1093 77.7987 35.6576 77.9746 36.2734L82.6465 52.4414ZM18.9121 51.2695H81.0879L76.8496 36.6015C76.7378 36.2106 76.5099 35.8628 76.196 35.6043C75.882 35.3459 75.497 35.1889 75.0918 35.1543C65.3984 34.2441 51.0078 32.7031 30.5996 34.6191L24.8984 35.1562C24.4933 35.1909 24.1082 35.3478 23.7943 35.6063C23.4803 35.8647 23.2524 36.2125 23.1406 36.6035L18.9121 51.2695Z" fill="#31424F"/>
<path d="M64.0137 24.4141V11.4023H59.4219C56.1273 11.3701 52.8914 10.5269 50 8.94727C47.1187 10.5521 43.8762 11.397 40.5781 11.4023H35.9863V24.4141C36.0012 27.255 36.7377 30.0456 38.1268 32.5239C39.516 35.0021 41.512 37.0868 43.9277 38.582L50 42.293L56.0723 38.582C58.4946 37.094 60.4959 35.0109 61.8859 32.5311C63.2759 30.0512 64.0084 27.2569 64.0137 24.4141Z" fill="#F5F5F5"/>
<path d="M45.9121 35.332C44.0484 34.182 42.5084 32.5761 41.4375 30.6658C40.3665 28.7556 39.7999 26.604 39.791 24.4141V15.2051H40.5723C43.8208 15.2018 47.0325 14.5172 50 13.1953C52.9717 14.4914 56.1742 15.1749 59.416 15.2051H60.1973V24.4141C60.1913 26.6053 59.6257 28.7588 58.5541 30.6702C57.4825 32.5816 55.9405 34.1876 54.0742 35.3359L50 37.832L45.9121 35.332Z" fill="url(#paint2_linear_56_17)"/>
<path d="M48.1797 29.4688L43.5977 24.8867L45.3203 23.166L48.1797 26.0273L54.6797 19.5273L56.4023 21.248L48.1797 29.4688Z" fill="#C44E47"/>
<path d="M49.9668 42.998C49.5488 42.6836 50.3574 43.1934 43.623 39.0781C41.1183 37.5342 39.0486 35.3769 37.6098 32.8103C36.171 30.2437 35.4106 27.3525 35.4004 24.4102V10.8164H40.5781C44.0293 10.8164 47.0684 9.91406 49.998 8.27734C52.8749 9.91535 56.1232 10.7895 59.4336 10.8164H64.5996V24.4141C64.5915 27.3568 63.8319 30.2488 62.3929 32.8157C60.9539 35.3827 58.8831 37.5396 56.377 39.082C49.4883 43.2949 50.4473 42.6914 50.0332 43.0019L50 42.9824L49.9668 42.998ZM50 41.5586L50.0332 41.584L55.7656 38.0859C57.0275 37.3114 58.1764 36.3663 59.1797 35.2773C61.8945 32.3088 63.4086 28.4368 63.4277 24.4141V11.9883H59.4219C56.1372 11.9577 52.9072 11.1442 50 9.61523C47.1023 11.1689 43.8661 11.984 40.5781 11.9883H36.5723V24.4141C36.5809 27.1565 37.2891 29.8515 38.6299 32.2439C39.9706 34.6363 41.8996 36.6471 44.2344 38.0859C50.4082 41.8535 49.9473 41.6016 50 41.5586Z" fill="#31424F"/>
<defs>
<linearGradient id="paint0_linear_56_17" x1="50" y1="69.7617" x2="50" y2="91.9414" gradientUnits="userSpaceOnUse">
<stop stop-color="#CACFDD"/>
<stop offset="1" stop-color="#EEF0F1"/>
</linearGradient>
<linearGradient id="paint1_linear_56_17" x1="50" y1="28.5098" x2="50" y2="56.4141" gradientUnits="userSpaceOnUse">
<stop stop-color="#CACFDD"/>
<stop offset="1" stop-color="#EEF0F1"/>
</linearGradient>
<linearGradient id="paint2_linear_56_17" x1="50" y1="13.0352" x2="50" y2="51.6445" gradientUnits="userSpaceOnUse">
<stop stop-color="#CACFDD"/>
<stop offset="1" stop-color="#EEF0F1"/>
</linearGradient>
</defs>
</svg>
