<svg width="100" height="100" viewBox="0 0 100 100" fill="none" xmlns="http://www.w3.org/2000/svg">
<path d="M74.045 73.8516L71.0235 57.0977C70.7369 55.0941 69.9473 53.1959 68.7286 51.5801C67.3951 49.8128 65.5972 48.4504 63.5352 47.6445L50.1153 42.1523H34.3106L20.8985 47.6445C18.9248 48.4157 17.1915 49.6973 15.8758 51.3583C14.56 53.0192 13.7092 54.9999 13.4102 57.0977L10.3809 73.8516C10.1793 75.2617 10.3772 76.7 10.952 78.0033C11.5269 79.3066 12.4556 80.4226 13.6329 81.2246L21.3848 87.2695H61.9317L70.795 81.2246C71.9718 80.4224 72.9002 79.3063 73.4747 78.003C74.0492 76.6997 74.2467 75.2615 74.045 73.8516Z" fill="#DEE1EC"/>
<path d="M70.795 81.2227L61.9317 87.2676H21.3848L13.6329 81.2227C12.456 80.4208 11.5274 79.3051 10.9526 78.0022C10.3778 76.6993 10.1797 75.2614 10.3809 73.8516L13.4043 57.0977C13.7034 54.9991 14.555 53.0178 15.8719 51.3567C17.1888 49.6957 18.9235 48.4145 20.8985 47.6445L34.3184 42.1523H50.1172L63.5352 47.6445C65.5084 48.4164 67.2413 49.6982 68.5569 51.359C69.8726 53.0199 70.7237 55.0002 71.0235 57.0977L74.0469 73.8516C74.2481 75.2614 74.05 76.6993 73.4752 78.0022C72.9004 79.3051 71.9719 80.4208 70.795 81.2227Z" fill="#DEE1EC"/>
<path d="M35.1328 42.1523L42.2129 47.4238L49.5039 42.1523H35.1328Z" fill="url(#paint0_linear_56_400)"/>
<path d="M42.2148 42.1523C39.1586 42.1523 36.2276 40.9383 34.0665 38.7772C31.9055 36.6161 30.6914 33.6851 30.6914 30.6289V24.8457C30.6914 21.7895 31.9055 18.8585 34.0665 16.6974C36.2276 14.5363 39.1586 13.3223 42.2148 13.3223C45.271 13.3223 48.2021 14.5363 50.3631 16.6974C52.5242 18.8585 53.7383 21.7895 53.7383 24.8457V30.6289C53.7383 33.6851 52.5242 36.6161 50.3631 38.7772C48.2021 40.9383 45.271 42.1523 42.2148 42.1523Z" fill="#F5F5F5"/>
<path d="M34.3105 42.1523H35.1328L42.2129 47.4238L35.4063 51.8262L31.4473 43.2715L34.3105 42.1523Z" fill="#C44E47"/>
<path d="M50.1152 42.1523H49.5039L42.2129 47.4238L49.0195 51.8262L52.9805 43.2715L50.1152 42.1523Z" fill="#C44E47"/>
<path d="M62.1094 87.8555H21.1836L13.2813 81.6973C12.011 80.8348 11.0102 79.6311 10.3941 78.2247C9.77796 76.8183 9.57163 75.2665 9.79885 73.748L12.8203 57.0039C13.136 54.8056 14.0293 52.7303 15.409 50.99C16.7887 49.2496 18.6055 47.9065 20.6739 47.0977L34.1895 41.5664H50.2246L63.75 47.1016C65.8161 47.9117 67.6306 49.2549 69.0087 50.9943C70.3869 52.7338 71.2795 54.8073 71.5957 57.0039L74.6192 73.7676C74.8426 75.2863 74.6327 76.8372 74.0135 78.2418C73.3943 79.6464 72.391 80.8475 71.1192 81.707L62.1094 87.8555ZM21.584 86.6836H61.75L70.4649 80.7402C71.5529 80.0039 72.4116 78.976 72.9425 77.7743C73.4734 76.5725 73.6551 75.2455 73.4668 73.9453L70.4434 57.1797C70.1574 55.1857 69.3473 53.3034 68.0959 51.725C66.8445 50.1465 65.1965 48.9285 63.3203 48.1953L50 42.7383H34.4258L21.1153 48.1855C19.2325 48.9193 17.5792 50.1413 16.3252 51.7258C15.0713 53.3103 14.262 55.2002 13.9805 57.2012L10.961 73.9453C10.7717 75.2456 10.953 76.5729 11.484 77.7748C12.015 78.9767 12.8742 80.0046 13.9629 80.7402L21.584 86.6836Z" fill="#31424F"/>
<path d="M35.1563 52.6836L30.6504 42.9531L34.1992 41.5664H35.3242L43.2402 47.4609L35.1563 52.6836ZM32.2383 43.5918L35.6543 50.9766L41.1875 47.3984L34.9375 42.748H34.4219L32.2383 43.5918Z" fill="#31424F"/>
<path d="M49.2676 52.6836L41.1758 47.4609L49.3145 41.5762H50.2266L53.7734 42.9629L49.2676 52.6836ZM43.25 47.3965L48.7715 50.9766L52.1875 43.6016L50 42.7383H49.6875L43.25 47.3965Z" fill="#31424F"/>
<path d="M42.2148 42.7383C39.0043 42.7347 35.9264 41.4577 33.6562 39.1875C31.3861 36.9174 30.1091 33.8394 30.1055 30.6289V24.8457C30.1055 21.6341 31.3813 18.554 33.6522 16.2831C35.9232 14.0121 39.0032 12.7363 42.2148 12.7363C45.4264 12.7363 48.5065 14.0121 50.7775 16.2831C53.0484 18.554 54.3242 21.6341 54.3242 24.8457V30.6289C54.3206 33.8394 53.0436 36.9174 50.7735 39.1875C48.5033 41.4577 45.4253 42.7347 42.2148 42.7383ZM42.2148 13.9082C39.3151 13.9118 36.5353 15.0653 34.4849 17.1157C32.4345 19.1661 31.281 21.946 31.2773 24.8457V30.6289C31.2773 33.5297 32.4297 36.3117 34.4809 38.3629C36.532 40.4141 39.314 41.5664 42.2148 41.5664C45.1156 41.5664 47.8976 40.4141 49.9488 38.3629C52 36.3117 53.1523 33.5297 53.1523 30.6289V24.8457C53.1492 21.9458 51.9959 19.1657 49.9454 17.1151C47.8949 15.0646 45.1147 13.9113 42.2148 13.9082Z" fill="#31424F"/>
<path d="M56.2383 27.2793V28.9063C56.2384 29.2276 56.1751 29.5459 56.0521 29.8428C55.9291 30.1398 55.7488 30.4095 55.5215 30.6367L54.7402 31.418C54.4528 31.704 54.0993 31.9147 53.7109 32.0313C53.7461 31.4727 53.7344 31.5762 53.7344 24.832C54.0604 24.8247 54.3846 24.8827 54.688 25.0024C54.9914 25.1221 55.2678 25.3011 55.501 25.5291C55.7342 25.757 55.9196 26.0293 56.0462 26.3298C56.1728 26.6304 56.2381 26.9532 56.2383 27.2793Z" fill="#F5F5F5"/>
<path d="M30.7129 32.0312C30.3337 31.9134 29.9886 31.7057 29.707 31.4257L28.9258 30.6445C28.6981 30.4176 28.5176 30.1478 28.3945 29.8509C28.2715 29.5539 28.2085 29.2355 28.209 28.914V27.291C28.2087 26.9665 28.2729 26.6453 28.3978 26.3458C28.5227 26.0464 28.7059 25.7748 28.9367 25.5467C29.1674 25.3187 29.4412 25.1387 29.7421 25.0174C30.043 24.896 30.365 24.8357 30.6895 24.8398C30.6895 31.8496 30.6797 31.5136 30.7129 32.0312Z" fill="#F5F5F5"/>
<path d="M53.0781 32.8281C53.1797 31.2559 53.1543 32.6328 53.1543 24.2344H53.7871C54.5923 24.2354 55.3642 24.5557 55.9335 25.1251C56.5029 25.6944 56.8232 26.4663 56.8242 27.2715V28.9062C56.8231 29.712 56.5029 30.4845 55.9336 31.0547C54.623 32.3613 54.7637 32.3262 53.0781 32.8281ZM54.3262 25.4922C54.3262 31.1953 54.3066 31.0137 54.3262 31L55.1074 30.2188C55.457 29.8698 55.6537 29.3963 55.6543 28.9023V27.2793C55.6536 26.8784 55.5241 26.4884 55.285 26.1667C55.0459 25.845 54.7098 25.6085 54.3262 25.4922Z" fill="#31424F"/>
<path d="M31.3516 32.8281C29.6875 32.3223 29.832 32.3711 28.5117 31.0469C28.2298 30.7647 28.0061 30.4297 27.8537 30.0611C27.7012 29.6924 27.6228 29.2974 27.623 28.8984V27.2754C27.6246 26.4701 27.9457 25.6983 28.5159 25.1295C29.0861 24.5608 29.8587 24.2417 30.6641 24.2422H31.2813C31.2754 32.6797 31.25 31.25 31.3516 32.8281ZM30.1035 25.498C29.7242 25.617 29.3927 25.8539 29.1573 26.1742C28.922 26.4946 28.795 26.8818 28.7949 27.2793V28.9062C28.7954 29.3989 28.9906 29.8713 29.3379 30.2207L30.1035 30.9883V25.498Z" fill="#31424F"/>
<path d="M49.5234 19.8828C47.2944 18.3965 44.6752 17.6034 41.9961 17.6034C39.317 17.6034 36.6978 18.3965 34.4687 19.8828L29.4121 23.252V23.6758C29.4121 26.959 33.123 28.8711 35.791 27.0117L36.6309 26.4258C38.2064 25.3324 40.0783 24.7465 41.9961 24.7465C43.9138 24.7465 45.7858 25.3324 47.3613 26.4258L48.2012 27.0117C50.877 28.8711 54.5801 26.959 54.5801 23.6758V23.252L49.5234 19.8828Z" fill="#C44E47"/>
<path d="M54.5664 18.5723C54.4498 16.306 53.4673 14.171 51.822 12.6081C50.1766 11.0452 47.9939 10.1738 45.7246 10.1738H38.2656C33.5371 10.1738 29.4121 14.3105 29.4121 19.0273V23.2539L34.4688 19.8828C36.698 18.397 39.3171 17.6042 41.9961 17.6042C44.6751 17.6042 47.2942 18.397 49.5234 19.8828L54.5781 23.2539C54.5781 18.7363 54.584 18.8965 54.5664 18.5723Z" fill="#DEE1EC"/>
<path d="M50.5137 28.3204C49.5677 28.3223 48.644 28.034 47.8672 27.4942L47.0273 26.9083C45.5502 25.8821 43.7947 25.3321 41.9961 25.3321C40.1975 25.3321 38.442 25.8821 36.9648 26.9083L36.125 27.4942C35.4278 27.9781 34.6113 28.2619 33.7643 28.3148C32.9172 28.3677 32.0719 28.1876 31.3198 27.7942C30.5678 27.4008 29.9379 26.809 29.4983 26.083C29.0587 25.357 28.8263 24.5245 28.8262 23.6758V22.9415L34.1426 19.3946C36.4682 17.8439 39.2009 17.0164 41.9961 17.0164C44.7913 17.0164 47.524 17.8439 49.8496 19.3946L55.166 22.9395V23.6739C55.1665 24.2847 55.0465 24.8896 54.8128 25.454C54.5791 26.0183 54.2364 26.531 53.8042 26.9627C53.372 27.3943 52.8589 27.7364 52.2942 27.9694C51.7296 28.2024 51.1245 28.3217 50.5137 28.3204ZM47.6953 25.9473L48.5352 26.5333C49.0643 26.9001 49.6848 27.1129 50.3277 27.148C50.9706 27.1831 51.6106 27.039 52.1765 26.7319C52.7424 26.4248 53.2119 25.9666 53.5328 25.4084C53.8538 24.8502 54.0134 24.2139 53.9941 23.5704L49.1992 20.3692C47.0662 18.947 44.5598 18.188 41.9961 18.188C39.4324 18.188 36.926 18.947 34.793 20.3692L29.998 23.5665C29.998 26.6094 33.2344 28.0743 35.457 26.5294L36.2969 25.9434C37.9702 24.781 39.9592 24.1583 41.9967 24.159C44.0342 24.1597 46.0227 24.7837 47.6953 25.9473Z" fill="#31424F"/>
<path d="M55.1641 24.3496L49.1973 20.3711C47.0646 18.9488 44.5586 18.1898 41.9951 18.1898C39.4317 18.1898 36.9256 18.9488 34.793 20.3711L28.8262 24.3496V19.0273C28.8262 14 33.2383 9.5879 38.2656 9.5879H45.7246C48.1451 9.58533 50.4739 10.5136 52.2288 12.1806C53.9838 13.8476 55.0305 16.1256 55.1523 18.543C55.1523 19.0742 55.1641 16.6387 55.1641 24.3496ZM49.8477 19.3965L53.9922 22.1582C53.9922 18.8223 53.9922 18.9023 53.9824 18.6016C53.8752 16.4845 52.9581 14.4898 51.421 13.0301C49.8838 11.5704 47.8444 10.7576 45.7246 10.7598H38.2656C33.8613 10.7598 29.998 14.6231 29.998 19.0273V22.1523L34.1445 19.3906C36.4702 17.8414 39.2025 17.0152 41.997 17.0162C44.7915 17.0173 47.5231 17.8455 49.8477 19.3965Z" fill="#31424F"/>
<path d="M90.1405 13.2231H68.5372C67.1999 13.2231 66.1157 14.6713 66.1157 16.4577V33.9555C66.1157 35.7419 67.1999 37.1901 68.5372 37.1901H90.1405C91.4779 37.1901 92.562 35.7419 92.562 33.9555V16.4577C92.562 14.6713 91.4779 13.2231 90.1405 13.2231Z" fill="#F5F5F5"/>
<path d="M90.3404 38.0166H68.3392C67.5325 38.0159 66.7588 37.5943 66.1872 36.8438C65.6157 36.0934 65.2928 35.0752 65.2892 34.0119V16.4141C65.2903 15.3486 65.612 14.3272 66.1838 13.574C66.7556 12.8208 67.5308 12.3974 68.3392 12.3967H90.3404C91.1485 12.3981 91.9231 12.8218 92.4945 13.5749C93.0659 14.328 93.3874 15.3491 93.3884 16.4141V34.0119C93.3848 35.0748 93.0622 36.0926 92.4911 36.8429C91.92 37.5933 91.1468 38.0152 90.3404 38.0166ZM68.3392 13.9301C67.8393 13.9308 67.3601 14.1926 67.0064 14.6582C66.6528 15.1239 66.4536 15.7553 66.4526 16.4141V34.0119C66.4536 34.6708 66.6528 35.3022 67.0064 35.7678C67.3601 36.2335 67.8393 36.4953 68.3392 36.496H90.3404C90.8401 36.4953 91.3192 36.2334 91.6725 35.7677C92.0258 35.302 92.2245 34.6705 92.2251 34.0119V16.4141C92.2245 15.7555 92.0258 15.1241 91.6725 14.6584C91.3192 14.1927 90.8401 13.9308 90.3404 13.9301H68.3392Z" fill="#31424F"/>
<path d="M75.0918 59.8379H73.9199V58.666H75.0918V59.8379ZM77.2402 59.3555L76.7305 58.2988C77.0346 58.1518 77.3172 57.9639 77.5703 57.7402L78.3516 58.6191C78.0148 58.9148 77.6389 59.1626 77.2344 59.3555H77.2402ZM79.6191 56.8359L78.5371 56.3867C78.6667 56.0746 78.7521 55.7459 78.791 55.4102L79.9629 55.5488C79.9076 55.9916 79.792 56.4246 79.6191 56.8359ZM79.9883 53.5156H78.8164V52.3438H79.9883V53.5156ZM79.9883 50.3906H78.8164V49.2188H79.9883V50.3906ZM79.9883 47.2656H78.8164V46.0938H79.9883V47.2656ZM79.9883 44.1406H78.8164V42.9688H79.9883V44.1406ZM79.9883 41.0156H78.8164V40.6055H79.9883V41.0156Z" fill="#A9AFC4"/>
<path d="M68.6387 59.8379H67.4668V58.666H68.6387V59.8379ZM65.5137 59.8379H64.3418V58.666H65.5137V59.8379Z" fill="#A9AFC4"/>
<path style="mix-blend-mode:multiply" d="M63.1387 50.9824V86.4453L61.9316 87.2676H21.3848L20.9199 86.9043V50.9824H63.1387Z" fill="url(#paint1_linear_56_400)"/>
<path d="M24.2969 54.3574H59.7617V87.2676H24.2969V54.3574Z" fill="url(#paint2_linear_56_400)"/>
<path d="M60.3516 87.8555H23.7109V53.7715H60.3516V87.8555ZM24.8867 86.6836H59.1797V54.9434H24.8828L24.8867 86.6836Z" fill="#31424F"/>
<path d="M26.4453 79.3652L29.7227 81.6406C29.9965 81.8326 30.1905 82.1183 30.2678 82.4437C30.3452 82.769 30.3007 83.1115 30.1426 83.4062C29.9845 83.7009 29.7239 83.9275 29.4101 84.043C29.0962 84.1586 28.7509 84.1551 28.4395 84.0332L27.1289 83.5722C26.8416 83.4722 26.5283 83.4769 26.2441 83.5853C25.9599 83.6938 25.7231 83.8991 25.5756 84.1651C25.428 84.4311 25.3791 84.7406 25.4374 85.0392C25.4958 85.3377 25.6577 85.606 25.8945 85.7968L26.666 86.414C27.3575 86.967 28.2162 87.2686 29.1016 87.2695H32.2441C32.5745 87.2824 32.8871 87.4228 33.1163 87.6611C33.3454 87.8994 33.4735 88.2172 33.4735 88.5478C33.4735 88.8785 33.3454 89.1963 33.1163 89.4346C32.8871 89.6729 32.5745 89.8132 32.2441 89.8261H28.2773C26.0592 89.8265 23.8981 89.1228 22.1055 87.8164C21.9102 87.6777 18.7422 85.1933 18.7227 85.1933C18.7227 80.5058 22.209 78.0136 22.1895 78.0312C23.711 78.031 25.1961 78.4966 26.4453 79.3652Z" fill="#F5F5F5"/>
<path d="M32.252 90.4121H28.2773C25.9345 90.4164 23.6513 89.6734 21.7598 88.291L18.1367 85.4805V85.1934C18.1383 83.7474 18.4618 82.3199 19.0838 81.0146C19.7057 79.7092 20.6105 78.5587 21.7324 77.6465L21.9805 77.4512H22.1895C23.8314 77.4489 25.4344 77.9514 26.7812 78.8906L30.0566 81.168C30.4488 81.441 30.7272 81.8483 30.8392 82.3128C30.9513 82.7772 30.8892 83.2667 30.6647 83.6885C30.4402 84.1102 30.0689 84.4351 29.6211 84.6016C29.1732 84.7681 28.6798 84.7646 28.2344 84.5918L26.9336 84.1328C26.7768 84.0784 26.6058 84.0811 26.4507 84.1404C26.2957 84.1997 26.1665 84.3118 26.086 84.457C26.0055 84.6022 25.9788 84.7711 26.0105 84.934C26.0423 85.0969 26.1306 85.2434 26.2598 85.3477L27.041 85.9649C27.6279 86.4287 28.3536 86.6818 29.1016 86.6836H32.2441C32.7281 86.6993 33.1871 86.9025 33.5239 87.2505C33.8607 87.5984 34.049 88.0636 34.049 88.5479C34.049 89.0321 33.8607 89.4974 33.5239 89.8453C33.1871 90.1932 32.7281 90.3965 32.2441 90.4121H32.252ZM19.3125 84.9102L22.4609 87.3535C24.1486 88.5844 26.1846 89.2453 28.2734 89.2402H32.248C32.4253 89.2308 32.5922 89.1538 32.7144 89.025C32.8365 88.8961 32.9046 88.7254 32.9046 88.5479C32.9046 88.3703 32.8365 88.1996 32.7144 88.0708C32.5922 87.942 32.4253 87.8649 32.248 87.8555H29.1016C28.082 87.8564 27.0921 87.5122 26.293 86.8789L25.5215 86.2637C25.1761 85.9867 24.9397 85.5965 24.8541 85.1621C24.7686 84.7277 24.8393 84.2771 25.0539 83.8898C25.2684 83.5025 25.613 83.2035 26.0267 83.0457C26.4403 82.8879 26.8965 82.8814 27.3145 83.0274L28.6465 83.4961C28.8246 83.5665 29.0223 83.5691 29.2021 83.5033C29.382 83.4375 29.5314 83.308 29.622 83.1393C29.7126 82.9706 29.7381 82.7745 29.6937 82.5882C29.6492 82.4019 29.5379 82.2385 29.3809 82.1289L26.1035 79.8516C25.0123 79.0903 23.7226 78.664 22.3926 78.625C21.4658 79.3969 20.7124 80.3558 20.1817 81.4388C19.6509 82.5219 19.3547 83.7048 19.3125 84.9102Z" fill="#31424F"/>
<path d="M21.7031 78.3574L19.4727 75.0586L21.6191 66.1855L22.7578 66.4609L20.7324 74.8301L22.6738 77.7012L21.7031 78.3574Z" fill="#31424F"/>
<path d="M57.25 79.3652L53.9747 81.6406C53.7008 81.8326 53.5069 82.1183 53.4295 82.4437C53.3521 82.769 53.3967 83.1115 53.5547 83.4062C53.7128 83.7009 53.9734 83.9275 54.2873 84.043C54.6011 84.1586 54.9464 84.1551 55.2579 84.0332L56.5684 83.5722C56.8565 83.4672 57.1726 83.4682 57.4601 83.575C57.7475 83.6818 57.9876 83.8874 58.1373 84.155C58.2869 84.4227 58.3365 84.7349 58.277 85.0357C58.2175 85.3365 58.0528 85.6063 57.8126 85.7968L57.0313 86.414C56.3383 86.9682 55.4772 87.2699 54.5899 87.2695H51.4454C51.2733 87.2628 51.1016 87.2909 50.9407 87.3521C50.7797 87.4133 50.6328 87.5064 50.5086 87.6257C50.3845 87.7451 50.2858 87.8883 50.2183 88.0467C50.1509 88.2052 50.1161 88.3756 50.1161 88.5478C50.1161 88.72 50.1509 88.8905 50.2183 89.0489C50.2858 89.2074 50.3845 89.3506 50.5086 89.4699C50.6328 89.5893 50.7797 89.6824 50.9407 89.7436C51.1016 89.8048 51.2733 89.8329 51.4454 89.8261H55.42C57.6381 89.8262 59.7991 89.1225 61.5918 87.8164C61.6114 87.8027 64.9942 85.1933 64.9747 85.1933C64.9747 80.5058 61.4883 78.0136 61.5079 78.0312C59.9857 78.031 58.5 78.4965 57.25 79.3652Z" fill="#F5F5F5"/>
<path d="M55.42 90.4121H51.4454C51.1955 90.4202 50.9465 90.378 50.7132 90.2879C50.48 90.1979 50.2672 90.0619 50.0876 89.8879C49.908 89.714 49.7651 89.5058 49.6676 89.2756C49.57 89.0454 49.5198 88.7979 49.5198 88.5479C49.5198 88.2978 49.57 88.0504 49.6676 87.8201C49.7651 87.5899 49.908 87.3817 50.0876 87.2078C50.2672 87.0339 50.48 86.8978 50.7132 86.8078C50.9465 86.7177 51.1955 86.6755 51.4454 86.6836H54.5879C55.3422 86.6828 56.0739 86.4267 56.6641 85.957L57.4356 85.3398C57.5211 85.272 57.5897 85.1851 57.6359 85.0861C57.682 84.9871 57.7044 84.8787 57.7014 84.7695C57.6984 84.6604 57.6699 84.5534 57.6184 84.4571C57.5668 84.3608 57.4935 84.2779 57.4043 84.2148C57.3127 84.1486 57.2062 84.1058 57.0942 84.0901C56.9822 84.0745 56.8681 84.0864 56.7618 84.125L55.4688 84.584C55.0235 84.7554 54.5309 84.758 54.0839 84.5911C53.6369 84.4242 53.2664 84.0995 53.0424 83.6782C52.8184 83.2569 52.7564 82.7682 52.8681 82.3043C52.9797 81.8404 53.2573 81.4334 53.6485 81.1602L56.9239 78.8828C58.2707 77.9436 59.8737 77.4411 61.5157 77.4434H61.7188L61.9668 77.6387C63.0888 78.5509 63.9936 79.7014 64.6155 81.0067C65.2374 82.3121 65.561 83.7396 65.5625 85.1856V85.4727L61.9512 88.2813C60.0568 89.6694 57.7685 90.416 55.42 90.4121ZM51.4454 87.8555C51.3513 87.8505 51.2573 87.8647 51.1689 87.8972C51.0806 87.9298 50.9998 87.98 50.9315 88.0447C50.8632 88.1095 50.8087 88.1875 50.7716 88.274C50.7344 88.3605 50.7152 88.4537 50.7152 88.5479C50.7152 88.642 50.7344 88.7352 50.7716 88.8217C50.8087 88.9082 50.8632 88.9862 50.9315 89.051C50.9998 89.1158 51.0806 89.1659 51.1689 89.1985C51.2573 89.231 51.3513 89.2452 51.4454 89.2402H55.42C57.5144 89.2444 59.5555 88.58 61.2461 87.3438L64.3829 84.9102C64.3413 83.7036 64.0453 82.5194 63.5141 81.4353C62.983 80.3511 62.2288 79.3914 61.3008 78.6191C59.9708 78.6581 58.6811 79.0844 57.5899 79.8457L54.3145 82.1231C54.1584 82.2329 54.048 82.396 54.0039 82.5817C53.9599 82.7673 53.9853 82.9627 54.0754 83.1309C54.1655 83.2991 54.3141 83.4285 54.493 83.4947C54.672 83.5609 54.869 83.5593 55.0469 83.4902L56.379 83.0215C56.7971 82.8746 57.2538 82.8804 57.6681 83.0378C58.0824 83.1953 58.4276 83.4944 58.6426 83.882C58.8575 84.2696 58.9284 84.7207 58.8426 85.1556C58.7568 85.5904 58.5199 85.9809 58.1739 86.2578L57.4024 86.8731C56.6031 87.506 55.6133 87.8502 54.5938 87.8496L51.4454 87.8555Z" fill="#31424F"/>
<path d="M61.9922 78.3574L61.0215 77.7012L62.9629 74.8301L60.9375 66.4609L62.0762 66.1855L64.2246 75.0586L61.9922 78.3574Z" fill="#31424F"/>
<path d="M41.627 47.4238H42.7988V54.3574H41.627V47.4238Z" fill="#31424F"/>
<path d="M18.836 40.3848C18.3273 40.3849 17.8307 40.2303 17.4121 39.9414C16.9934 39.6526 16.6726 39.2432 16.4922 38.7676C15.6973 36.6914 17.8203 34.666 19.8653 35.5723C20.3915 35.8074 20.8211 36.216 21.0821 36.7299C21.3431 37.2438 21.4198 37.8317 21.2992 38.3953C21.1787 38.9589 20.8682 39.4641 20.4199 39.8262C19.9715 40.1883 19.4123 40.3855 18.836 40.3848ZM18.836 36.5254C18.5939 36.5245 18.3562 36.5891 18.1478 36.7122C17.9394 36.8353 17.7681 37.0124 17.652 37.2247C17.536 37.4371 17.4794 37.6769 17.4883 37.9188C17.4973 38.1607 17.5714 38.3956 17.7028 38.5989C17.8343 38.8021 18.0181 38.9661 18.235 39.0734C18.452 39.1808 18.6938 39.2276 18.9352 39.2089C19.1765 39.1901 19.4082 39.1066 19.606 38.967C19.8037 38.8275 19.9601 38.6371 20.0586 38.416C20.1492 38.2123 20.1878 37.9892 20.1709 37.7668C20.1539 37.5445 20.082 37.3298 19.9615 37.1421C19.8411 36.9545 19.6759 36.7997 19.4808 36.6917C19.2856 36.5837 19.0668 36.5259 18.8438 36.5235L18.836 36.5254Z" fill="#31424F"/>
<path d="M6.57229 45.0918C6.45908 44.796 6.42057 44.4768 6.4602 44.1625C6.49982 43.8483 6.61634 43.5487 6.79944 43.2902C6.98254 43.0317 7.22656 42.8224 7.50988 42.6808C7.79321 42.5392 8.10709 42.4697 8.42371 42.4784C8.74033 42.4871 9.04992 42.5737 9.32504 42.7307C9.60017 42.8876 9.83234 43.11 10.001 43.3781C10.1696 43.6462 10.2695 43.9518 10.2918 44.2677C10.3142 44.5837 10.2582 44.9003 10.1289 45.1894C9.97216 45.5356 9.7167 45.8277 9.39457 46.0292C9.07245 46.2308 8.69799 46.3327 8.31816 46.3223C7.93834 46.3118 7.57004 46.1895 7.25946 45.9706C6.94887 45.7517 6.70983 45.446 6.57229 45.0918ZM8.37307 43.6504C8.23725 43.6498 8.1038 43.6859 7.98682 43.7549C7.86984 43.824 7.77367 43.9233 7.70849 44.0424C7.6433 44.1616 7.61152 44.2962 7.61649 44.4319C7.62147 44.5676 7.66301 44.6995 7.73675 44.8135C7.81048 44.9276 7.91366 45.0196 8.03538 45.0799C8.15709 45.1402 8.29283 45.1664 8.42825 45.1559C8.56366 45.1454 8.69372 45.0985 8.80468 45.0202C8.91563 44.9419 9.00337 44.835 9.05862 44.7109C9.10962 44.5964 9.13124 44.4709 9.12154 44.3459C9.11183 44.2209 9.0711 44.1003 9.00304 43.995C8.93497 43.8897 8.84172 43.803 8.73172 43.7429C8.62172 43.6827 8.49845 43.6509 8.37307 43.6504Z" fill="#31424F"/>
<path d="M76.6118 80.4712L77.4403 79.6427L80.144 82.3464L79.3155 83.1749L76.6118 80.4712Z" fill="#31424F"/>
<path d="M79.0469 76.3223H82.8711V77.4941H79.0469V76.3223Z" fill="#31424F"/>
<path d="M73.5352 82.168H74.707V85.9922H73.5352V82.168Z" fill="#31424F"/>
<path d="M81.5372 19.0083V31.405H79.3553V19.6695L80.5454 20.7273L75.3553 21.6364V19.9009L79.9008 19.0083H81.5372Z" fill="#C44E47"/>
<defs>
<linearGradient id="paint0_linear_56_400" x1="42.3184" y1="40.3418" x2="42.3184" y2="48.6816" gradientUnits="userSpaceOnUse">
<stop stop-color="#CACFDD"/>
<stop offset="1" stop-color="#EEF0F1"/>
</linearGradient>
<linearGradient id="paint1_linear_56_400" x1="42.0293" y1="83.7539" x2="42.0293" y2="48.9434" gradientUnits="userSpaceOnUse">
<stop stop-color="#A9AFC4"/>
<stop offset="1" stop-color="#D4D8E5"/>
</linearGradient>
<linearGradient id="paint2_linear_56_400" x1="42.0293" y1="45.7187" x2="42.0293" y2="76.9453" gradientUnits="userSpaceOnUse">
<stop stop-color="#CACFDD"/>
<stop offset="1" stop-color="#EEF0F1"/>
</linearGradient>
</defs>
</svg>
