<svg width="60" height="60" viewBox="0 0 60 60" fill="none" xmlns="http://www.w3.org/2000/svg">
<path d="M50.6824 39.5497V48.1044H4.21875V43.704C4.21771 42.6735 4.59272 41.678 5.27344 40.9044L6.21094 39.838V31.8177C6.21079 30.845 6.4023 29.8818 6.77453 28.9832C7.14676 28.0845 7.69242 27.268 8.38032 26.5803C9.06823 25.8926 9.88489 25.3472 10.7837 24.9753C11.6824 24.6033 12.6457 24.4121 13.6184 24.4126H34.4461C35.4259 24.4125 36.396 24.6067 37.3001 24.9841C38.2043 25.3614 39.0247 25.9144 39.7137 26.611L49.3863 36.3927C50.2171 37.2334 50.6828 38.3678 50.6824 39.5497Z" fill="#DEE1EC"/>
<path d="M24.2156 36.7698V26.7515H13.7004L12.4031 28.6687C11.7621 29.6173 11.4193 30.7359 11.4188 31.8808V36.7698H24.2156Z" fill="#A9AFC4"/>
<path d="M26.4023 36.7698V26.7515H33.5156C34.5293 26.7515 35.5321 26.9595 36.4622 27.3627C37.3922 27.7658 38.2296 28.3555 38.9227 29.0952L44.1504 34.6874V36.771L26.4023 36.7698Z" fill="#A9AFC4"/>
<path d="M10.575 26.967L9.61641 27.9689C8.69431 28.9149 8.14962 30.1652 8.08477 31.4846V31.6978V36.7674H6.2168V31.8174C6.21687 30.6754 6.48142 29.5489 6.9897 28.5262C7.49799 27.5035 8.2362 26.6125 9.14648 25.9229L10.575 26.967Z" fill="#A9AFC4"/>
<path d="M24.5672 37.1216H11.0672V31.881C11.067 30.6671 11.4312 29.4812 12.1125 28.4767L13.5188 26.4048H24.5719L24.5672 37.1216ZM11.7703 36.4185H23.8641V27.1032H13.8867L12.6949 28.861C12.0914 29.7507 11.7693 30.8012 11.7703 31.8763V36.4185Z" fill="#31424F"/>
<path d="M44.502 37.1214H26.0508V26.3999H33.5156C34.5776 26.4022 35.6278 26.6218 36.6018 27.045C37.5758 27.4682 38.4529 28.0861 39.1793 28.8608L44.5066 34.5526L44.502 37.1214ZM26.7539 36.4183H43.7988V34.8257L38.6613 29.3366C37.9997 28.6322 37.201 28.0706 36.3142 27.6865C35.4275 27.3024 34.4715 27.1038 33.5051 27.103H26.7539V36.4183Z" fill="#31424F"/>
<path d="M8.4375 37.1216H5.86523V31.8177C5.86516 30.6218 6.14176 29.4422 6.67338 28.371C7.205 27.2998 7.97724 26.3662 8.92969 25.6431L9.14062 25.4849L11.1094 26.9204L9.87305 28.2095C9.00852 29.0941 8.49785 30.2647 8.4375 31.5001C8.4375 31.5665 8.4375 31.6333 8.4375 31.7005V37.1216ZM6.57422 36.4185H7.73438V31.7005C7.73438 31.6243 7.73438 31.5493 7.73438 31.4731C7.80061 30.066 8.3801 28.732 9.36328 27.7231L10.0441 27.013L9.15 26.3673C8.34378 27.0292 7.69438 27.8617 7.24858 28.8048C6.80277 29.7478 6.57166 30.7781 6.57188 31.8212L6.57422 36.4185Z" fill="#31424F"/>
<path d="M50.6637 39.1489H45.9375L48.2777 41.4845H50.6824L50.6637 39.1489Z" fill="#F5F5F5"/>
<path d="M51.0375 41.836H48.1324L45.0856 38.7974H51.0117L51.0375 41.836ZM48.4231 41.1329H50.3285L50.3156 39.5005H46.7871L48.4231 41.1329Z" fill="#31424F"/>
<path style="mix-blend-mode:multiply" d="M34.384 24.4111C33.2577 25.7515 31.8518 26.8291 30.2649 27.5685C28.6779 28.3078 26.9484 28.6909 25.1977 28.6909C23.447 28.6909 21.7174 28.3078 20.1305 27.5685C18.5435 26.8291 17.1376 25.7515 16.0114 24.4111H34.384Z" fill="url(#paint0_linear_59_2240)"/>
<path d="M4.21875 53.0542H55.2352V53.7573H4.21875V53.0542Z" fill="#31424F"/>
<path style="mix-blend-mode:multiply" d="M50.1844 48.1009H35.7609C35.7609 46.1882 36.5207 44.3539 37.8732 43.0014C39.2256 41.649 41.06 40.8892 42.9726 40.8892C44.8853 40.8892 46.7196 41.649 48.0721 43.0014C49.4246 44.3539 50.1844 46.1882 50.1844 48.1009Z" fill="url(#paint1_linear_59_2240)"/>
<path style="mix-blend-mode:multiply" d="M19.3594 48.1004H4.93475C4.95893 46.2035 5.72944 44.3925 7.07938 43.0597C8.42932 41.7269 10.25 40.9795 12.1471 40.9795C14.0441 40.9795 15.8648 41.7269 17.2147 43.0597C18.5647 44.3925 19.3352 46.2035 19.3594 48.1004Z" fill="url(#paint2_linear_59_2240)"/>
<path d="M51.034 48.4521H3.86719V43.7037C3.86663 42.5868 4.27422 41.5083 5.01328 40.6709L5.86523 39.7041V31.8174C5.86689 30.3909 6.26147 28.9924 7.00567 27.7754C7.74987 26.5585 8.81494 25.57 10.084 24.9186C11.1814 24.3556 12.3967 24.0612 13.6301 24.0596H34.4461C36.5176 24.0672 38.5012 24.8972 39.9609 26.367L49.6336 36.151C50.5315 37.0538 51.0344 38.2761 51.0316 39.5494L51.034 48.4521ZM4.57031 47.749H50.3309V39.5459C50.3324 39.0063 50.2276 38.4718 50.0225 37.9727C49.8174 37.4737 49.516 37.0199 49.1355 36.6373L39.4629 26.8533C38.8052 26.1918 38.0236 25.6664 37.1628 25.3071C36.302 24.9478 35.3789 24.7616 34.4461 24.7592H13.6242C12.0813 24.759 10.5812 25.2663 9.35508 26.2029C8.48886 26.8603 7.78654 27.7092 7.30308 28.6832C6.81963 29.6573 6.56816 30.73 6.56836 31.8174V39.9701L5.54063 41.1326C4.91407 41.8424 4.56893 42.7569 4.57031 43.7037V47.749Z" fill="#31424F"/>
<path d="M12.1477 53.7571C11.0289 53.7571 9.93524 53.4254 9.00501 52.8038C8.07478 52.1823 7.34975 51.2988 6.92162 50.2652C6.49348 49.2316 6.38146 48.0942 6.59972 46.9969C6.81798 45.8997 7.35673 44.8917 8.14782 44.1006C8.93892 43.3095 9.94683 42.7708 11.0441 42.5525C12.1414 42.3343 13.2788 42.4463 14.3124 42.8744C15.346 43.3026 16.2294 44.0276 16.851 44.9578C17.4726 45.8881 17.8043 46.9817 17.8043 48.1005C17.8028 49.6002 17.2063 51.0381 16.1458 52.0986C15.0853 53.1591 13.6474 53.7556 12.1477 53.7571ZM12.1477 43.147C11.168 43.147 10.2102 43.4375 9.39565 43.9818C8.58104 44.5261 7.94614 45.2997 7.57122 46.2049C7.1963 47.11 7.0982 48.106 7.28934 49.0669C7.48047 50.0278 7.95225 50.9104 8.64501 51.6032C9.33777 52.2959 10.2204 52.7677 11.1813 52.9588C12.1422 53.15 13.1382 53.0519 14.0433 52.6769C14.9484 52.302 15.7221 51.6671 16.2664 50.8525C16.8107 50.0379 17.1012 49.0802 17.1012 48.1005C17.0999 46.7871 16.5777 45.5279 15.649 44.5992C14.7203 43.6705 13.461 43.1482 12.1477 43.147Z" fill="#31424F"/>
<path d="M12.1477 53.4056C15.0776 53.4056 17.4527 51.0304 17.4527 48.1005C17.4527 45.1706 15.0776 42.7954 12.1477 42.7954C9.21776 42.7954 6.84259 45.1706 6.84259 48.1005C6.84259 51.0304 9.21776 53.4056 12.1477 53.4056Z" fill="#31424F"/>
<path d="M12.1476 50.3975C13.4162 50.3975 14.4445 49.3691 14.4445 48.1006C14.4445 46.8321 13.4162 45.8037 12.1476 45.8037C10.8791 45.8037 9.85077 46.8321 9.85077 48.1006C9.85077 49.3691 10.8791 50.3975 12.1476 50.3975Z" fill="#F5F5F5"/>
<path d="M25.1976 26.7514C30.7643 26.7514 35.2769 22.2387 35.2769 16.6721C35.2769 11.1054 30.7643 6.59277 25.1976 6.59277C19.631 6.59277 15.1183 11.1054 15.1183 16.6721C15.1183 22.2387 19.631 26.7514 25.1976 26.7514Z" fill="#F5F5F5"/>
<path d="M25.1953 27.103C23.1325 27.103 21.116 26.4913 19.4009 25.3453C17.6857 24.1993 16.3489 22.5704 15.5595 20.6646C14.7701 18.7588 14.5636 16.6618 14.966 14.6386C15.3685 12.6155 16.3618 10.7571 17.8204 9.29844C19.279 7.83982 21.1374 6.84649 23.1606 6.44406C25.1837 6.04163 27.2808 6.24817 29.1866 7.03757C31.0924 7.82697 32.7213 9.16377 33.8673 10.8789C35.0133 12.5941 35.625 14.6105 35.625 16.6733C35.6216 19.4384 34.5217 22.0893 32.5665 24.0445C30.6112 25.9997 27.9604 27.0996 25.1953 27.103ZM25.1953 6.94678C23.2716 6.94678 21.3911 7.51723 19.7915 8.586C18.192 9.65477 16.9453 11.1739 16.2091 12.9511C15.473 14.7284 15.2803 16.6841 15.6556 18.5709C16.0309 20.4577 16.9573 22.1908 18.3176 23.5511C19.6779 24.9113 21.411 25.8377 23.2978 26.213C25.1845 26.5883 27.1402 26.3957 28.9175 25.6595C30.6948 24.9233 32.2139 23.6767 33.2827 22.0771C34.3514 20.4776 34.9219 18.5971 34.9219 16.6733C34.9191 14.0944 33.8935 11.622 32.07 9.79829C30.2466 7.97463 27.7742 6.94871 25.1953 6.94561V6.94678Z" fill="#31424F"/>
<path d="M24.9984 9.85791H23.7644L20.3918 17.6696H24.9984V23.488H26.0144L29.5031 15.6399H24.9984V9.85791Z" fill="#C44E47"/>
<path d="M46.5539 44.4141H51.0258C51.3577 44.4141 51.676 44.5459 51.9108 44.7806C52.1455 45.0154 52.2773 45.3337 52.2773 45.6656V46.8375C52.2773 47.1694 52.1455 47.4878 51.9108 47.7225C51.676 47.9572 51.3577 48.0891 51.0258 48.0891H46.5539V44.4141Z" fill="#A9AFC4"/>
<path d="M51.0258 48.4523H46.2023V44.0684H51.0258C51.4508 44.069 51.8582 44.2381 52.1587 44.5386C52.4592 44.8391 52.6283 45.2465 52.6289 45.6715V46.8434C52.6294 47.0543 52.5882 47.2632 52.5079 47.4583C52.4276 47.6533 52.3096 47.8306 52.1607 47.98C52.0119 48.1295 51.835 48.2481 51.6402 48.3291C51.4455 48.4102 51.2367 48.452 51.0258 48.4523ZM46.9055 47.7492H51.0258C51.2644 47.7489 51.4931 47.654 51.6618 47.4853C51.8305 47.3166 51.9255 47.0878 51.9258 46.8492V45.6773C51.9255 45.4387 51.8305 45.21 51.6618 45.0413C51.4931 44.8726 51.2644 44.7777 51.0258 44.7773H46.9055V47.7492Z" fill="#31424F"/>
<path d="M42.9726 53.7571C41.854 53.7564 40.7607 53.4241 39.8309 52.8021C38.9012 52.1801 38.1767 51.2964 37.7491 50.2628C37.3215 49.2291 37.21 48.0918 37.4286 46.9948C37.6473 45.8977 38.1863 44.8901 38.9776 44.0994C39.7688 43.3087 40.7767 42.7703 41.8739 42.5523C42.9711 42.3343 44.1083 42.4465 45.1417 42.8748C46.1751 43.303 47.0583 44.028 47.6797 44.9582C48.3011 45.8883 48.6328 46.9819 48.6328 48.1005C48.6313 49.6009 48.0343 51.0393 46.9731 52.0999C45.9118 53.1605 44.473 53.7565 42.9726 53.7571ZM42.9726 43.147C41.9931 43.1477 41.0357 43.4388 40.2216 43.9835C39.4074 44.5282 38.7731 45.3021 38.3987 46.2073C38.0243 47.1125 37.9267 48.1084 38.1183 49.069C38.3098 50.0297 38.7818 50.912 39.4747 51.6044C40.1676 52.2968 41.0503 52.7682 42.0111 52.9591C42.9719 53.1499 43.9677 53.0516 44.8726 52.6766C45.7775 52.3016 46.551 51.6667 47.0951 50.8521C47.6392 50.0376 47.9297 49.0801 47.9297 48.1005C47.9284 46.7865 47.4057 45.5267 46.4762 44.598C45.5468 43.6692 44.2866 43.1473 42.9726 43.147Z" fill="#31424F"/>
<path d="M42.9727 53.4056C45.9026 53.4056 48.2778 51.0304 48.2778 48.1005C48.2778 45.1706 45.9026 42.7954 42.9727 42.7954C40.0428 42.7954 37.6676 45.1706 37.6676 48.1005C37.6676 51.0304 40.0428 53.4056 42.9727 53.4056Z" fill="#31424F"/>
<path d="M42.9727 50.3975C44.2412 50.3975 45.2695 49.3691 45.2695 48.1006C45.2695 46.8321 44.2412 45.8037 42.9727 45.8037C41.7041 45.8037 40.6758 46.8321 40.6758 48.1006C40.6758 49.3691 41.7041 50.3975 42.9727 50.3975Z" fill="#F5F5F5"/>
<path d="M49.3465 33.4673L48.8531 32.9669L49.3535 32.4724L49.848 32.9739L49.3465 33.4673ZM48.0304 32.1325L47.5359 31.6321L48.0375 31.1376L48.5308 31.6392L48.0304 32.1325ZM46.7133 30.7978L46.2199 30.2974L46.7203 29.8028L47.2136 30.3032L46.7133 30.7978ZM45.3972 29.463L44.9027 28.9614L45.4031 28.4681L45.8976 28.9685L45.3972 29.463ZM44.0801 28.1247L43.5867 27.6243L44.0871 27.131L44.5804 27.6313L44.0801 28.1247ZM42.764 26.7899L42.2695 26.2896L42.7699 25.7962L43.2644 26.2966L42.764 26.7899ZM41.4468 25.4552L40.9535 24.9606L41.4539 24.4673L41.9531 24.9606L41.4468 25.4552Z" fill="#A9AFC4"/>
<path d="M26.8735 39.2446H29.1164V39.9478H26.8735V39.2446Z" fill="#31424F"/>
<path d="M10.575 15.6772H12.9375V16.3804H10.575V15.6772Z" fill="#31424F"/>
<path d="M11.5164 19.7026L13.1867 18.0323L13.6838 18.5295L12.0135 20.1997L11.5164 19.7026Z" fill="#31424F"/>
<path d="M11.3715 12.4106L11.8686 11.9135L13.5389 13.5838L13.0418 14.0809L11.3715 12.4106Z" fill="#31424F"/>
<path d="M38.8617 17.475C39.9527 17.475 40.9991 17.9083 41.7706 18.6797C42.5422 19.451 42.9758 20.4973 42.9761 21.5883C42.9765 20.4973 43.4101 19.451 44.1817 18.6797C44.9532 17.9083 45.9996 17.475 47.0906 17.475C46.5502 17.475 46.0151 17.3685 45.5158 17.1617C45.0165 16.9549 44.5629 16.6517 44.1808 16.2695C43.7988 15.8873 43.4957 15.4336 43.289 14.9343C43.0823 14.4349 42.976 13.8998 42.9761 13.3594C42.9763 13.8998 42.87 14.4349 42.6633 14.9343C42.4566 15.4336 42.1535 15.8873 41.7715 16.2695C41.3894 16.6517 40.9358 16.9549 40.4365 17.1617C39.9372 17.3685 39.4021 17.475 38.8617 17.475Z" fill="#C44E47"/>
<path d="M54.3153 42.9501C55.1249 42.9501 55.7813 42.2937 55.7813 41.4841C55.7813 40.6744 55.1249 40.0181 54.3153 40.0181C53.5056 40.0181 52.8492 40.6744 52.8492 41.4841C52.8492 42.2937 53.5056 42.9501 54.3153 42.9501Z" fill="#C44E47"/>
<defs>
<linearGradient id="paint0_linear_59_2240" x1="16.0114" y1="26.551" x2="34.384" y2="26.551" gradientUnits="userSpaceOnUse">
<stop stop-color="#CACFDD"/>
<stop offset="1" stop-color="#EEF0F1"/>
</linearGradient>
<linearGradient id="paint1_linear_59_2240" x1="35.7609" y1="44.495" x2="50.1844" y2="44.495" gradientUnits="userSpaceOnUse">
<stop stop-color="#CACFDD"/>
<stop offset="1" stop-color="#EEF0F1"/>
</linearGradient>
<linearGradient id="paint2_linear_59_2240" x1="4.93475" y1="44.4946" x2="19.3594" y2="44.4946" gradientUnits="userSpaceOnUse">
<stop stop-color="#CACFDD"/>
<stop offset="1" stop-color="#EEF0F1"/>
</linearGradient>
</defs>
</svg>
