<svg width="100" height="101" viewBox="0 0 100 101" fill="none" xmlns="http://www.w3.org/2000/svg">
<path d="M58.5215 69.3794H48.2012C45.338 69.3792 42.5093 68.7547 39.9121 67.5494L35.2031 65.6705V65.3658H44.9277C46.0337 65.3658 47.0943 64.9264 47.8763 64.1444C48.6583 63.3624 49.0977 62.3018 49.0977 61.1959C49.0977 60.0899 48.6583 59.0293 47.8763 58.2473C47.0943 57.4653 46.0337 57.0259 44.9277 57.0259H39.5996C37.6656 57.0258 35.7597 56.5631 34.041 55.6763C32.2438 54.7469 30.2423 54.2827 28.2194 54.326C26.1965 54.3694 24.2167 54.9189 22.4609 55.9244L20.2051 57.2154V70.7252L32.1816 76.022C34.6898 77.1312 37.4021 77.704 40.1445 77.7037H58.5156C59.6195 77.7037 60.6781 77.2652 61.4587 76.4846C62.2392 75.7041 62.6777 74.6454 62.6777 73.5416C62.6777 72.4377 62.2392 71.3791 61.4587 70.5985C60.6781 69.818 59.6195 69.3794 58.5156 69.3794H58.5215Z" fill="#DEE1EC"/>
<path d="M62.6836 73.5414C62.6838 74.0881 62.5764 74.6294 62.3673 75.1345C62.1582 75.6396 61.8517 76.0985 61.4651 76.4851C61.0786 76.8716 60.6196 77.1782 60.1146 77.3872C59.6095 77.5963 59.0681 77.7038 58.5215 77.7035H40.1504C37.4081 77.7026 34.6961 77.1298 32.1875 76.0219L20.2109 70.725V57.2153L22.4609 55.9242C24.216 54.9198 26.1947 54.3708 28.2165 54.3275C30.2382 54.2842 32.2386 54.7478 34.0352 55.6762C35.7537 56.5635 37.6597 57.0263 39.5938 57.0258H44.9277C46.0337 57.0258 47.0943 57.4651 47.8763 58.2471C48.6583 59.0292 49.0977 60.0898 49.0977 61.1957C49.0977 62.3017 48.6583 63.3623 47.8763 64.1443C47.0943 64.9263 46.0337 65.3656 44.9277 65.3656H35.209V65.6703L39.918 67.5473C42.0188 68.5221 44.2756 69.1173 46.584 69.3051C47.6895 69.3949 47.2949 69.3715 58.5273 69.3715C59.6314 69.3736 60.6894 69.814 61.4688 70.596C62.2482 71.3779 62.6851 72.4374 62.6836 73.5414Z" fill="#DEE1EC"/>
<path style="mix-blend-mode:multiply" d="M62.6836 73.5415C62.6839 74.0882 62.5764 74.6295 62.3673 75.1346C62.1582 75.6397 61.8517 76.0986 61.4651 76.4851C61.0786 76.8717 60.6196 77.1782 60.1146 77.3873C59.6095 77.5964 59.0681 77.7039 58.5215 77.7036H40.1504C38.3031 77.7011 36.4653 77.4381 34.6914 76.9224C35.371 76.1065 36.2218 75.4502 37.1835 74.9999C38.1451 74.5496 39.194 74.3165 40.2559 74.3169H48.6543C47.335 72.9795 46.5871 71.1817 46.5684 69.3032C47.6738 69.3931 47.2793 69.3696 58.5117 69.3696C59.0599 69.3686 59.6028 69.4758 60.1094 69.6851C60.6161 69.8944 61.0764 70.2016 61.464 70.5892C61.8516 70.9768 62.1588 71.4372 62.3681 71.9438C62.5774 72.4504 62.6846 72.9934 62.6836 73.5415Z" fill="url(#paint0_linear_59_987)"/>
<path d="M20.7988 53.8149V74.7251H7.03125V53.8149H20.7988Z" fill="#C44E47"/>
<path d="M13.9141 61.0415C14.9863 61.0415 15.8555 60.1723 15.8555 59.1001C15.8555 58.0279 14.9863 57.1587 13.9141 57.1587C12.8419 57.1587 11.9727 58.0279 11.9727 59.1001C11.9727 60.1723 12.8419 61.0415 13.9141 61.0415Z" fill="#F5F5F5"/>
<path d="M30.8911 43.5342C31.6812 39.4719 29.0286 35.5383 24.9663 34.7481C20.904 33.958 16.9704 36.6106 16.1803 40.6729C15.3902 44.7352 18.0428 48.6688 22.105 49.459C26.1673 50.2491 30.101 47.5965 30.8911 43.5342Z" fill="#C44E47"/>
<path d="M26.3906 44.9985C25.9367 45.4506 25.3222 45.7044 24.6817 45.7044C24.0411 45.7044 23.4266 45.4506 22.9727 44.9985L24.043 43.9263C24.1691 44.0526 24.3299 44.1386 24.505 44.1735C24.68 44.2084 24.8615 44.1906 25.0265 44.1223C25.1914 44.0541 25.3324 43.9384 25.4316 43.79C25.5308 43.6416 25.5837 43.4671 25.5837 43.2886C25.5837 43.1101 25.5308 42.9356 25.4316 42.7872C25.3324 42.6387 25.1914 42.5231 25.0265 42.4548C24.8615 42.3866 24.68 42.3687 24.505 42.4036C24.3299 42.4385 24.1691 42.5246 24.043 42.6509C23.7051 42.9889 23.2746 43.2191 22.806 43.3124C22.3373 43.4057 21.8514 43.3579 21.4099 43.1751C20.9684 42.9922 20.591 42.6826 20.3255 42.2852C20.0599 41.8879 19.9182 41.4208 19.9182 40.9429C19.9182 40.465 20.0599 39.9978 20.3255 39.6005C20.591 39.2032 20.9684 38.8935 21.4099 38.7107C21.8514 38.5278 22.3373 38.48 22.806 38.5734C23.2746 38.6667 23.7051 38.8969 24.043 39.2349L22.9727 40.311C22.8465 40.1847 22.6857 40.0987 22.5107 40.0638C22.3356 40.0289 22.1541 40.0467 21.9892 40.115C21.8242 40.1832 21.6833 40.2989 21.5841 40.4473C21.4849 40.5957 21.4319 40.7702 21.4319 40.9487C21.4319 41.1272 21.4849 41.3017 21.5841 41.4502C21.6833 41.5986 21.8242 41.7142 21.9892 41.7825C22.1541 41.8507 22.3356 41.8686 22.5107 41.8337C22.6857 41.7988 22.8465 41.7127 22.9727 41.5864C23.4259 41.1332 24.0407 40.8785 24.6817 40.8785C25.3226 40.8785 25.9374 41.1332 26.3906 41.5864C26.8439 42.0397 27.0985 42.6544 27.0985 43.2954C27.0985 43.9364 26.8439 44.5511 26.3906 45.0044V44.9985Z" fill="#F5F5F5"/>
<path d="M19.5504 39.2295L20.6206 38.1593L21.688 39.2267L20.6178 40.2969L19.5504 39.2295Z" fill="#F5F5F5"/>
<path d="M25.3391 45.019L26.4093 43.9489L27.4767 45.0163L26.4065 46.0864L25.3391 45.019Z" fill="#F5F5F5"/>
<path d="M18.9707 25.5063H20.1426V33.0923H18.9707V25.5063Z" fill="#31424F"/>
<path d="M26.8711 28.0298H28.043V33.0903H26.8711V28.0298Z" fill="#31424F"/>
<path d="M22.9375 21.1509H24.1094V29.8618H22.9375V21.1509Z" fill="#31424F"/>
<path d="M33.7631 27.7271L50.68 10.8101L82.7283 42.8585L65.8114 59.7754L33.7631 27.7271Z" fill="#F5F5F5"/>
<path d="M40.9473 29.979L41.6641 29.2642C42.0721 28.8555 42.3012 28.3016 42.3012 27.7241C42.3012 27.1466 42.0721 26.5928 41.6641 26.1841L40.9473 25.4673L48.4375 17.981L49.1523 18.6978C49.561 19.1058 50.1149 19.3349 50.6924 19.3349C51.2699 19.3349 51.8238 19.1058 52.2324 18.6978L52.9492 17.981L75.5645 40.6021L74.8496 41.3188C74.4416 41.7275 74.2124 42.2814 74.2124 42.8589C74.2124 43.4364 74.4416 43.9903 74.8496 44.3989L75.5645 45.1138L68.0801 52.6001L67.3633 51.8833C66.9546 51.4753 66.4007 51.2461 65.8232 51.2461C65.2458 51.2461 64.6919 51.4753 64.2832 51.8833L63.5664 52.6001L40.9473 29.979Z" fill="#A9AFC4"/>
<path d="M57.3496 39.184L54.3633 36.1977C54.0603 35.8942 53.82 35.5341 53.6561 35.1378C53.4922 34.7415 53.4081 34.3168 53.4083 33.888C53.4086 33.4591 53.4933 33.0346 53.6577 32.6385C53.822 32.2424 54.0628 31.8825 54.3662 31.5795C54.6697 31.2765 55.0298 31.0362 55.4261 30.8723C55.8224 30.7084 56.2471 30.6242 56.6759 30.6245C57.1048 30.6248 57.5294 30.7095 57.9254 30.8739C58.3215 31.0382 58.6814 31.279 58.9844 31.5824L61.9707 34.5688C62.5714 35.1831 62.9055 36.0096 62.9007 36.8687C62.8958 37.7279 62.5523 38.5505 61.9448 39.1581C61.3373 39.7656 60.5147 40.1091 59.6555 40.1139C58.7963 40.1188 57.9699 39.7846 57.3555 39.184H57.3496Z" fill="#F5F5F5"/>
<path d="M65.8203 60.606L32.9414 27.7231L50.6895 9.97705L83.5703 42.8501L65.8203 60.606ZM34.5977 27.7231L65.8203 58.9497L81.9141 42.8501L50.6895 11.6333L34.5977 27.7231Z" fill="#31424F"/>
<path d="M59.6562 40.7252C59.1506 40.7273 58.6497 40.6288 58.1825 40.4353C57.7154 40.2418 57.2915 39.9573 56.9355 39.5982C56.916 39.5982 57.1484 39.8131 53.9492 36.6119C53.5816 36.2568 53.2884 35.832 53.0867 35.3623C52.885 34.8927 52.7788 34.3876 52.7744 33.8765C52.77 33.3654 52.8674 32.8585 53.061 32.3854C53.2546 31.9124 53.5404 31.4826 53.9018 31.1212C54.2632 30.7598 54.693 30.4739 55.1661 30.2804C55.6391 30.0868 56.146 29.9894 56.6571 29.9938C57.1682 29.9982 57.6733 30.1044 58.143 30.306C58.6126 30.5077 59.0374 30.8009 59.3925 31.1685L62.3789 34.1549C62.9168 34.6934 63.2831 35.3792 63.4313 36.1258C63.5795 36.8724 63.5032 37.6461 63.2118 38.3493C62.9204 39.0525 62.4271 39.6535 61.7942 40.0763C61.1614 40.4992 60.4174 40.725 59.6562 40.7252ZM54.7734 31.9967C54.2726 32.4996 53.9914 33.1805 53.9914 33.8902C53.9914 34.6 54.2726 35.2808 54.7734 35.7838L57.7597 38.7701C58.0079 39.019 58.3029 39.2162 58.6278 39.3503C58.9526 39.4844 59.3009 39.5527 59.6523 39.5514C62.0508 39.5514 63.2148 36.651 61.5468 34.9811L58.5605 31.9947C58.0575 31.4954 57.3773 31.2153 56.6685 31.2157C55.9597 31.216 55.2798 31.4968 54.7773 31.9967H54.7734Z" fill="#31424F"/>
<path d="M74.9805 19.1411H76.1523V28.1235H74.9805V19.1411Z" fill="#31424F"/>
<path d="M62.334 11.8638H63.5059V15.7954H62.334V11.8638Z" fill="#31424F"/>
<path d="M68.2051 9.229H69.377V21.686H68.2051V9.229Z" fill="#31424F"/>
<path d="M58.5215 78.2894H40.1504C37.3247 78.294 34.5298 77.7037 31.9473 76.557L19.6211 71.1059V56.8754L22.1719 55.4164C24.011 54.3587 26.0866 53.7804 28.2078 53.7346C30.3289 53.6889 32.4275 54.1772 34.3105 55.1547C35.9462 55.9979 37.7594 56.4385 39.5996 56.4398H44.9336C46.1949 56.4398 47.4046 56.9409 48.2965 57.8328C49.1884 58.7247 49.6895 59.9344 49.6895 61.1957C49.6895 62.457 49.1884 63.6667 48.2965 64.5586C47.4046 65.4505 46.1949 65.9515 44.9336 65.9515H37.5L40.1699 67.018C42.6908 68.1829 45.4339 68.7885 48.2109 68.7933H58.5312C59.1548 68.7933 59.7722 68.9162 60.3483 69.1548C60.9243 69.3934 61.4477 69.7431 61.8886 70.184C62.3295 70.6249 62.6793 71.1483 62.9179 71.7244C63.1565 72.3005 63.2793 72.9179 63.2793 73.5414C63.2793 74.1649 63.1565 74.7823 62.9179 75.3584C62.6793 75.9345 62.3295 76.4579 61.8886 76.8988C61.4477 77.3397 60.9243 77.6894 60.3483 77.928C59.7722 78.1666 59.1548 78.2894 58.5312 78.2894H58.5215ZM20.7969 70.3441L32.4219 75.4867C34.854 76.5655 37.4858 77.1212 40.1465 77.1176H58.5176C59.466 77.1176 60.3757 76.7408 61.0463 76.0701C61.717 75.3995 62.0938 74.4899 62.0938 73.5414C62.0938 72.5929 61.717 71.6833 61.0463 71.0127C60.3757 70.342 59.466 69.9652 58.5176 69.9652H48.2012C45.2585 69.9604 42.3516 69.3194 39.6797 68.0863L34.6113 66.0648L34.6309 64.7797H44.9336C45.8841 64.7797 46.7957 64.4021 47.4679 63.7299C48.14 63.0578 48.5176 62.1462 48.5176 61.1957C48.5176 60.2452 48.14 59.3336 47.4679 58.6614C46.7957 57.9893 45.8841 57.6117 44.9336 57.6117H39.5996C37.5719 57.61 35.5739 57.1246 33.7715 56.1957C32.0629 55.3092 30.1589 54.8663 28.2345 54.9076C26.31 54.9489 24.4268 55.4731 22.7578 56.432L20.8047 57.5551L20.7969 70.3441Z" fill="#31424F"/>
<path d="M40.2559 77.4203H50.5859C53.4491 77.4201 56.2778 76.7955 58.875 75.5903L63.5781 73.5453V73.4067H53.8437C53.2887 73.4187 52.7368 73.3197 52.2205 73.1156C51.7042 72.9115 51.2338 72.6063 50.837 72.218C50.4402 71.8297 50.1249 71.3661 49.9097 70.8543C49.6945 70.3425 49.5836 69.7929 49.5836 69.2377C49.5836 68.6825 49.6945 68.1329 49.9097 67.6211C50.1249 67.1094 50.4402 66.6457 50.837 66.2574C51.2338 65.8691 51.7042 65.5639 52.2205 65.3598C52.7368 65.1557 53.2887 65.0568 53.8437 65.0688H59.1797C61.1138 65.068 63.0197 64.6046 64.7383 63.7172C66.5348 62.7888 68.5352 62.3252 70.5569 62.3685C72.5787 62.4118 74.5574 62.9608 76.3125 63.9653L78.5684 65.2563V78.766L66.5898 84.061C64.0817 85.1701 61.3694 85.7429 58.627 85.7426H40.2559C39.152 85.7426 38.0933 85.3041 37.3128 84.5236C36.5323 83.743 36.0938 82.6844 36.0938 81.5805C36.0938 80.4766 36.5323 79.418 37.3128 78.6374C38.0933 77.8569 39.152 77.4184 40.2559 77.4184V77.4203Z" fill="#DEE1EC"/>
<path d="M58.627 86.3306H40.2559C38.9966 86.3306 37.7889 85.8304 36.8985 84.9399C36.008 84.0495 35.5078 82.8418 35.5078 81.5826C35.5078 80.3233 36.008 79.1156 36.8985 78.2252C37.7889 77.3348 38.9966 76.8345 40.2559 76.8345H50.5859C53.363 76.8297 56.1061 76.2241 58.627 75.0591L61.0801 73.9927H53.8535C52.5922 73.9927 51.3825 73.4917 50.4906 72.5998C49.5987 71.7079 49.0977 70.4982 49.0977 69.2369C49.0977 67.9755 49.5987 66.7659 50.4906 65.874C51.3825 64.9821 52.5922 64.481 53.8535 64.481H59.1797C61.0199 64.4797 62.8331 64.0391 64.4687 63.1959C66.3513 62.2191 68.4492 61.7311 70.5696 61.7769C72.6899 61.8226 74.7648 62.4005 76.6035 63.4576L79.1523 64.9205V79.1509L66.8262 84.6021C64.2446 85.747 61.451 86.3359 58.627 86.3306ZM40.2559 78.0064C39.3074 78.0064 38.3978 78.3832 37.7271 79.0538C37.0565 79.7245 36.6797 80.6341 36.6797 81.5826C36.6797 82.531 37.0565 83.4406 37.7271 84.1113C38.3978 84.782 39.3074 85.1587 40.2559 85.1587H58.627C61.2876 85.1623 63.9194 84.6067 66.3516 83.5279L77.9805 78.3853V65.5962L76.0273 64.4732C74.3583 63.5143 72.4751 62.9901 70.5507 62.9488C68.6262 62.9075 66.7223 63.3504 65.0137 64.2369C63.2096 65.1668 61.2094 65.6523 59.1797 65.6529H53.8437C52.8932 65.6529 51.9816 66.0305 51.3095 66.7026C50.6374 67.3747 50.2598 68.2863 50.2598 69.2369C50.2598 70.1874 50.6374 71.099 51.3095 71.7711C51.9816 72.4433 52.8932 72.8209 53.8437 72.8209H64.1543V73.9302L59.0977 76.1275C56.429 77.3599 53.5254 78.0009 50.5859 78.0064H40.2559Z" fill="#31424F"/>
<path d="M91.7461 61.8579V82.7681H77.9785V61.8579H91.7461Z" fill="#C44E47"/>
<path d="M84.8633 69.0454C85.9355 69.0454 86.8047 68.1762 86.8047 67.104C86.8047 66.0318 85.9355 65.1626 84.8633 65.1626C83.7911 65.1626 82.9219 66.0318 82.9219 67.104C82.9219 68.1762 83.7911 69.0454 84.8633 69.0454Z" fill="#F5F5F5"/>
<path d="M88.6718 44.6079C88.6921 44.2069 88.811 43.817 89.018 43.4729C89.2249 43.1288 89.5136 42.841 89.8583 42.6352C90.2031 42.4293 90.5933 42.3116 90.9944 42.2925C91.3955 42.2735 91.7951 42.3537 92.1578 42.526C92.5205 42.6983 92.8351 42.9574 93.0737 43.2804C93.3123 43.6033 93.4676 43.9802 93.5258 44.3775C93.584 44.7748 93.5432 45.1803 93.4072 45.5581C93.2712 45.9359 93.0441 46.2744 92.7461 46.5434C92.3887 46.8699 91.9421 47.0824 91.4634 47.1539C90.9847 47.2255 90.4956 47.1527 90.0584 46.945C89.6212 46.7373 89.2558 46.4041 89.0089 45.9878C88.7619 45.5715 88.6446 45.0911 88.6718 44.6079ZM91.1054 43.4634C90.8994 43.4636 90.6966 43.5141 90.5144 43.6103C90.3322 43.7065 90.1762 43.8456 90.0598 44.0155C89.9434 44.1855 89.8701 44.3813 89.8462 44.5859C89.8224 44.7905 89.8487 44.9979 89.9229 45.1901C89.9971 45.3823 90.1169 45.5535 90.2721 45.6891C90.4272 45.8246 90.6131 45.9203 90.8135 45.968C91.0139 46.0156 91.2229 46.0138 91.4225 45.9626C91.6221 45.9115 91.8062 45.8125 91.9589 45.6743C92.1539 45.504 92.292 45.278 92.3545 45.0268C92.417 44.7756 92.401 44.5112 92.3087 44.2694C92.2163 44.0276 92.0519 43.8199 91.8378 43.6744C91.6237 43.5288 91.3701 43.4525 91.1113 43.4555L91.1054 43.4634Z" fill="#31424F"/>
<path d="M82.1582 36.7758C82.1728 36.4672 82.2634 36.1671 82.422 35.902C82.5806 35.6369 82.8022 35.4151 83.0671 35.2563C83.332 35.0975 83.6321 35.0066 83.9406 34.9917C84.2491 34.9768 84.5566 35.0383 84.8356 35.1709C85.1146 35.3034 85.3566 35.5028 85.5399 35.7514C85.7233 35.9999 85.8424 36.2899 85.8867 36.5956C85.931 36.9013 85.8991 37.2132 85.7938 37.5036C85.6885 37.794 85.5131 38.0539 85.2832 38.2602C85.0083 38.508 84.6661 38.6689 84.2998 38.7224C83.9336 38.776 83.5596 38.7198 83.2253 38.561C82.8909 38.4022 82.6111 38.1478 82.4212 37.8301C82.2313 37.5124 82.1398 37.1455 82.1582 36.7758ZM84.0293 36.1684C83.9157 36.169 83.804 36.1972 83.7038 36.2506C83.6035 36.3039 83.5178 36.3808 83.4538 36.4747C83.3899 36.5685 83.3497 36.6765 83.3367 36.7893C83.3237 36.9021 83.3383 37.0164 83.3793 37.1224C83.4202 37.2283 83.4863 37.3227 83.5718 37.3974C83.6573 37.4722 83.7596 37.525 83.8701 37.5514C83.9805 37.5779 84.0957 37.5771 84.2058 37.5491C84.3159 37.5212 84.4175 37.4669 84.502 37.391C84.6088 37.2964 84.6841 37.1714 84.7178 37.0328C84.7516 36.8941 84.7421 36.7485 84.6906 36.6154C84.6392 36.4823 84.5482 36.3682 84.43 36.2882C84.3118 36.2083 84.172 36.1665 84.0293 36.1684Z" fill="#31424F"/>
<path d="M30.8428 88.7637L33.291 86.3154L34.1196 87.1439L31.6713 89.5922L30.8428 88.7637Z" fill="#31424F"/>
<path d="M28.4453 83.2856H31.9082V84.4575H28.4453V83.2856Z" fill="#31424F"/>
<path d="M35.7812 88.6353H36.9531V92.0981H35.7812V88.6353Z" fill="#31424F"/>
<path d="M53.25 61.9126L52.0781 61.8032C52.0991 61.4497 52.0926 61.0951 52.0586 60.7427L53.2305 60.6313C53.273 61.0571 53.2795 61.4857 53.25 61.9126ZM51.6621 58.9829C51.5366 58.6461 51.3851 58.3196 51.209 58.0063L52.2305 57.4321C52.4364 57.7993 52.6134 58.182 52.7598 58.5767L51.6621 58.9829ZM50.1348 56.561C49.8842 56.3016 49.6146 56.0614 49.3281 55.8423L50.0371 54.9106C50.3721 55.1652 50.6868 55.4454 50.9785 55.7485L50.1348 56.561ZM47.7695 54.9595C47.4371 54.8197 47.0943 54.7061 46.7441 54.6196L47.0273 53.481C47.4351 53.5809 47.8346 53.7114 48.2227 53.8716L47.7695 54.9595ZM44.9512 54.4106H43.7793V53.2388H44.9512V54.4106ZM41.8262 54.4106H40.6543V53.2388H41.8262V54.4106ZM38.6191 54.2837C38.2108 54.2212 37.8065 54.1352 37.4082 54.0259L37.7187 52.895C38.0732 52.9931 38.4333 53.0701 38.7969 53.1255L38.6191 54.2837ZM35.4941 53.2954L34.4336 52.811L34.9141 51.7427L35.9824 52.2212L35.4941 53.2954ZM32.6445 52.0161L31.5742 51.5356L32.0547 50.4653L33.123 50.9458L32.6445 52.0161Z" fill="#A9AFC4"/>
<defs>
<linearGradient id="paint0_linear_59_987" x1="34.6914" y1="73.5063" x2="62.6836" y2="73.5063" gradientUnits="userSpaceOnUse">
<stop stop-color="#CACFDD"/>
<stop offset="1" stop-color="#EEF0F1"/>
</linearGradient>
</defs>
</svg>
