<svg width="100" height="101" viewBox="0 0 100 101" fill="none" xmlns="http://www.w3.org/2000/svg">
<path d="M16.4062 41.9575V91.4536H25.166V54.4927H69.6074V91.4536H78.3672V41.9575H16.4062Z" fill="#DEE1EC"/>
<path d="M25.1582 54.4927H69.6074V91.4536H25.1582V54.4927Z" fill="#A9AFC4"/>
<path d="M34.5117 84.0688H30.3613C29.9299 84.0688 29.5801 84.4186 29.5801 84.8501V90.6724C29.5801 91.1038 29.9299 91.4536 30.3613 91.4536H34.5117C34.9432 91.4536 35.293 91.1038 35.293 90.6724V84.8501C35.293 84.4186 34.9432 84.0688 34.5117 84.0688Z" fill="#A9AFC4"/>
<path d="M64.6758 84.0688H60.5254C60.0939 84.0688 59.7441 84.4186 59.7441 84.8501V90.6724C59.7441 91.1038 60.0939 91.4536 60.5254 91.4536H64.6758C65.1073 91.4536 65.457 91.1038 65.457 90.6724V84.8501C65.457 84.4186 65.1073 84.0688 64.6758 84.0688Z" fill="#A9AFC4"/>
<path d="M25.1582 54.4927H69.6074V91.4536H25.1582V54.4927Z" fill="#A9AFC4"/>
<path d="M30.6446 22.147C30.1222 22.146 29.6157 21.9673 29.2083 21.6405C28.8009 21.3136 28.5167 20.8579 28.4024 20.3482C27.9512 18.3365 30.1602 16.8131 31.8828 17.897C33.8047 19.1099 32.9668 22.147 30.6446 22.147ZM30.6446 18.7115C30.4745 18.7112 30.3066 18.7491 30.1533 18.8226C29.9999 18.896 29.8651 19.003 29.7587 19.1356C29.6524 19.2682 29.5772 19.4231 29.5389 19.5887C29.5005 19.7543 29.4999 19.9265 29.5371 20.0924C29.5688 20.2375 29.6292 20.3748 29.7147 20.4962C29.8002 20.6176 29.9092 20.7207 30.0352 20.7994C30.1827 20.8907 30.3493 20.9469 30.522 20.9636C30.6947 20.9803 30.8689 20.9569 31.0312 20.8955C31.1935 20.834 31.3394 20.736 31.4577 20.6091C31.576 20.4822 31.6636 20.3297 31.7135 20.1636C31.7635 19.9974 31.7745 19.8219 31.7458 19.6508C31.7171 19.4797 31.6494 19.3175 31.5479 19.1767C31.4465 19.0359 31.314 18.9204 31.1607 18.8391C31.0075 18.7577 30.8375 18.7127 30.6641 18.7076L30.6446 18.7115Z" fill="#31424F"/>
<path d="M38.8535 12.8442C38.4501 12.8433 38.0589 12.705 37.7445 12.4523C37.43 12.1996 37.2108 11.8474 37.123 11.4536C37.0425 11.0936 37.0758 10.7175 37.2183 10.3773C37.3609 10.0371 37.6056 9.74964 37.9187 9.55463C38.2318 9.35962 38.5978 9.26674 38.966 9.28884C39.3342 9.31094 39.6864 9.44693 39.9739 9.67799C40.2615 9.90905 40.4701 10.2238 40.5709 10.5786C40.6717 10.9334 40.6598 11.3108 40.5367 11.6585C40.4137 12.0062 40.1856 12.3071 39.8841 12.5196C39.5825 12.732 39.2224 12.8454 38.8535 12.8442ZM38.8535 10.4575C38.7632 10.4589 38.6742 10.4803 38.5932 10.5203C38.5121 10.5603 38.441 10.6178 38.3849 10.6886C38.3288 10.7595 38.2892 10.8419 38.2689 10.93C38.2486 11.018 38.2482 11.1095 38.2676 11.1977C38.2848 11.2755 38.3173 11.3491 38.3632 11.4141C38.4092 11.4792 38.4676 11.5344 38.5352 11.5767C38.6145 11.6274 38.7045 11.659 38.7981 11.6689C38.8917 11.6789 38.9863 11.667 39.0745 11.6341C39.1627 11.6012 39.2421 11.5483 39.3063 11.4795C39.3706 11.4107 39.418 11.3279 39.4447 11.2377C39.4715 11.1474 39.4769 11.0522 39.4606 10.9595C39.4443 10.8668 39.4066 10.7792 39.3506 10.7035C39.2946 10.6278 39.2218 10.5662 39.1379 10.5236C39.054 10.4809 38.9613 10.4583 38.8672 10.4575H38.8535Z" fill="#31424F"/>
<path d="M12.3691 64.2563H11.1973V63.0845H12.3691V64.2563ZM12.3691 61.1313H11.1973V59.9595H12.3691V61.1313ZM12.3691 58.0063H11.1973V56.8345H12.3691V58.0063ZM12.3691 54.8813H11.1973V53.7095H12.3691V54.8813ZM12.3691 51.7563H11.1973V50.5845H12.3691V51.7563ZM11.1328 48.8032C11.0498 48.5195 10.8982 48.2606 10.6914 48.0493L11.5293 47.229C11.8712 47.5787 12.1214 48.0074 12.2578 48.4771L11.1328 48.8032ZM9.33594 47.5122C8.84668 47.4986 8.36835 47.3644 7.94337 47.1216L8.5293 46.106C8.78586 46.2516 9.07424 46.3321 9.36915 46.3403L9.33594 47.5122ZM6.52345 45.2251C6.42579 44.8071 6.44532 44.5337 6.44532 43.9263H7.61719C7.59351 44.2713 7.60923 44.618 7.66407 44.9595L6.52345 45.2251ZM7.61719 41.9731H6.44532V40.8013H7.61719V41.9731ZM7.61719 38.8481H6.44532V37.6763H7.61719V38.8481Z" fill="#A9AFC4"/>
<path d="M11.7891 33.3931H85.0117V41.9556H11.7891V33.3931Z" fill="#A9AFC4"/>
<path d="M11.7871 33.395H85.0098V41.9575H11.7871V33.395Z" fill="#A9AFC4"/>
<path style="mix-blend-mode:multiply" d="M16.3984 41.9575H78.3672V46.9263H16.3984V41.9575Z" fill="url(#paint0_linear_59_1425)"/>
<path d="M78.9531 92.0396H69.0215V55.0786H25.7441V92.0396H15.8203V41.3716H78.9531V92.0396ZM70.1934 90.8677H77.7812V42.5435H16.9922V90.8677H24.5801V53.9067H70.1934V90.8677Z" fill="#31424F"/>
<path d="M25.1582 54.4927H69.6074V58.7583H25.1582V54.4927Z" fill="#F5F5F5"/>
<path d="M25.1582 58.7563H69.6074V63.022H25.1582V58.7563Z" fill="#F5F5F5"/>
<path d="M25.1582 63.022H69.6074V67.2876H25.1582V63.022Z" fill="#F5F5F5"/>
<path d="M70.1934 59.3423H24.5723V53.9067H70.1934V59.3423ZM25.7441 58.1704H69.0215V55.0786H25.7441V58.1704Z" fill="#31424F"/>
<path d="M70.1934 63.6079H24.5723V58.1704H70.1934V63.6079ZM25.7441 62.436H69.0215V59.3423H25.7441V62.436Z" fill="#31424F"/>
<path d="M70.1934 67.8735H24.5723V62.436H70.1934V67.8735ZM25.7441 66.7017H69.0215V63.6079H25.7441V66.7017Z" fill="#31424F"/>
<path style="mix-blend-mode:multiply" d="M63.582 33.395V37.5435C63.5828 39.1269 63.0868 40.6707 62.1641 41.9575H34.6348C33.712 40.6707 33.2161 39.1269 33.2168 37.5435V33.395H63.582Z" fill="url(#paint1_linear_59_1425)"/>
<path d="M85.5957 42.5435H11.2031V32.8071H85.5957V42.5435ZM12.375 41.3716H84.4238V33.979H12.375V41.3716Z" fill="#31424F"/>
<path d="M56.0645 17.9478H40.7344C38.3375 17.9478 36.3945 19.8908 36.3945 22.2876V37.6177C36.3945 40.0145 38.3375 41.9575 40.7344 41.9575H56.0645C58.4613 41.9575 60.4043 40.0145 60.4043 37.6177V22.2876C60.4043 19.8908 58.4613 17.9478 56.0645 17.9478Z" fill="#F5F5F5"/>
<path d="M56.0645 42.5435H40.7344C39.4283 42.5414 38.1763 42.0215 37.2529 41.0978C36.3295 40.174 35.8101 38.9218 35.8086 37.6157V22.2876C35.8101 20.9817 36.3296 19.7297 37.253 18.8063C38.1765 17.8828 39.4285 17.3634 40.7344 17.3618H56.0645C57.3704 17.3634 58.6224 17.8828 59.5458 18.8063C60.4692 19.7297 60.9887 20.9817 60.9902 22.2876V37.6157C60.9887 38.9218 60.4693 40.174 59.5459 41.0978C58.6225 42.0215 57.3706 42.5414 56.0645 42.5435ZM40.7344 18.5337C39.7391 18.5347 38.7849 18.9306 38.0811 19.6343C37.3773 20.3381 36.9815 21.2923 36.9805 22.2876V37.6157C36.9815 38.6112 37.3773 39.5656 38.081 40.2697C38.7847 40.9738 39.7389 41.37 40.7344 41.3716H56.0645C57.0599 41.37 58.0141 40.9738 58.7178 40.2697C59.4216 39.5656 59.8173 38.6112 59.8184 37.6157V22.2876C59.8173 21.2923 59.4215 20.3381 58.7177 19.6343C58.014 18.9306 57.0597 18.5347 56.0645 18.5337H40.7344Z" fill="#31424F"/>
<path d="M46.5703 36.2017L40.3203 29.9517L42.2715 28.0005L46.5703 32.2993L54.9375 23.9321L56.8887 25.8833L46.5703 36.2017Z" fill="#C44E47"/>
<path d="M86.8389 30.6709L89.439 28.0707L90.2675 28.8993L87.6674 31.4994L86.8389 30.6709Z" fill="#31424F"/>
<path d="M83.6465 25.4751H84.8184V29.1528H83.6465V25.4751Z" fill="#31424F"/>
<path d="M89.291 33.3032H92.9687V34.4751H89.291V33.3032Z" fill="#31424F"/>
<path d="M7.90234 90.8677H88.8965V92.0396H7.90234V90.8677Z" fill="#31424F"/>
<path d="M35.293 84.8423V90.6646C35.293 90.8718 35.2107 91.0705 35.0641 91.217C34.9176 91.3635 34.7189 91.4458 34.5117 91.4458H30.3633C30.1561 91.4458 29.9574 91.3635 29.8109 91.217C29.6643 91.0705 29.582 90.8718 29.582 90.6646V84.8423C29.582 84.6351 29.6643 84.4364 29.8109 84.2899C29.9574 84.1433 30.1561 84.061 30.3633 84.061H34.5117C34.7189 84.061 34.9176 84.1433 35.0641 84.2899C35.2107 84.4364 35.293 84.6351 35.293 84.8423Z" fill="#A9AFC4"/>
<path d="M65.457 84.8423V90.6646C65.457 90.8718 65.3747 91.0705 65.2282 91.217C65.0817 91.3635 64.883 91.4458 64.6758 91.4458H60.5273C60.3201 91.4458 60.1214 91.3635 59.9749 91.217C59.8284 91.0705 59.7461 90.8718 59.7461 90.6646V84.8423C59.7461 84.6351 59.8284 84.4364 59.9749 84.2899C60.1214 84.1433 60.3201 84.061 60.5273 84.061H64.6758C64.883 84.061 65.0817 84.1433 65.2282 84.2899C65.3747 84.4364 65.457 84.6351 65.457 84.8423Z" fill="#A9AFC4"/>
<path style="mix-blend-mode:multiply" d="M35.293 84.8423V89.8091H32.5586C32.168 89.8091 32.0293 89.7212 30.625 89.1763C30.3194 89.0583 30.0568 88.8505 29.8717 88.5803C29.6865 88.3101 29.5876 87.9901 29.5879 87.6626V84.8423C29.5879 84.6351 29.6702 84.4364 29.8167 84.2899C29.9632 84.1433 30.1619 84.061 30.3691 84.061H34.5117C34.7189 84.061 34.9176 84.1433 35.0641 84.2899C35.2107 84.4364 35.293 84.6351 35.293 84.8423Z" fill="url(#paint2_linear_59_1425)"/>
<path style="mix-blend-mode:multiply" d="M65.457 84.8423V87.6626C65.4573 87.9901 65.3584 88.3101 65.1732 88.5803C64.9881 88.8505 64.7255 89.0583 64.4199 89.1763C63.0879 89.6938 62.8984 89.8091 62.4863 89.8091H59.752V84.8423C59.752 84.6351 59.8343 84.4364 59.9808 84.2899C60.1273 84.1433 60.326 84.061 60.5332 84.061H64.6816C64.8878 84.0626 65.085 84.1456 65.2303 84.2919C65.3755 84.4383 65.457 84.6361 65.457 84.8423Z" fill="url(#paint3_linear_59_1425)"/>
<path d="M34.5117 92.0396H30.3613C29.9987 92.0396 29.651 91.8955 29.3946 91.6391C29.1382 91.3827 28.9941 91.035 28.9941 90.6724V84.8423C28.9941 84.4797 29.1382 84.1319 29.3946 83.8755C29.651 83.6191 29.9987 83.4751 30.3613 83.4751H34.5117C34.8743 83.4751 35.2221 83.6191 35.4785 83.8755C35.7349 84.1319 35.8789 84.4797 35.8789 84.8423V90.6626C35.8802 90.843 35.8458 91.0218 35.7777 91.1888C35.7095 91.3558 35.609 91.5077 35.4819 91.6357C35.3549 91.7637 35.2037 91.8652 35.0372 91.9346C34.8707 92.0039 34.6921 92.0396 34.5117 92.0396ZM30.3613 84.647C30.3095 84.647 30.2598 84.6676 30.2232 84.7042C30.1866 84.7408 30.166 84.7905 30.166 84.8423V90.6626C30.166 90.7144 30.1866 90.7641 30.2232 90.8007C30.2598 90.8373 30.3095 90.8579 30.3613 90.8579H34.5117C34.5635 90.8579 34.6132 90.8373 34.6498 90.8007C34.6865 90.7641 34.707 90.7144 34.707 90.6626V84.8423C34.707 84.7905 34.6865 84.7408 34.6498 84.7042C34.6132 84.6676 34.5635 84.647 34.5117 84.647H30.3613Z" fill="#31424F"/>
<path d="M64.6758 92.0396H60.5273C60.1647 92.0396 59.817 91.8955 59.5606 91.6391C59.3042 91.3827 59.1602 91.035 59.1602 90.6724V84.8423C59.1602 84.4797 59.3042 84.1319 59.5606 83.8755C59.817 83.6191 60.1647 83.4751 60.5273 83.4751H64.6758C65.0384 83.4751 65.3861 83.6191 65.6425 83.8755C65.8989 84.1319 66.043 84.4797 66.043 84.8423V90.6626C66.0443 90.843 66.0098 91.0218 65.9417 91.1888C65.8736 91.3558 65.7731 91.5077 65.646 91.6357C65.5189 91.7637 65.3678 91.8652 65.2012 91.9346C65.0347 92.0039 64.8562 92.0396 64.6758 92.0396ZM60.5273 84.647C60.4755 84.647 60.4259 84.6676 60.3892 84.7042C60.3526 84.7408 60.332 84.7905 60.332 84.8423V90.6626C60.332 90.7144 60.3526 90.7641 60.3892 90.8007C60.4259 90.8373 60.4755 90.8579 60.5273 90.8579H64.6758C64.7276 90.8579 64.7773 90.8373 64.8139 90.8007C64.8505 90.7641 64.8711 90.7144 64.8711 90.6626V84.8423C64.8711 84.7905 64.8505 84.7408 64.8139 84.7042C64.7773 84.6676 64.7276 84.647 64.6758 84.647H60.5273Z" fill="#31424F"/>
<path d="M61.0703 77.6782L59.5703 73.7095C59.3761 73.1934 59.0459 72.7394 58.6147 72.3955C58.1836 72.0517 57.6675 71.8309 57.1211 71.7563L55.7324 71.561C50.2187 70.811 44.6289 70.811 39.1152 71.561L37.7246 71.7563C37.1784 71.8315 36.6626 72.0526 36.2316 72.3963C35.8005 72.74 35.4702 73.1937 35.2754 73.7095L33.7695 77.6821L30.6641 79.354C30.3381 79.5303 30.0658 79.7915 29.876 80.1099C29.6862 80.4282 29.586 80.792 29.5859 81.1626V85.7075C29.5858 86.0348 29.6848 86.3544 29.8699 86.6243C30.0551 86.8942 30.3177 87.1016 30.623 87.2192C32.0371 87.7681 32.1582 87.852 32.5566 87.852H62.4863C62.6867 87.8523 62.8854 87.8152 63.0723 87.7427L64.4219 87.2192C64.7273 87.1016 64.9898 86.8942 65.175 86.6243C65.3601 86.3544 65.4591 86.0348 65.459 85.7075V81.1899C65.4592 80.8126 65.3554 80.4426 65.159 80.1204C64.9626 79.7982 64.6812 79.5364 64.3457 79.3638L61.0703 77.6782Z" fill="#DEE1EC"/>
<path d="M62.4863 88.438H32.5508C32.0215 88.438 31.8105 88.311 30.4023 87.7661C29.9881 87.6037 29.6322 87.3207 29.3808 86.9536C29.1294 86.5865 28.994 86.1524 28.9922 85.7075V81.1626C28.9919 80.6866 29.1204 80.2193 29.3642 79.8105C29.6081 79.4016 29.958 79.0664 30.377 78.8403L33.2891 77.2661L34.7168 73.4985C34.95 72.8832 35.3456 72.3426 35.8614 71.934C36.3772 71.5255 36.9941 71.2643 37.6465 71.1782L39.0352 70.9829C44.6013 70.2251 50.2444 70.2251 55.8105 70.9829L57.2012 71.1782C57.8515 71.2661 58.466 71.5281 58.9797 71.9365C59.4933 72.345 59.8871 72.8847 60.1191 73.4985L61.5469 77.2603L64.6191 78.8423C65.0504 79.0634 65.4122 79.3992 65.6648 79.8127C65.9174 80.2262 66.0509 80.7015 66.0508 81.186V85.7036C66.0503 86.1511 65.9147 86.588 65.6617 86.9571C65.4087 87.3262 65.05 87.6102 64.6328 87.772C63.1582 88.3364 63.0039 88.438 62.4863 88.438ZM47.416 71.5923C43.4824 71.5923 40.793 71.9321 37.7949 72.3384C37.3536 72.3987 36.9367 72.577 36.5881 72.8543C36.2396 73.1317 35.9723 73.498 35.8145 73.9145L34.2305 78.0903L30.9355 79.8696C30.7026 79.9957 30.5081 80.1825 30.3726 80.4101C30.2372 80.6377 30.1658 80.8977 30.166 81.1626V85.7075C30.165 85.9169 30.2278 86.1216 30.3461 86.2943C30.4644 86.4671 30.6325 86.5996 30.8281 86.6743C32.2949 87.2407 32.2969 87.2603 32.5508 87.2603C64.582 87.2603 62.5781 87.2993 62.8594 87.1899L64.209 86.6685C64.4046 86.5938 64.5727 86.4612 64.691 86.2885C64.8093 86.1157 64.8722 85.911 64.8711 85.7017V81.1899C64.8719 80.9203 64.7981 80.6557 64.6578 80.4254C64.5175 80.1951 64.3162 80.0082 64.0762 79.8853L60.6016 78.0962L59.0156 73.9145C58.8571 73.4981 58.589 73.1322 58.2397 72.8554C57.8905 72.5787 57.4729 72.4014 57.0313 72.3423C53.875 71.9087 51.3145 71.5923 47.416 71.5923Z" fill="#31424F"/>
<path d="M57.2266 74.686L58.3984 77.8872L57.082 78.3013H38.0937L36.6738 77.8872L37.8457 74.6802C37.9003 74.5377 37.9922 74.4124 38.1118 74.3176C38.2313 74.2228 38.3742 74.1618 38.5254 74.1411C44.5043 73.2531 50.5816 73.2531 56.5605 74.1411C56.7099 74.1646 56.8504 74.2275 56.9674 74.3233C57.0845 74.419 57.1739 74.5442 57.2266 74.686Z" fill="#F5F5F5"/>
<path d="M37.9922 78.8892L35.8906 78.2778L37.2734 74.4907C37.3639 74.2479 37.5184 74.0342 37.7206 73.8722C37.9228 73.7102 38.1652 73.606 38.4219 73.5708L39.6367 73.4067C44.8704 72.7339 50.1687 72.7339 55.4023 73.4067L56.6172 73.5708C56.8728 73.6053 57.1143 73.7083 57.3161 73.8688C57.518 74.0294 57.6726 74.2416 57.7637 74.4829C57.8809 74.7993 57.3027 73.2134 59.1426 78.2681L57.1543 78.8911L37.9922 78.8892ZM37.4199 77.5024L38.1602 77.7173H56.9746L57.6211 77.522L56.668 74.8813C56.6506 74.8381 56.6221 74.8001 56.5855 74.7713C56.5488 74.7425 56.5052 74.7239 56.459 74.7173L55.2461 74.5532C50.1166 73.897 44.9244 73.897 39.7949 74.5532L38.5801 74.7173C38.5333 74.7238 38.4892 74.7429 38.4524 74.7725C38.4157 74.802 38.3875 74.841 38.3711 74.8852L37.4199 77.5024Z" fill="#31424F"/>
<path d="M34.6016 81.5181H32.7266V84.1567H38.7578V82.352L34.6016 81.5181Z" fill="#F5F5F5"/>
<path d="M60.4355 81.5181H62.3105V84.1567H56.2793V82.352L60.4355 81.5181Z" fill="#F5F5F5"/>
<path d="M39.3438 84.7427H32.1406V80.936H34.6602L39.3477 81.8755L39.3438 84.7427ZM33.3125 83.5708H38.1719V82.8325L34.5449 82.1079H33.3125V83.5708Z" fill="#31424F"/>
<path d="M62.8906 84.7427H55.6934V81.8716L60.3809 80.9321H62.8906V84.7427ZM56.8594 83.5708H61.7188V82.1079H60.4863L56.8594 82.8364V83.5708Z" fill="#31424F"/>
<path d="M52.4648 83.5532C52.3204 83.1637 52.06 82.8278 51.7189 82.5907C51.3777 82.3536 50.9721 82.2267 50.5566 82.2271H44.752C44.3366 82.2272 43.9313 82.3543 43.5902 82.5914C43.2492 82.8284 42.9887 83.164 42.8438 83.5532L41.25 87.8501H54.0586L52.4648 83.5532Z" fill="#31424F"/>
<path d="M33.7617 77.6782L34.2402 76.4146L33.0078 75.1587C32.9213 75.071 32.8182 75.0013 32.7045 74.9537C32.5909 74.9061 32.4689 74.8815 32.3457 74.8813H30.5176C30.2708 74.8819 30.0344 74.9802 29.8601 75.1549C29.6858 75.3296 29.5879 75.5662 29.5879 75.813V76.311C29.5882 76.5368 29.6703 76.7547 29.819 76.9246C29.9676 77.0944 30.1728 77.2046 30.3965 77.2349L33.5937 77.7661L33.7617 77.6782Z" fill="#DEE1EC"/>
<path d="M33.6992 78.3774L30.293 77.811C29.9322 77.7585 29.6023 77.5778 29.3638 77.302C29.1253 77.0262 28.9941 76.6737 28.9941 76.3091V75.811C28.9947 75.409 29.1544 75.0236 29.4385 74.7392C29.7226 74.4548 30.1078 74.2945 30.5098 74.2935H32.3379C32.5385 74.294 32.7369 74.3341 32.9219 74.4115C33.107 74.489 33.2749 74.6022 33.416 74.7446L34.9219 76.2681L34.2305 78.0884L33.6992 78.3774ZM30.5098 75.4673C30.4645 75.4673 30.4196 75.4762 30.3778 75.4936C30.3359 75.511 30.298 75.5365 30.266 75.5687C30.2341 75.6008 30.2088 75.6389 30.1916 75.6808C30.1745 75.7228 30.1658 75.7677 30.166 75.813V76.311C30.1658 76.3946 30.196 76.4754 30.251 76.5383C30.306 76.6012 30.382 76.6419 30.4648 76.6528L33.3418 77.1294L33.5586 76.5571L32.582 75.5708C32.5504 75.5381 32.5124 75.512 32.4705 75.4943C32.4285 75.4765 32.3834 75.4673 32.3379 75.4673H30.5098Z" fill="#31424F"/>
<path d="M61.0703 77.6783L60.5898 76.4146L61.832 75.1587C61.919 75.0699 62.023 74.9996 62.1377 74.952C62.2525 74.9043 62.3757 74.8803 62.5 74.8814H64.3262C64.5729 74.8819 64.8094 74.9803 64.9837 75.1549C65.158 75.3296 65.2559 75.5663 65.2559 75.813V76.3111C65.2555 76.5368 65.1734 76.7547 65.0248 76.9246C64.8761 77.0944 64.671 77.2047 64.4473 77.2349L61.2383 77.7661L61.0703 77.6783Z" fill="#DEE1EC"/>
<path d="M61.1328 78.3774L60.6016 78.0903L59.9121 76.27L61.416 74.7466C61.558 74.6036 61.7269 74.4901 61.9129 74.4127C62.099 74.3352 62.2985 74.2954 62.5 74.2954H64.3262C64.7282 74.2964 65.1134 74.4567 65.3974 74.7412C65.6815 75.0256 65.8413 75.411 65.8418 75.813V76.311C65.8408 76.6787 65.7068 77.0336 65.4644 77.31C65.2221 77.5865 64.8878 77.7659 64.5234 77.8149L61.1328 78.3774ZM61.2734 76.5571L61.4902 77.1294L64.3477 76.6567C64.434 76.6486 64.5143 76.6087 64.5731 76.5449C64.6319 76.4811 64.665 76.3978 64.666 76.311V75.813C64.6663 75.7677 64.6576 75.7228 64.6404 75.6808C64.6233 75.6389 64.598 75.6008 64.566 75.5687C64.5341 75.5365 64.4961 75.511 64.4543 75.4936C64.4124 75.4762 64.3676 75.4673 64.3223 75.4673H62.5C62.4075 75.4681 62.3191 75.5053 62.2539 75.5708L61.2734 76.5571Z" fill="#31424F"/>
<defs>
<linearGradient id="paint0_linear_59_1425" x1="47.3828" y1="39.3618" x2="47.3828" y2="55.0298" gradientUnits="userSpaceOnUse">
<stop stop-color="#CACFDD"/>
<stop offset="1" stop-color="#EEF0F1"/>
</linearGradient>
<linearGradient id="paint1_linear_59_1425" x1="48.4004" y1="30.8521" x2="48.4004" y2="46.0395" gradientUnits="userSpaceOnUse">
<stop stop-color="#CACFDD"/>
<stop offset="1" stop-color="#EEF0F1"/>
</linearGradient>
<linearGradient id="paint2_linear_59_1425" x1="29.5801" y1="86.9419" x2="35.293" y2="86.9419" gradientUnits="userSpaceOnUse">
<stop stop-color="#CACFDD"/>
<stop offset="1" stop-color="#EEF0F1"/>
</linearGradient>
<linearGradient id="paint3_linear_59_1425" x1="59.7441" y1="86.9419" x2="65.457" y2="86.9419" gradientUnits="userSpaceOnUse">
<stop stop-color="#CACFDD"/>
<stop offset="1" stop-color="#EEF0F1"/>
</linearGradient>
</defs>
</svg>
