<svg width="60" height="60" viewBox="0 0 60 60" fill="none" xmlns="http://www.w3.org/2000/svg">
<path d="M13.029 47.6494C12.2351 47.665 11.479 47.9913 10.9231 48.5583C10.3672 49.1253 10.0558 49.8876 10.0558 50.6816C10.0558 51.4757 10.3672 52.238 10.9231 52.805C11.479 53.3719 12.2351 53.6983 13.029 53.7139H41.2712V47.6494H13.029Z" fill="#F5F5F5"/>
<path d="M41.6227 54.0654H13.0289C12.1424 54.0489 11.2977 53.6852 10.6766 53.0524C10.0555 52.4196 9.70752 51.5683 9.70752 50.6816C9.70752 49.795 10.0555 48.9437 10.6766 48.3109C11.2977 47.6781 12.1424 47.3144 13.0289 47.2979H41.6227V54.0654ZM13.0289 48.001C12.3277 48.0156 11.6601 48.3045 11.1693 48.8056C10.6786 49.3068 10.4037 49.9802 10.4037 50.6816C10.4037 51.383 10.6786 52.0565 11.1693 52.5576C11.6601 53.0588 12.3277 53.3476 13.0289 53.3623H40.9195V48.001H13.0289Z" fill="#31424F"/>
<path d="M13.029 12.4219V47.6496C12.6307 47.6496 12.2364 47.7281 11.8685 47.8805C11.5006 48.0329 11.1664 48.2563 10.8849 48.538C10.6033 48.8196 10.38 49.1539 10.2278 49.5219C10.0755 49.8899 9.99716 50.2842 9.99732 50.6824V15.4582C9.9967 15.0597 10.0747 14.665 10.2267 14.2966C10.3788 13.9282 10.602 13.5935 10.8836 13.3115C11.1652 13.0295 11.4996 12.8057 11.8677 12.6531C12.2358 12.5004 12.6304 12.4219 13.029 12.4219Z" fill="#DEE1EC"/>
<path d="M13.029 12.4219V47.6496C12.6307 47.6496 12.2364 47.7281 11.8685 47.8805C11.5006 48.0329 11.1664 48.2563 10.8849 48.538C10.6033 48.8196 10.38 49.1539 10.2278 49.5219C10.0755 49.8899 9.99716 50.2842 9.99732 50.6824V15.4582C9.9967 15.0597 10.0747 14.665 10.2267 14.2966C10.3788 13.9282 10.602 13.5935 10.8836 13.3115C11.1652 13.0295 11.4996 12.8057 11.8677 12.6531C12.2358 12.5004 12.6304 12.4219 13.029 12.4219Z" fill="#31424F"/>
<path d="M10.3489 50.6824H9.64575V15.4582C9.64544 14.5604 10.0016 13.6992 10.636 13.0639C11.2704 12.4286 12.1311 12.0712 13.029 12.0703H13.3805V48.0012H13.029C12.6769 48.0012 12.3283 48.0705 12.0031 48.2053C11.6778 48.34 11.3823 48.5376 11.1334 48.7866C10.8846 49.0356 10.6872 49.3311 10.5525 49.6564C10.4179 49.9817 10.3487 50.3304 10.3489 50.6824ZM12.6774 12.8004C12.0335 12.8868 11.4427 13.2038 11.0145 13.6925C10.5864 14.1812 10.3499 14.8085 10.3489 15.4582V48.6223C10.6282 48.2585 10.9787 47.9556 11.3791 47.7319C11.7794 47.5083 12.2212 47.3686 12.6774 47.3215V12.8004Z" fill="#31424F"/>
<path d="M13.0289 12.4253H41.2711V47.6495H13.0289V12.4253Z" fill="#DEE1EC"/>
<path d="M13.0289 12.4268H41.2723V47.6498H13.0289V12.4268Z" fill="#DEE1EC"/>
<path style="mix-blend-mode:multiply" d="M41.2711 12.4219V17.0039H39.3L36.2332 20.0156C36.1078 20.1386 35.9489 20.2219 35.7764 20.255C35.6039 20.288 35.4255 20.2694 35.2635 20.2014C35.1016 20.1335 34.9633 20.0192 34.866 19.8729C34.7687 19.7267 34.7168 19.5549 34.7168 19.3793V17.0074H34.5375C33.5825 17.0062 32.667 16.626 31.992 15.9504C31.3171 15.2748 30.9378 14.3589 30.9375 13.4039V12.4219H41.2711Z" fill="url(#paint0_linear_59_1984)"/>
<path d="M41.6227 48.0012H12.6774V12.0703H41.6227V48.0012ZM13.3805 47.298H40.9196V12.7734H13.3805V47.298Z" fill="#31424F"/>
<path d="M41.6227 48.0012H12.6774V12.0703H41.6227V48.0012ZM13.3805 47.298H40.9196V12.7734H13.3805V47.298Z" fill="#31424F"/>
<path d="M27.5872 36.2098C32.8729 36.2098 37.1579 31.9248 37.1579 26.6391C37.1579 21.3533 32.8729 17.0684 27.5872 17.0684C22.3014 17.0684 18.0165 21.3533 18.0165 26.6391C18.0165 31.9248 22.3014 36.2098 27.5872 36.2098Z" fill="#F5F5F5"/>
<path d="M27.5872 36.5623C25.6247 36.5623 23.7064 35.9804 22.0747 34.8901C20.443 33.7998 19.1712 32.2502 18.4202 30.4371C17.6692 28.6241 17.4727 26.629 17.8556 24.7043C18.2384 22.7796 19.1834 21.0116 20.5711 19.6239C21.9587 18.2363 23.7267 17.2913 25.6514 16.9084C27.5762 16.5256 29.5712 16.7221 31.3843 17.4731C33.1973 18.2241 34.747 19.4958 35.8373 21.1275C36.9275 22.7592 37.5095 24.6776 37.5095 26.64C37.5063 29.2706 36.46 31.7926 34.5999 33.6527C32.7397 35.5128 30.2178 36.5592 27.5872 36.5623ZM27.5872 17.4209C25.7638 17.4209 23.9814 17.9616 22.4653 18.9746C20.9492 19.9876 19.7676 21.4275 19.0698 23.112C18.372 24.7966 18.1895 26.6503 18.5452 28.4386C18.9009 30.2269 19.7789 31.8696 21.0683 33.159C22.3576 34.4483 24.0003 35.3263 25.7886 35.682C27.577 36.0378 29.4306 35.8552 31.1152 35.1574C32.7998 34.4596 34.2396 33.278 35.2526 31.7619C36.2656 30.2458 36.8063 28.4634 36.8063 26.64C36.8038 24.1956 35.8318 21.852 34.1034 20.1235C32.3751 18.3949 30.0316 17.4225 27.5872 17.4197V17.4209Z" fill="#31424F"/>
<path d="M33.0704 24.2157V22.9161H28.3712V22.3231L27.613 20.9028L26.856 22.3231V22.9161H22.1567V24.2157H26.856V30.6083H24.981C24.8479 30.6081 24.7161 30.6342 24.5931 30.685C24.4702 30.7359 24.3584 30.8104 24.2643 30.9044C24.1701 30.9985 24.0954 31.1101 24.0445 31.2331C23.9935 31.356 23.9673 31.4877 23.9673 31.6208V32.3755H31.5095V31.6208C31.5095 31.4877 31.4832 31.356 31.4323 31.2331C31.3813 31.1101 31.3066 30.9985 31.2125 30.9044C31.1184 30.8104 31.0066 30.7359 30.8836 30.685C30.7606 30.6342 30.6289 30.6081 30.4958 30.6083H28.3712V24.2157H33.0704Z" fill="#DEE1EC"/>
<path d="M31.8586 32.727H23.6133V31.6207C23.6139 31.2589 23.758 30.9121 24.0139 30.6564C24.2698 30.4007 24.6167 30.257 24.9785 30.2566H26.502V24.5672H21.8027V22.5645H26.502V22.2352L27.6129 20.1562L28.7227 22.2363V22.5656H33.4219V24.5684H28.7227V30.2578H30.4934C30.8551 30.2581 31.202 30.4019 31.458 30.6576C31.7139 30.9133 31.858 31.2601 31.8586 31.6219V32.727ZM24.3164 32.0238H31.1555V31.6207C31.1552 31.4453 31.0853 31.2772 30.9611 31.1533C30.837 31.0294 30.6688 30.9598 30.4934 30.9598H28.0195V23.8641H32.7188V23.2676H28.0195V22.4109L27.6129 21.6504L27.2074 22.4109V23.2676H22.5082V23.8641H27.2074V30.9598H24.9809C24.8055 30.9598 24.6372 31.0294 24.5131 31.1533C24.389 31.2772 24.3191 31.4453 24.3188 31.6207L24.3164 32.0238Z" fill="#31424F"/>
<path d="M20.8442 27.3047H24.9458V27.9211C24.9458 28.1902 24.8389 28.4484 24.6486 28.6387C24.4582 28.829 24.2001 28.9359 23.931 28.9359H21.8591C21.5899 28.9359 21.3318 28.829 21.1415 28.6387C20.9512 28.4484 20.8442 28.1902 20.8442 27.9211V27.3047Z" fill="#A9AFC4"/>
<path d="M25.2985 27.3082H24.5954V27.0832L23.4599 24.5684H22.3794L21.1958 27.0867V27.3082H20.4927V26.9297L21.9329 23.8652H23.9134L25.2985 26.932V27.3082Z" fill="#31424F"/>
<path d="M30.2274 27.3047H34.329V27.9211C34.3302 28.055 34.305 28.1877 34.2547 28.3118C34.2044 28.4359 34.13 28.5487 34.0359 28.6439C33.9418 28.7391 33.8298 28.8148 33.7063 28.8665C33.5828 28.9182 33.4503 28.945 33.3165 28.9453H31.2423C30.9731 28.9453 30.715 28.8384 30.5247 28.6481C30.3343 28.4578 30.2274 28.1996 30.2274 27.9305V27.3047Z" fill="#A9AFC4"/>
<path d="M23.9321 29.2969H21.8591C21.4969 29.2963 21.1497 29.1521 20.8936 28.896C20.6375 28.6399 20.4933 28.2927 20.4927 27.9305V26.9531H25.2974V27.9211C25.2983 28.1011 25.2637 28.2796 25.1955 28.4462C25.1274 28.6129 25.027 28.7645 24.9002 28.8923C24.7734 29.0201 24.6226 29.1216 24.4565 29.191C24.2904 29.2604 24.1122 29.2964 23.9321 29.2969ZM21.1958 27.6562V27.9211C21.1961 28.0969 21.2661 28.2654 21.3904 28.3898C21.5147 28.5141 21.6833 28.5841 21.8591 28.5844H23.9321C24.108 28.5844 24.2768 28.5145 24.4011 28.3901C24.5255 28.2657 24.5954 28.097 24.5954 27.9211V27.6562H21.1958Z" fill="#31424F"/>
<path d="M33.3165 29.2969H31.2423C30.8801 29.2963 30.5329 29.1521 30.2767 28.896C30.0206 28.6399 29.8765 28.2927 29.8759 27.9305V26.9531H34.6805V27.9211C34.6815 28.101 34.6469 28.2794 34.5788 28.446C34.5107 28.6125 34.4105 28.7641 34.2838 28.8918C34.1571 29.0196 34.0064 29.1212 33.8405 29.1907C33.6745 29.2602 33.4964 29.2963 33.3165 29.2969ZM30.579 27.6562V27.9211C30.5779 28.0089 30.5942 28.0961 30.6271 28.1776C30.6599 28.2591 30.7086 28.3333 30.7703 28.3958C30.8319 28.4584 30.9054 28.5081 30.9864 28.5421C31.0675 28.576 31.1544 28.5936 31.2423 28.5938H33.3165C33.4923 28.5934 33.6608 28.5235 33.7851 28.3991C33.9095 28.2748 33.9794 28.1063 33.9798 27.9305V27.6562H30.579Z" fill="#31424F"/>
<path d="M34.6829 27.3082H33.9798V27.034L32.8454 24.5684H31.7626L30.579 27.0375V27.3082H29.8759V26.8781L31.3196 23.8652H33.2954L34.6829 26.8805V27.3082Z" fill="#31424F"/>
<path d="M18.0165 39.751H37.1579V44.1514H18.0165V39.751Z" fill="#C44E47"/>
<path d="M37.5094 44.5041H17.6649V39.3994H37.5094V44.5041ZM18.368 43.801H36.8063V40.1025H18.368V43.801Z" fill="#31424F"/>
<path d="M20.8442 41.6006H34.5587V42.3037H20.8442V41.6006Z" fill="white"/>
<path d="M49 5.79607V13.207C48.9998 13.6835 48.855 14.1403 48.5975 14.4771C48.3399 14.8139 47.9908 15.0031 47.6267 15.0031H36.4529L34.8983 17V15.0031H33.3724C33.0084 15.0031 32.6593 14.8138 32.402 14.477C32.1446 14.1402 32 13.6834 32 13.207V5.79607C31.9999 5.55986 32.0354 5.32595 32.1045 5.10775C32.1736 4.88954 32.2749 4.69132 32.4027 4.52447C32.5304 4.35761 32.6821 4.22539 32.8489 4.13539C33.0158 4.0454 33.1946 3.99939 33.3751 4.00001H47.6276C47.9916 4.00001 48.3407 4.18923 48.598 4.52606C48.8554 4.86289 49 5.31972 49 5.79607Z" fill="#F5F5F5"/>
<path d="M40.0178 12L37 8.94365L37.9421 7.98949L40.0178 10.0917L44.0579 6L45 6.95415L40.0178 12Z" fill="#C44E47"/>
<path d="M34.8098 18V15.5521H33.5916C33.1696 15.5515 32.7651 15.328 32.4667 14.9305C32.1683 14.5331 32.0005 13.9943 32 13.4322V6.11988C32.0002 5.55795 32.1679 5.0191 32.4661 4.62165C32.7643 4.22419 33.1688 4.00061 33.5907 4H47.4084C47.8304 4.00061 48.235 4.22415 48.5333 4.62158C48.8317 5.019 48.9995 5.55784 49 6.11988V13.4322C48.9993 13.9944 48.8313 14.5332 48.5328 14.9306C48.2343 15.328 47.8296 15.5515 47.4076 15.5521H36.6851L34.8098 18ZM33.5907 4.69542C33.3073 4.69604 33.0356 4.84635 32.8353 5.11338C32.635 5.38042 32.5223 5.74238 32.5221 6.11988V13.4322C32.5226 13.8098 32.6354 14.1718 32.8359 14.4388C33.0363 14.7058 33.3081 14.8561 33.5916 14.8567H35.332V16.3449L36.4719 14.8567H47.4076C47.6912 14.8564 47.9632 14.7063 48.1638 14.4392C48.3645 14.1722 48.4774 13.81 48.4779 13.4322V6.11988C48.4774 5.74228 48.3646 5.38032 48.1641 5.11331C47.9637 4.84631 47.6919 4.69603 47.4084 4.69542H33.5907Z" fill="#31424F"/>
<path d="M14.5325 49.3618H23.1973V50.0649H14.5325V49.3618Z" fill="#31424F"/>
<path d="M28.0184 51.1924H41.2712V51.8955H28.0184V51.1924Z" fill="#31424F"/>
<path d="M7.5 20.2736H6.79688V19.5705H7.5V20.2736ZM7.5 18.3986H6.79688V17.6955H7.5V18.3986ZM7.5 16.5236H6.79688V15.8205H7.5V16.5236ZM7.54336 14.6932L6.84023 14.6076C6.8705 14.3615 6.9151 14.1173 6.97383 13.8764L7.65703 14.0428C7.60744 14.2576 7.57065 14.4752 7.54688 14.6943L7.54336 14.6932ZM8.02969 13.008L7.39102 12.7115C7.49563 12.487 7.61301 12.2687 7.74258 12.0576L8.34141 12.4221C8.22568 12.6109 8.12158 12.8065 8.02969 13.008ZM9.00586 11.5455L8.48906 11.0697C8.65706 10.8854 8.83548 10.7109 9.02344 10.5471L9.48281 11.0791C9.31524 11.2243 9.156 11.3788 9.00586 11.542V11.5455ZM10.3816 10.4486L10.0301 9.83809C10.2467 9.71426 10.4701 9.60276 10.6992 9.5041L10.9746 10.151C10.7715 10.2377 10.5735 10.3359 10.3816 10.4451V10.4486ZM12.0223 9.8252L11.877 9.13613C12.12 9.08583 12.3657 9.04906 12.6129 9.02598L12.6762 9.7291C12.4577 9.74714 12.2406 9.77805 12.0258 9.82168L12.0223 9.8252ZM14.5184 9.70801H13.8152V9.00488H14.5184V9.70801Z" fill="#A9AFC4"/>
<path d="M44.3907 27.7243C44.2402 27.5534 44.1343 27.348 44.0823 27.1264C44.0303 26.9048 44.0339 26.6738 44.0926 26.4538C44.1513 26.2339 44.2634 26.0319 44.419 25.8656C44.5745 25.6994 44.7687 25.5742 44.9843 25.5011C45.1998 25.4279 45.4301 25.4091 45.6547 25.4463C45.8793 25.4836 46.0912 25.5757 46.2716 25.7144C46.4521 25.8532 46.5955 26.0344 46.6891 26.2419C46.7827 26.4494 46.8236 26.6768 46.8082 26.904C46.7887 27.1758 46.6895 27.4358 46.5229 27.6515C46.3563 27.8672 46.1298 28.0289 45.8717 28.1165C45.6136 28.2041 45.3355 28.2136 45.072 28.1438C44.8086 28.074 44.5716 27.9281 44.3907 27.7243ZM45.4301 26.1329C45.2996 26.1333 45.1719 26.1712 45.0623 26.2421C44.9527 26.313 44.8658 26.414 44.8119 26.5329C44.7581 26.6518 44.7396 26.7837 44.7586 26.9129C44.7776 27.042 44.8333 27.163 44.9192 27.2614C44.9777 27.3298 45.0493 27.3858 45.1298 27.4261C45.2103 27.4664 45.2981 27.49 45.3879 27.4958C45.5218 27.5031 45.6548 27.4709 45.7704 27.403C45.8859 27.335 45.9789 27.2345 46.0376 27.114C46.0963 26.9935 46.1181 26.8584 46.1003 26.7255C46.0825 26.5927 46.0259 26.468 45.9375 26.3672C45.8746 26.2942 45.7968 26.2355 45.7092 26.1951C45.6217 26.1546 45.5265 26.1334 45.4301 26.1329Z" fill="#31424F"/>
<path d="M52.3137 21.5707C52.1353 21.5707 51.9598 21.5259 51.8031 21.4405C51.6464 21.3551 51.5137 21.2318 51.417 21.0819C51.3202 20.932 51.2626 20.7602 51.2494 20.5823C51.2362 20.4043 51.2678 20.2259 51.3413 20.0633C51.4147 19.9008 51.5278 19.7592 51.6701 19.6516C51.8124 19.544 51.9795 19.4737 52.1559 19.4473C52.3324 19.4209 52.5126 19.4391 52.6802 19.5003C52.8478 19.5615 52.9974 19.6637 53.1153 19.7977C53.251 19.9518 53.3394 20.1419 53.3698 20.345C53.4003 20.5481 53.3714 20.7557 53.2868 20.9429C53.2022 21.1301 53.0654 21.2889 52.8928 21.4002C52.7202 21.5116 52.5191 21.5708 52.3137 21.5707ZM52.3137 20.1387C52.2438 20.1389 52.1754 20.1592 52.1166 20.1972C52.0579 20.2353 52.0114 20.2894 51.9826 20.3531C51.9538 20.4169 51.944 20.4876 51.9543 20.5568C51.9646 20.626 51.9946 20.6908 52.0407 20.7434C52.0721 20.7794 52.1103 20.8088 52.1532 20.8299C52.196 20.851 52.2426 20.8634 52.2903 20.8664C52.3394 20.8703 52.3889 20.8642 52.4356 20.8484C52.4823 20.8326 52.5253 20.8076 52.562 20.7747C52.5988 20.7418 52.6285 20.7019 52.6493 20.6572C52.6701 20.6125 52.6817 20.5641 52.6833 20.5148C52.6849 20.4656 52.6765 20.4165 52.6585 20.3706C52.6406 20.3246 52.6136 20.2828 52.579 20.2477C52.5445 20.2125 52.5031 20.1847 52.4575 20.166C52.412 20.1472 52.363 20.138 52.3137 20.1387Z" fill="#31424F"/>
<path d="M5.06372 53.7142C5.61208 53.7142 6.138 53.9319 6.52586 54.3196C6.91372 54.7072 7.13177 55.233 7.13208 55.7813C7.13208 55.2331 7.34987 54.7073 7.73755 54.3196C8.12522 53.932 8.65102 53.7142 9.19927 53.7142C8.65102 53.7142 8.12522 53.4964 7.73755 53.1087C7.34987 52.721 7.13208 52.1952 7.13208 51.647C7.13177 52.1953 6.91372 52.7211 6.52586 53.1088C6.138 53.4964 5.61208 53.7142 5.06372 53.7142Z" fill="#C44E47"/>
<defs>
<linearGradient id="paint0_linear_59_1984" x1="36.102" y1="11.1094" x2="36.102" y2="26.4832" gradientUnits="userSpaceOnUse">
<stop stop-color="#CACFDD"/>
<stop offset="1" stop-color="#EEF0F1"/>
</linearGradient>
</defs>
</svg>
