<svg width="100" height="100" viewBox="0 0 100 100" fill="none" xmlns="http://www.w3.org/2000/svg">
<path d="M12.1262 61.0769L56.362 16.8411L80.9551 41.4342L36.7193 85.67L12.1262 61.0769Z" fill="#F5F5F5"/>
<path d="M12.1267 61.0754L56.3625 16.8396L80.957 41.4341L36.7212 85.6699L12.1267 61.0754Z" fill="#F5F5F5"/>
<path d="M40.0098 75.2402L38.9688 74.1992C38.3742 73.6066 37.569 73.2738 36.7295 73.2738C35.89 73.2738 35.0848 73.6066 34.4902 74.1992L33.4492 75.2402L22.5664 64.3594L23.6074 63.3164C24.2009 62.7227 24.5343 61.9176 24.5343 61.0781C24.5343 60.2387 24.2009 59.4336 23.6074 58.8398L22.5664 57.7988L53.0937 27.2715L54.1348 28.3125C54.7293 28.9051 55.5345 29.2379 56.374 29.2379C57.2135 29.2379 58.0187 28.9051 58.6133 28.3125L59.6543 27.2715L70.5371 38.1523L69.4961 39.1953C68.9031 39.7893 68.57 40.5943 68.57 41.4336C68.57 42.2729 68.9031 43.0779 69.4961 43.6719L70.5371 44.7129L40.0098 75.2402Z" fill="#A9AFC4"/>
<path d="M51.9395 52.8476L47.5977 57.1894C47.1585 57.6361 46.6353 57.9914 46.0581 58.2348C45.4809 58.4783 44.8612 58.605 44.2348 58.6076C43.6084 58.6103 42.9877 58.4889 42.4084 58.2504C41.8292 58.0119 41.3029 57.6611 40.86 57.2181C40.417 56.7752 40.0662 56.2489 39.8277 55.6697C39.5892 55.0905 39.4678 54.4697 39.4705 53.8433C39.4732 53.2169 39.5999 52.5972 39.8433 52.02C40.0867 51.4429 40.442 50.9196 40.8887 50.4804L45.2305 46.1386C46.1227 45.2615 47.3254 44.7723 48.5766 44.7776C49.8278 44.783 51.0263 45.2824 51.911 46.1671C52.7958 47.0519 53.2952 48.2503 53.3005 49.5015C53.3058 50.7527 52.8166 51.9554 51.9395 52.8476Z" fill="#DEE1EC"/>
<path d="M44.2422 59.1641C43.188 59.1645 42.1573 58.8521 41.2807 58.2666C40.4041 57.681 39.7208 56.8486 39.3175 55.8746C38.9141 54.9006 38.8088 53.8288 39.0147 52.7949C39.2207 51.761 39.7288 50.8115 40.4746 50.0664L44.8144 45.7246C45.3093 45.2296 45.8969 44.8369 46.5435 44.569C47.1902 44.301 47.8833 44.1631 48.5833 44.163C49.2833 44.1629 49.9764 44.3007 50.6231 44.5684C51.2699 44.8362 51.8575 45.2288 52.3525 45.7237C52.8476 46.2186 53.2402 46.8061 53.5082 47.4528C53.7762 48.0994 53.9141 48.7925 53.9142 49.4925C53.9143 50.1925 53.7765 50.8856 53.5087 51.5323C53.2409 52.1791 52.8484 52.7667 52.3535 53.2618C52.3535 53.2813 52.6309 52.9864 48.0117 57.6035C47.518 58.1003 46.9306 58.494 46.2835 58.7619C45.6364 59.0298 44.9425 59.1665 44.2422 59.1641ZM45.6445 46.5528L41.3027 50.8946C40.5229 51.6744 40.0848 52.7321 40.0848 53.835C40.0848 54.9379 40.5229 55.9956 41.3027 56.7754C42.0826 57.5553 43.1403 57.9934 44.2432 57.9934C45.346 57.9934 46.4037 57.5553 47.1836 56.7754L51.5254 52.4336C51.9115 52.0475 52.2178 51.5891 52.4268 51.0845C52.6358 50.58 52.7434 50.0393 52.7434 49.4932C52.7434 48.9471 52.6358 48.4064 52.4268 47.9018C52.2178 47.3973 51.9115 46.9389 51.5254 46.5528C51.1392 46.1666 50.6808 45.8603 50.1763 45.6513C49.6718 45.4424 49.131 45.3348 48.585 45.3348C48.0389 45.3348 47.4981 45.4424 46.9936 45.6513C46.4891 45.8603 46.0307 46.1666 45.6445 46.5528Z" fill="#31424F"/>
<path d="M36.7285 86.5039L11.3027 61.0781L56.375 16.0156L81.8008 41.4336L36.7285 86.5039ZM12.9609 61.0781L36.7285 84.8477L80.1426 41.4336L56.375 17.6641L12.9609 61.0781Z" fill="#31424F"/>
<path d="M74.582 59.0489L84.5 68.9649C85.8112 70.2776 87.5786 71.0333 89.4336 71.0742L90.7754 71.1055L87.8457 74.0352C87.0375 74.8423 85.942 75.2956 84.7998 75.2956C83.6576 75.2956 82.5621 74.8423 81.7539 74.0352L71.7578 64.0371C70.3967 62.6783 68.5522 61.9148 66.6289 61.9141C68.5548 61.9143 70.4017 62.6794 71.7637 64.041L82.9746 75.252L81.4805 76.7461C81.0994 77.1288 80.6465 77.4324 80.1477 77.6396C79.649 77.8468 79.1143 77.9535 78.5742 77.9535C78.0342 77.9535 77.4994 77.8468 77.0007 77.6396C76.502 77.4324 76.0491 77.1288 75.668 76.7461L66.9375 68.0156L76.8711 77.9492L75.3262 79.4922C74.6158 80.2013 73.6531 80.5995 72.6494 80.5995C71.6457 80.5995 70.683 80.2013 69.9727 79.4922L62.6152 72.1348C61.858 71.3756 60.934 70.8036 59.9168 70.4645C58.8995 70.1254 57.8171 70.0286 56.7559 70.1817L51.4551 70.9629C52.1934 70.2266 64.0664 58.3516 63.3691 59.0489C64.8572 57.5641 66.8735 56.7302 68.9756 56.7302C71.0777 56.7302 73.094 57.5641 74.582 59.0489Z" fill="#DEE1EC"/>
<path d="M81.377 76.8379C80.5975 77.5635 79.5671 77.9586 78.5024 77.94C77.4376 77.9215 76.4216 77.4907 75.668 76.7383L66.9375 68.0078C66.4635 67.5334 65.9005 67.1572 65.2808 66.9008C64.6611 66.6444 63.9968 66.5128 63.3262 66.5137H66.0605C67.729 66.515 69.3287 67.1789 70.5078 68.3594L76.9844 74.8359C78.1606 76.0092 79.7198 76.7198 81.377 76.8379Z" fill="#F5F5F5"/>
<path style="mix-blend-mode:multiply" d="M81.377 76.8379C80.5975 77.5635 79.5671 77.9586 78.5024 77.94C77.4376 77.9215 76.4216 77.4907 75.668 76.7383L66.9375 68.0078C66.4635 67.5334 65.9005 67.1572 65.2808 66.9008C64.6611 66.6444 63.9968 66.5128 63.3262 66.5137H66.0605C67.729 66.515 69.3287 67.1789 70.5078 68.3594L76.9844 74.8359C78.1606 76.0092 79.7198 76.7198 81.377 76.8379Z" fill="url(#paint0_linear_56_791)"/>
<path style="mix-blend-mode:multiply" d="M74.6094 80.0449C73.8858 80.4838 73.0361 80.6679 72.1958 80.5677C71.3554 80.4675 70.5728 80.0889 69.9727 79.4922L62.6152 72.1289C61.6067 71.1204 60.3101 70.4496 58.9043 70.209H61.4141C63.081 70.2093 64.6798 70.871 65.8594 72.0488L72.3359 78.5254C72.9855 79.1776 73.7583 79.6941 74.6094 80.0449Z" fill="url(#paint1_linear_56_791)"/>
<path style="mix-blend-mode:multiply" d="M89.6133 72.2656L87.8555 74.0234C87.0601 74.8221 85.9827 75.2762 84.8556 75.2879C83.7285 75.2996 82.6419 74.8679 81.8301 74.0859C81.7891 74.0508 82.2363 74.4941 71.7676 64.0254C70.5174 62.7767 68.8552 62.0262 67.0918 61.9141H70.7285C71.5541 61.914 72.3717 62.0767 73.1344 62.3927C73.8971 62.7087 74.5902 63.1719 75.1738 63.7559L81.6504 70.2324C82.293 70.8764 83.0561 71.3874 83.8963 71.7363C84.7365 72.0851 85.6372 72.265 86.5469 72.2656H89.6133Z" fill="url(#paint2_linear_56_791)"/>
<path d="M69.5586 79.9024L62.2012 72.545C61.5054 71.8519 60.6579 71.3301 59.7257 71.021C58.7935 70.7118 57.8022 70.6238 56.8301 70.7637L49.7812 71.795L62.9434 58.6348C63.7343 57.8426 64.6737 57.2141 65.7077 56.7853C66.7418 56.3565 67.8503 56.1357 68.9697 56.1357C70.0892 56.1357 71.1977 56.3565 72.2317 56.7853C73.2658 57.2141 74.2052 57.8426 74.9961 58.6348L84.9141 68.5547C86.1194 69.7631 87.7467 70.4563 89.4531 70.4883L92.166 70.5508L88.2715 74.4454C87.6436 75.0706 86.8582 75.5144 85.9986 75.7297C85.139 75.9449 84.2372 75.9236 83.3887 75.668L81.8945 77.1485C81.304 77.741 80.5657 78.1646 79.7562 78.3755C78.9467 78.5864 78.0955 78.5768 77.291 78.3477C77.1621 78.4747 77.7305 77.9083 75.7402 79.8985C75.3347 80.3049 74.8531 80.6274 74.3229 80.8475C73.7927 81.0676 73.2243 81.1812 72.6502 81.1815C72.0761 81.1819 71.5076 81.0691 70.9771 80.8496C70.4466 80.6301 69.9646 80.3083 69.5586 79.9024ZM57.7305 69.5313C59.7168 69.5316 61.6221 70.3189 63.0293 71.7208L70.3867 79.0782C70.6838 79.3754 71.0366 79.6112 71.4248 79.7721C71.813 79.9329 72.2292 80.0157 72.6494 80.0157C73.0697 80.0157 73.4858 79.9329 73.874 79.7721C74.2623 79.6112 74.615 79.3754 74.9121 79.0782L76.043 77.9454C57.0508 58.9551 73.5039 75.4063 66.5234 68.4258C66.1045 68.0047 65.6062 67.6708 65.0574 67.4435C64.5086 67.2162 63.9202 67.1 63.3262 67.1016H62.4336V65.9297H63.3262C64.0741 65.9276 64.8151 66.0739 65.5061 66.3603C66.197 66.6466 66.8243 67.0672 67.3516 67.5977L76.0879 76.334C76.4145 76.6615 76.8024 76.9213 77.2296 77.0986C77.6567 77.2758 78.1147 77.3671 78.5771 77.3671C79.0396 77.3671 79.4975 77.2758 79.9247 77.0986C80.3519 76.9213 80.7398 76.6615 81.0664 76.334L82.1445 75.254L71.3496 64.4532C70.7307 63.8321 69.9948 63.3397 69.1846 63.0045C68.3744 62.6693 67.5058 62.4978 66.6289 62.5001H66.0898V61.3282H66.6289C67.6599 61.3255 68.6811 61.5273 69.6336 61.9219C70.586 62.3164 71.4507 62.896 72.1777 63.627L82.1738 73.6251C82.8718 74.3223 83.8181 74.7139 84.8047 74.7139C85.7913 74.7139 86.7375 74.3223 87.4355 73.6251L89.3887 71.6719C87.3925 71.6231 85.4919 70.8067 84.082 69.3926L74.1641 59.4747C73.4817 58.7916 72.6713 58.2497 71.7794 57.88C70.8874 57.5102 69.9314 57.3199 68.9658 57.3199C68.0003 57.3199 67.0442 57.5102 66.1522 57.88C65.2603 58.2497 64.45 58.7916 63.7676 59.4747L53.1094 70.1172C56.9629 69.5606 57.0176 69.5313 57.7305 69.5313Z" fill="#31424F"/>
<path d="M38.7598 23.2266L28.8418 13.3086C27.5304 11.9965 26.775 10.2296 26.7324 8.375L26.7031 7.03125L23.7734 9.96094C23.3725 10.3602 23.0543 10.8347 22.8372 11.3572C22.6201 11.8798 22.5083 12.44 22.5083 13.0059C22.5083 13.5717 22.6201 14.132 22.8372 14.6545C23.0543 15.177 23.3725 15.6515 23.7734 16.0508L33.7695 26.0488L22.5625 14.8438L21.0684 16.3379C20.686 16.7189 20.3826 17.1717 20.1756 17.6703C19.9686 18.1688 19.862 18.7033 19.862 19.2432C19.862 19.783 19.9686 20.3175 20.1756 20.8161C20.3826 21.3146 20.686 21.7674 21.0684 22.1484L29.7988 30.8789L19.8652 20.9453L18.3203 22.4805C17.9688 22.832 17.6899 23.2493 17.4996 23.7085C17.3094 24.1678 17.2114 24.6601 17.2114 25.1572C17.2114 25.6544 17.3094 26.1466 17.4996 26.6059C17.6899 27.0652 17.9688 27.4825 18.3203 27.834L25.6777 35.1914C26.4381 35.9503 27.0106 36.8763 27.3497 37.8956C27.6888 38.9149 27.7851 39.9994 27.6309 41.0625L26.8496 46.3613C27.5879 45.625 39.4609 33.75 38.7637 34.4473C40.2503 32.9584 41.085 30.9401 41.0843 28.8361C41.0835 26.7321 40.2474 24.7144 38.7598 23.2266Z" fill="#DEE1EC"/>
<path d="M20.9707 16.4316C20.2453 17.211 19.8501 18.2412 19.8683 19.3058C19.8866 20.3704 20.3167 21.3865 21.0683 22.1406L29.7988 30.8711C30.2738 31.3448 30.6505 31.9077 30.9072 32.5275C31.164 33.1472 31.2957 33.8116 31.2949 34.4824V31.7363C31.295 30.911 31.1324 30.0937 30.8163 29.3313C30.5003 28.5689 30.0371 27.8762 29.4531 27.293L22.9765 20.8164C21.8034 19.6429 21.0915 18.0866 20.9707 16.4316Z" fill="#F5F5F5"/>
<path style="mix-blend-mode:multiply" d="M20.9707 16.4316C20.2453 17.211 19.8501 18.2412 19.8683 19.3058C19.8866 20.3704 20.3167 21.3865 21.0683 22.1406L29.7988 30.8711C30.2738 31.3448 30.6505 31.9077 30.9072 32.5275C31.164 33.1472 31.2957 33.8116 31.2949 34.4824V31.7363C31.295 30.911 31.1324 30.0937 30.8163 29.3313C30.5003 28.5689 30.0371 27.8762 29.4531 27.293L22.9765 20.8164C21.8034 19.6429 21.0915 18.0866 20.9707 16.4316Z" fill="url(#paint3_linear_56_791)"/>
<path style="mix-blend-mode:multiply" d="M17.7617 23.1895C17.3216 23.9144 17.1374 24.7661 17.2387 25.6082C17.3399 26.4503 17.7208 27.234 18.3203 27.834L25.6777 35.1914C26.6859 36.2002 27.3567 37.4966 27.5976 38.9023V36.3965C27.5977 35.5711 27.4351 34.7539 27.1191 33.9915C26.803 33.229 26.3398 32.5364 25.7558 31.9531L19.2812 25.4766C18.6287 24.822 18.1123 24.0446 17.7617 23.1895Z" fill="url(#paint4_linear_56_791)"/>
<path style="mix-blend-mode:multiply" d="M25.539 8.20312L23.7812 9.96094C22.9851 10.7576 22.5326 11.8343 22.5205 12.9605C22.5085 14.0867 22.9379 15.1728 23.7168 15.9863C23.7539 16.0273 23.3086 15.582 33.7773 26.0508C35.0265 27.2983 35.7772 28.9588 35.8886 30.7207V27.0781C35.8887 25.4117 35.2269 23.8134 34.0488 22.6348L27.5683 16.1562C26.9252 15.5136 26.415 14.7507 26.0668 13.9108C25.7186 13.071 25.5393 12.1709 25.539 11.2617V8.20312Z" fill="url(#paint5_linear_56_791)"/>
<path d="M26.0117 48.0254L27.043 40.9766C27.183 40.0049 27.0952 39.014 26.7864 38.0822C26.4776 37.1504 25.9563 36.3031 25.2637 35.6074L17.9063 28.248C17.4999 27.8424 17.1775 27.3606 16.9576 26.8303C16.7376 26.2999 16.6244 25.7314 16.6244 25.1572C16.6244 24.5831 16.7376 24.0145 16.9576 23.4842C17.1775 22.9538 17.4999 22.472 17.9063 22.0664L19.457 20.5078C19.2281 19.7037 19.2184 18.8531 19.4289 18.044C19.6394 17.2349 20.0625 16.4968 20.6543 15.9063L22.1406 14.4199C21.8842 13.5715 21.8625 12.6695 22.0778 11.8097C22.293 10.9499 22.7373 10.1646 23.3633 9.53711L27.2578 5.64258L27.3184 8.35547C27.3537 10.0608 28.0481 11.6862 29.2559 12.8906L39.1738 22.8066C39.9659 23.5979 40.5942 24.5374 41.0229 25.5717C41.4516 26.6059 41.6723 27.7144 41.6723 28.834C41.6723 29.9535 41.4516 31.0621 41.0229 32.0963C40.5942 33.1305 39.9659 34.0701 39.1738 34.8613L26.0117 48.0254ZM19.8652 21.7637L18.7344 22.8965C18.4372 23.1934 18.2015 23.546 18.0406 23.9341C17.8798 24.3221 17.797 24.7381 17.797 25.1582C17.797 25.5783 17.8798 25.9943 18.0406 26.3823C18.2015 26.7704 18.4372 27.123 18.7344 27.4199L26.0918 34.7773C26.9133 35.6027 27.5317 36.6077 27.8982 37.7131C28.2646 38.8184 28.369 39.9938 28.2031 41.1465L27.6836 44.6973L38.3457 34.0352C39.0298 33.354 39.572 32.5439 39.9408 31.6518C40.3095 30.7597 40.4976 29.8032 40.4942 28.8379C40.4942 25.5488 38.3457 23.6211 38.3457 23.6406L28.4277 13.7227C27.0122 12.313 26.1956 10.4112 26.1485 8.41406L24.1953 10.3672C23.4993 11.065 23.1084 12.0105 23.1084 12.9961C23.1084 13.9817 23.4993 14.9271 24.1953 15.625L34.1797 25.6289C34.9109 26.3561 35.4906 27.2212 35.8852 28.174C36.2798 29.1268 36.4815 30.1484 36.4785 31.1797V31.7168H35.3067V31.1797C35.3089 30.3028 35.1374 29.4342 34.8022 28.624C34.467 27.8138 33.9746 27.0779 33.3535 26.459L22.5625 15.6621L21.4844 16.7422C21.1572 17.0687 20.8977 17.4566 20.7206 17.8836C20.5435 18.3105 20.4523 18.7682 20.4523 19.2305C20.4523 19.6927 20.5435 20.1504 20.7206 20.5774C20.8977 21.0044 21.1572 21.3922 21.4844 21.7188L30.2207 30.4551C30.751 30.9829 31.1714 31.6106 31.4576 32.3019C31.7439 32.9931 31.8904 33.7342 31.8887 34.4824V35.373H30.7168V34.4824C30.7187 33.8881 30.6026 33.2993 30.3753 32.7501C30.148 32.2009 29.814 31.7023 29.3926 31.2832L19.8652 21.7637Z" fill="#31424F"/>
<path d="M36.1836 88.9512H37.3555V92.9688H36.1836V88.9512Z" fill="#31424F"/>
<path d="M40.1741 88.5052L41.0026 87.6767L43.8445 90.5185L43.0159 91.3471L40.1741 88.5052Z" fill="#31424F"/>
<path d="M29.7688 90.7551L32.6092 87.9147L33.4377 88.7432L30.5973 91.5836L29.7688 90.7551Z" fill="#31424F"/>
<path d="M68.9453 24.0234L68.1172 23.1953L68.9453 22.3652L69.7734 23.1953L68.9453 24.0234ZM66.7344 21.8145L65.9062 20.9844L66.7344 20.1562L67.5645 20.9844L66.7344 21.8145ZM64.5254 19.6035L63.6973 18.7754L64.5254 17.9473L65.3535 18.7754L64.5254 19.6035ZM49.4375 18.0215L48.5996 17.1875L49.4277 16.3574L50.2559 17.1875L49.4375 18.0215ZM62.3047 17.3828L61.4746 16.5527L62.3047 15.7324L63.1328 16.5605L62.3047 17.3828ZM51.6367 15.8008L50.8066 14.9707C51.5352 14.2441 51.5469 14.2285 51.6523 14.1309L52.4531 14.9863C52.3437 15.0918 52.3086 15.1367 51.6387 15.8086L51.6367 15.8008ZM60.0937 15.1719C59.8455 14.9167 59.5734 14.6859 59.2812 14.4824L59.9609 13.5273C60.3112 13.7713 60.6381 14.0472 60.9375 14.3516L60.0937 15.1719ZM53.9102 14L53.4219 12.9355C53.8117 12.7574 54.2179 12.6174 54.6348 12.5176L54.9082 13.6562C54.5632 13.742 54.2276 13.8617 53.9062 14.0137L53.9102 14ZM57.6992 13.7227C57.3599 13.6244 57.012 13.559 56.6602 13.5273L56.7617 12.3555C57.1888 12.3931 57.6113 12.4716 58.0234 12.5898L57.6992 13.7227Z" fill="#A9AFC4"/>
<path d="M9.22461 43.1641C10.7268 43.1641 12.1675 43.7608 13.2297 44.823C14.2919 45.8852 14.8887 47.3259 14.8887 48.8281C14.8887 47.3259 15.4854 45.8852 16.5476 44.823C17.6099 43.7608 19.0505 43.1641 20.5527 43.1641C19.0505 43.1641 17.6099 42.5673 16.5476 41.5051C15.4854 40.4429 14.8887 39.0022 14.8887 37.5C14.8887 39.0022 14.2919 40.4429 13.2297 41.5051C12.1675 42.5673 10.7268 43.1641 9.22461 43.1641Z" fill="#C44E47"/>
<path d="M81.377 58.5781C82.1277 58.5786 82.8476 58.8772 83.3782 59.4083C83.9089 59.9393 84.207 60.6594 84.207 61.4102C84.207 60.6594 84.5051 59.9393 85.0358 59.4083C85.5665 58.8772 86.2863 58.5786 87.0371 58.5781C86.2865 58.5781 85.5667 58.28 85.0359 57.7492C84.5052 57.2185 84.207 56.4986 84.207 55.748C84.207 56.4986 83.9089 57.2185 83.3781 57.7492C82.8474 58.28 82.1275 58.5781 81.377 58.5781Z" fill="#C44E47"/>
<defs>
<linearGradient id="paint0_linear_56_791" x1="65.323" y1="64.9186" x2="79.5687" y2="79.1644" gradientUnits="userSpaceOnUse">
<stop stop-color="#CACFDD"/>
<stop offset="1" stop-color="#EEF0F1"/>
</linearGradient>
<linearGradient id="paint1_linear_56_791" x1="60.4168" y1="69.0927" x2="73.2467" y2="81.9226" gradientUnits="userSpaceOnUse">
<stop stop-color="#CACFDD"/>
<stop offset="1" stop-color="#EEF0F1"/>
</linearGradient>
<linearGradient id="paint2_linear_56_791" x1="70.2222" y1="59.1929" x2="86.7228" y2="75.6934" gradientUnits="userSpaceOnUse">
<stop stop-color="#CACFDD"/>
<stop offset="1" stop-color="#EEF0F1"/>
</linearGradient>
<linearGradient id="paint3_linear_56_791" x1="33.0586" y1="32.6543" x2="18.8129" y2="18.4086" gradientUnits="userSpaceOnUse">
<stop stop-color="#CACFDD"/>
<stop offset="1" stop-color="#EEF0F1"/>
</linearGradient>
<linearGradient id="paint4_linear_56_791" x1="28.8846" y1="37.5605" x2="16.0561" y2="24.732" gradientUnits="userSpaceOnUse">
<stop stop-color="#CACFDD"/>
<stop offset="1" stop-color="#EEF0F1"/>
</linearGradient>
<linearGradient id="paint5_linear_56_791" x1="38.7858" y1="27.7564" x2="22.2838" y2="11.2545" gradientUnits="userSpaceOnUse">
<stop stop-color="#CACFDD"/>
<stop offset="1" stop-color="#EEF0F1"/>
</linearGradient>
</defs>
</svg>
