<svg width="18" height="19" viewBox="0 0 18 19" fill="none" xmlns="http://www.w3.org/2000/svg">
<path d="M9 0.816284C4.032 0.816284 0 4.84828 0 9.81628C0 14.7843 4.032 18.8163 9 18.8163C13.968 18.8163 18 14.7843 18 9.81628C18 4.84828 13.968 0.816284 9 0.816284ZM13.176 6.93628C13.041 8.35828 12.456 11.8143 12.159 13.4073C12.033 14.0823 11.781 14.3073 11.547 14.3343C11.025 14.3793 10.629 13.9923 10.125 13.6593C9.333 13.1373 8.883 12.8133 8.118 12.3093C7.227 11.7243 7.803 11.4003 8.316 10.8783C8.451 10.7433 10.755 8.64628 10.8 8.45728C10.8063 8.42866 10.8054 8.39894 10.7976 8.37071C10.7897 8.34248 10.7751 8.31659 10.755 8.29528C10.701 8.25028 10.629 8.26828 10.566 8.27728C10.485 8.29528 9.225 9.13228 6.768 10.7883C6.408 11.0313 6.084 11.1573 5.796 11.1483C5.472 11.1393 4.86 10.9683 4.401 10.8153C3.834 10.6353 3.393 10.5363 3.429 10.2213C3.447 10.0593 3.672 9.89728 4.095 9.72628C6.723 8.58328 8.469 7.82728 9.342 7.46728C11.844 6.42328 12.357 6.24328 12.699 6.24328C12.771 6.24328 12.942 6.26128 13.05 6.35128C13.14 6.42328 13.167 6.52228 13.176 6.59428C13.167 6.64828 13.185 6.81028 13.176 6.93628Z" fill="#31424F"/>
</svg>
