<svg width="349" height="6" viewBox="0 0 349 6" fill="none" xmlns="http://www.w3.org/2000/svg">
<path d="M0.92 4.14V3.595H3.54V4.14H0.92ZM2.66 1.25L4.46 5H3.755L2.12 1.5H2.375L0.74 5H0.035L1.835 1.25H2.66ZM4.91707 5V1.25H5.57707V4.445L5.37707 4.32L7.88707 1.25H8.60207L5.50707 5H4.91707ZM6.70207 3.115L7.16707 2.66L8.65707 5H7.90207L6.70207 3.115ZM12.7272 1.25V4.615L12.5272 4.415H13.3872V5.77H12.7722V4.905L13.0722 5H9.07723V1.25H9.73723V4.615L9.53723 4.415H12.2722L12.0722 4.615V1.25H12.7272ZM13.9307 5V1.25H14.5707V4.69L14.3457 4.65L16.9607 1.25H17.8207V5H17.1807V1.53L17.4057 1.57L14.7707 5H13.9307ZM21.4772 3.01V3.5H19.8272L19.8222 3.49C19.5589 3.49 19.3272 3.44333 19.1272 3.35C18.9305 3.25667 18.7755 3.12667 18.6622 2.96C18.5522 2.79333 18.4972 2.59833 18.4972 2.375C18.4972 2.15167 18.5522 1.95667 18.6622 1.79C18.7755 1.62 18.9305 1.48833 19.1272 1.395C19.3272 1.29833 19.5589 1.25 19.8222 1.25H21.9322V5H21.2722V1.45L21.5672 1.745H19.8972C19.6672 1.745 19.4855 1.80167 19.3522 1.915C19.2222 2.02833 19.1572 2.18167 19.1572 2.375C19.1572 2.56833 19.2222 2.72333 19.3522 2.84C19.4855 2.95333 19.6672 3.01 19.8972 3.01H21.4772ZM20.6472 3.245L19.2022 5H18.4172L19.8822 3.245H20.6472Z" fill="#DA736D"/>
<path d="M33.92 4.14V3.595H36.54V4.14H33.92ZM35.66 1.25L37.46 5H36.755L35.12 1.5H35.375L33.74 5H33.035L34.835 1.25H35.66ZM37.9171 5V1.25H38.5771V4.445L38.3771 4.32L40.8871 1.25H41.6021L38.5071 5H37.9171ZM39.7021 3.115L40.1671 2.66L41.6571 5H40.9021L39.7021 3.115ZM45.7272 1.25V4.615L45.5272 4.415H46.3872V5.77H45.7722V4.905L46.0722 5H42.0772V1.25H42.7372V4.615L42.5372 4.415H45.2722L45.0722 4.615V1.25H45.7272ZM46.9307 5V1.25H47.5707V4.69L47.3457 4.65L49.9607 1.25H50.8207V5H50.1807V1.53L50.4057 1.57L47.7707 5H46.9307ZM54.4772 3.01V3.5H52.8272L52.8222 3.49C52.5589 3.49 52.3272 3.44333 52.1272 3.35C51.9305 3.25667 51.7755 3.12667 51.6622 2.96C51.5522 2.79333 51.4972 2.59833 51.4972 2.375C51.4972 2.15167 51.5522 1.95667 51.6622 1.79C51.7755 1.62 51.9305 1.48833 52.1272 1.395C52.3272 1.29833 52.5589 1.25 52.8222 1.25H54.9322V5H54.2722V1.45L54.5672 1.745H52.8972C52.6672 1.745 52.4855 1.80167 52.3522 1.915C52.2222 2.02833 52.1572 2.18167 52.1572 2.375C52.1572 2.56833 52.2222 2.72333 52.3522 2.84C52.4855 2.95333 52.6672 3.01 52.8972 3.01H54.4772ZM53.6472 3.245L52.2022 5H51.4172L52.8822 3.245H53.6472Z" fill="#DA736D"/>
<path d="M66.92 4.14V3.595H69.54V4.14H66.92ZM68.66 1.25L70.46 5H69.755L68.12 1.5H68.375L66.74 5H66.035L67.835 1.25H68.66ZM70.9171 5V1.25H71.5771V4.445L71.3771 4.32L73.8871 1.25H74.6021L71.5071 5H70.9171ZM72.7021 3.115L73.1671 2.66L74.6571 5H73.9021L72.7021 3.115ZM78.7272 1.25V4.615L78.5272 4.415H79.3872V5.77H78.7722V4.905L79.0722 5H75.0772V1.25H75.7372V4.615L75.5372 4.415H78.2722L78.0722 4.615V1.25H78.7272ZM79.9307 5V1.25H80.5707V4.69L80.3457 4.65L82.9607 1.25H83.8207V5H83.1807V1.53L83.4057 1.57L80.7707 5H79.9307ZM87.4772 3.01V3.5H85.8272L85.8222 3.49C85.5589 3.49 85.3272 3.44333 85.1272 3.35C84.9305 3.25667 84.7755 3.12667 84.6622 2.96C84.5522 2.79333 84.4972 2.59833 84.4972 2.375C84.4972 2.15167 84.5522 1.95667 84.6622 1.79C84.7755 1.62 84.9305 1.48833 85.1272 1.395C85.3272 1.29833 85.5589 1.25 85.8222 1.25H87.9322V5H87.2722V1.45L87.5672 1.745H85.8972C85.6672 1.745 85.4855 1.80167 85.3522 1.915C85.2222 2.02833 85.1572 2.18167 85.1572 2.375C85.1572 2.56833 85.2222 2.72333 85.3522 2.84C85.4855 2.95333 85.6672 3.01 85.8972 3.01H87.4772ZM86.6472 3.245L85.2022 5H84.4172L85.8822 3.245H86.6472Z" fill="#DA736D"/>
<path d="M99.92 4.14V3.595H102.54V4.14H99.92ZM101.66 1.25L103.46 5H102.755L101.12 1.5H101.375L99.74 5H99.035L100.835 1.25H101.66ZM103.917 5V1.25H104.577V4.445L104.377 4.32L106.887 1.25H107.602L104.507 5H103.917ZM105.702 3.115L106.167 2.66L107.657 5H106.902L105.702 3.115ZM111.727 1.25V4.615L111.527 4.415H112.387V5.77H111.772V4.905L112.072 5H108.077V1.25H108.737V4.615L108.537 4.415H111.272L111.072 4.615V1.25H111.727ZM112.931 5V1.25H113.571V4.69L113.346 4.65L115.961 1.25H116.821V5H116.181V1.53L116.406 1.57L113.771 5H112.931ZM120.477 3.01V3.5H118.827L118.822 3.49C118.559 3.49 118.327 3.44333 118.127 3.35C117.931 3.25667 117.776 3.12667 117.662 2.96C117.552 2.79333 117.497 2.59833 117.497 2.375C117.497 2.15167 117.552 1.95667 117.662 1.79C117.776 1.62 117.931 1.48833 118.127 1.395C118.327 1.29833 118.559 1.25 118.822 1.25H120.932V5H120.272V1.45L120.567 1.745H118.897C118.667 1.745 118.486 1.80167 118.352 1.915C118.222 2.02833 118.157 2.18167 118.157 2.375C118.157 2.56833 118.222 2.72333 118.352 2.84C118.486 2.95333 118.667 3.01 118.897 3.01H120.477ZM119.647 3.245L118.202 5H117.417L118.882 3.245H119.647Z" fill="#DA736D"/>
<path d="M132.92 4.14V3.595H135.54V4.14H132.92ZM134.66 1.25L136.46 5H135.755L134.12 1.5H134.375L132.74 5H132.035L133.835 1.25H134.66ZM136.917 5V1.25H137.577V4.445L137.377 4.32L139.887 1.25H140.602L137.507 5H136.917ZM138.702 3.115L139.167 2.66L140.657 5H139.902L138.702 3.115ZM144.727 1.25V4.615L144.527 4.415H145.387V5.77H144.772V4.905L145.072 5H141.077V1.25H141.737V4.615L141.537 4.415H144.272L144.072 4.615V1.25H144.727ZM145.931 5V1.25H146.571V4.69L146.346 4.65L148.961 1.25H149.821V5H149.181V1.53L149.406 1.57L146.771 5H145.931ZM153.477 3.01V3.5H151.827L151.822 3.49C151.559 3.49 151.327 3.44333 151.127 3.35C150.931 3.25667 150.776 3.12667 150.662 2.96C150.552 2.79333 150.497 2.59833 150.497 2.375C150.497 2.15167 150.552 1.95667 150.662 1.79C150.776 1.62 150.931 1.48833 151.127 1.395C151.327 1.29833 151.559 1.25 151.822 1.25H153.932V5H153.272V1.45L153.567 1.745H151.897C151.667 1.745 151.486 1.80167 151.352 1.915C151.222 2.02833 151.157 2.18167 151.157 2.375C151.157 2.56833 151.222 2.72333 151.352 2.84C151.486 2.95333 151.667 3.01 151.897 3.01H153.477ZM152.647 3.245L151.202 5H150.417L151.882 3.245H152.647Z" fill="#DA736D"/>
<path d="M165.92 4.14V3.595H168.54V4.14H165.92ZM167.66 1.25L169.46 5H168.755L167.12 1.5H167.375L165.74 5H165.035L166.835 1.25H167.66ZM169.917 5V1.25H170.577V4.445L170.377 4.32L172.887 1.25H173.602L170.507 5H169.917ZM171.702 3.115L172.167 2.66L173.657 5H172.902L171.702 3.115ZM177.727 1.25V4.615L177.527 4.415H178.387V5.77H177.772V4.905L178.072 5H174.077V1.25H174.737V4.615L174.537 4.415H177.272L177.072 4.615V1.25H177.727ZM178.931 5V1.25H179.571V4.69L179.346 4.65L181.961 1.25H182.821V5H182.181V1.53L182.406 1.57L179.771 5H178.931ZM186.477 3.01V3.5H184.827L184.822 3.49C184.559 3.49 184.327 3.44333 184.127 3.35C183.931 3.25667 183.776 3.12667 183.662 2.96C183.552 2.79333 183.497 2.59833 183.497 2.375C183.497 2.15167 183.552 1.95667 183.662 1.79C183.776 1.62 183.931 1.48833 184.127 1.395C184.327 1.29833 184.559 1.25 184.822 1.25H186.932V5H186.272V1.45L186.567 1.745H184.897C184.667 1.745 184.486 1.80167 184.352 1.915C184.222 2.02833 184.157 2.18167 184.157 2.375C184.157 2.56833 184.222 2.72333 184.352 2.84C184.486 2.95333 184.667 3.01 184.897 3.01H186.477ZM185.647 3.245L184.202 5H183.417L184.882 3.245H185.647Z" fill="#DA736D"/>
<path d="M198.92 4.14V3.595H201.54V4.14H198.92ZM200.66 1.25L202.46 5H201.755L200.12 1.5H200.375L198.74 5H198.035L199.835 1.25H200.66ZM202.917 5V1.25H203.577V4.445L203.377 4.32L205.887 1.25H206.602L203.507 5H202.917ZM204.702 3.115L205.167 2.66L206.657 5H205.902L204.702 3.115ZM210.727 1.25V4.615L210.527 4.415H211.387V5.77H210.772V4.905L211.072 5H207.077V1.25H207.737V4.615L207.537 4.415H210.272L210.072 4.615V1.25H210.727ZM211.931 5V1.25H212.571V4.69L212.346 4.65L214.961 1.25H215.821V5H215.181V1.53L215.406 1.57L212.771 5H211.931ZM219.477 3.01V3.5H217.827L217.822 3.49C217.559 3.49 217.327 3.44333 217.127 3.35C216.931 3.25667 216.776 3.12667 216.662 2.96C216.552 2.79333 216.497 2.59833 216.497 2.375C216.497 2.15167 216.552 1.95667 216.662 1.79C216.776 1.62 216.931 1.48833 217.127 1.395C217.327 1.29833 217.559 1.25 217.822 1.25H219.932V5H219.272V1.45L219.567 1.745H217.897C217.667 1.745 217.486 1.80167 217.352 1.915C217.222 2.02833 217.157 2.18167 217.157 2.375C217.157 2.56833 217.222 2.72333 217.352 2.84C217.486 2.95333 217.667 3.01 217.897 3.01H219.477ZM218.647 3.245L217.202 5H216.417L217.882 3.245H218.647Z" fill="#DA736D"/>
<path d="M231.92 4.14V3.595H234.54V4.14H231.92ZM233.66 1.25L235.46 5H234.755L233.12 1.5H233.375L231.74 5H231.035L232.835 1.25H233.66ZM235.917 5V1.25H236.577V4.445L236.377 4.32L238.887 1.25H239.602L236.507 5H235.917ZM237.702 3.115L238.167 2.66L239.657 5H238.902L237.702 3.115ZM243.727 1.25V4.615L243.527 4.415H244.387V5.77H243.772V4.905L244.072 5H240.077V1.25H240.737V4.615L240.537 4.415H243.272L243.072 4.615V1.25H243.727ZM244.931 5V1.25H245.571V4.69L245.346 4.65L247.961 1.25H248.821V5H248.181V1.53L248.406 1.57L245.771 5H244.931ZM252.477 3.01V3.5H250.827L250.822 3.49C250.559 3.49 250.327 3.44333 250.127 3.35C249.931 3.25667 249.776 3.12667 249.662 2.96C249.552 2.79333 249.497 2.59833 249.497 2.375C249.497 2.15167 249.552 1.95667 249.662 1.79C249.776 1.62 249.931 1.48833 250.127 1.395C250.327 1.29833 250.559 1.25 250.822 1.25H252.932V5H252.272V1.45L252.567 1.745H250.897C250.667 1.745 250.486 1.80167 250.352 1.915C250.222 2.02833 250.157 2.18167 250.157 2.375C250.157 2.56833 250.222 2.72333 250.352 2.84C250.486 2.95333 250.667 3.01 250.897 3.01H252.477ZM251.647 3.245L250.202 5H249.417L250.882 3.245H251.647Z" fill="#DA736D"/>
<path d="M264.92 4.14V3.595H267.54V4.14H264.92ZM266.66 1.25L268.46 5H267.755L266.12 1.5H266.375L264.74 5H264.035L265.835 1.25H266.66ZM268.917 5V1.25H269.577V4.445L269.377 4.32L271.887 1.25H272.602L269.507 5H268.917ZM270.702 3.115L271.167 2.66L272.657 5H271.902L270.702 3.115ZM276.727 1.25V4.615L276.527 4.415H277.387V5.77H276.772V4.905L277.072 5H273.077V1.25H273.737V4.615L273.537 4.415H276.272L276.072 4.615V1.25H276.727ZM277.931 5V1.25H278.571V4.69L278.346 4.65L280.961 1.25H281.821V5H281.181V1.53L281.406 1.57L278.771 5H277.931ZM285.477 3.01V3.5H283.827L283.822 3.49C283.559 3.49 283.327 3.44333 283.127 3.35C282.931 3.25667 282.776 3.12667 282.662 2.96C282.552 2.79333 282.497 2.59833 282.497 2.375C282.497 2.15167 282.552 1.95667 282.662 1.79C282.776 1.62 282.931 1.48833 283.127 1.395C283.327 1.29833 283.559 1.25 283.822 1.25H285.932V5H285.272V1.45L285.567 1.745H283.897C283.667 1.745 283.486 1.80167 283.352 1.915C283.222 2.02833 283.157 2.18167 283.157 2.375C283.157 2.56833 283.222 2.72333 283.352 2.84C283.486 2.95333 283.667 3.01 283.897 3.01H285.477ZM284.647 3.245L283.202 5H282.417L283.882 3.245H284.647Z" fill="#DA736D"/>
<path d="M297.92 4.14V3.595H300.54V4.14H297.92ZM299.66 1.25L301.46 5H300.755L299.12 1.5H299.375L297.74 5H297.035L298.835 1.25H299.66ZM301.917 5V1.25H302.577V4.445L302.377 4.32L304.887 1.25H305.602L302.507 5H301.917ZM303.702 3.115L304.167 2.66L305.657 5H304.902L303.702 3.115ZM309.727 1.25V4.615L309.527 4.415H310.387V5.77H309.772V4.905L310.072 5H306.077V1.25H306.737V4.615L306.537 4.415H309.272L309.072 4.615V1.25H309.727ZM310.931 5V1.25H311.571V4.69L311.346 4.65L313.961 1.25H314.821V5H314.181V1.53L314.406 1.57L311.771 5H310.931ZM318.477 3.01V3.5H316.827L316.822 3.49C316.559 3.49 316.327 3.44333 316.127 3.35C315.931 3.25667 315.776 3.12667 315.662 2.96C315.552 2.79333 315.497 2.59833 315.497 2.375C315.497 2.15167 315.552 1.95667 315.662 1.79C315.776 1.62 315.931 1.48833 316.127 1.395C316.327 1.29833 316.559 1.25 316.822 1.25H318.932V5H318.272V1.45L318.567 1.745H316.897C316.667 1.745 316.486 1.80167 316.352 1.915C316.222 2.02833 316.157 2.18167 316.157 2.375C316.157 2.56833 316.222 2.72333 316.352 2.84C316.486 2.95333 316.667 3.01 316.897 3.01H318.477ZM317.647 3.245L316.202 5H315.417L316.882 3.245H317.647Z" fill="#DA736D"/>
<path d="M330.92 4.14V3.595H333.54V4.14H330.92ZM332.66 1.25L334.46 5H333.755L332.12 1.5H332.375L330.74 5H330.035L331.835 1.25H332.66ZM334.917 5V1.25H335.577V4.445L335.377 4.32L337.887 1.25H338.602L335.507 5H334.917ZM336.702 3.115L337.167 2.66L338.657 5H337.902L336.702 3.115ZM342.727 1.25V4.615L342.527 4.415H343.387V5.77H342.772V4.905L343.072 5H339.077V1.25H339.737V4.615L339.537 4.415H342.272L342.072 4.615V1.25H342.727ZM343.931 5V1.25H344.571V4.69L344.346 4.65L346.961 1.25H347.821V5H347.181V1.53L347.406 1.57L344.771 5H343.931ZM351.477 3.01V3.5H349.827L349.822 3.49C349.559 3.49 349.327 3.44333 349.127 3.35C348.931 3.25667 348.776 3.12667 348.662 2.96C348.552 2.79333 348.497 2.59833 348.497 2.375C348.497 2.15167 348.552 1.95667 348.662 1.79C348.776 1.62 348.931 1.48833 349.127 1.395C349.327 1.29833 349.559 1.25 349.822 1.25H351.932V5H351.272V1.45L351.567 1.745H349.897C349.667 1.745 349.486 1.80167 349.352 1.915C349.222 2.02833 349.157 2.18167 349.157 2.375C349.157 2.56833 349.222 2.72333 349.352 2.84C349.486 2.95333 349.667 3.01 349.897 3.01H351.477ZM350.647 3.245L349.202 5H348.417L349.882 3.245H350.647Z" fill="#DA736D"/>
</svg>
