<svg width="98" height="39" viewBox="0 0 98 39" fill="none" xmlns="http://www.w3.org/2000/svg">
  <g clip-path="url(#clip0_49_789)">
    <path d="M12.8829 18.6388H10.9641C7.94911 18.6388 5.02536 16.4463 5.02536 10.9638C5.02536 5.25382 7.76661 2.92382 10.5529 2.92382H12.8829V18.6388ZM15.8979 7.24792e-05H10.6904C5.57286 7.24792e-05 1.23411 3.88383 1.23411 11.4213C1.23411 15.9438 3.33536 19.2788 7.08161 20.9226L0.0916086 33.5313C-0.137141 33.9426 0.0916084 34.2626 0.456608 34.2626H3.70036C3.97411 34.2626 4.15786 34.1713 4.24911 33.9426L10.5991 21.5626H12.8829V33.9426C12.8829 34.0801 13.0204 34.2626 13.2029 34.2626H16.0354C16.3091 34.2626 16.4004 34.1251 16.4004 33.8976V0.456326C16.4004 0.137577 16.2179 7.24792e-05 15.8979 7.24792e-05Z" fill="#A5A5A5" />
    <path d="M33.0693 11.3571H30.2368C30.0081 11.3571 29.8718 11.5396 29.8718 11.6771V20.4021H24.6181V11.6771C24.6181 11.4484 24.5268 11.3571 24.2981 11.3571H21.4656C21.2381 11.3571 21.1006 11.4946 21.1006 11.6771V33.8796C21.1006 34.1071 21.1918 34.2446 21.4193 34.2446H24.2981C24.4806 34.2446 24.6181 34.1071 24.6181 33.8796V23.2809H29.8718V33.8796C29.8718 34.1071 30.0081 34.2446 30.2368 34.2446H33.0693C33.2981 34.2446 33.3893 34.0609 33.3893 33.8796V11.6771C33.3893 11.4946 33.2518 11.3571 33.0693 11.3571Z" fill="#A5A5A5" />
    <path d="M97.739 32.7825L97.374 31.23C97.3278 31.0925 97.2828 31.0462 97.1453 31.0462C96.9165 31.0462 95.684 31.5487 93.9015 31.5487C90.4303 31.5487 88.739 28.2137 88.739 22.915C88.739 18.255 90.1553 13.6412 92.5315 13.6412C93.1703 13.6412 93.9478 13.8237 95.1803 14.9662C95.3178 15.1037 95.409 15.1487 95.5465 15.1487C95.684 15.1487 95.8203 15.0575 95.9578 14.8287L97.1915 12.8187C97.2828 12.6825 97.3278 12.545 97.3278 12.4075C97.3278 12.225 97.1453 12.0887 96.8715 11.9512C94.9978 10.9912 93.719 10.8087 92.6228 10.8087C88.329 10.8087 84.994 15.925 84.994 23.92C84.994 30.8175 88.1915 34.7925 92.7603 34.7925C94.679 34.7925 96.734 33.8787 97.5565 33.285C97.739 33.1475 97.7853 32.965 97.739 32.7825Z" fill="#A5A5A5" />
    <path d="M77.8843 21.6815L83.3668 11.6765C83.458 11.5403 83.4118 11.3565 83.2293 11.3565H80.5343C79.7568 11.3565 79.483 11.6315 79.2093 12.2253L75.098 20.7678C74.8693 21.2703 74.6405 21.5903 74.4118 21.7278V11.6765C74.4118 11.494 74.3205 11.3565 74.138 11.3565H71.168C71.0318 11.3565 70.8943 11.494 70.8943 11.6765V33.924C70.8943 34.0615 70.9855 34.244 71.168 34.244H74.138C74.3205 34.244 74.4118 34.1065 74.4118 33.924V22.4578C74.5493 22.549 74.6405 22.6865 74.7318 22.869L79.9393 33.559C80.2143 34.1065 80.6255 34.244 81.2193 34.244H84.143C84.3255 34.244 84.3718 34.0615 84.2793 33.924L77.8843 21.6815Z" fill="#A5A5A5" />
    <path d="M46.774 31.3663H40.1502C42.4802 27.3925 43.394 22.915 43.714 17.4325C43.8052 16.245 43.8502 15.0125 43.8502 14.235H46.774V31.3663ZM51.7077 31.3663H51.1602C50.474 31.3663 50.2915 31.0925 50.2915 30.5438V11.6775C50.2915 11.4488 50.2002 11.3575 50.0177 11.3575H40.8815C40.6527 11.3575 40.5152 11.4938 40.5152 11.6775V13.3213C40.5152 18.8488 40.1965 25.9763 37.2727 31.3663H36.2665C35.9927 31.3663 35.9015 31.5038 35.9015 31.7313V38.4013C35.9015 38.63 36.084 38.7213 36.2215 38.7213H38.414C38.9165 38.7213 39.099 38.3563 39.099 38.0363V34.2438H48.8752V38.4013C48.8752 38.5838 49.0127 38.7213 49.1952 38.7213H51.5252C51.799 38.7213 52.074 38.4925 52.074 38.0363V31.7313C52.074 31.5038 51.9365 31.3663 51.7077 31.3663Z" fill="#A5A5A5" />
    <path d="M60.5245 20.7221C59.4745 20.7221 57.8295 20.9046 57.8295 20.9046C57.8295 20.9046 57.8295 20.2196 57.9208 19.4884C58.332 15.6059 59.2908 13.6409 60.8908 13.6409C62.352 13.6409 63.2658 15.6509 63.4945 19.1696C63.5395 19.8996 63.5395 20.7221 63.5395 20.7221H60.5245ZM61.027 10.8096C56.0933 10.8096 53.9008 17.0221 53.9008 23.7834C53.9008 30.6809 57.007 34.7921 61.5758 34.7921C63.8133 34.7921 65.7783 33.9246 66.7833 33.2846C66.9658 33.1934 67.012 33.0571 66.9658 32.8734L66.6008 31.3209C66.5545 31.1384 66.4633 31.0471 66.2345 31.0471C66.052 31.0471 64.727 31.5496 62.8545 31.5496C59.337 31.5496 57.692 28.4884 57.692 24.4684V23.3871C57.692 23.3871 59.4745 23.6009 60.5245 23.6009H67.1945V21.6821C67.1945 14.6009 64.682 10.8096 61.027 10.8096Z" fill="#A5A5A5" />
  </g>
  <defs>
    <clipPath id="clip0_49_789">
      <rect width="98" height="39" fill="white" />
    </clipPath>
  </defs>
</svg>