<svg width="1440" height="412" viewBox="0 0 1440 412" fill="none" xmlns="http://www.w3.org/2000/svg">
<path d="M-13.5 236.5C52.3333 204.833 219 111.5 328 111.5C450.102 111.5 608 3.50006 726 1.00006C844 -1.49994 1071 27.4999 1146 54.9999C1206 76.9999 1380.33 154.167 1460 201" stroke="#E6E6E6"/>
<path d="M-3 257.651C62.8333 225.984 229.5 132.651 338.5 132.651C460.602 132.651 618.5 24.6509 736.5 22.1509C854.5 19.6509 1081.5 48.6508 1156.5 76.1508C1216.5 98.1508 1390.83 175.318 1470.5 222.151" stroke="#E6E6E6"/>
<path d="M-3 282.651C62.8333 250.984 229.5 157.651 338.5 157.651C460.602 157.651 618.5 49.6509 736.5 47.1509C854.5 44.6509 1081.5 73.6508 1156.5 101.151C1216.5 123.151 1390.83 200.318 1470.5 247.151" stroke="#E6E6E6"/>
<path d="M-3 308.651C62.8333 276.984 229.5 183.651 338.5 183.651C460.602 183.651 618.5 75.6509 736.5 73.1509C854.5 70.6509 1081.5 99.6508 1156.5 127.151C1216.5 149.151 1390.83 226.318 1470.5 273.151" stroke="#E6E6E6"/>
<path d="M-3 332.651C62.8333 300.984 229.5 207.651 338.5 207.651C460.602 207.651 618.5 99.6509 736.5 97.1509C854.5 94.6509 1081.5 123.651 1156.5 151.151C1216.5 173.151 1390.83 250.318 1470.5 297.151" stroke="#E6E6E6"/>
<path d="M-3 359.651C62.8333 327.984 229.5 234.651 338.5 234.651C460.602 234.651 618.5 126.651 736.5 124.151C854.5 121.651 1081.5 150.651 1156.5 178.151C1216.5 200.151 1390.83 277.318 1470.5 324.151" stroke="#E6E6E6"/>
<path d="M0 381.651C65.8333 349.984 232.5 256.651 341.5 256.651C463.602 256.651 621.5 148.651 739.5 146.151C857.5 143.651 1084.5 172.651 1159.5 200.151C1219.5 222.151 1393.83 299.318 1473.5 346.151" stroke="#E6E6E6"/>
<path d="M4 410.651C69.8333 378.984 236.5 285.651 345.5 285.651C467.602 285.651 625.5 177.651 743.5 175.151C861.5 172.651 1088.5 201.651 1163.5 229.151C1223.5 251.151 1397.83 328.318 1477.5 375.151" stroke="#E6E6E6"/>
</svg>
