<svg width="40" height="30" viewBox="0 0 40 30" fill="none" xmlns="http://www.w3.org/2000/svg">
<path d="M4.83644 0H27.9823V7.55816H0V4.97732C0 3.65725 0.509552 2.39125 1.41656 1.45782C2.32357 0.524395 3.55374 0 4.83644 0Z" fill="#C44E47"/>
<path d="M32.1321 0H34.2645C35.545 0.00348622 36.7719 0.52942 37.6762 1.46247C38.5804 2.39552 39.0882 3.65953 39.0882 4.97732V7.55816H32.1321V0Z" fill="#C44E47"/>
<path d="M27.9823 22.4419V30H4.83644C4.20095 30 3.57169 29.8711 2.98463 29.6207C2.39757 29.3703 1.86421 29.0033 1.41505 28.5406C0.965893 28.078 0.609732 27.5288 0.366929 26.9244C0.124126 26.32 -0.000558516 25.6723 1.88066e-06 25.0183V11.109H7.17789V22.4419H27.9823Z" fill="#C44E47"/>
<path d="M39.0882 11.109V18.4916H39.0541V25.0183C39.0546 25.6723 38.9299 26.32 38.6871 26.9244C38.4443 27.5288 38.0882 28.078 37.639 28.5406C37.1899 29.0033 36.6565 29.3703 36.0694 29.6207C35.4824 29.8711 34.8531 30 34.2176 30H31.8762V18.4916H13.6478V16.0863C13.6467 14.7689 14.1535 13.5049 15.0571 12.5717C15.9607 11.6386 17.1871 11.1125 18.4672 11.109H39.0882Z" fill="#31424F"/>
</svg>
