<svg width="1086" height="908" viewBox="0 0 1086 908" fill="none" xmlns="http://www.w3.org/2000/svg">
<g opacity="0.1">
<path d="M427.344 153.446L511.871 85.4246L534.083 113.026L431.894 195.261L424.309 185.836C420.43 181.015 418.57 174.894 419.139 168.82C419.709 162.746 422.66 157.215 427.344 153.446Z" fill="#C44E47"/>
<path d="M527.025 73.229L534.813 66.9621C539.499 63.2117 545.526 61.5268 551.57 62.2768C557.614 63.0268 563.183 66.1505 567.056 70.963L574.641 80.388L549.237 100.831L527.025 73.229Z" fill="#C44E47"/>
<path d="M577.823 167.379L600.035 194.981L515.509 263.002C513.188 264.87 510.511 266.249 507.631 267.059C504.752 267.87 501.725 268.097 498.725 267.728C495.725 267.358 492.811 266.399 490.148 264.905C487.485 263.412 485.126 261.413 483.206 259.023L442.329 208.228L468.542 187.133L501.848 228.52L577.823 167.379Z" fill="#C44E47"/>
<path d="M585.076 93.3557L606.772 120.316L606.647 120.416L625.828 144.251C627.752 146.638 629.2 149.37 630.089 152.291C630.979 155.211 631.292 158.264 631.012 161.273C630.731 164.283 629.862 167.191 628.454 169.83C627.046 172.47 625.127 174.79 622.806 176.658L614.255 183.539L580.434 141.511L513.866 195.081L506.797 186.297C502.922 181.489 501.058 175.384 501.615 169.32C502.172 163.257 505.105 157.732 509.77 153.957L585.076 93.3557Z" fill="#31424F"/>
<path d="M240.672 301.223L325.199 233.201L347.411 260.803L245.222 343.038L237.638 333.613C233.758 328.792 231.898 322.671 232.468 316.597C233.037 310.523 235.988 304.992 240.672 301.223Z" fill="#C44E47"/>
<path d="M340.354 221.006L348.141 214.739C352.828 210.989 358.854 209.304 364.898 210.054C370.942 210.804 376.511 213.927 380.384 218.74L387.969 228.165L362.566 248.608L340.354 221.006Z" fill="#C44E47"/>
<path d="M391.151 315.157L413.363 342.758L328.837 410.78C326.516 412.647 323.839 414.026 320.96 414.837C318.08 415.647 315.053 415.875 312.053 415.505C309.053 415.135 306.139 414.176 303.476 412.683C300.813 411.189 298.454 409.19 296.534 406.8L255.658 356.005L281.871 334.91L315.176 376.297L391.151 315.157Z" fill="#C44E47"/>
<path d="M398.404 241.133L420.1 268.093L419.975 268.193L439.156 292.028C441.08 294.415 442.528 297.147 443.418 300.067C444.307 302.988 444.621 306.041 444.34 309.05C444.059 312.06 443.19 314.967 441.782 317.607C440.374 320.247 438.455 322.567 436.134 324.434L427.583 331.315L393.762 289.288L327.194 342.858L320.125 334.074C316.25 329.266 314.386 323.16 314.943 317.097C315.501 311.034 318.433 305.508 323.098 301.734L398.404 241.133Z" fill="#31424F"/>
<path d="M53.2764 455.693L137.803 387.672L160.015 415.274L57.8262 497.508L50.2416 488.083C46.3622 483.263 44.5025 477.142 45.0716 471.068C45.6408 464.993 48.5921 459.463 53.2764 455.693Z" fill="#C44E47"/>
<path d="M152.958 375.477L160.745 369.21C165.432 365.46 171.458 363.775 177.502 364.525C183.546 365.275 189.115 368.399 192.988 373.211L200.573 382.636L175.17 403.079L152.958 375.477Z" fill="#C44E47"/>
<path d="M203.755 469.627L225.967 497.229L141.441 565.25C139.12 567.118 136.443 568.497 133.564 569.307C130.684 570.118 127.657 570.345 124.657 569.976C121.658 569.606 118.743 568.647 116.08 567.154C113.417 565.66 111.058 563.661 109.138 561.271L68.2616 510.476L94.4746 489.381L127.78 530.768L203.755 469.627Z" fill="#C44E47"/>
<path d="M211.008 395.604L232.704 422.564L232.579 422.665L251.76 446.499C253.684 448.886 255.132 451.618 256.022 454.539C256.911 457.459 257.225 460.512 256.944 463.521C256.663 466.531 255.794 469.439 254.386 472.078C252.978 474.718 251.059 477.038 248.738 478.906L240.187 485.787L206.366 443.759L139.798 497.329L132.729 488.545C128.854 483.737 126.99 477.632 127.547 471.568C128.105 465.505 131.037 459.98 135.702 456.205L211.008 395.604Z" fill="#31424F"/>
<path d="M564.049 317.246L648.575 249.225L670.787 276.827L568.599 359.061L561.014 349.636C557.135 344.815 555.275 338.695 555.844 332.62C556.413 326.546 559.364 321.016 564.049 317.246Z" fill="#C44E47"/>
<path d="M663.73 237.029L671.518 230.762C676.204 227.012 682.23 225.327 688.274 226.077C694.319 226.827 699.888 229.951 703.761 234.763L711.345 244.188L685.942 264.631L663.73 237.029Z" fill="#C44E47"/>
<path d="M714.528 331.18L736.74 358.781L652.213 426.803C649.893 428.67 647.216 430.049 644.336 430.86C641.456 431.67 638.43 431.898 635.43 431.528C632.43 431.158 629.515 430.199 626.852 428.706C624.19 427.212 621.831 425.213 619.911 422.823L579.034 372.028L605.247 350.933L638.552 392.32L714.528 331.18Z" fill="#C44E47"/>
<path d="M721.78 257.156L743.476 284.117L743.352 284.217L762.532 308.052C764.456 310.438 765.905 313.17 766.794 316.091C767.684 319.012 767.997 322.064 767.716 325.074C767.436 328.083 766.566 330.991 765.159 333.631C763.751 336.27 761.831 338.59 759.511 340.458L750.96 347.339L717.139 305.311L650.57 358.881L643.502 350.097C639.626 345.289 637.762 339.184 638.32 333.121C638.877 327.057 641.81 321.532 646.474 317.757L721.78 257.156Z" fill="#31424F"/>
<path d="M731.662 184.002L816.189 115.981L838.401 143.583L736.212 225.818L728.628 216.393C724.748 211.572 722.888 205.451 723.458 199.377C724.027 193.302 726.978 187.772 731.662 184.002Z" fill="#C44E47"/>
<path d="M831.344 103.786L839.131 97.5187C843.818 93.7683 849.844 92.0834 855.888 92.8334C861.932 93.5835 867.501 96.7072 871.374 101.52L878.959 110.945L853.556 131.387L831.344 103.786Z" fill="#C44E47"/>
<path d="M882.141 197.936L904.353 225.538L819.827 293.559C817.506 295.427 814.829 296.805 811.95 297.616C809.07 298.427 806.043 298.654 803.044 298.284C800.044 297.915 797.129 296.956 794.466 295.462C791.803 293.969 789.444 291.97 787.524 289.58L746.648 238.784L772.861 217.69L806.166 259.076L882.141 197.936Z" fill="#C44E47"/>
<path d="M889.394 123.912L911.09 150.873L910.965 150.973L930.146 174.808C932.07 177.195 933.518 179.927 934.408 182.847C935.297 185.768 935.611 188.82 935.33 191.83C935.049 194.839 934.18 197.747 932.772 200.387C931.364 203.027 929.445 205.347 927.124 207.214L918.573 214.095L884.752 172.068L818.184 225.637L811.115 216.853C807.24 212.046 805.376 205.94 805.933 199.877C806.491 193.814 809.423 188.288 814.088 184.513L889.394 123.912Z" fill="#31424F"/>
<path d="M377.777 448.81L462.303 380.788L484.515 408.39L382.326 490.625L374.742 481.2C370.862 476.379 369.003 470.258 369.572 464.184C370.141 458.109 373.092 452.579 377.777 448.81Z" fill="#C44E47"/>
<path d="M477.458 368.593L485.245 362.326C489.932 358.576 495.958 356.891 502.002 357.641C508.047 358.391 513.616 361.515 517.488 366.327L525.073 375.752L499.67 396.195L477.458 368.593Z" fill="#C44E47"/>
<path d="M528.256 462.744L550.468 490.345L465.941 558.367C463.62 560.234 460.944 561.613 458.064 562.424C455.184 563.234 452.158 563.461 449.158 563.092C446.158 562.722 443.243 561.763 440.58 560.27C437.917 558.776 435.559 556.777 433.639 554.387L392.762 503.592L418.975 482.497L452.28 523.884L528.256 462.744Z" fill="#C44E47"/>
<path d="M535.508 388.72L557.204 415.68L557.08 415.781L576.26 439.616C578.184 442.002 579.632 444.734 580.522 447.655C581.411 450.576 581.725 453.628 581.444 456.637C581.163 459.647 580.294 462.555 578.886 465.195C577.478 467.834 575.559 470.154 573.238 472.022L564.688 478.903L530.867 436.875L464.298 490.445L457.23 481.661C453.354 476.853 451.49 470.748 452.048 464.685C452.605 458.621 455.538 453.096 460.202 449.321L535.508 388.72Z" fill="#31424F"/>
<path d="M689.862 469.03L774.388 401.009L796.6 428.611L694.412 510.845L686.827 501.42C682.948 496.6 681.088 490.479 681.657 484.404C682.226 478.33 685.178 472.8 689.862 469.03Z" fill="#C44E47"/>
<path d="M789.543 388.813L797.331 382.547C802.017 378.796 808.043 377.111 814.087 377.861C820.132 378.611 825.701 381.735 829.574 386.547L837.158 395.972L811.755 416.415L789.543 388.813Z" fill="#C44E47"/>
<path d="M840.341 482.964L862.553 510.566L778.026 578.587C775.706 580.455 773.029 581.833 770.149 582.644C767.269 583.455 764.243 583.682 761.243 583.313C758.243 582.943 755.328 581.984 752.665 580.49C750.003 578.997 747.644 576.998 745.724 574.608L704.847 523.812L731.06 502.718L764.365 544.105L840.341 482.964Z" fill="#C44E47"/>
<path d="M847.593 408.94L869.289 435.901L869.165 436.001L888.346 459.836C890.27 462.223 891.718 464.954 892.607 467.875C893.497 470.796 893.81 473.848 893.529 476.858C893.249 479.867 892.38 482.775 890.972 485.415C889.564 488.054 887.644 490.374 885.324 492.242L876.773 499.123L842.952 457.095L776.384 510.665L769.315 501.881C765.439 497.074 763.575 490.968 764.133 484.905C764.69 478.841 767.623 473.316 772.287 469.541L847.593 408.94Z" fill="#31424F"/>
<path d="M816.979 608.764L901.505 540.743L923.717 568.345L821.528 650.579L813.944 641.154C810.064 636.333 808.205 630.213 808.774 624.138C809.343 618.064 812.294 612.534 816.979 608.764Z" fill="#C44E47"/>
<path d="M916.66 528.547L924.447 522.28C929.134 518.53 935.16 516.845 941.204 517.595C947.249 518.345 952.818 521.469 956.69 526.281L964.275 535.706L938.872 556.149L916.66 528.547Z" fill="#C44E47"/>
<path d="M967.458 622.698L989.67 650.299L905.143 718.321C902.822 720.188 900.146 721.567 897.266 722.378C894.386 723.188 891.36 723.416 888.36 723.046C885.36 722.676 882.445 721.717 879.782 720.224C877.119 718.73 874.761 716.731 872.841 714.341L831.964 663.546L858.177 642.451L891.482 683.838L967.458 622.698Z" fill="#C44E47"/>
<path d="M974.71 548.674L996.406 575.635L996.282 575.735L1015.46 599.57C1017.39 601.956 1018.83 604.688 1019.72 607.609C1020.61 610.53 1020.93 613.582 1020.65 616.592C1020.37 619.601 1019.5 622.509 1018.09 625.149C1016.68 627.788 1014.76 630.108 1012.44 631.976L1003.89 638.857L970.069 596.829L903.5 650.399L896.432 641.615C892.556 636.808 890.692 630.702 891.25 624.639C891.807 618.575 894.74 613.05 899.404 609.275L974.71 548.674Z" fill="#31424F"/>
<path d="M646.954 752.923L731.48 684.902L753.692 712.504L651.504 794.738L643.919 785.313C640.04 780.493 638.18 774.372 638.749 768.298C639.318 762.223 642.27 756.693 646.954 752.923Z" fill="#C44E47"/>
<path d="M746.635 672.706L754.423 666.439C759.109 662.689 765.135 661.004 771.18 661.754C777.224 662.504 782.793 665.628 786.666 670.44L794.25 679.865L768.847 700.308L746.635 672.706Z" fill="#C44E47"/>
<path d="M797.433 766.858L819.645 794.46L735.119 862.481C732.798 864.348 730.121 865.727 727.241 866.538C724.361 867.349 721.335 867.576 718.335 867.206C715.335 866.837 712.42 865.878 709.758 864.384C707.095 862.89 704.736 860.891 702.816 858.501L661.939 807.706L688.152 786.612L721.457 827.998L797.433 766.858Z" fill="#C44E47"/>
<path d="M804.685 692.833L826.382 719.794L826.257 719.894L845.438 743.729C847.362 746.116 848.81 748.847 849.699 751.768C850.589 754.689 850.902 757.741 850.621 760.751C850.341 763.76 849.472 766.668 848.064 769.308C846.656 771.948 844.736 774.267 842.416 776.135L833.865 783.016L800.044 740.989L733.476 794.558L726.407 785.774C722.531 780.967 720.668 774.861 721.225 768.798C721.782 762.735 724.715 757.209 729.38 753.434L804.685 692.833Z" fill="#31424F"/>
</g>
</svg>
